<svg xmlns="http://www.w3.org/2000/svg" width="131" height="132" viewBox="0 0 131 132">
  <g id="Grupo_118176" data-name="Grupo 118176" transform="translate(-367 -12876.812)">
    <g id="Grupo_118173" data-name="Grupo 118173">
      <ellipse id="Elipse_6071" data-name="Elipse 6071" cx="65.5" cy="66" rx="65.5" ry="66" transform="translate(367 12876.812)" fill="#fff"/>
    </g>
    <g id="Grupo_116836" data-name="Grupo 116836" transform="translate(269.675 12698.03)">
      <path id="Trazado_173807" data-name="Trazado 173807" d="M210.831,370.093a1.8,1.8,0,0,1-1.048-1.888c.047-1.974.036-3.95.005-5.924a1.385,1.385,0,0,1,1.233-1.589c.695-.291,1.037.159,1.322.66a2.594,2.594,0,0,1,.233,1.306c.006,1.257.023,2.514-.006,3.769-.016.693.264.957.944.92.64-.035,1.285-.025,1.926,0,.606.021.859-.237.85-.843-.015-1.089-.005-2.178,0-3.267,0-.307-.01-.615.014-.921a1.564,1.564,0,0,1,1.471-1.625,1.546,1.546,0,0,1,1.493,1.6c.023.278.015.558.015.837,0,1.089.021,2.179-.007,3.267-.017.657.184.98.9.959,1.255-.035,2.513-.028,3.769,0,.631.013.9-.264.985-.864.522-3.676,1.07-7.348,1.577-11.026.13-.94.287-1.876.426-2.815a1.627,1.627,0,0,0-.349-1.322c-1.231-1.59-2.443-3.194-3.618-4.825a1.385,1.385,0,0,0-1.717-.595c-1.423.4-2.873.712-4.3,1.1a5.7,5.7,0,0,0-4.367,5.65c-.009.949,0,1.9,0,2.848a2.456,2.456,0,0,1-.231,1.223c-.286.5-.631.944-1.323.672a1.311,1.311,0,0,1-1.226-1.5c.066-1.754-.22-3.536.233-5.257A8.425,8.425,0,0,1,216.3,344.3q2.213-.615,4.461-1.1a3.507,3.507,0,0,0,1.974-1.13,3.364,3.364,0,0,1,1.4-1.16c.086-.028.162-.147.2-.241a3.027,3.027,0,0,0-.609-2.715,10.906,10.906,0,0,1-3.529-7.529c-.213-3.567-.517-7.13-.659-10.7a11.535,11.535,0,0,1,11.887-12.288,32.53,32.53,0,0,1,5.267.123,7.413,7.413,0,0,1,6.306,7.5c-.1,3.4-.365,6.8-.6,10.2a61.3,61.3,0,0,1-.537,6.756A10.059,10.059,0,0,1,238.451,338a1.879,1.879,0,0,0-.58,1.7c0,.607-.059,1.249.745,1.445a.126.126,0,0,1,.063.053c1.284,1.927,3.407,2.114,5.386,2.605a12.5,12.5,0,0,1,5.081,2.013,8.536,8.536,0,0,1,3.355,6.9c.032,5.194,0,10.388.018,15.582a1.959,1.959,0,0,1-.971,1.789Z" transform="translate(-66.625 -80.229)"/>
      <path id="Trazado_173808" data-name="Trazado 173808" d="M399.676,204.074c.44.132.883.251,1.318.4a7.7,7.7,0,0,1,5.161,7.772c-.152,2.309-.315,4.618-.442,6.929a1.4,1.4,0,0,1-1.344,1.511c-.716.2-1.049-.282-1.248-.8a1.187,1.187,0,0,0-1.042-.811,18.72,18.72,0,0,1-4.466-1.35,21.3,21.3,0,0,1-5.463-3.378c-.6-.5-.608-.506-.939.236a9.714,9.714,0,0,1-2.064,2.925q-1.482,1.479-2.963,2.96a1.38,1.38,0,0,0-.519,1.178c.245,1.937.222,3.893.445,5.833a8.04,8.04,0,0,0,2.66,5.162,8.236,8.236,0,0,0,13.691-6,9.608,9.608,0,0,1,.218-1.819,1.171,1.171,0,0,1,1.512-.97c1.014.446,1.137.751,1.1,1.871a12.636,12.636,0,0,1-1.983,6.969,11.022,11.022,0,0,1-11.584,4.516,10.863,10.863,0,0,1-8.315-9.4c-.367-3.944-.647-7.9-.784-11.86a11.53,11.53,0,0,1,9.908-11.731c.11-.017.221-.018.27-.143Z" transform="translate(-200.847)"/>
      <path id="Trazado_173809" data-name="Trazado 173809" d="M141.215,204.225a7.514,7.514,0,0,1,6.3,7.848c-.177,3.761-.462,7.518-.719,11.275-.114,1.668-.118,3.347-.388,5a10.929,10.929,0,0,1-21.658-.746c-.337-3.862-.547-7.736-.771-11.607a10.123,10.123,0,0,1,.6-3.944c.324-.924.69-1.148,1.7-1.039a1.183,1.183,0,0,1,.938,1.686,19.671,19.671,0,0,0-.492,2.457,3.992,3.992,0,0,0,.133,1.822,18.2,18.2,0,0,0,2.708-2.95,3.221,3.221,0,0,0,.5-1.408c.036-.333.1-.661.155-.991a1.93,1.93,0,0,1,1.335-1.668,2.064,2.064,0,0,1,2.227.555,22.022,22.022,0,0,0,2.884,2.537,19.046,19.046,0,0,0,6.756,3.013c.938.215,1.014.174,1.134-.758a27.71,27.71,0,0,0,.242-3.579,4.942,4.942,0,0,0-4.982-4.916c-1.422-.012-2.845-.022-4.266,0a8.725,8.725,0,0,0-4.669,1.387,4.5,4.5,0,0,1-1.166.647c-.558.158-1.11.216-1.41-.458-.5-1.067-.41-1.438.532-2.116a10.806,10.806,0,0,1,5.132-2.052c.324-.175.708.062,1.027-.15h5.362C140.614,204.276,140.948,204.057,141.215,204.225Z"/>
      <path id="Trazado_173810" data-name="Trazado 173810" d="M169.729,204.074a1.3,1.3,0,0,1-1.027.15.129.129,0,0,0,.022-.15Z" transform="translate(-34.738)" fill="#555"/>
      <path id="Trazado_173811" data-name="Trazado 173811" d="M198.149,204.225a.92.92,0,0,1-.862-.151h.838A.129.129,0,0,0,198.149,204.225Z" transform="translate(-56.935)" fill="#414141"/>
      <path id="Trazado_173812" data-name="Trazado 173812" d="M215.382,489.569c.981-.244,1.273-.581,1.287-1.547.015-1.116-.012-2.232.013-3.348a5.951,5.951,0,0,1,4.208-5.639c1.787-.528,3.613-.921,5.42-1.384a.657.657,0,0,1,.775.3c1.481,1.917,2.8,3.957,4.429,5.762.2.225.1.481.071.715-.7,4.91-1.426,9.817-2.106,14.73-.072.523-.253.624-.725.616-1.59-.026-3.181-.028-4.77,0-.487.009-.6-.153-.595-.614.027-1.506.016-3.013.008-4.52,0-.971-.483-1.557-1.249-1.563s-1.256.579-1.26,1.545c-.007,1.479-.034,2.958.014,4.436.02.612-.186.744-.752.718-.974-.046-1.953-.035-2.929,0-.45.015-.563-.141-.556-.57.023-1.562.015-3.125.006-4.687-.006-1.038-.265-1.356-1.287-1.641Q215.382,491.22,215.382,489.569Z" transform="translate(-70.985 -212.409)" fill="#dce736"/>
      <path id="Trazado_173813" data-name="Trazado 173813" d="M136.332,217.112a1.487,1.487,0,0,0,1.982-.061,8.946,8.946,0,0,1,5.565-1.745c1.368.012,2.736-.014,4.1.007a5.079,5.079,0,0,1,5.061,5.237c-.031,1.338-.2,2.672-.251,4.01-.021.574-.2.7-.744.592a19.023,19.023,0,0,1-9.544-4.9c-.384-.365-.735-.772-1.149-1.1-1.044-.827-2.764-.324-2.821.945-.1,2.272-1.374,3.753-2.907,5.154a12.5,12.5,0,0,0-.915,1.065,9.153,9.153,0,0,1,.29-4.779,1.346,1.346,0,0,0-.695-1.807A13.343,13.343,0,0,1,136.332,217.112Z" transform="translate(-8.031 -8.72)" fill="#fc6930"/>
      <path id="Trazado_173814" data-name="Trazado 173814" d="M424.973,270.62a1.417,1.417,0,0,0-1.405,1.543,16.372,16.372,0,0,1-.282,2.825,8.062,8.062,0,0,1-5.762,6.354,7.946,7.946,0,0,1-8.138-1.832c.777-.452,1.743-.333,2.5-.832a2.318,2.318,0,0,1,.773-.371,2.783,2.783,0,0,0,1.368-.836,3.332,3.332,0,0,1,3.228.533c.927.652,1.469.669,1.876.082.387-.556.135-1.2-.708-1.8a7.587,7.587,0,0,0-1.632-.84c-.25-.1-.653-.127-.5-.593a6.42,6.42,0,0,0,1.362-3.457c.265-1.763.283-3.553.386-5.333a2.906,2.906,0,0,1,.4-1.755,23.137,23.137,0,0,0,5.131,1.444c.264.037.4.112.4.4,0,.774.488,1.136,1.178,1.3Z" transform="translate(-221.629 -46.772)" fill="#feaf9d"/>
      <path id="Trazado_173815" data-name="Trazado 173815" d="M185.472,378.278a1.144,1.144,0,0,1-1.36.7,1.2,1.2,0,0,1-1.007-1.08c-.25-1.229-.512-2.455-.772-3.681a1.259,1.259,0,0,1,.59-1.513,1.242,1.242,0,0,1,1.594.278,36,36,0,0,0,7.418,5.684c.507.29,1.029.555,1.539.842.826.465,1.092,1.1.758,1.774-.358.725-1.065.9-1.931.456a38.245,38.245,0,0,1-6.178-3.974c-.149-.118-.32-.208-.48-.312C185.415,377.693,185.676,378.033,185.472,378.278Z" transform="translate(-45.284 -130.804)"/>
      <path id="Trazado_173816" data-name="Trazado 173816" d="M383.138,377.427a41.26,41.26,0,0,1-4.47,3.1c-.772.444-1.545.888-2.341,1.287A1.245,1.245,0,1,1,375.2,379.6a36.82,36.82,0,0,0,9.087-6.628,1.257,1.257,0,0,1,1.527-.3,1.21,1.21,0,0,1,.643,1.481c-.221,1.12-.455,2.238-.678,3.358-.213,1.072-.612,1.518-1.359,1.5S383.285,378.541,383.138,377.427Z" transform="translate(-194.482 -130.81)"/>
      <path id="Trazado_173817" data-name="Trazado 173817" d="M369.22,362.107a28.647,28.647,0,0,0,4.4-3.58,1.5,1.5,0,0,1,1.308-.6,1.263,1.263,0,0,1,.622,2.227A33.561,33.561,0,0,1,371,363.959a36.246,36.246,0,0,1-3.858,2.325,1.286,1.286,0,0,1-1.618-.115,1.272,1.272,0,0,1-.207-1.609c.448-.956.9-1.911,1.32-2.88.3-.693.691-1.254,1.542-1.108C368.952,360.7,369.241,361.277,369.22,362.107Z" transform="translate(-187.264 -119.453)"/>
      <path id="Trazado_173818" data-name="Trazado 173818" d="M203.738,362.063c.043-.823.319-1.408,1.122-1.523s1.2.411,1.487,1.075c.435.994.9,1.974,1.355,2.96a1.253,1.253,0,0,1-.2,1.543,1.271,1.271,0,0,1-1.615.148,33.808,33.808,0,0,1-8.359-6.073,1.285,1.285,0,0,1-.175-1.919c.547-.562,1.227-.544,1.914.114A33.072,33.072,0,0,0,203.738,362.063Z" transform="translate(-56.709 -119.426)"/>
      <path id="Trazado_173819" data-name="Trazado 173819" d="M196.547,395.2c.017-.288.033-.576.053-.864,0-.008.044-.024.059-.017s.039.036.057.055C196.706,394.656,196.8,394.961,196.547,395.2Z" transform="translate(-56.36 -147.722)" fill="#4b4b4b"/>
      <path id="Trazado_173820" data-name="Trazado 173820" d="M337.7,491.936c0,2.372-.016,4.744.012,7.116.006.553-.088.8-.716.766-.974-.055-1.954-.038-2.929,0-.472.016-.625-.125-.618-.606.025-1.59.038-3.182-.006-4.772a1.233,1.233,0,0,0-1.934-1.09,1.448,1.448,0,0,0-.562,1.324c0,1.507-.016,3.014.008,4.521.008.457-.1.632-.6.623-1.618-.03-3.237-.025-4.855,0-.422.006-.585-.131-.643-.545q-1.05-7.494-2.126-14.985a.556.556,0,0,1,.1-.538c1.6-1.755,2.89-3.75,4.33-5.629a.877.877,0,0,1,1.051-.394c1.588.418,3.188.792,4.773,1.222a6.075,6.075,0,0,1,4.71,6.126C337.712,487.359,337.7,489.648,337.7,491.936Z" transform="translate(-154.323 -212.454)" fill="#dce736"/>
      <path id="Trazado_173821" data-name="Trazado 173821" d="M269.242,368.505a7.7,7.7,0,0,1-2.754-5.339c-.2-1.993-.253-4-.4-6a1.168,1.168,0,0,1,.418-1.016c.881-.852,1.722-1.745,2.609-2.59a8.652,8.652,0,0,0,2.869-4.45,22.823,22.823,0,0,0,6.2,4.147,3.037,3.037,0,0,1,.192,2.032c-.133,1.383-.182,2.77-.288,4.153a9.866,9.866,0,0,1-1.964,5.407,2.058,2.058,0,0,1-.538.517,12.334,12.334,0,0,1-2.8.163c-.928.087-1.387.69-1.086,1.432.1.255.325.451.378.735a2.684,2.684,0,0,1-2.441.932C269.5,368.6,269.377,368.536,269.242,368.505Z" transform="translate(-110.354 -112.622)" fill="#fecdbe"/>
      <path id="Trazado_173822" data-name="Trazado 173822" d="M264.8,329.438c-.845-6.12,3.118-9.935,6.863-10.7a22.079,22.079,0,0,1,7.413-.121,4.8,4.8,0,0,1,4.072,4.982c-.019,1.394-.162,2.787-.2,4.182-.016.589-.294.619-.748.529a18.811,18.811,0,0,1-8.479-3.948c-.687-.568-1.333-1.19-1.966-1.819a1.829,1.829,0,0,0-2.064-.5,1.775,1.775,0,0,0-1.146,1.778,4.548,4.548,0,0,1-1.362,3.147C266.429,327.742,265.681,328.528,264.8,329.438Z" transform="translate(-109.272 -88.746)" fill="#fc6930"/>
      <path id="Trazado_173823" data-name="Trazado 173823" d="M286.484,379.66a9.875,9.875,0,0,0,2.365-6.346c.062-1.884.338-3.759.316-5.65a23.912,23.912,0,0,0,5.126,1.465c.28.041.488.089.46.439-.253,3.084-.074,6.225-.773,9.246a7.8,7.8,0,0,1-5.841,5.982,7.917,7.917,0,0,1-7.914-1.884,4.352,4.352,0,0,0,2.747-.834,6.215,6.215,0,0,1,2.049-.1c.968-.041,1.94.037,2.907-.035.732-.055,1.149-.49,1.127-1.081s-.377-.852-1.154-.922C287.42,379.893,286.889,380.086,286.484,379.66Z" transform="translate(-121.334 -127.028)" fill="#feaf9d"/>
      <path id="Trazado_173824" data-name="Trazado 173824" d="M293.065,524.06c-1.005,0-2.011-.018-3.016.008-.425.011-.514-.129-.456-.531q1.015-7,2-14c.056-.4.195-.588.635-.563.723.041,1.6-.223,2.134.1.565.344.357,1.319.461,2.018.6,4.055,1.168,8.116,1.766,12.172.086.584.02.858-.68.808C294.968,524.009,294.015,524.06,293.065,524.06Z" transform="translate(-128.599 -236.71)" fill="#3d46c2"/>
      <path id="Trazado_173825" data-name="Trazado 173825" d="M285.9,453.47a11.446,11.446,0,0,0,5.27.75,9.78,9.78,0,0,0,2.6-.591c.434-.167.5-.042.569.353.2,1.261.222,1.264-.932,1.832-1.1.54-2.2,1.48-3.3,1.483s-2.2-.938-3.306-1.467a3.126,3.126,0,0,0-.445-.228c-.629-.183-.836-.54-.592-1.178A4.548,4.548,0,0,0,285.9,453.47Z" transform="translate(-125.553 -193.657)" fill="#fea68e"/>
      <path id="Trazado_173826" data-name="Trazado 173826" d="M276.092,469.79c.127.053.232.091.331.14,1.24.617,2.472,1.253,3.723,1.845.431.2.427.388.169.734-.349.466-.665.958-.97,1.454-.2.328-.354.36-.594.033-.9-1.231-1.822-2.451-2.735-3.674-.1-.13-.239-.257-.114-.435C275.942,469.832,276.038,469.816,276.092,469.79Z" transform="translate(-117.942 -206.329)" fill="#75b62f"/>
      <path id="Trazado_173827" data-name="Trazado 173827" d="M315.606,474.365c-.474-.706-.9-1.35-1.336-1.981-.2-.288-.113-.419.179-.562,1.3-.635,2.581-1.293,3.873-1.935.136-.068.292-.2.445-.016s-.014.311-.1.429C317.668,471.633,316.664,472.962,315.606,474.365Z" transform="translate(-147.689 -206.321)" fill="#75b62f"/>
      <path id="Trazado_173828" data-name="Trazado 173828" d="M301.063,487.809c.415.62.773,1.143,1.118,1.674.24.37.24.623-.314.605-.529-.017-1.06-.019-1.59,0-.456.017-.574-.19-.358-.549C300.259,488.974,300.646,488.435,301.063,487.809Z" transform="translate(-136.547 -220.321)" fill="#3d46c2"/>
      <path id="Trazado_173829" data-name="Trazado 173829" d="M407.481,249.846c-.317,2.605-.172,5.252-.683,7.837a13.9,13.9,0,0,1-.724,2.12,1.007,1.007,0,0,1-.816.747c-.4.286-.86.165-1.295.178a5.376,5.376,0,0,0-3.453,1.264c-1.015.867-.9,1.629.333,2.177a.723.723,0,0,1,.274.181,5.279,5.279,0,0,1-2.694.7,8.263,8.263,0,0,1-2.805-6.019c-.119-1.723-.2-3.448-.343-5.169a1.31,1.31,0,0,1,.455-1.164c.968-.922,1.879-1.9,2.848-2.825a8.332,8.332,0,0,0,2.617-4.187A22.942,22.942,0,0,0,407.481,249.846Z" transform="translate(-210.667 -32.31)" fill="#fecdbe"/>
      <path id="Trazado_173830" data-name="Trazado 173830" d="M394.007,225.947a9.129,9.129,0,0,1,7.17-10.722,27.974,27.974,0,0,1,6.682-.112,5.031,5.031,0,0,1,4.463,5.443c-.082,1.253-.215,2.5-.25,3.757-.016.6-.232.679-.751.575a18.943,18.943,0,0,1-9.661-5.013c-.281-.272-.556-.549-.836-.822a1.781,1.781,0,0,0-1.926-.458,1.63,1.63,0,0,0-1.184,1.572,5.529,5.529,0,0,1-2.1,4.114C395.065,224.785,394.577,225.353,394.007,225.947Z" transform="translate(-209.519 -8.46)" fill="#fc6930"/>
      <path id="Trazado_173831" data-name="Trazado 173831" d="M139.845,265.065a8.387,8.387,0,0,1-2.814-6.2c-.1-1.7-.2-3.4-.334-5.095a1.089,1.089,0,0,1,.364-.952c1.137-1.112,2.246-2.254,3.382-3.367a7.57,7.57,0,0,0,2.171-3.738,23.437,23.437,0,0,0,6.276,4.149.887.887,0,0,1,.212.7c-.249,2.205-.174,4.437-.527,6.632a8.935,8.935,0,0,1-2.037,4.493c-1,.77-1.945.272-2.881-.158-.3-.139-.542-.388-.831-.554a.953.953,0,0,0-1.342.2.964.964,0,0,0,.066,1.3,3.785,3.785,0,0,0,1.024.843c.273.179.613.289.713.658a.373.373,0,0,1-.055.24A4.085,4.085,0,0,1,139.845,265.065Z" transform="translate(-9.882 -32.332)" fill="#fecdbe"/>
      <path id="Trazado_173832" data-name="Trazado 173832" d="M150.8,279.478a6.985,6.985,0,0,0,2.841-.677c.218-.086.482-.159.516-.467.424-.225.815.032,1.2.112A5.479,5.479,0,0,0,160.1,277.2c.658-.53.8-1.1.458-1.575-.382-.52-.989-.534-1.7-.087-.464.289-.835.871-1.524.564.409-.784.97-1.475,1.33-2.295a11.368,11.368,0,0,0,.824-3.55c.187-1.988.246-3.987.36-5.982a21.729,21.729,0,0,0,5.048,1.429c.576.076.493.394.47.75-.139,2.116-.3,4.23-.417,6.347a11.106,11.106,0,0,1-.743,3.834C161.931,281.923,154.809,283.439,150.8,279.478Z" transform="translate(-20.836 -46.745)" fill="#feaf9d"/>
      <path id="Trazado_173833" data-name="Trazado 173833" d="M416.025,315.78a1.318,1.318,0,0,1-1.475-.828,1.424,1.424,0,0,1,.634-1.653,6.2,6.2,0,0,1,4.981-1.319,6.963,6.963,0,0,1,2.708,1.395c.715.649.839,1.379.319,1.968s-1.182.577-1.915-.027a3.216,3.216,0,0,0-3.245-.713c-.5.229-.91.6-1.408.834Z" transform="translate(-225.575 -83.74)"/>
      <path id="Trazado_173834" data-name="Trazado 173834" d="M424.122,324.769a2.151,2.151,0,0,1,1.408-.834A1.937,1.937,0,0,1,424.122,324.769Z" transform="translate(-233.073 -93.072)" fill="#e9baac"/>
      <path id="Trazado_173835" data-name="Trazado 173835" d="M293.631,421.337c.581.011,1.165,0,1.743.04a1.148,1.148,0,0,1,1.162,1.174,1.1,1.1,0,0,1-1.035,1.28,31.206,31.206,0,0,1-5.386-.076,1.259,1.259,0,0,1-.6-1.562,1.328,1.328,0,0,1,1.465-.835C291.861,421.378,292.746,421.346,293.631,421.337Z" transform="translate(-128.48 -168.705)"/>
      <path id="Trazado_173836" data-name="Trazado 173836" d="M300.262,387.987a5.188,5.188,0,0,1-.08,1.253,2.735,2.735,0,0,1-2.906,2.1,1.157,1.157,0,0,1-1.212-1.125,1.1,1.1,0,0,1,.987-1.315c.637-.075.769-.352.717-.911a9.089,9.089,0,0,1,0-1.333,1.206,1.206,0,0,1,1.2-1.23,1.225,1.225,0,0,1,1.288,1.153C300.3,386.966,300.262,387.359,300.262,387.987Z" transform="translate(-133.629 -140.823)"/>
      <path id="Trazado_173837" data-name="Trazado 173837" d="M429.459,284.274c0,.333.016.668,0,1a2.722,2.722,0,0,1-3.065,2.569,1.17,1.17,0,0,1-1.125-1.136,1.071,1.071,0,0,1,.934-1.275c.754-.072.81-.45.761-1.036a7.066,7.066,0,0,1,.006-1.249,1.229,1.229,0,0,1,1.319-1.209,1.191,1.191,0,0,1,1.173,1.252c.02.36,0,.722,0,1.084Z" transform="translate(-233.956 -60.461)" fill="#010000"/>
      <path id="Trazado_173838" data-name="Trazado 173838" d="M161.3,313.078a2.76,2.76,0,0,0,1.445-.759,1.28,1.28,0,0,1,1.915.029,1.264,1.264,0,0,1-.309,1.9,5.876,5.876,0,0,1-6.225,1.066,6.9,6.9,0,0,1-1.778-1.21,1.262,1.262,0,0,1-.117-1.788,1.23,1.23,0,0,1,1.784-.07A3.223,3.223,0,0,0,161.3,313.078Z" transform="translate(-24.808 -83.723)"/>
      <path id="Trazado_173839" data-name="Trazado 173839" d="M170.892,284.32a3.557,3.557,0,0,1-.508,2.4A2.711,2.711,0,0,1,168,287.854a1.252,1.252,0,0,1-1.315-1.139,1.145,1.145,0,0,1,1.025-1.311c.615-.068.726-.327.683-.853a8.581,8.581,0,0,1,0-1.339,1.224,1.224,0,0,1,1.265-1.273,1.194,1.194,0,0,1,1.23,1.293C170.908,283.594,170.892,283.958,170.892,284.32Z" transform="translate(-33.168 -60.462)" fill="#010100"/>
    </g>
  </g>
</svg>
