<svg xmlns="http://www.w3.org/2000/svg" width="154.107" height="154.107" viewBox="0 0 154.107 154.107">
  <g id="Grupo_118214" data-name="Grupo 118214" transform="translate(-961.559 -2964.493)">
    <path id="Trazado_174566" data-name="Trazado 174566" d="M75.2,0A75.053,75.053,0,1,1,0,75.2,74.7,74.7,0,0,1,75.2,0Z" transform="translate(963.559 2966.493)" fill="#f6f6f6" stroke="#75b62f" stroke-width="4"/>
    <g id="Grupo_118141" data-name="Grupo 118141" transform="translate(871.565 2779.563)">
      <path id="Trazado_175109" data-name="Trazado 175109" d="M251.338,229.112a1.908,1.908,0,0,1,2.36-.675,32.958,32.958,0,0,1,6.759,2.78,1.406,1.406,0,0,0,1.579-.013c16.517-8.834,36.491-2.593,44.448,13.985a32.012,32.012,0,0,1,2.947,16.893c-.185,2.165-.335,4.333-.534,6.5a2.384,2.384,0,0,0,.448,1.638A27.319,27.319,0,0,1,314,281.363c.07.449-.106.964.274,1.354v3.106a3.3,3.3,0,0,1-3.583,1.969c-.919-.064-2.056-.284-2.715.147-.635.416-.436,1.65-.591,2.525q-.809,4.575-1.592,9.154a6.3,6.3,0,0,1-6.444,5.507c-4.274.039-8.547.061-12.821.09-2.082.014-2.894.815-2.9,2.867,0,3.482,0,6.963,0,10.445,0,1.169-.531,1.834-1.457,1.887s-1.478-.486-1.68-1.686a1.887,1.887,0,0,1-.249-1.291c-.006-3.208-.018-6.416,0-9.624a5.733,5.733,0,0,1,5.933-5.935c4.17-.1,8.338-.241,12.51-.2,2.547.025,3.461-.753,3.882-3.3.551-3.335,1.151-6.661,1.7-10,.107-.647.2-1.3.331-1.938a2.271,2.271,0,0,1,2.388-2.124c.929-.073,1.862-.007,2.793-.031,1.013-.026,1.085-.149.986-1.186a21.5,21.5,0,0,0-3.86-10.356,8.063,8.063,0,0,1-1.31-5.667c.4-4.486.985-8.989.113-13.5a27.824,27.824,0,0,0-7.27-14.152,27.455,27.455,0,0,0-17.812-8.72,29.072,29.072,0,0,0-14.843,2.461c-.893.4-.894.511-.1,1.155a33.236,33.236,0,0,1,7.937,9.185c.546.94.875,1.892.078,2.872-1.326.8-2.227.628-3.039-.686a39.379,39.379,0,0,0-3.964-5.415,35.356,35.356,0,0,0-4.806-4.221c-.61-.48-1.1-.156-1.577.207A30.314,30.314,0,0,0,248.2,256.136a31,31,0,0,0,1.193,13.983c.326,1.054.64,2.111.964,3.165.471,1.53.031,2.292-1.542,2.787a1.838,1.838,0,0,1-1.848-1.382c-1.511-4.7-2.857-9.43-2.76-14.456a34.2,34.2,0,0,1,12.717-26c.727-.59.706-.67-.154-1.073-1.378-.646-2.853-1.034-4.268-1.58C251.177,231.07,250.831,230.276,251.338,229.112Z" transform="translate(-94.221 -9.664)"/>
      <path id="Trazado_175110" data-name="Trazado 175110" d="M114.073,282.51c.332-1.42.633-2.848,1-4.258a24.721,24.721,0,0,1,3.657-7.583,4.177,4.177,0,0,0,.653-2.906,68.742,68.742,0,0,1-.554-10.42c.876-12.32,6.827-21.356,17.816-26.979a29.982,29.982,0,0,1,14.588-3.16,1.716,1.716,0,0,1,1.851,1.3,1.587,1.587,0,0,1-1.333,2.034,6.084,6.084,0,0,1-1.443.081,27.212,27.212,0,0,0-16.106,5.087,27.806,27.806,0,0,0-11.755,19.1,42.107,42.107,0,0,0,.08,9.7c.109,1.27.132,2.546.313,3.811a5.792,5.792,0,0,1-1.186,4.074,24.856,24.856,0,0,0-3.177,6.365,27.161,27.161,0,0,0-.934,4.552c-.085.671.147.977.822.978q1.087,0,2.174,0c2.347.01,2.941.492,3.315,2.766.61,3.711,1.3,7.409,1.891,11.122a7.028,7.028,0,0,0,.393,1.605,2.753,2.753,0,0,0,2.689,1.9c1.449.005,2.9.045,4.347-.006,3.211-.114,6.407.221,9.615.246a5.514,5.514,0,0,1,5.281,5.275c.13,3.55.039,7.106.032,10.66a1.266,1.266,0,0,1-.25.876c-.208,1.206-.741,1.741-1.68,1.689-.957-.053-1.458-.726-1.46-1.987q-.006-5.171,0-10.342c0-2.051-.817-2.855-2.895-2.87q-6.256-.043-12.512-.085c-3.79-.021-6.136-2-6.776-5.716-.619-3.595-1.256-7.187-1.842-10.787-.113-.695-.389-.923-1.071-.864s-1.382-.034-2.067.022a3.216,3.216,0,0,1-3.481-1.963Z" transform="translate(-0.03 -9.664)"/>
      <path id="Trazado_175111" data-name="Trazado 175111" d="M326.335,254.445a1.891,1.891,0,0,0,.04-2.378,34.107,34.107,0,0,0-8.45-9.684c-.265-.207-.6-.35-.75-.735a29.387,29.387,0,0,1,11.56-3.151,28.466,28.466,0,0,1,27.636,15.842,28.842,28.842,0,0,1,2.778,15.668c-.188,2.2-.332,4.4-.541,6.6a4.875,4.875,0,0,0,.871,3.317,24.976,24.976,0,0,1,4.217,9.782c.532,3.085.586,3.075-2.454,3.076-2.8,0-3.248-.314-3.754,3.107-.56,3.781-1.282,7.538-1.955,11.3a3.2,3.2,0,0,1-3.578,2.962q-6.572.055-13.144.089a5.3,5.3,0,0,0-4.367,2.175,5.358,5.358,0,0,0-1.1,3.371c0,3.691-.018,7.382-.029,11.073a7.06,7.06,0,0,1-2.8.436c-2.428-.033-4.856-.014-7.284-.016a1.5,1.5,0,0,1-.333-1.255q-.013-12.991,0-25.983a7.233,7.233,0,0,1,.362-2.135c.672-2.176,1.288-4.369,1.978-6.539a2.841,2.841,0,0,0-.113-2.389,7.922,7.922,0,0,1,.886-3.729,2.979,2.979,0,0,0,1.776-2.209c.706-2.577,1.561-5.111,2.173-7.716a3.572,3.572,0,0,0-.54-3.384,5.516,5.516,0,0,1,.273-2.952,1.01,1.01,0,0,1,.925-.35c1.518-.024,3.036-.01,4.555-.008.768,0,1.151.347,1.146,1.127,0,.448.012.9.006,1.346a2.382,2.382,0,0,0,1.323,2.385,2.348,2.348,0,0,0,2.6-.457c.908-.685,1.773-1.429,2.632-2.175,2.006-1.742,4.071-3.413,6.109-5.116a5.4,5.4,0,0,0,.951-.946,2.149,2.149,0,0,0-.175-2.993,38.351,38.351,0,0,0-3.262-2.867c-2.063-1.727-4.122-3.459-6.2-5.163a2.3,2.3,0,0,0-2.576-.542,2.438,2.438,0,0,0-1.409,2.44c.043,2.663.151,2.539-2.529,2.535-1.587,0-3.175,0-4.762,0a2.531,2.531,0,0,1-1.218-.162A10.245,10.245,0,0,1,326.335,254.445Z" transform="translate(-147.042 -17.796)" fill="#767bcb"/>
      <path id="Trazado_175112" data-name="Trazado 175112" d="M159.365,238.872a26.869,26.869,0,0,1,12.448-4.891,30.485,30.485,0,0,1,4.542-.229c1.36.009,1.827-.436,1.965-1.816l4.058.609c-.171,1.52.062,1.869,1.52,2.317a28.83,28.83,0,0,1,5.265,2.086c-.049.291-.3.38-.48.527-9.021,7.288-13.5,16.691-13.12,28.321.139,4.283,1.476,8.322,2.734,12.368a1.746,1.746,0,0,0,1.583,1.145,1.97,1.97,0,0,1,.668,1.35,1.452,1.452,0,0,0,1.684,1.265c1.749-.055,3.5-.026,5.253-.008.466,0,.979-.093,1.33.362-.184.535-.662.415-1.037.417q-5.482.033-10.965,0c-1.122-.007-1.307-.223-1.349-1.345-.014-.379-.008-.759-.007-1.138a2.417,2.417,0,0,0-4.164-1.929c-2.191,1.84-4.4,3.661-6.574,5.518-.813.694-1.672,1.334-2.453,2.064-1.347,1.257-1.41,2.638-.038,3.823,3.078,2.658,6.186,5.285,9.354,7.835a2.292,2.292,0,0,0,3.816-1.561,13.564,13.564,0,0,0,.07-1.962.972.972,0,0,1,1.085-1.085q5.741-.035,11.482.006c.3,0,.635,0,.793.359-.179.382-.543.37-.878.4s-.684.013-1.027.018c-.718.012-1.575-.254-2.118.08-.59.363.125,1.211-.061,1.853a3.953,3.953,0,0,1-.184.795,3.2,3.2,0,0,0-1.048,2.767c.029,7.2.02,14.406.008,21.609,0,.6.153,1.255-.345,1.768l-1.857-.024a2.634,2.634,0,0,1-1.515-2.706c-.016-3.07,0-6.14-.008-9.21a8.569,8.569,0,0,0-6.14-8.406,12.134,12.134,0,0,0-3.577-.461c-2.415-.017-4.835-.106-7.243.022a5.293,5.293,0,0,1-5.4-4.553c-.515-3.165-1.078-6.324-1.632-9.483-.405-2.314-1.589-3.409-3.95-3.365-3.037.057-3.061-1.038-2.846-3.346a23.585,23.585,0,0,1,4.162-11.551,6.622,6.622,0,0,0,1.056-4.684c-.393-4.557-.953-9.126-.1-13.7a31.181,31.181,0,0,1,4-10.584C158.483,239.928,158.966,239.433,159.365,238.872Z" transform="translate(-25.262 -13.097)" fill="#f85316"/>
      <path id="Trazado_175113" data-name="Trazado 175113" d="M262.317,314.539a8.078,8.078,0,0,0-.143-2.257c-.2-.547-.015-.694.552-.707a20.239,20.239,0,0,0,3.9-.108c.017-.03.027-.077.052-.086,2.031-.784,2.386-2.4,2.223-4.331a29.169,29.169,0,0,1-.01-3.185,2.754,2.754,0,0,0-1.881-2.968.614.614,0,0,1-.383-.318,61.411,61.411,0,0,0-6.175-.116c-2.088-.067-1.646.4-2.353-1.743-.129-.39-.212-.795-.315-1.193,1.459-.637,1.681-1.1,1.22-2.635a49.148,49.148,0,0,1-2.311-9.717,29.924,29.924,0,0,1,6.9-22.284,30.431,30.431,0,0,1,5.974-5.536.893.893,0,0,1,1.245,0,31.086,31.086,0,0,1,9.014,9.821c.742,1.269,1.337,1.418,2.636.782a17.228,17.228,0,0,1,1.457,3.45c-.338.4-.811.326-1.249.336-1.035.022-2.071-.017-3.106.016a2.359,2.359,0,0,0-2.618,2.637c-.017,1.656-.021,3.313,0,4.969s.638,2.4,2.3,2.635a47.806,47.806,0,0,0,5.169.11c.508.016,1.045-.1,1.488.279q-.089,1.561-.179,3.122c-1.732.252-1.972,1.565-2.233,2.972a51.978,51.978,0,0,1-2,7.044c-.45,1.337-.518,2.455.784,3.318l-.955,3.438a.664.664,0,0,1-.481.153,1.651,1.651,0,0,0-1.769,1.41q-1.179,3.914-2.353,7.829a7.058,7.058,0,0,0-.181,2.054q0,12.677-.006,25.355a2.505,2.505,0,0,1-.273,1.7H264.167a2.492,2.492,0,0,1-.283-1.692c-.009-7.06-.031-14.12.015-21.179C263.907,316.477,263.751,315.241,262.317,314.539Z" transform="translate(-103.163 -31.315)" fill="#75b62f"/>
      <path id="Trazado_175114" data-name="Trazado 175114" d="M142.321,257.051a16.073,16.073,0,0,1-1.748,3.119,30.359,30.359,0,0,0-3.419,10.821,56.807,56.807,0,0,0,.436,12.625,6.084,6.084,0,0,1-1.29,4.32,23.034,23.034,0,0,0-3.834,9.588,14.16,14.16,0,0,0-.278,3.176c.063,1.109.434,1.508,1.575,1.561a9.6,9.6,0,0,1,2.665.185,3.7,3.7,0,0,1,2.6,3.17c.58,3.373,1.092,6.757,1.719,10.121a4.709,4.709,0,0,0,4.852,3.914c2.587,0,5.175-.029,7.762.01a9.94,9.94,0,0,1,6.347,2.033,8.536,8.536,0,0,1,3.323,6.589c.1,3,.081,6,0,9a4.185,4.185,0,0,0,1.252,3.447c-2.258.012-4.516.014-6.774.043a5.823,5.823,0,0,1-1.457-.437q-.017-5.434-.035-10.867a5.4,5.4,0,0,0-5.582-5.736c-4.278-.068-8.556-.072-12.834-.1-2.373-.016-3.4-.832-3.819-3.179-.749-4.171-1.451-8.349-2.18-12.524-.217-1.241-.687-1.646-1.95-1.668a27.7,27.7,0,0,0-3.207.018c-1.03.1-1.113-.354-1.031-1.184.336-3.414,1.114-6.767,3.174-9.5,2.163-2.864,2.3-5.861,1.9-9.172a35.248,35.248,0,0,1,.051-11.233A27.935,27.935,0,0,1,142.321,257.051Z" transform="translate(-8.218 -31.276)" fill="#f85316"/>
      <path id="Trazado_175115" data-name="Trazado 175115" d="M327.855,458.72q-.007-14.059-.006-28.118a3.983,3.983,0,0,1,.175-1.112q1.187-4,2.407-7.994c.432-1.409,1.054-1.713,2.487-1.272a1.92,1.92,0,0,1,.472,2.258c-.29.809-.478,1.655-.78,2.458a30.27,30.27,0,0,0-1.7,11.441c.147,7.449.039,14.9.038,22.354C329.969,460.269,328.838,460.264,327.855,458.72Z" transform="translate(-154.767 -149.25)"/>
      <path id="Trazado_175116" data-name="Trazado 175116" d="M274.117,465.07c1.406.176,1.861.63,1.861,1.955q0,12.146-.011,24.292c-.98,1.54-2.124,1.544-3.09.01,0-8.051.01-16.1-.02-24.154A1.944,1.944,0,0,1,274.117,465.07Z" transform="translate(-114.963 -181.846)"/>
      <path id="Trazado_175117" data-name="Trazado 175117" d="M338.32,306.345c-2.03-.021-4.061-.046-6.091-.063-2.34-.019-3.233-.913-3.239-3.265,0-1.619-.023-3.239.008-4.858a2.587,2.587,0,0,1,2.793-2.759c1.515-.025,3.03-.026,4.546-.038,2.516.012,5.032.007,7.547.046.56.009.72-.177.682-.709-.042-.583,0-1.172-.011-1.757a2.479,2.479,0,0,1,1.5-2.494,2.533,2.533,0,0,1,2.877.476l3.248,2.722c1.954,1.638,3.916,3.268,5.861,4.917,1.744,1.478,1.721,3.1-.047,4.587-2.93,2.458-5.871,4.9-8.79,7.376a2.662,2.662,0,0,1-4.655-2.17c.038-2.075.006-2.083-2.1-2.073C341.073,306.291,339.7,306.324,338.32,306.345Z" transform="translate(-155.588 -55.264)"/>
      <path id="Trazado_175118" data-name="Trazado 175118" d="M345.837,373.27c-1.373-.417-1.692-1.006-1.312-2.379a86.26,86.26,0,0,0,2.583-9.652c.17-1.092.8-1.408,2.177-1.3a1.842,1.842,0,0,1,.851,2.04,83.952,83.952,0,0,1-2.787,10.24A1.553,1.553,0,0,1,345.837,373.27Z" transform="translate(-166.731 -105.734)"/>
      <path id="Trazado_175119" data-name="Trazado 175119" d="M220.115,400.9a2.661,2.661,0,0,1,2.547,3.018q.012,2.423,0,4.845a2.677,2.677,0,0,1-2.547,3.026c-4.1-.007-8.2-.007-12.3-.032-.529,0-.751.138-.716.693.039.618.024,1.241,0,1.86a2.53,2.53,0,0,1-1.495,2.4,2.491,2.491,0,0,1-2.8-.386c-3.175-2.647-6.354-5.289-9.5-7.969a2.522,2.522,0,0,1,.008-4.041c3.149-2.678,6.327-5.322,9.5-7.969a2.483,2.483,0,0,1,2.8-.37,2.584,2.584,0,0,1,1.493,2.407c.047.816-.368,1.89.173,2.379.572.518,1.645.152,2.5.155C213.225,400.932,216.67,400.912,220.115,400.9Z" transform="translate(-56.652 -131.64)"/>
      <path id="Trazado_175120" data-name="Trazado 175120" d="M355.782,317.545c0-.982,0-1.7,0-2.428-.007-1.648-.491-2.128-2.171-2.13-4.1,0-8.2-.025-12.3.018-.838.009-1.177-.178-1.1-1.067a19.347,19.347,0,0,0,0-2.79c-.044-.7.212-.856.872-.851,4.17.028,8.341.016,12.512.013,1.722,0,2.188-.478,2.193-2.221,0-.712,0-1.425,0-2.354,1.756,1.473,3.353,2.813,4.952,4.152q1.387,1.162,2.778,2.318c.283.234.551.42.109.787C361.058,313.119,358.509,315.262,355.782,317.545Z" transform="translate(-163.702 -65.068)" fill="#ffd4a2"/>
      <path id="Trazado_175121" data-name="Trazado 175121" d="M213.43,423l-7.8-6.527c-.254-.212-.484-.393-.094-.718,2.582-2.149,5.154-4.312,7.893-6.607,0,1.053-.007,1.868,0,2.683.014,1.389.542,1.925,1.956,1.929,4.173.01,8.348.039,12.52-.023.949-.014,1.18.265,1.1,1.144a12.261,12.261,0,0,0,0,2.48c.1.917-.273,1.049-1.09,1.041-4.1-.042-8.209-.022-12.313-.018-1.686,0-2.167.476-2.173,2.128C213.428,421.258,213.43,422.007,213.43,423Z" transform="translate(-66.084 -141.366)" fill="#dce736"/>
    </g>
  </g>
</svg>
