<svg xmlns="http://www.w3.org/2000/svg" width="131" height="132" viewBox="0 0 131 132">
  <g id="Grupo_118202" data-name="Grupo 118202" transform="translate(-367 -1103.912)">
    <g id="Grupo_118189" data-name="Grupo 118189" transform="translate(367 1103.913)">
      <g id="Grupo_118173" data-name="Grupo 118173" transform="translate(0 -0.001)">
        <ellipse id="Elipse_6071" data-name="Elipse 6071" cx="65.5" cy="66" rx="65.5" ry="66" fill="#fff"/>
      </g>
    </g>
    <g id="riesgo-operacional_1_" data-name="riesgo-operacional (1)" transform="translate(274.274 921.361)">
      <path id="Trazado_175556" data-name="Trazado 175556" d="M180.488,249.264a3.029,3.029,0,0,0,3.939-2.186c.569-1.548.729-1.48,2.323-.979,1.958.638,3.916,1.321,5.9,1.958.478.159.706.3.592.865-.182.979-.25,1.981-.41,2.96a.749.749,0,0,0,.364.842c.934.638,1.8,1.753,2.778,1.867.934.114,2-.774,2.96-1.3.592-.319.888-.25,1.275.319,1.343,1.935,2.732,3.848,4.121,5.738.319.433.319.683-.068,1.07-.615.592-1.139,1.275-1.776,1.844a1.222,1.222,0,0,0-.342,1.617,21.68,21.68,0,0,1,.774,2.436.732.732,0,0,0,.706.592c.979.137,1.958.364,2.937.5.433.068.638.2.615.683q-.034,3.757,0,7.514c0,.433-.114.592-.546.66-.979.159-1.958.387-2.937.5a.831.831,0,0,0-.8.706c-.25.888-.546,1.8-.865,2.664a.848.848,0,0,0,.228,1.047c.706.683,1.366,1.457,2.072,2.163.273.273.387.478.114.865-1.5,2.049-2.96,4.1-4.44,6.148-.228.319-.433.342-.774.159-.934-.478-1.89-.934-2.823-1.412a.687.687,0,0,0-.843.068c-.774.615-1.594,1.207-2.414,1.753a.75.75,0,0,0-.364.843c.159,1,.25,2.027.41,3.051.068.41,0,.592-.433.729-2.368.751-4.736,1.548-7.1,2.345a.542.542,0,0,1-.8-.319c-.41-.865-.911-1.708-1.321-2.573a.944.944,0,0,0-1.025-.638c-1.07.046-2.368-.319-3.188.137-.8.478-1.139,1.753-1.594,2.732-.319.683-.638.8-1.343.546-2.209-.774-4.463-1.5-6.694-2.209-.455-.137-.546-.342-.478-.774.159-.979.25-1.981.41-2.96a.825.825,0,0,0-.387-.934c-.8-.546-1.571-1.116-2.345-1.708a.723.723,0,0,0-.911-.068c-.911.478-1.844.888-2.732,1.366a.548.548,0,0,1-.842-.182c-1.435-2.049-2.915-4.076-4.372-6.08a.56.56,0,0,1,.046-.865c.683-.683,1.3-1.435,2-2.095a.972.972,0,0,0,.273-1.275,2.547,2.547,0,0,1-.273-.8c-.159-2.027-1.389-2.664-3.256-2.8-1.594-.114-1.594-.228-1.594-1.708,0-1.5,0-1.5-1.5-1.5-1.3,0-2.619-.023-3.916,0-.433,0-.66-.068-.729-.569-.114-.911-.41-1.776-.455-2.687a1.6,1.6,0,0,0-1.48-1.685,16.019,16.019,0,0,1-2.5-.8.981.981,0,0,0-1.207.25c-.751.774-1.571,1.48-2.323,2.254-.342.342-.569.433-.979.114-2.209-1.617-4.417-3.211-6.649-4.782-.364-.25-.364-.455-.182-.82.524-1,.979-2.049,1.5-3.051a.858.858,0,0,0-.068-1.07c-.706-.888-1.366-1.822-2.027-2.755a.874.874,0,0,0-.979-.433c-1.116.2-2.254.3-3.37.478a.571.571,0,0,1-.751-.433c-.842-2.6-1.685-5.169-2.55-7.765-.137-.387-.091-.592.319-.8,1.047-.5,2.049-1.093,3.1-1.617a.723.723,0,0,0,.478-.774c-.023-1.184-.023-2.391,0-3.575a.74.74,0,0,0-.5-.774c-1-.524-2-1.07-3.028-1.571-.455-.228-.5-.478-.342-.934.842-2.527,1.685-5.055,2.5-7.605.137-.433.319-.592.774-.5,1.116.182,2.254.3,3.37.478a.831.831,0,0,0,.934-.364c.66-.934,1.321-1.844,2.027-2.755a.926.926,0,0,0,.114-1.139c-.546-1-.979-2.049-1.5-3.051-.2-.387-.137-.569.2-.82,2.231-1.571,4.44-3.165,6.649-4.782a.59.59,0,0,1,.934.068c.774.8,1.617,1.526,2.391,2.323a.953.953,0,0,0,1.116.273c1.07-.364,2.14-.729,3.233-1.047a.893.893,0,0,0,.706-.8c.182-1.116.41-2.231.592-3.347.068-.433.228-.569.66-.546,2.755.023,5.51.023,8.288,0,.455,0,.569.182.638.592.159,1.093.387,2.186.569,3.279a.917.917,0,0,0,.751.865c1.093.3,2.163.66,3.233,1.047a.871.871,0,0,0,1.047-.228c.774-.8,1.617-1.526,2.391-2.323.342-.342.569-.41.979-.114,2.186,1.594,4.372,3.188,6.581,4.736.433.3.41.546.2.956-.5.979-.956,2-1.457,2.983a.827.827,0,0,0,.091,1.047c.66.842,1.252,1.776,1.935,2.6.5.592.455.934-.2,1.275a2.389,2.389,0,0,0-.387.319c-.66.979-1.116,1.025-1.8.159-.956-1.23-1.844-2.527-2.778-3.78a1.371,1.371,0,0,1-.137-1.594c.342-.638.638-1.275.956-1.913a.828.828,0,0,0-.25-1.184c-.774-.569-1.571-1.139-2.345-1.708a.823.823,0,0,0-1.207.091l-1.639,1.639a1.161,1.161,0,0,1-1.321.319c-2.049-.729-4.121-1.321-6.171-1.981a1.453,1.453,0,0,1-1.093-1.252c-.114-.683-.228-1.343-.364-2.027-.091-.569-.364-.865-.956-.842-.934.023-1.867.023-2.823,0a.834.834,0,0,0-.934.774c-.137.751-.25,1.526-.41,2.277a1.275,1.275,0,0,1-.911,1.025c-2.095.729-4.235,1.321-6.33,2.049a1.2,1.2,0,0,1-1.321-.319c-.524-.524-1.07-1.025-1.571-1.571a.808.808,0,0,0-1.252-.137c-.729.546-1.457,1.093-2.231,1.594a.919.919,0,0,0-.319,1.435c.319.569.592,1.161.888,1.753a1.375,1.375,0,0,1-.137,1.594c-1.3,1.73-2.573,3.484-3.848,5.214a1.184,1.184,0,0,1-1.252.5c-.8-.137-1.571-.228-2.368-.342a.7.7,0,0,0-.888.569c-.25.934-.569,1.844-.888,2.755-.182.546,0,.842.5,1.093a19.966,19.966,0,0,1,1.958,1.025,1.389,1.389,0,0,1,.706,1.275v6.4a1.374,1.374,0,0,1-.729,1.252c-.638.387-1.3.729-1.958,1.047a.758.758,0,0,0-.478,1.093c.319.911.638,1.822.888,2.755a.675.675,0,0,0,.888.546c.751-.114,1.526-.2,2.277-.342a1.269,1.269,0,0,1,1.389.569c1.23,1.662,2.436,3.37,3.712,5.009a1.542,1.542,0,0,1,.137,1.89c-.342.592-.615,1.207-.911,1.822a.75.75,0,0,0,.25,1.047c.842.615,1.708,1.23,2.573,1.844a.673.673,0,0,0,.979-.137c.546-.524,1.093-1.07,1.639-1.617a1.268,1.268,0,0,1,1.457-.342c1.981.683,4.008,1.275,6.011,1.935a1.546,1.546,0,0,1,1.184,1.366c.091.638.228,1.3.342,1.935.091.638.41.865,1.047.842q.854-.034,1.708,0c.546.023.774-.25.751-.774a9.122,9.122,0,0,1,.023-1.366.9.9,0,0,1,.82-.934c.842-.137,1.685-.3,2.527-.455a1.163,1.163,0,0,0,1.047-.956c.159-.683.433-1.366.638-2.027.228-.751.091-.888-.683-.66a18.719,18.719,0,0,1-6.148.8,19.421,19.421,0,0,1-18.649-17.738,19.32,19.32,0,0,1,31.673-16.372c5.078,4.19,7.241,9.768,6.9,16.326-.023.615.182.592.615.455.911-.319,1.822-.638,2.755-.911.3-.091.66-.319.865.159a18.211,18.211,0,0,0,1.389,2.641A2.277,2.277,0,0,0,180.488,249.264Z" transform="translate(-7.86 -8.297)"/>
      <path id="Trazado_175557" data-name="Trazado 175557" d="M189.013,255.281c-.273-.182-.546-.023-.8.046-1.207.387-2.436.8-3.689,1.207a3.863,3.863,0,0,1,.068-1.366,19.117,19.117,0,1,0-21.244,17.852,19.779,19.779,0,0,0,7.833-.729c.25-.068.524-.3.8-.046.319.3.046.592-.023.865-.25.865-.569,1.731-.82,2.6a.875.875,0,0,1-.82.706c-.934.114-1.844.364-2.778.478-.524.068-.729.228-.706.8.023.729.319,1.708-.114,2.14-.478.478-1.457.137-2.209.137-1.366.023-1.366,0-1.617-1.3,0-.046-.046-.114-.046-.159.114-2-1.025-2.823-2.869-3.211a39.013,39.013,0,0,1-4.463-1.412.958.958,0,0,0-1.184.3c-.592.638-1.275,1.207-1.89,1.844a.588.588,0,0,1-.934.068c-.911-.706-1.867-1.412-2.846-2.049-.478-.319-.455-.592-.228-1.047.41-.774.774-1.594,1.184-2.368a.823.823,0,0,0-.091-1c-1.343-1.8-2.687-3.6-3.985-5.442a.888.888,0,0,0-1-.387c-.888.159-1.8.25-2.687.41-.387.068-.569-.023-.683-.387-.364-1.184-.751-2.391-1.161-3.552-.159-.433.046-.547.342-.706.8-.41,1.594-.865,2.414-1.252a.873.873,0,0,0,.569-.911c-.023-2.209-.023-4.44,0-6.649a.9.9,0,0,0-.546-.934c-.8-.387-1.548-.842-2.345-1.207-.433-.2-.569-.41-.387-.911.41-1.093.751-2.209,1.093-3.324.137-.433.319-.569.8-.478.66.137,1.366.114,2.027.3,1,.3,1.526-.091,2.072-.888,1.07-1.594,2.254-3.142,3.438-4.668a1.07,1.07,0,0,0,.091-1.366c-.41-.751-.751-1.526-1.139-2.277a.551.551,0,0,1,.2-.842c1-.683,2-1.412,2.983-2.14.364-.273.569-.182.842.091.638.638,1.321,1.252,1.958,1.89a.879.879,0,0,0,1.047.273c2.163-.706,4.326-1.412,6.489-2.095a.753.753,0,0,0,.592-.706c.137-.934.342-1.844.5-2.778.068-.433.25-.615.729-.592,1.184.046,2.391.046,3.575,0,.5-.023.638.2.706.615a11.074,11.074,0,0,1,.319,1.935c.023,1.116.592,1.526,1.594,1.8,1.89.524,3.734,1.161,5.6,1.8a.945.945,0,0,0,1.116-.273c.638-.66,1.321-1.252,1.958-1.89a.559.559,0,0,1,.865-.068c.956.729,1.913,1.435,2.915,2.095.455.3.433.569.2.979-.41.774-.751,1.594-1.184,2.368a.833.833,0,0,0,.114,1.07c.979,1.3,1.958,2.573,2.869,3.916.41.615.751.751,1.275.182a1.966,1.966,0,0,1,.364-.228.971.971,0,0,0,1.093.41c.865-.159,1.731-.228,2.6-.342.159.41-.137.706-.319,1-.569.979-1.161,1.935-1.753,2.915a3.826,3.826,0,0,0,1.025,5.419c.182.137.478.228.433.546A25.371,25.371,0,0,0,189.013,255.281Z" transform="translate(-19.414 -17.798)" fill="#75b62f"/>
      <path id="Trazado_175558" data-name="Trazado 175558" d="M347.539,242.644c-2.6-1.731-3.051-3.734-1.435-6.444.683-1.139,1.343-2.3,2.027-3.438,3.006-4.987,6.011-9.951,8.994-14.937a4.352,4.352,0,0,1,2.55-2.118,4.074,4.074,0,0,1,4.782,2.027c2.687,4.44,5.351,8.9,8.015,13.343,1.093,1.822,2.186,3.666,3.279,5.465a4.067,4.067,0,0,1,.2,4.349,4.137,4.137,0,0,1-3.916,2.118c-7.469-.023-14.96-.023-22.429,0A8.77,8.77,0,0,1,347.539,242.644Z" transform="translate(-177.895 -8.099)"/>
      <path id="Trazado_175559" data-name="Trazado 175559" d="M171.16,473.1c-15.643-1.207-27.392-8.539-34.884-22.451a39.5,39.5,0,0,1-2.664-6.512c-.2-.638-.046-.842.546-.934.638-.114,1.343-.683,1.822-.387.41.25.433,1.116.638,1.685,4.782,12.82,13.73,21.131,26.96,24.706a34.543,34.543,0,0,0,8.516,1.116c.524,0,.82.091.706.683a3.676,3.676,0,0,0,0,.5C172.8,473.075,172.8,473.075,171.16,473.1Z" transform="translate(-14.448 -183.563)"/>
      <path id="Trazado_175560" data-name="Trazado 175560" d="M175.551,459.595c.319-.023.342.2.433.364a31.393,31.393,0,0,0,11.567,12.091c.319.182.387.342.182.638a5.765,5.765,0,0,0-.3.5c-.865,1.5-.865,1.5-2.368.524a34.548,34.548,0,0,1-11.408-12.3c-.319-.569-.25-.82.342-1.047A9.83,9.83,0,0,0,175.551,459.595Z" transform="translate(-45.299 -196.586)"/>
      <path id="Trazado_175561" data-name="Trazado 175561" d="M245.482,521.854a2.576,2.576,0,0,0,.319.137c.956.364,1.89.751,2.846,1.07.433.137.478.3.364.729-.615,2.14-.592,2.14-2.664,1.366-.114-.045-.228-.068-.319-.114-2.14-.82-2.163-.934-.956-2.915C245.141,521.991,245.163,521.786,245.482,521.854Z" transform="translate(-99.974 -244.66)" fill="#010101"/>
      <path id="Trazado_175562" data-name="Trazado 175562" d="M126.918,414.381c-.182-.41.114-.569.683-.638,1.935-.228,1.935-.25,2.277,1.685a5.234,5.234,0,0,1,.068.592c.023.524.524,1.23.091,1.48a6.8,6.8,0,0,1-2.3.524c-.342.046-.25-.319-.3-.5C127.26,416.567,127.123,415.587,126.918,414.381Z" transform="translate(-9.303 -161.095)" fill="#010101"/>
      <path id="Trazado_175563" data-name="Trazado 175563" d="M363.139,359.942c-.751.091-1.48.159-1.639-.842C362.046,359.373,362.593,359.669,363.139,359.942Z" transform="translate(-190.512 -118.976)" fill="#0f6dcc"/>
      <path id="Trazado_175564" data-name="Trazado 175564" d="M301.81,403.3c.137.934.228,1.731.364,2.527.068.387-.023.569-.41.683-.956.273-1.89.569-2.824.911-.387.137-.569.068-.729-.273-.364-.729-.774-1.457-1.139-2.186a.8.8,0,0,0-.8-.478q-3.074.034-6.148,0a.808.808,0,0,0-.842.524c-.228.478-.5.956-.751,1.435-.615,1.138-.615,1.138-1.8.751-.683-.228-1.343-.478-2.027-.66-.524-.137-.638-.387-.478-.843a3.233,3.233,0,0,0-1.822-4.463,20.171,20.171,0,0,1-3.028-2.209,1.006,1.006,0,0,0-1.3-.137c-.638.364-1.321.638-1.981,1-.364.2-.638.2-.82-.2-.023-.046-.068-.091-.091-.137-.615-.865-1.639-1.662-1.708-2.573-.091-.934,1.23-1.548,1.89-2.323a.731.731,0,0,0,.159-.842c-.66-1.958-1.3-3.939-1.913-5.92a.8.8,0,0,0-.751-.66c-.8-.114-1.571-.3-2.345-.41-.41-.068-.569-.2-.546-.638a17.024,17.024,0,0,0-.023-2.641c-.091-.8.3-1.047.911-1.025,2.027.046,3.028-.934,3.37-2.915a23.031,23.031,0,0,1,1.207-3.8,1.009,1.009,0,0,0-.3-1.252c-.546-.5-1-1.093-1.526-1.594-.3-.3-.342-.5-.068-.842.615-.8,1.184-1.594,1.753-2.414.228-.319.41-.387.774-.2.729.387,1.48.706,2.209,1.093a.727.727,0,0,0,.934-.091c1.662-1.23,3.347-2.459,5.009-3.689a.7.7,0,0,0,.342-.774c-.137-.774-.2-1.571-.342-2.368-.068-.433-.046-.683.433-.82.934-.25,1.844-.546,2.755-.888.433-.159.638-.068.8.319.023.046.046.114.068.159.433.8.706,1.844,1.366,2.3.706.5,1.822.137,2.755.137,1.184.023,2.391-.046,3.575.023a1.179,1.179,0,0,0,1.3-.82c.273-.615.638-1.207.934-1.822.182-.364.342-.5.8-.319a27.764,27.764,0,0,0,2.755.888c.478.137.569.387.455.8-.068.3-.046.638-.137.934-.5,1.435,0,2.345,1.3,3.1a35.98,35.98,0,0,1,3.712,2.71,1.03,1.03,0,0,0,1.23.137,12.707,12.707,0,0,1,2.527-1.161c.729.979,1.435,1.958,2.186,2.937.2.273,0,.41-.159.569-.546.592-1.07,1.184-1.639,1.731a.935.935,0,0,0-.3,1.116c.66,1.913,1.275,3.825,1.867,5.761.137.433.319.706.8.706a3.862,3.862,0,0,1,.5.091c.751.137,1.776.046,2.186.5.478.546.137,1.571.137,2.391.023,1.571.023,1.708-1.526,1.844a2.518,2.518,0,0,0-2.573,2.277,32.517,32.517,0,0,1-1.389,4.372.987.987,0,0,0,.3,1.184c.66.66,1.731,1.366,1.753,2.072.046.729-1.025,1.48-1.48,2.3s-.979,1-1.708.433c-1.457-1.138-2.732-.934-4.076.342a31.715,31.715,0,0,1-3.415,2.55C301.924,402.732,301.583,402.959,301.81,403.3Z" transform="translate(-119.802 -121.097)" fill="#3d46c2"/>
      <path id="Trazado_175565" data-name="Trazado 175565" d="M199.547,286.78a5.861,5.861,0,0,0,2.186-5.192c-.046-1.116,0-2.209-.023-3.324a5.465,5.465,0,0,0-10.93.046c-.023.956,0,1.935,0,2.892,0,2.96.182,3.438,2.118,5.6a15.108,15.108,0,0,0-7.56,11.909,13.432,13.432,0,0,1-2.391-2.6,16.375,16.375,0,1,1,29.464-6.945c-.068.455-.068.956-.729,1.093-.319.068-.159.364-.137.569.137,1.025.25,2.027.41,3.051a.784.784,0,0,1-.41.911c-.455.3-.865.638-1.3.956-1.548,1.139-1.867,1.139-3.461.068a.789.789,0,0,1-.342-.546A14.894,14.894,0,0,0,199.547,286.78Z" transform="translate(-50.214 -50.299)" fill="#d2e1f1"/>
      <path id="Trazado_175566" data-name="Trazado 175566" d="M224.2,364.7a16.971,16.971,0,0,1-7.537-1.844,1.014,1.014,0,0,1-.66-1.025,12.311,12.311,0,0,1,7.605-11.522,1.365,1.365,0,0,1,1.116-.046,12.269,12.269,0,0,1,6.968,7.309,1.273,1.273,0,0,1-.2,1.321c-1.047,1.389-2.049,2.8-3.051,4.212-.182.25-.5.433-.228.888.182.3-.25.273-.41.319A17.071,17.071,0,0,1,224.2,364.7Z" transform="translate(-78.142 -112.075)" fill="#bdbdbd"/>
      <path id="Trazado_175567" data-name="Trazado 175567" d="M245.5,298.881c0,.706.023,1.412,0,2.118a3.122,3.122,0,0,1-2.687,2.778,3.073,3.073,0,0,1-2.732-2.71c-.046-1.48-.046-2.96,0-4.417a2.681,2.681,0,0,1,2.755-2.55,2.712,2.712,0,0,1,2.664,2.573C245.526,297.4,245.5,298.129,245.5,298.881Z" transform="translate(-96.716 -68.775)" fill="#bdbdbd"/>
      <path id="Trazado_175568" data-name="Trazado 175568" d="M370.116,249.319H359.027a1.47,1.47,0,0,1-1.389-2.459q5.567-9.222,11.089-18.467c.865-1.457,1.958-1.457,2.824,0q5.533,9.222,11.089,18.467a1.609,1.609,0,0,1,.25,1.753,1.706,1.706,0,0,1-1.708.729C377.517,249.319,373.805,249.319,370.116,249.319Z" transform="translate(-187.219 -17.187)" fill="#f85316"/>
      <path id="Trazado_175569" data-name="Trazado 175569" d="M316.371,390A16.384,16.384,0,1,1,300,406.394,16.4,16.4,0,0,1,316.371,390Z" transform="translate(-143.015 -142.839)"/>
      <path id="Trazado_175570" data-name="Trazado 175570" d="M410.578,250.727c0,1.366-.023,2.732,0,4.076,0,.478-.046.683-.638.683-2.118.023-2.118.046-2.118-2.095,0-2.231.023-4.486-.023-6.717,0-.546.068-.774.706-.774,2.027.023,2.027,0,2.027,2C410.578,248.86,410.578,249.794,410.578,250.727Z" transform="translate(-226.269 -31.551)"/>
      <path id="Trazado_175571" data-name="Trazado 175571" d="M410.732,301.389c0,1.343,0,1.343-1.3,1.343-1.435,0-1.435,0-1.435-1.389C408,300,408,300,409.3,300,410.732,300,410.732,300,410.732,301.389Z" transform="translate(-226.424 -73.333)"/>
      <path id="Trazado_175572" data-name="Trazado 175572" d="M335.229,425.322c-.433-4.281-2.915-6.968-6.763-8.675,2.937-1.958,3.006-4.782,2.482-7.674a5.33,5.33,0,0,0-5.738-4.167,5.487,5.487,0,0,0-4.987,5.078,15.352,15.352,0,0,0,.068,2.892,5.448,5.448,0,0,0,2.6,3.871c-3.871,1.708-6.353,4.395-6.763,8.653a13.526,13.526,0,0,1-.478-18.9,13.7,13.7,0,0,1,19.924-.137A13.519,13.519,0,0,1,335.229,425.322Z" transform="translate(-152.31 -152.135)" fill="#d2e1f1"/>
      <path id="Trazado_175573" data-name="Trazado 175573" d="M348.745,484.621a14.1,14.1,0,0,1-6.262-1.5.948.948,0,0,1-.615-.956,7.152,7.152,0,0,1,4.212-7.264c.888-.433,1.753-1.275,2.619-1.3.865,0,1.753.843,2.619,1.275a7.17,7.17,0,0,1,4.235,7.241.979.979,0,0,1-.592.979A14.391,14.391,0,0,1,348.745,484.621Z" transform="translate(-175.343 -207.404)" fill="#bdbdbd"/>
      <path id="Trazado_175574" data-name="Trazado 175574" d="M365.307,429.777a3.022,3.022,0,0,1-1.275,3.074,2.433,2.433,0,0,1-3.643-.706,5.548,5.548,0,0,1,0-4.873,2.724,2.724,0,0,1,4.918,1.366C365.33,428.98,365.307,429.344,365.307,429.777Z" transform="translate(-189.218 -170.753)" fill="#bdbdbd"/>
    </g>
  </g>
</svg>
