<svg xmlns="http://www.w3.org/2000/svg" width="150" height="150" viewBox="0 0 150 150">
  <g id="Grupo_118232" data-name="Grupo 118232" transform="translate(-1111.629 -667.009)">
    <circle id="Elipse_6045" data-name="Elipse 6045" cx="75" cy="75" r="75" transform="translate(1111.629 667.009)" fill="#fff"/>
    <g id="Grupo_116363" data-name="Grupo 116363" transform="translate(1025.835 494.338)">
      <path id="Trazado_172822" data-name="Trazado 172822" d="M180.575,280.821v7.862h5.192v2.633H155.591v-2.57h5.159v-7.915c-1.51,0-3.034-.02-4.556.022-.215.006-.439.295-.629.483q-3.47,3.458-6.932,6.925c-5.449,5.43-13.686,3.488-16.125-3.808-2.241-6.7-4.368-13.45-6.735-20.111a7.2,7.2,0,0,1,4.679-9.661v-8.126c-.471,0-.929.014-1.385,0a3.9,3.9,0,0,1-3.818-3.863,3.7,3.7,0,0,0-.647-1.967,41.27,41.27,0,0,1-3.449-6.143,18.307,18.307,0,0,1,15.256-24.722,73.4,73.4,0,0,1,12.569,0c3.57.261,6.028,2.519,7.272,5.872a8.87,8.87,0,0,1-1.658,9.169c-.118.145-.238.288-.425.515h10.579v-.863q0-5.312,0-10.623a3.963,3.963,0,0,1,4.267-4.262q14.161-.005,28.322,0a3.972,3.972,0,0,1,4.3,4.318c0,7.659-.007,15.317.007,22.976a4.139,4.139,0,0,1-2.225,3.923,1.108,1.108,0,0,0-.4.836c-.025,4.282-.017,8.565-.017,12.847q0,11.571,0,23.141c0,2.126-.992,3.112-3.13,3.112q-7.163,0-14.326,0Zm-15.951-13.241h23.749V243.17c-.891.932-1.6,1.731-2.372,2.469a3.032,3.032,0,0,1-3.49.689,3.084,3.084,0,0,1-1.976-3.045c0-.645,0-1.291,0-1.914h-5.968a10.6,10.6,0,1,1-17.728,8.653c-.321-5.192,2.293-8.8,8.052-11.154l-.237-2.785h-7.789a9.6,9.6,0,0,1-.021,1.5c-.048.294-.247.742-.466.8-1.954.532-2.5,1.835-2.151,3.685a.414.414,0,0,1,0,.082,9.148,9.148,0,0,1-7.556,8.905c-.962.173-1.942.247-2.979.375,0,.991.021,1.947-.009,2.9a.972.972,0,0,0,.537.985,17.276,17.276,0,0,1,7.095,8.3c.217.52.453,1.032.7,1.584A7.14,7.14,0,0,1,164.624,267.581Zm31.7-28.984c1.95.188,2.716.058,2.695-2.368-.064-7.355-.022-14.712-.023-22.068,0-1.455-.4-1.851-1.856-1.851H169.227c-1.446,0-1.838.4-1.838,1.868q0,10.87,0,21.739c0,.467-.014.934.007,1.4a1.252,1.252,0,0,0,1.136,1.3,10.843,10.843,0,0,0,1.525.014,12.116,12.116,0,0,1,7.838-9.872,7.97,7.97,0,0,1-.491-11.3,7.882,7.882,0,0,1,10.536-.924,7.652,7.652,0,0,1,2.983,4.683,7.958,7.958,0,0,1-2.448,7.551A12.12,12.12,0,0,1,196.319,238.6ZM137.3,279.711a4.922,4.922,0,0,0,.8-.524c1.621-1.6,3.24-3.2,4.822-4.837a1.174,1.174,0,0,0,.3-.967c-1.351-3.877-2.7-7.756-4.154-11.6a7.041,7.041,0,0,0-5.146-4.438,4.577,4.577,0,0,0-4.849,1.183,4.523,4.523,0,0,0-.745,4.906c2.282,6.713,4.489,13.451,6.742,20.174,1.819,5.427,7.633,6.788,11.688,2.744q4.458-4.445,8.9-8.9c.187-.187.356-.391.443-.487l-6.017-6.093-10.79,10.806Zm21.63-1.61h37.358V241.365H191.1v28.948H164.662C164.105,273.965,160.921,275.549,158.927,278.1Zm-20.67-28.913c2.465-.228,4.835-.465,7.208-.662a6.312,6.312,0,0,0,5.655-4.568,6.193,6.193,0,0,1-6.029-3.4l2.371-1.189a3.771,3.771,0,0,0,4.091,1.843,6.169,6.169,0,0,0-.008-1c-.3-1.734.2-2.959,2.047-3.406a.622.622,0,0,0,.489-.867c-.263-1.062-.383-2.17-.741-3.2-.628-1.794-1.392-3.54-2.095-5.3a7.285,7.285,0,0,1-1.3.368c-1.909.129-3.819.264-5.731.3a5.939,5.939,0,0,1-2.16-.4.9.9,0,0,0-1.243.4c-.328.515-.918.9-.487,1.73a5.908,5.908,0,0,1,.7,2.475c.077,3.347.037,6.7.03,10.045a3.968,3.968,0,0,1-4.226,4.223c-1.2,0-2.4,0-3.637,0v7.745c1.279.45,2.694.61,3.644,1.359,1.562,1.232,2.637.612,3.81-.385.151-.129.346-.32.351-.487.032-1.033.016-2.067.016-3.158l-2.513.177Zm36.966.042a7.853,7.853,0,0,0-7.766-7.855,7.775,7.775,0,0,0-7.9,7.786,7.834,7.834,0,1,0,15.669.069Zm7.995-10.608c0,1.511-.018,2.906.014,4.3a2.954,2.954,0,0,0,.3.862,2.892,2.892,0,0,0,.884-.4c1.439-1.394,2.824-2.843,4.279-4.22a2.173,2.173,0,0,1,1.272-.518c1.171-.07,2.35-.024,3.539-.024a2.154,2.154,0,0,0,0-.4c-.848-3.657-3.02-6.186-6.673-7.071a19.476,19.476,0,0,0-5.633-.316,8.736,8.736,0,0,0-7.11,4.293,8.06,8.06,0,0,0-1.258,3.489Zm-.021-21.029a5.249,5.249,0,1,0,5.24,5.235A5.281,5.281,0,0,0,183.2,217.593ZM172.578,280.9h-9.061v7.731h9.061Zm-39.529-50.095c-1.339,0-2.624-.042-3.9.016a1.217,1.217,0,0,0-1.222,1.3q-.033,5.229,0,10.458a1.161,1.161,0,0,0,1.094,1.243c1.33.073,2.666.021,4.03.021Zm12.573,40.986c.7-.737,1.329-1.417,1.972-2.088.758-.791,1.525-1.573,2.287-2.359-.428-1.062-.824-2.138-1.291-3.182A14.448,14.448,0,0,0,143,257.748a1.073,1.073,0,0,0-.863-.147,14.229,14.229,0,0,0-1.583,1.027C142.7,262.856,143.787,267.378,145.621,271.793Zm6.777-2.971,5.842,5.98c.912-.89,1.9-1.765,2.784-2.74a4.227,4.227,0,0,0-5.81-6.1C154.171,266.881,153.253,267.945,152.4,268.822Zm2.105-40.648c.241.593.463,1.116.664,1.646s.39,1.082.579,1.625c.214.617.248,1.493.68,1.786.476.323,1.314.129,1.995.131,2.076.008,4.153,0,6.24,0v-5.192Zm-21.392-.108c0-1.813.007-3.539,0-5.264a14.908,14.908,0,0,1,3.458-9.711c.143-.176.272-.364.443-.594a4.725,4.725,0,0,0-3.12.782,10.509,10.509,0,0,0-3.2,6.52c-.21,2.7-.119,5.423-.154,8.136,0,.041.063.083.1.133Zm2.753,2.732v13.078c.376,0,.7.012,1.025,0a1.329,1.329,0,0,0,1.451-1.432q.028-5.106,0-10.211a1.328,1.328,0,0,0-1.452-1.431C136.566,230.786,136.241,230.8,135.865,230.8Zm39.518,50.109v7.705h2.44v-7.705Z" transform="translate(0)"/>
      <path id="Trazado_172823" data-name="Trazado 172823" d="M249.02,361.8a7.14,7.14,0,0,0-12.613-2.379c-.243-.552-.48-1.064-.7-1.584a17.276,17.276,0,0,0-7.095-8.3.972.972,0,0,1-.537-.985c.03-.955.009-1.911.009-2.9,1.037-.128,2.017-.2,2.979-.375a9.148,9.148,0,0,0,7.556-8.905.413.413,0,0,0,0-.082c-.349-1.85.2-3.154,2.151-3.685.218-.059.418-.507.466-.8a9.6,9.6,0,0,0,.021-1.5h7.789l.237,2.785c-5.759,2.354-8.373,5.962-8.052,11.154a10.586,10.586,0,1,0,17.728-8.653h5.968c0,.623,0,1.269,0,1.914a3.084,3.084,0,0,0,1.976,3.045,3.032,3.032,0,0,0,3.49-.689c.77-.739,1.482-1.537,2.372-2.469V361.8Zm5.351-2.592v-2.582H251.8v2.582Zm2.687-.013h2.6v-2.555h-2.6Zm7.843.019v-2.585h-2.556v2.585Z" transform="translate(-84.396 -94.217)" fill="#dce736"/>
      <path id="Trazado_172824" data-name="Trazado 172824" d="M365.005,248.267a12.12,12.12,0,0,0-7.843-9.833,7.958,7.958,0,0,0,2.448-7.551,7.651,7.651,0,0,0-2.983-4.683,7.882,7.882,0,0,0-10.536.924,7.97,7.97,0,0,0,.491,11.3,12.116,12.116,0,0,0-7.838,9.872,10.848,10.848,0,0,1-1.525-.014,1.252,1.252,0,0,1-1.136-1.3c-.022-.466-.007-.933-.007-1.4q0-10.869,0-21.739c0-1.468.392-1.868,1.838-1.868h27.908c1.458,0,1.855.4,1.856,1.851,0,7.356-.04,14.713.023,22.068C367.721,248.325,366.956,248.454,365.005,248.267Z" transform="translate(-168.686 -9.67)" fill="#dce736"/>
      <path id="Trazado_172825" data-name="Trazado 172825" d="M165.691,448.759l1.99,1.968,10.79-10.806,6.017,6.093c-.087.1-.256.3-.443.487q-4.449,4.454-8.9,8.9c-4.055,4.044-9.869,2.683-11.688-2.744-2.253-6.723-4.46-13.461-6.742-20.174a4.523,4.523,0,0,1,.745-4.906,4.577,4.577,0,0,1,4.849-1.183,7.041,7.041,0,0,1,5.146,4.438c1.451,3.841,2.8,7.719,4.154,11.6a1.174,1.174,0,0,1-.3.967c-1.582,1.637-3.2,3.239-4.822,4.837A4.921,4.921,0,0,1,165.691,448.759Z" transform="translate(-28.394 -169.047)" fill="#75b62f"/>
      <path id="Trazado_172826" data-name="Trazado 172826" d="M297.537,391.1c1.995-2.552,5.179-4.136,5.735-7.788h26.434V354.363h5.189V391.1Zm29.5-2.564V385.95h-5.194v2.585Zm-7.885-2.574h-2.568v2.54h2.568Z" transform="translate(-138.61 -112.998)" fill="#3d46c2"/>
      <path id="Trazado_172827" data-name="Trazado 172827" d="M185.342,312.677l.241,2.642,2.513-.177c0,1.091.016,2.125-.016,3.158-.005.167-.2.359-.351.487-1.173,1-2.247,1.618-3.81.385-.95-.749-2.365-.908-3.644-1.359v-7.745c1.238,0,2.437,0,3.637,0a3.968,3.968,0,0,0,4.226-4.223c.006-3.349.047-6.7-.03-10.045a5.907,5.907,0,0,0-.7-2.475c-.431-.835.159-1.215.487-1.73a.9.9,0,0,1,1.243-.4,5.94,5.94,0,0,0,2.16.4c1.912-.034,3.822-.17,5.731-.3a7.286,7.286,0,0,0,1.3-.368c.7,1.755,1.467,3.5,2.095,5.3.359,1.025.478,2.133.741,3.2a.622.622,0,0,1-.489.867c-1.843.448-2.345,1.673-2.047,3.406a6.169,6.169,0,0,1,.008,1,3.771,3.771,0,0,1-4.091-1.843l-2.371,1.189a6.193,6.193,0,0,0,6.029,3.4,6.312,6.312,0,0,1-5.655,4.568C190.177,312.212,187.807,312.449,185.342,312.677Zm10.643-15.791a1.332,1.332,0,1,0-1.292-1.411A1.338,1.338,0,0,0,195.986,296.886Z" transform="translate(-47.086 -63.489)" fill="#ffd4a2"/>
      <path id="Trazado_172828" data-name="Trazado 172828" d="M316.054,362.266a7.834,7.834,0,1,1-15.669-.069,7.775,7.775,0,0,1,7.9-7.786A7.853,7.853,0,0,1,316.054,362.266Z" transform="translate(-140.832 -113.035)" fill="#75b62f"/>
      <path id="Trazado_172829" data-name="Trazado 172829" d="M371.286,313.968H360.9a8.06,8.06,0,0,1,1.258-3.489,8.736,8.736,0,0,1,7.11-4.293,19.477,19.477,0,0,1,5.633.316c3.653.885,5.824,3.415,6.673,7.071a2.152,2.152,0,0,1,0,.4c-1.189,0-2.368-.047-3.539.024a2.173,2.173,0,0,0-1.272.518c-1.455,1.376-2.84,2.826-4.279,4.22a2.892,2.892,0,0,1-.884.4,2.954,2.954,0,0,1-.3-.862C371.268,316.875,371.286,315.479,371.286,313.968Z" transform="translate(-188.068 -75.346)" fill="#f85316"/>
      <path id="Trazado_172830" data-name="Trazado 172830" d="M389.429,246.057a5.249,5.249,0,1,1-5.253,5.221A5.282,5.282,0,0,1,389.429,246.057Z" transform="translate(-206.233 -28.464)" fill="#ffd4a2"/>
      <path id="Trazado_172831" data-name="Trazado 172831" d="M327.512,534.494v7.731h-9.061v-7.731Z" transform="translate(-154.934 -253.592)" fill="#727997"/>
      <path id="Trazado_172832" data-name="Trazado 172832" d="M161.351,306.207v13.041c-1.364,0-2.7.051-4.03-.021a1.161,1.161,0,0,1-1.094-1.243q-.034-5.229,0-10.458a1.217,1.217,0,0,1,1.222-1.3C158.727,306.165,160.012,306.207,161.351,306.207Z" transform="translate(-28.302 -75.4)" fill="#727997"/>
      <path id="Trazado_172833" data-name="Trazado 172833" d="M218.9,442.373c-1.834-4.415-2.926-8.937-5.066-13.165a14.231,14.231,0,0,1,1.583-1.027,1.073,1.073,0,0,1,.863.147,14.448,14.448,0,0,1,5.588,6.416c.466,1.045.863,2.121,1.291,3.182-.763.786-1.529,1.568-2.287,2.359C220.233,440.956,219.6,441.636,218.9,442.373Z" transform="translate(-73.282 -170.58)" fill="#dce736"/>
      <path id="Trazado_172834" data-name="Trazado 172834" d="M267.8,465.9c.854-.877,1.772-1.941,2.816-2.861a4.227,4.227,0,0,1,5.81,6.1c-.88.975-1.872,1.85-2.784,2.74Z" transform="translate(-115.396 -197.076)" fill="#ffd4a2"/>
      <path id="Trazado_172835" data-name="Trazado 172835" d="M277.387,294.265h10.158v5.192c-2.087,0-4.163.005-6.24,0-.681,0-1.519.192-1.995-.131-.432-.293-.466-1.169-.68-1.786-.189-.543-.375-1.088-.579-1.625S277.628,294.859,277.387,294.265Z" transform="translate(-122.883 -66.091)" fill="#3d46c2"/>
      <path id="Trazado_172836" data-name="Trazado 172836" d="M170.784,238.4h-2.467c-.04-.05-.1-.092-.1-.133.035-2.713-.056-5.436.154-8.136a10.509,10.509,0,0,1,3.2-6.52,4.725,4.725,0,0,1,3.12-.782c-.171.23-.3.418-.443.594a14.908,14.908,0,0,0-3.458,9.711C170.791,234.858,170.784,236.583,170.784,238.4Z" transform="translate(-37.672 -10.331)" fill="#636363"/>
      <path id="Trazado_172837" data-name="Trazado 172837" d="M192.465,306.2c.376,0,.7-.012,1.025,0a1.328,1.328,0,0,1,1.452,1.431q.028,5.106,0,10.211a1.329,1.329,0,0,1-1.451,1.432c-.324.014-.649,0-1.025,0Z" transform="translate(-56.6 -75.405)" fill="#fff"/>
      <path id="Trazado_172838" data-name="Trazado 172838" d="M372.513,534.52h2.44v7.705h-2.44Z" transform="translate(-197.13 -253.613)" fill="#727997"/>
      <path id="Trazado_172839" data-name="Trazado 172839" d="M338.746,452.816H336.18v-2.582h2.566Z" transform="translate(-168.772 -187.826)"/>
      <path id="Trazado_172840" data-name="Trazado 172840" d="M360.117,452.85V450.3h2.6v2.555Z" transform="translate(-187.455 -187.874)"/>
      <path id="Trazado_172841" data-name="Trazado 172841" d="M386.761,452.829h-2.555v-2.585h2.555Z" transform="translate(-206.257 -187.834)"/>
      <path id="Trazado_172842" data-name="Trazado 172842" d="M413.448,500.861h-5.194v-2.585h5.194Z" transform="translate(-225.026 -225.324)"/>
      <path id="Trazado_172843" data-name="Trazado 172843" d="M386.86,498.325v2.54h-2.568v-2.54Z" transform="translate(-206.324 -225.362)"/>
      <path id="Trazado_172844" data-name="Trazado 172844" d="M247.252,308.591a1.332,1.332,0,1,1,1.368-1.253A1.335,1.335,0,0,1,247.252,308.591Z" transform="translate(-98.352 -75.194)"/>
    </g>
  </g>
</svg>
