<svg xmlns="http://www.w3.org/2000/svg" width="104.249" height="105.045" viewBox="0 0 104.249 105.045">
  <g id="Grupo_118209" data-name="Grupo 118209" transform="translate(-1003.702 -2416.914)">
    <g id="Grupo_118195" data-name="Grupo 118195" transform="translate(1003.702 2416.914)">
      <g id="Grupo_118173" data-name="Grupo 118173" transform="translate(0 0)">
        <ellipse id="Elipse_6071" data-name="Elipse 6071" cx="52.124" cy="52.522" rx="52.124" ry="52.522" fill="#fff"/>
      </g>
    </g>
    <g id="infeliz_1_" data-name="infeliz (1)" transform="translate(893.355 2216.902)">
      <path id="Trazado_175719" data-name="Trazado 175719" d="M177.56,228.1a39.46,39.46,0,1,1-39.46,39.484A39.474,39.474,0,0,1,177.56,228.1Z" transform="translate(-15.09 -15.027)" fill="#12263f"/>
      <path id="Trazado_175720" data-name="Trazado 175720" d="M188.339,315.349a33.359,33.359,0,0,1-15.888-4.489,35.729,35.729,0,0,1,8.79-65.759,25.035,25.035,0,0,1,7.121-.964c1.81-.259,1.9-.188,1.9,1.551v36.241a5.34,5.34,0,0,1-.071,1.222c-.141.517-.588.494-.987.517a20.992,20.992,0,0,0-7.732,1.88,19.336,19.336,0,0,0-9.8,10.247,1.645,1.645,0,1,0,3.008,1.269,17.139,17.139,0,0,1,2.867-4.63,15.854,15.854,0,0,1,9.072-5.171,10.954,10.954,0,0,1,2.632-.188c.376.023.776,0,.94.47a4.9,4.9,0,0,1,.094,1.316v24.912C190.219,315.537,190.125,315.608,188.339,315.349Z" transform="translate(-27.466 -27.21)" fill="#ffd4a2"/>
      <path id="Trazado_175721" data-name="Trazado 175721" d="M299.2,315.313c1.6-.047,1.6-.047,1.6-1.645V287.3a.526.526,0,0,1,.353-.188,15.358,15.358,0,0,1,13.02,6.628,12.178,12.178,0,0,1,1.622,2.914,3.159,3.159,0,0,0,.8,1.246,1.829,1.829,0,0,0,2.209.141,1.516,1.516,0,0,0,.611-1.857,17.45,17.45,0,0,0-3.854-6.228,19.424,19.424,0,0,0-11.258-6.04c-.494-.094-.987-.047-1.481-.164-.635-.235-1.387.164-1.974-.329V245.769c0-1.622,0-1.622-1.6-1.645a.835.835,0,0,1,.658-.141,35.8,35.8,0,0,1,19.436,5.217,35.349,35.349,0,0,1,16.123,21.763,33.346,33.346,0,0,1,1.011,7.027,35.607,35.607,0,0,1-14.783,30.741,35.9,35.9,0,0,1-15.723,6.369,38.069,38.069,0,0,1-6.134.4C299.576,315.453,299.365,315.477,299.2,315.313Z" transform="translate(-138.327 -27.173)" fill="#ffd4a2"/>
      <path id="Trazado_175722" data-name="Trazado 175722" d="M245.135,415.456c-.117,0-.235.023-.353.023a15.56,15.56,0,0,0-14.994,9.612c-.447,1.081-1.222,1.692-2.045,1.622a2.079,2.079,0,0,1-1.716-1.551,1.7,1.7,0,0,1,.212-1.269A19.393,19.393,0,0,1,241.3,411.931a29.059,29.059,0,0,1,3.478-.353,6.588,6.588,0,0,1,2.139.164c-.282.329-.682.282-1.058.259-.588-.023-.823.235-.823.823A23.993,23.993,0,0,0,245.135,415.456Z" transform="translate(-82.312 -155.379)" fill="#12263f"/>
      <path id="Trazado_175723" data-name="Trazado 175723" d="M243.666,339.55a3.726,3.726,0,1,1,.165-7.45,3.727,3.727,0,1,1-.165,7.45Z" transform="translate(-93.04 -94.585)" fill="#12263f"/>
      <path id="Trazado_175724" data-name="Trazado 175724" d="M306.344,416.013a.837.837,0,0,1-.353-.752,7.047,7.047,0,0,0,0-.705c0-2.186,0-2.186,2.139-2.256a19.166,19.166,0,0,1,13.373,6.886,18.293,18.293,0,0,1,3.243,5.406,1.8,1.8,0,0,1-.964,2.538,1.972,1.972,0,0,1-2.632-.917c-.447-.8-.729-1.669-1.2-2.444a15.367,15.367,0,0,0-11.328-7.615C307.848,416.06,307.1,416.084,306.344,416.013Z" transform="translate(-143.521 -155.936)" fill="#12263f"/>
      <path id="Trazado_175725" data-name="Trazado 175725" d="M347.368,335.828a3.8,3.8,0,0,1-3.807,3.713,3.772,3.772,0,1,1,.07-7.544A3.738,3.738,0,0,1,347.368,335.828Z" transform="translate(-169.385 -94.505)" fill="#12263f"/>
    </g>
  </g>
</svg>
