<svg xmlns="http://www.w3.org/2000/svg" width="150" height="150" viewBox="0 0 150 150">
  <g id="Grupo_118230" data-name="Grupo 118230" transform="translate(-333.629 -669.818)">
    <circle id="Elipse_6043" data-name="Elipse 6043" cx="75" cy="75" r="75" transform="translate(333.629 669.818)" fill="#fff"/>
    <g id="Grupo_116361" data-name="Grupo 116361" transform="translate(247.917 488.222)">
      <path id="Trazado_172773" data-name="Trazado 172773" d="M163.309,204.085a25.949,25.949,0,0,1,2.733.782,11.956,11.956,0,0,1,7.612,9.684,21.719,21.719,0,0,1-.074,8.777,13.821,13.821,0,0,1-5.039,7.389c-.249.2-.769.29-.619.768a1.28,1.28,0,0,0,.995.84,28.125,28.125,0,0,1,3.977,1.266,7.785,7.785,0,0,1,5.251,7.557c.015.972.032,1.944.011,2.916a2.25,2.25,0,0,1-2.558,2.493c-3.918,0-7.836.009-11.755-.008-.532,0-.8.047-.791.709.042,2.7.037,5.407,0,8.11-.007.559.2.714.695.812a11.506,11.506,0,0,1,7.342,17.8c-.344.513-.32.772.1,1.2q4.269,4.364,8.486,8.779a.907.907,0,0,0,1.154.282c1.1-.415,2.246-.718,3.372-1.071a1.462,1.462,0,0,0,.732-.339c.354-.4.525-.687-.063-1.142-2.663-2.059-4.782-4.61-5.349-7.981a20.254,20.254,0,0,1,.994-11.631,11.632,11.632,0,0,1,22.1,2.012,19.619,19.619,0,0,1-.18,11.309,14.127,14.127,0,0,1-4.737,6.229c-.217.173-.631.258-.529.638a1.079,1.079,0,0,0,.779.815c.79.212,1.58.426,2.358.674a10.619,10.619,0,0,1,5.681,3.55,13.332,13.332,0,0,1,1.425,3.361v4.921a2.573,2.573,0,0,1-1.822,1.823H194.109a1.756,1.756,0,0,1-.964-1.37c.288-1.073.633-1.358,1.707-1.363q4.094-.022,8.188-.029c1.639.081,1.639.081,1.639-1.524,0-.211,0-.423,0-.634-.014-3.01-1.08-4.491-3.863-5.675a2.22,2.22,0,0,0-2.7.388c-1.592.934-3.206,1.832-4.77,2.811a3.673,3.673,0,0,1-4.256,0c-1.8-1.128-3.632-2.19-5.456-3.274a1.289,1.289,0,0,0-.827-.305,5.859,5.859,0,0,0-4.967,4.76c-.126.878-.042,1.758-.111,2.633-.052.667.135.877.838.868,3.124-.042,6.249-.02,9.374-.017,1.155,0,1.459.236,1.813,1.363a1.989,1.989,0,0,1-.935,1.37H176.613a2.562,2.562,0,0,1-1.6-2.322c0-1.3-.053-2.609.074-3.912a7.314,7.314,0,0,1,2.294-4.9c.345-.316.3-.471,0-.776q-4.13-4.237-8.226-8.508c-.3-.311-.483-.379-.888-.106a10.927,10.927,0,0,1-12.989,0c-.332-.222-.51-.272-.816.05q-4.322,4.557-8.676,9.083c-.157.164-.375.287-.21.6,1.109,2.113.929,4.412.92,6.68a2.277,2.277,0,0,1-2.51,2.564c-3.52.02-7.04.013-10.56,0-1.1,0-1.431-.292-1.7-1.367.279-1.088.579-1.341,1.7-1.352,2.843-.029,5.686-.043,8.53-.064.452.023.9.054,1.356.067.283.008.459-.117.458-.431a12.07,12.07,0,0,0-.393-4.323c-.755-2-2.489-2.784-4.341-3.408-1-.336-1.507.532-2.224.89-1.49.874-3,1.716-4.464,2.63a3.557,3.557,0,0,1-4.094.014c-1.673-1.042-3.416-1.976-5.054-3.069a2.336,2.336,0,0,0-2.425-.213c-2.848,1.136-3.934,2.671-3.944,5.749a9.883,9.883,0,0,1-.01,1.274c-.1.741.207.9.906.9,3.036-.037,6.073-.023,9.109-.011,1.128,0,1.428.262,1.707,1.352-.275,1.1-.6,1.365-1.783,1.368-3.207.008-6.415-.037-9.621.022A2.962,2.962,0,0,1,114.1,294.3v-5.285c.056-.063.151-.118.163-.189.547-3.056,2.507-4.871,5.248-6.014a30.48,30.48,0,0,1,3.806-1.206,1.266,1.266,0,0,0,1-.822c.175-.549-.4-.606-.66-.825-2.729-2.3-4.838-5.038-5.231-8.663a22.5,22.5,0,0,1,.652-9.473,11.692,11.692,0,0,1,22.7.95,23.181,23.181,0,0,1,.327,8.963c-.535,3.482-2.626,6.13-5.3,8.335-.219.181-.717.222-.551.686a1.194,1.194,0,0,0,.9.815c.823.2,1.634.452,2.443.7a12.509,12.509,0,0,1,3.606,1.686c.329.236.51.28.817-.044q4.233-4.462,8.511-8.882c.446-.459.169-.7-.068-1.056a11.505,11.505,0,0,1,6.661-17.633c1.094-.274,1.265-.7,1.239-1.678-.065-2.428-.051-4.86,0-7.289.014-.706-.2-.845-.865-.839-3.705.034-7.411.019-11.117.015-1.734,0-2.592-.827-2.578-2.548a27.12,27.12,0,0,1,.146-4.454,7.39,7.39,0,0,1,3.842-5.347,22.068,22.068,0,0,1,5.016-1.849,3.143,3.143,0,0,0,.69-.22c.629-.358.644-.843.08-1.3-2.758-2.208-4.943-4.886-5.4-8.455a21.263,21.263,0,0,1,.713-10.171,11.669,11.669,0,0,1,9.248-7.955c.122-.024.236-.033.27-.178Zm7.657,11.661a.231.231,0,0,0,.03.065c.008.009.033,0,.05,0l-.089-.057a8.9,8.9,0,0,0-3.624-6.966,8.568,8.568,0,0,0-9.992-.612c-2.9,1.75-4.7,5.883-4.283,7.573a3.694,3.694,0,0,0,1.308-1.088,3.75,3.75,0,0,1,4.121-1.141c.348.1.716.145,1.053.275a6.461,6.461,0,0,0,4.782.019c.337-.128.7-.178,1.052-.278a3.952,3.952,0,0,1,3.4.4C169.549,214.485,170,215.427,170.966,215.746Zm16.057,68.9c-.577.343-.612.6.038.956,1.19.653,2.339,1.381,3.5,2.09a.98.98,0,0,0,1.167.095c1.09-.7,2.2-1.363,3.3-2.042.759-.25,1.2-.572.32-1.252a1.049,1.049,0,0,1-.316-.438c-.233-.6-.595-.577-1.139-.381a7.618,7.618,0,0,1-5.333,0c-.613-.226-.949-.141-1.2.446A3.366,3.366,0,0,1,187.023,284.644Zm-60.958-1.493c-.577.318-.553.564.03.891,1.214.681,2.4,1.411,3.587,2.138a.9.9,0,0,0,1.08.092c.992-.637,2.007-1.239,3.013-1.855l1.281-.741a4.8,4.8,0,0,1-.856-1.04c-.318-.773-.762-.678-1.406-.452a6.54,6.54,0,0,1-4.619.086c-1.051-.41-1.666-.206-2.076.8Zm39.25-47.939c.438-.263,1.061-.432,1.259-.818.186-.362-.546-.615-.715-1.033-.011-.027-.039-.048-.05-.075-.229-.609-.587-.668-1.194-.442a6.832,6.832,0,0,1-4.812.131c-1.062-.393-1.618-.188-1.991.8-.565.352-.706.625.024,1.017,1.2.645,2.355,1.377,3.515,2.094a.977.977,0,0,0,1.172.029C163.441,236.329,164.383,235.779,165.315,235.212Zm28.619,23a.333.333,0,0,0-.374-.153c-4.595-1.643-11.022,1.872-11.351,8.6a5.14,5.14,0,0,0,1.6-1.34,3.664,3.664,0,0,1,3.655-1.048,5.786,5.786,0,0,1,.875.238,7.824,7.824,0,0,0,5.832-.012,4.715,4.715,0,0,1,3.03-.178c1.211.463,1.837,1.743,3.1,2.387a8.45,8.45,0,0,0-.744-3.158,8.584,8.584,0,0,0-5.629-5.335Zm-30.79.717c-.084-.159-.227-.151-.374-.132a8.731,8.731,0,1,0-.753,17.426,5.277,5.277,0,0,0,.724-.005,8.771,8.771,0,0,0,6.683-12.647,7.841,7.841,0,0,0-6.288-4.649Zm-27.346-.734a8.456,8.456,0,0,0-9.5-1.068c-2.88,1.488-5.326,5.384-4.98,7.963a5.264,5.264,0,0,0,1.581-1.336,3.579,3.579,0,0,1,3.661-1.005c.932.262,1.873.49,2.81.735,1.442.376,2.747-.257,4.076-.6a4.313,4.313,0,0,1,3.588.291,10.973,10.973,0,0,0,2.4,2c-.076-.485-.11-.845-.191-1.192A9.261,9.261,0,0,0,135.8,258.193Zm32.793-21.664c-1.514.887-3.045,1.745-4.535,2.669a3.639,3.639,0,0,1-4.178,0c-1.67-1.043-3.409-1.978-5.051-3.06a2.274,2.274,0,0,0-2.349-.19c-2.882,1.147-3.937,2.621-3.957,5.716a13.274,13.274,0,0,1-.01,1.364c-.07.627.136.818.787.812,3.489-.034,6.977-.012,10.466-.017q6.962-.01,13.923-.031c1.733.1,1.734.1,1.73-1.63,0-.3-.012-.6-.01-.907.017-2.548-1.267-4.136-3.551-5.16A2.635,2.635,0,0,0,168.59,236.529Zm29,31.677a2.276,2.276,0,0,0-3.154-.973,8.736,8.736,0,0,1-6.395.036c-.255-.093-.529-.134-.784-.227a1.443,1.443,0,0,0-1.777.457,6.012,6.012,0,0,1-3.058,2.029c-.425.109-.444.38-.471.743a9.659,9.659,0,0,0,2.543,7.351,9.977,9.977,0,0,0,6.154,3.717,3.861,3.861,0,0,0,1.622-.033c4.767-1.016,8.7-6.4,8.219-11.207a.535.535,0,0,0-.453-.562A7.255,7.255,0,0,1,197.588,268.207ZM160.394,230.3a4.245,4.245,0,0,0,2.6.173c4.35-.943,8.463-6.074,8.244-9.98-.061-1.083-.058-1.954-1.375-2.142a2.574,2.574,0,0,1-.724-.364,4.852,4.852,0,0,1-.892-.772,2.347,2.347,0,0,0-3.167-.774,8.635,8.635,0,0,1-6.228.022c-.342-.122-.7-.2-1.046-.307a1.28,1.28,0,0,0-1.464.408,6.6,6.6,0,0,1-3.2,2.156c-.305.083-.4.251-.429.579A11.1,11.1,0,0,0,160.394,230.3Zm-22.943,36.987a7.7,7.7,0,0,1-1.067-.973,1.968,1.968,0,0,0-2.6-.682,9.533,9.533,0,0,1-7,.011c-.2-.072-.419-.087-.61-.171a1.2,1.2,0,0,0-1.525.407,6.585,6.585,0,0,1-3.2,2.139c-.348.093-.388.272-.411.574a11.032,11.032,0,0,0,8.005,11.086,4.259,4.259,0,0,0,2.143.112c3.8-.65,8.572-5.393,8.4-10.145-.035-.99-.064-1.751-1.24-1.939A3.548,3.548,0,0,1,137.451,267.285Z" transform="translate(-0.077 0)" fill="#030303"/>
      <path id="Trazado_172774" data-name="Trazado 172774" d="M114.025,520.158a2.962,2.962,0,0,0,3.044,1.581c3.206-.059,6.414-.014,9.621-.022,1.182,0,1.508-.267,1.783-1.368h3.182c.267,1.075.6,1.364,1.7,1.367,3.52.011,7.04.018,10.56,0a2.277,2.277,0,0,0,2.51-2.563c.009-2.268.189-4.567-.92-6.68-.165-.315.054-.437.21-.6q4.34-4.539,8.676-9.083c.306-.322.484-.272.816-.05a10.927,10.927,0,0,0,12.989,0c.405-.272.589-.2.888.106q4.1,4.269,8.226,8.508c.3.305.344.46,0,.776a7.314,7.314,0,0,0-2.294,4.9c-.127,1.3-.073,2.607-.074,3.912a2.561,2.561,0,0,0,1.6,2.322q-30.848,0-61.7.018c-.693,0-.889-.165-.83-.843C114.076,521.679,114.025,520.917,114.025,520.158Z" transform="translate(0 -225.857)" fill="#fdfdfd"/>
      <path id="Trazado_172775" data-name="Trazado 172775" d="M425.551,582.005a1.757,1.757,0,0,0,.964,1.37H421.23a1.989,1.989,0,0,0,.935-1.371Z" transform="translate(-232.484 -285.975)" fill="#fdfdfd"/>
      <path id="Trazado_172776" data-name="Trazado 172776" d="M490.147,581.969a2.573,2.573,0,0,0,1.823-1.823c0,.608.237,1.452-.067,1.756S490.754,581.969,490.147,581.969Z" transform="translate(-284.634 -284.569)" fill="#fdfdfd"/>
      <path id="Trazado_172777" data-name="Trazado 172777" d="M150.51,470.214a11.033,11.033,0,0,1-8.005-11.086c.023-.3.063-.48.411-.574a6.585,6.585,0,0,0,3.2-2.139,1.2,1.2,0,0,1,1.525-.407c.191.084.413.1.61.171a9.533,9.533,0,0,0,7-.011,1.968,1.968,0,0,1,2.6.682,7.705,7.705,0,0,0,1.067.973,14.142,14.142,0,0,1-.091,2.811,12.779,12.779,0,0,1-6.559,8.578C151.684,469.54,150.951,469.623,150.51,470.214Z" transform="translate(-21.549 -190.537)" fill="#fde3bf"/>
      <path id="Trazado_172778" data-name="Trazado 172778" d="M280.395,267.594a11.1,11.1,0,0,1-7.681-11c.027-.328.124-.5.429-.579a6.6,6.6,0,0,0,3.2-2.156,1.28,1.28,0,0,1,1.464-.408c.348.1.7.184,1.046.307a8.635,8.635,0,0,0,6.228-.022,2.347,2.347,0,0,1,3.167.774,4.849,4.849,0,0,0,.892.772c.373,3.8-1.277,6.763-3.84,9.355A13.072,13.072,0,0,1,280.395,267.594Z" transform="translate(-120.078 -37.296)" fill="#fde3bf"/>
      <path id="Trazado_172779" data-name="Trazado 172779" d="M401.582,476.75a9.977,9.977,0,0,1-6.154-3.717,9.659,9.659,0,0,1-2.543-7.351c.027-.363.046-.634.471-.743a6.012,6.012,0,0,0,3.058-2.029,1.443,1.443,0,0,1,1.777-.457c.255.093.529.135.784.227a8.736,8.736,0,0,0,6.395-.036,2.276,2.276,0,0,1,3.154.973c-.005,1.09-.019,2.181-.013,3.271a8.717,8.717,0,0,1-1.252,4.292A14.529,14.529,0,0,1,401.582,476.75Z" transform="translate(-211.013 -195.412)" fill="#fde3bf"/>
      <path id="Trazado_172780" data-name="Trazado 172780" d="M391.03,552.112h-3.386c-.355-1.127-.659-1.361-1.813-1.363-3.125,0-6.25-.025-9.375.017-.7.01-.89-.2-.838-.868.069-.874-.016-1.755.111-2.633a5.859,5.859,0,0,1,4.967-4.76,1.289,1.289,0,0,1,.827.305c1.823,1.084,3.661,2.145,5.456,3.274a3.673,3.673,0,0,0,4.256,0c1.564-.979,3.178-1.877,4.77-2.811,3.145,1.122,5.277,3.454,4.921,7.446q-4.094.014-8.188.029C391.662,550.754,391.318,551.039,391.03,552.112Z" transform="translate(-197.962 -256.082)" fill="#3d46c2"/>
      <path id="Trazado_172781" data-name="Trazado 172781" d="M140.148,546.148h-3.182c-.279-1.09-.579-1.348-1.707-1.352-3.036-.011-6.073-.025-9.109.011-.7.008-1.006-.154-.906-.9a9.881,9.881,0,0,0,.01-1.274c.011-3.078,1.1-4.613,3.944-5.749a2.335,2.335,0,0,1,2.425.213c1.638,1.093,3.381,2.027,5.054,3.069a3.557,3.557,0,0,0,4.094-.014c1.464-.915,2.974-1.757,4.464-2.63,3.889,1.217,5.334,3.241,5.144,7.2-2.843.02-5.686.035-8.53.064C140.726,544.807,140.426,545.06,140.148,546.148Z" transform="translate(-8.493 -251.655)" fill="#dce736"/>
      <path id="Trazado_172782" data-name="Trazado 172782" d="M283.731,446.256a8.731,8.731,0,1,1,.752-17.425.327.327,0,0,0,.374.132l-.008-.007c.388.661,1.067,1.055,1.525,1.647a5.441,5.441,0,0,1,1.552,2.782c-1.171-.681-1.633-.6-2.482.436q-1.211,1.476-2.423,2.951c-1.089,1.329-1.089,1.329-2.424.246a1.4,1.4,0,0,0-2.089.026,1.363,1.363,0,0,0,.272,2q1.075.979,2.193,1.912a1.434,1.434,0,0,0,2.34-.22c1.448-1.752,2.877-3.519,4.326-5.271a2.01,2.01,0,0,0,.548-1.214c.387.1.379.467.431.73a10.474,10.474,0,0,1-.782,6.785A12.147,12.147,0,0,1,283.731,446.256Z" transform="translate(-121.791 -170.036)" fill="#75b62f"/>
      <path id="Trazado_172783" data-name="Trazado 172783" d="M280.663,342.148q-6.961.016-13.923.031c-3.489.005-6.978-.017-10.466.017-.651.006-.856-.185-.787-.812a13.275,13.275,0,0,0,.01-1.364c.019-3.095,1.075-4.569,3.957-5.716a2.274,2.274,0,0,1,2.349.19c1.643,1.082,3.381,2.018,5.051,3.06a3.639,3.639,0,0,0,4.178,0c1.49-.924,3.022-1.782,4.535-2.669a.855.855,0,0,0,.215.158C279.354,336.172,280.824,338.477,280.663,342.148Z" transform="translate(-107.055 -98.358)" fill="#f85316"/>
      <path id="Trazado_172784" data-name="Trazado 172784" d="M289.754,222.578a3.952,3.952,0,0,0-3.4-.4c-.349.1-.715.15-1.052.278a6.461,6.461,0,0,1-4.782-.019c-.336-.129-.705-.172-1.053-.275a3.75,3.75,0,0,0-4.121,1.141,3.694,3.694,0,0,1-1.308,1.088c-.421-1.69,1.382-5.823,4.283-7.573a8.568,8.568,0,0,1,9.992.612c.162.745.671,1.342.9,2.055C289.523,220.492,290.1,221.456,289.754,222.578Z" transform="translate(-121.056 -8.645)" fill="#6b7ea8"/>
      <path id="Trazado_172785" data-name="Trazado 172785" d="M159.374,425.092a4.313,4.313,0,0,0-3.588-.291c-1.329.347-2.633.981-4.076.6-.937-.245-1.878-.473-2.81-.735a3.579,3.579,0,0,0-3.661,1.005,5.264,5.264,0,0,1-1.581,1.336c-.346-2.579,2.1-6.474,4.98-7.963a8.456,8.456,0,0,1,9.5,1.068,1.218,1.218,0,0,0,.178.681,13.165,13.165,0,0,1,1.192,3.2C159.587,424.378,159.73,424.766,159.374,425.092Z" transform="translate(-22.418 -161.924)" fill="#6b7ea8"/>
      <path id="Trazado_172786" data-name="Trazado 172786" d="M409.034,430.936a4.715,4.715,0,0,0-3.03.178,7.824,7.824,0,0,1-5.832.012,5.785,5.785,0,0,0-.875-.238,3.664,3.664,0,0,0-3.655,1.048,5.14,5.14,0,0,1-1.6,1.34c.329-6.725,6.757-10.24,11.351-8.6a.353.353,0,0,0,.373.153l0,0c-.021.355.256.527.458.742A11.062,11.062,0,0,1,409.034,430.936Z" transform="translate(-211.909 -166.622)" fill="#6b7ea8"/>
      <path id="Trazado_172787" data-name="Trazado 172787" d="M311.045,446.774a12.146,12.146,0,0,0,4.106-4.489,10.474,10.474,0,0,0,.782-6.785c-.052-.263-.045-.633-.431-.729l-.217-.706c.114-.094.1-.158-.046-.188l0,.025a5.441,5.441,0,0,0-1.552-2.782c-.458-.592-1.137-.986-1.525-1.647a7.84,7.84,0,0,1,6.288,4.649,8.771,8.771,0,0,1-6.683,12.647A5.282,5.282,0,0,1,311.045,446.774Z" transform="translate(-149.106 -170.553)" fill="#75b62f"/>
      <path id="Trazado_172788" data-name="Trazado 172788" d="M428.723,480.776a14.529,14.529,0,0,0,5.677-5.568,8.718,8.718,0,0,0,1.252-4.292c-.007-1.09.008-2.181.013-3.271a7.254,7.254,0,0,0,2.446,1.33.535.535,0,0,1,.453.562c.48,4.808-3.453,10.191-8.219,11.207A3.861,3.861,0,0,1,428.723,480.776Z" transform="translate(-238.154 -199.437)" fill="#facea1"/>
      <path id="Trazado_172789" data-name="Trazado 172789" d="M175.492,476.247c.441-.59,1.174-.673,1.764-1a12.779,12.779,0,0,0,6.559-8.578,14.146,14.146,0,0,0,.091-2.812,3.546,3.546,0,0,0,.894.419c1.176.188,1.205.949,1.24,1.939.168,4.752-4.6,9.5-8.4,10.145A4.258,4.258,0,0,1,175.492,476.247Z" transform="translate(-46.531 -196.571)" fill="#facea1"/>
      <path id="Trazado_172790" data-name="Trazado 172790" d="M304.376,273.53a13.072,13.072,0,0,0,4.9-2.959c2.563-2.592,4.213-5.558,3.84-9.355a2.574,2.574,0,0,0,.724.364c1.316.188,1.314,1.06,1.375,2.142.219,3.907-3.894,9.037-8.244,9.98A4.245,4.245,0,0,1,304.376,273.53Z" transform="translate(-144.059 -43.232)" fill="#facea1"/>
      <path id="Trazado_172791" data-name="Trazado 172791" d="M212.612,544.458c.19-3.963-1.255-5.987-5.144-7.2.716-.358,1.224-1.226,2.224-.89,1.852.623,3.585,1.4,4.341,3.408a12.069,12.069,0,0,1,.393,4.323c0,.314-.175.439-.458.431C213.516,544.512,213.064,544.481,212.612,544.458Z" transform="translate(-70.728 -251.381)" fill="#dce736"/>
      <path id="Trazado_172792" data-name="Trazado 172792" d="M343.16,342.208c.161-3.672-1.309-5.977-4.879-7.1a.854.854,0,0,1-.215-.158,2.635,2.635,0,0,1,3.264-.436c2.284,1.023,3.568,2.612,3.551,5.16,0,.3.009.6.01.907C344.893,342.307,344.893,342.307,343.16,342.208Z" transform="translate(-169.552 -98.418)" fill="#f85316"/>
      <path id="Trazado_172793" data-name="Trazado 172793" d="M464.36,551.047c.356-3.991-1.776-6.324-4.921-7.446a2.22,2.22,0,0,1,2.7-.388c2.784,1.184,3.849,2.665,3.863,5.675,0,.211,0,.423,0,.634C466,551.128,466,551.128,464.36,551.047Z" transform="translate(-261.397 -256.41)" fill="#3d46c2"/>
      <path id="Trazado_172794" data-name="Trazado 172794" d="M445.489,432.652a11.061,11.061,0,0,0-2.813-5.365c-.2-.215-.48-.387-.458-.742a8.584,8.584,0,0,1,5.629,5.335,8.45,8.45,0,0,1,.744,3.158C447.326,434.4,446.7,433.115,445.489,432.652Z" transform="translate(-248.364 -168.338)" fill="#476497"/>
      <path id="Trazado_172795" data-name="Trazado 172795" d="M293.766,322.85c.373-.993.928-1.2,1.991-.8a6.832,6.832,0,0,0,4.812-.131c.607-.226.965-.168,1.194.442.01.027.039.048.05.075.168.418.9.671.715,1.033-.2.386-.821.554-1.259.818-.219-.844-.736-1.055-1.483-.653a3.3,3.3,0,0,1-1.757.328A12.574,12.574,0,0,1,293.766,322.85Z" transform="translate(-136.03 -89.071)" fill="#f9b782"/>
      <path id="Trazado_172796" data-name="Trazado 172796" d="M163.273,525.56l.035-.084c.41-1,1.025-1.208,2.076-.8a6.541,6.541,0,0,0,4.619-.086c.644-.226,1.088-.321,1.406.452a4.8,4.8,0,0,0,.856,1.04l-1.281.741c-.468-.662-1-1.119-1.893-.746A6.767,6.767,0,0,1,163.273,525.56Z" transform="translate(-37.285 -242.409)" fill="#f9b782"/>
      <path id="Trazado_172797" data-name="Trazado 172797" d="M413.828,531.8a3.365,3.365,0,0,0,.342-.526c.246-.587.582-.671,1.2-.446a7.618,7.618,0,0,0,5.333,0c.544-.2.906-.222,1.139.381a1.049,1.049,0,0,0,.316.438c.883.679.439,1-.32,1.252-.4-.8-1.012-.851-1.745-.5a5.253,5.253,0,0,1-3.349.345C415.711,532.559,414.851,531.945,413.828,531.8Z" transform="translate(-226.882 -247.155)" fill="#f9b782"/>
      <path id="Trazado_172798" data-name="Trazado 172798" d="M412.456,535.207c1.023.145,1.883.759,2.911.946a5.253,5.253,0,0,0,3.349-.345c.733-.353,1.343-.3,1.745.5-1.1.679-2.213,1.344-3.3,2.042a.98.98,0,0,1-1.167-.095c-1.159-.709-2.308-1.437-3.5-2.09C411.844,535.807,411.879,535.549,412.456,535.207Z" transform="translate(-225.51 -250.563)" fill="#facea1"/>
      <path id="Trazado_172799" data-name="Trazado 172799" d="M161.967,529.069a6.767,6.767,0,0,0,5.817.519c.89-.372,1.425.084,1.893.746-1.006.616-2.02,1.219-3.013,1.855a.9.9,0,0,1-1.08-.092c-1.187-.727-2.374-1.457-3.587-2.138C161.414,529.633,161.39,529.387,161.967,529.069Z" transform="translate(-35.979 -245.918)" fill="#facea1"/>
      <path id="Trazado_172800" data-name="Trazado 172800" d="M292.29,326.137a12.575,12.575,0,0,0,4.263,1.108,3.3,3.3,0,0,0,1.757-.328c.747-.4,1.264-.191,1.483.652-.932.567-1.874,1.118-2.791,1.708a.977.977,0,0,1-1.172-.029c-1.16-.717-2.314-1.45-3.515-2.095C291.584,326.762,291.725,326.489,292.29,326.137Z" transform="translate(-134.554 -92.358)" fill="#facea1"/>
      <path id="Trazado_172801" data-name="Trazado 172801" d="M204.5,431.461c.357-.326.213-.714.134-1.092a13.167,13.167,0,0,0-1.192-3.2,1.218,1.218,0,0,1-.178-.68,9.261,9.261,0,0,1,3.444,5.787c.081.348.115.707.191,1.192A10.974,10.974,0,0,1,204.5,431.461Z" transform="translate(-67.545 -168.293)" fill="#476497"/>
      <path id="Trazado_172802" data-name="Trazado 172802" d="M334.341,228.563c.344-1.122-.231-2.086-.547-3.089-.225-.714-.734-1.31-.9-2.055a8.9,8.9,0,0,1,3.624,6.966l.009-.009C335.565,230.057,335.114,229.115,334.341,228.563Z" transform="translate(-165.643 -14.63)" fill="#476497"/>
      <path id="Trazado_172803" data-name="Trazado 172803" d="M314.512,429.061a.327.327,0,0,1-.374-.132C314.285,428.909,314.428,428.9,314.512,429.061Z" transform="translate(-151.446 -170.133)" fill="#4ebe22"/>
      <path id="Trazado_172804" data-name="Trazado 172804" d="M441.071,426.063a.353.353,0,0,1-.373-.153A.333.333,0,0,1,441.071,426.063Z" transform="translate(-247.215 -167.853)" fill="#476497"/>
      <path id="Trazado_172805" data-name="Trazado 172805" d="M347.8,252.023l.089.057c-.017,0-.042.007-.05,0a.231.231,0,0,1-.03-.065Z" transform="translate(-176.915 -36.268)" fill="#476497"/>
      <path id="Trazado_172806" data-name="Trazado 172806" d="M298.022,446.469l.218.706a2.01,2.01,0,0,1-.548,1.214c-1.448,1.752-2.878,3.518-4.326,5.271a1.434,1.434,0,0,1-2.34.22q-1.115-.934-2.193-1.912a1.363,1.363,0,0,1-.272-2,1.4,1.4,0,0,1,2.089-.026c1.335,1.083,1.335,1.083,2.424-.246q1.211-1.477,2.423-2.951c.85-1.035,1.311-1.117,2.482-.436l0-.025Z" transform="translate(-131.844 -182.957)" fill="#030303"/>
      <path id="Trazado_172807" data-name="Trazado 172807" d="M328.323,447.761l-.046-.188C328.423,447.6,328.437,447.667,328.323,447.761Z" transform="translate(-162.145 -184.249)" fill="#7ed060"/>
    </g>
  </g>
</svg>
