<svg xmlns="http://www.w3.org/2000/svg" width="104.249" height="105.045" viewBox="0 0 104.249 105.045">
  <g id="Grupo_118205" data-name="Grupo 118205" transform="translate(-245.255 -2416.914)">
    <g id="Grupo_118192" data-name="Grupo 118192" transform="translate(245.255 2416.914)">
      <g id="Grupo_118173" data-name="Grupo 118173" transform="translate(0 0)">
        <ellipse id="Elipse_6071" data-name="Elipse 6071" cx="52.124" cy="52.522" rx="52.124" ry="52.522" fill="#fff"/>
      </g>
    </g>
    <g id="miedo_1_" data-name="miedo (1)" transform="translate(148.166 2230.195)">
      <path id="Trazado_175605" data-name="Trazado 175605" d="M179.484,289.28a1.422,1.422,0,0,1,1.932.809c.717,1.233,1.4,2.465,2.134,3.7a12.557,12.557,0,0,1,1.159,3.33v.276a4.714,4.714,0,0,0-.074,1.343v.662a8.451,8.451,0,0,1-7.782,7.653H121.68a8.574,8.574,0,0,1-7.506-7.414.236.236,0,0,0-.074-.184v-.4a1.076,1.076,0,0,0,0-.828v-1.233c1.177-4.287,3.919-7.764,6.016-11.59,2.741-5.022,5.685-9.953,8.518-14.92.35-.607.662-1.233,1.509-1.233.313,0,.184-.258.184-.4-.129-1.527-.239-3.072-.4-4.6a7.867,7.867,0,0,1,2.41-6.752,4.324,4.324,0,0,0,1.159-1.95,16.615,16.615,0,0,1,31.993.57,2.628,2.628,0,0,0,.9,1.251,7.953,7.953,0,0,1,2.557,6.237c-.037,1.177-.184,2.336-.294,3.5-.037.313-.055.644-.092.957-.074.625-.294,1.306.736,1.38.313.018.478.386.644.681q2.539,4.415,5.059,8.831a1.414,1.414,0,0,1-.386,2.061,1.273,1.273,0,0,1-1.766-.11,4.815,4.815,0,0,1-.717-1.012c-1.251-2.189-2.52-4.379-3.753-6.586-.276-.478-.534-.589-1.03-.35-1.84.846-3.643,1.748-5.5,2.557-.46.2-.515.478-.35.938,2.373,6.347,4.673,12.731,7.028,19.078.57,1.545,1.141,3.109,1.711,4.655A5.854,5.854,0,0,0,176.853,304a5.908,5.908,0,0,0,4.066-8.812c-.681-1.214-1.4-2.428-2.079-3.661a1.944,1.944,0,0,1-.221-1.453C178.767,289.63,178.969,289.262,179.484,289.28Z" transform="translate(-0.191 -32.47)"/>
      <path id="Trazado_175606" data-name="Trazado 175606" d="M114.1,277c.717-1.067,1.214-1.2,2.355-.662,2.042.975,4.084,1.95,6.145,2.925a1.458,1.458,0,0,1,.11,2.8c-.626.331-1.233.7-1.913,1.1,1.453.828,2.833,1.619,4.231,2.41.258.147.515.294.773.46a1.355,1.355,0,0,1,.478,1.913,1.337,1.337,0,0,1-1.858.46c-.993-.534-1.95-1.1-2.925-1.656-1.306-.754-2.631-1.49-3.937-2.244a1.405,1.405,0,0,1,0-2.631c.57-.331,1.141-.662,1.821-1.049-1.38-.662-2.668-1.288-3.992-1.895a2.5,2.5,0,0,1-1.269-1.067C114.1,277.556,114.1,277.28,114.1,277Z" transform="translate(-0.191 -58.864)"/>
      <path id="Trazado_175607" data-name="Trazado 175607" d="M408.944,203.937c1.214.736,1.325,1.582.331,2.649s-1.987,2.152-3.054,3.312c.736.11,1.343.184,1.95.276a1.574,1.574,0,0,1,1.472.938,1.6,1.6,0,0,1-.423,1.637c-1.545,1.932-3.091,3.882-4.636,5.814a1.766,1.766,0,0,1-1.159.791,1.285,1.285,0,0,1-1.325-.681,1.332,1.332,0,0,1,.147-1.6c1.067-1.343,2.134-2.686,3.22-4.047.092-.11.166-.221.313-.4-.9-.147-1.729-.258-2.557-.4a1.314,1.314,0,0,1-1.159-1.2,1.371,1.371,0,0,1,.442-1.177c1.656-1.785,3.293-3.587,4.949-5.372a6.386,6.386,0,0,1,.662-.57A6.233,6.233,0,0,0,408.944,203.937Z" transform="translate(-235.041 0)"/>
      <path id="Trazado_175608" data-name="Trazado 175608" d="M167.91,204.1a2.57,2.57,0,0,1,1.049.828l4.526,4.912a1.6,1.6,0,0,1,.552,1.656c-.239.717-.846.9-1.509.993-.681.092-1.361.184-2.152.294.993,1.251,1.932,2.428,2.87,3.606.239.313.5.607.717.92a1.379,1.379,0,0,1-.221,1.913,1.288,1.288,0,0,1-1.895-.2c-1.729-2.134-3.459-4.287-5.151-6.457a1.321,1.321,0,0,1,.846-2.134c.754-.166,1.527-.239,2.392-.386-1.012-1.1-1.95-2.134-2.907-3.164-1.122-1.2-1.1-1.729.055-2.778Z" transform="translate(-42.705 -0.163)"/>
      <path id="Trazado_175609" data-name="Trazado 175609" d="M442.912,277.844a2.713,2.713,0,0,1-1.269,1.085c-1.306.607-2.612,1.233-3.974,1.877.681.4,1.325.754,1.932,1.141a1.359,1.359,0,0,1,0,2.484c-2.3,1.343-4.618,2.649-6.936,3.937a1.372,1.372,0,1,1-1.325-2.392c1.435-.828,2.87-1.637,4.287-2.465a5.333,5.333,0,0,0,.57-.35c-.681-.4-1.306-.791-1.95-1.122a1.509,1.509,0,0,1-.957-1.4,1.494,1.494,0,0,1,1.03-1.325c2.1-.975,4.176-1.987,6.255-2.98,1.141-.552,1.8-.313,2.3.809A4.456,4.456,0,0,1,442.912,277.844Z" transform="translate(-258.394 -58.877)"/>
      <path id="Trazado_175612" data-name="Trazado 175612" d="M497.1,536.817c.037-.478-.184-.957.11-1.417v1.38C497.192,536.835,497.155,536.853,497.1,536.817Z" transform="translate(-312.692 -270.513)" fill="#161616"/>
      <path id="Trazado_175613" data-name="Trazado 175613" d="M114.1,540a.619.619,0,0,1,0,.828Z" transform="translate(-0.191 -274.267)" fill="#131313"/>
      <path id="Trazado_175614" data-name="Trazado 175614" d="M497.218,542.937a.261.261,0,0,0,.11-.037v.681c-.037,0-.074.018-.129.018C497.218,543.4,497.218,543.176,497.218,542.937Z" transform="translate(-312.811 -276.633)" fill="#5f5f5f"/>
      <path id="Trazado_175615" data-name="Trazado 175615" d="M388.366,417.189a1.413,1.413,0,0,0-.46,2.134c.717,1.288,1.49,2.539,2.171,3.827a6.068,6.068,0,0,1-5.648,9,5.835,5.835,0,0,1-5.446-4.066c-1.453-3.863-2.852-7.745-4.287-11.627-1.509-4.084-3-8.187-4.526-12.271-.184-.5-.129-.7.368-.92,1.932-.865,3.845-1.748,5.74-2.668.515-.258.773-.239,1.085.331,1.325,2.41,2.723,4.783,4.1,7.175a1.452,1.452,0,0,0,2.061.773,15.59,15.59,0,0,0,1.785,2.907c.037.239-.184.35-.313.5a1.171,1.171,0,0,0,.92,1.932c.221,0,.442-.11.644.055C387.225,415.22,387.63,416.306,388.366,417.189Z" transform="translate(-209.073 -160.378)" fill="#f85316"/>
      <path id="Trazado_175616" data-name="Trazado 175616" d="M450.7,464.2c-.938.258-1.6.037-1.913-.644a1.4,1.4,0,0,1,.662-1.84c.883-.221,1.472-.018,1.8.644C451.568,462.989,451.4,463.559,450.7,464.2Z" transform="translate(-273.195 -210.318)" fill="#010101"/>
      <path id="Trazado_175617" data-name="Trazado 175617" d="M197.2,505.115a12.513,12.513,0,0,0,2.557-4.857c1.067-2.925,2.171-5.85,3.2-8.794a1.035,1.035,0,0,1,.957-.791,27.544,27.544,0,0,0,4.4-.791c.294-.092.423.074.607.221a12.517,12.517,0,0,0,7.635,3.091,12.152,12.152,0,0,0,8.555-2.8,1.459,1.459,0,0,1,1.509-.35,32.869,32.869,0,0,0,3.808.625,1.073,1.073,0,0,1,1.012.81c1.233,3.44,2.5,6.844,3.753,10.284a9.623,9.623,0,0,0,1.987,3.348Z" transform="translate(-68.003 -233.348)" fill="#f85316"/>
      <path id="Trazado_175618" data-name="Trazado 175618" d="M129,425.818a6,6,0,0,1,.828-3.017q6.375-11.149,12.768-22.279c.2-.368.368-.4.736-.239,2.005.957,4.029,1.913,6.053,2.833.4.184.46.35.313.773-2.962,8-5.887,16.024-8.849,24.027a6.038,6.038,0,0,1-6.9,3.955A6.14,6.14,0,0,1,129,425.818Z" transform="translate(-12.35 -160.176)" fill="#f85316"/>
      <path id="Trazado_175619" data-name="Trazado 175619" d="M262.863,347.572a11.411,11.411,0,0,1-8.941-4.4.9.9,0,0,1-.166-1.049c.2-.442.35-.9.515-1.343a1.371,1.371,0,0,0-.681-1.913c-.276-.166-.35-.294-.258-.589a15.509,15.509,0,0,0,.331-6.752,3.727,3.727,0,0,1,.239-1.95,34.624,34.624,0,0,0,1.527-4.268c.055-.258.258-.368.442-.478a15.3,15.3,0,0,1,2.612-1.214.784.784,0,0,1,.865.166,25.869,25.869,0,0,0,11.737,5.427c1.012.184,1.343.625,1.269,1.693-.037.681-.11,1.38-.184,2.06a13.326,13.326,0,0,0,.4,5.114c.11.386.147.626-.294.865a1.25,1.25,0,0,0-.626,1.637,9.28,9.28,0,0,0,.515,1.417,1.072,1.072,0,0,1-.239,1.343A11.63,11.63,0,0,1,262.863,347.572Z" transform="translate(-113.779 -97.642)" fill="#ffd4a2"/>
      <path id="Trazado_175620" data-name="Trazado 175620" d="M257.684,273.325a23.3,23.3,0,0,1-6.568-2.686,22.215,22.215,0,0,1-3.385-2.484,1.772,1.772,0,0,0-1.785-.4,15.353,15.353,0,0,0-3.2,1.233c-.386.221-.552.147-.809-.2a4.489,4.489,0,0,0-3.551-1.969c-.754-.055-.773-.055-.386-.754,2.7-4.728,6.752-7.359,12.234-7.359,5.538-.018,9.622,2.612,12.345,7.414.294.533.276.681-.4.717a4.681,4.681,0,0,0-4.287,5.924C258.07,273.344,258.07,273.362,257.684,273.325Z" transform="translate(-101.093 -44.718)" fill="#c58965"/>
      <path id="Trazado_175621" data-name="Trazado 175621" d="M214.7,323.763a5.293,5.293,0,0,1,1.141-3.33,17.806,17.806,0,0,1,2.3-2.263,1.9,1.9,0,0,1,2.244-.092,1.838,1.838,0,0,1,.791,2.152c-.442,1.288-.883,2.557-1.417,3.79a5.522,5.522,0,0,0-.35,2.888,14.559,14.559,0,0,1-.055,5.28c-.11.423-.166.607-.644.35-.975-.515-1.987-.957-2.98-1.4a.652.652,0,0,1-.46-.607C215.086,328.271,214.884,326.008,214.7,323.763Z" transform="translate(-82.283 -92.911)" fill="#ffd4a2"/>
      <path id="Trazado_175622" data-name="Trazado 175622" d="M363.266,329.669c.11-1.251.2-2.52.313-3.771a2.962,2.962,0,0,0-.184-1.269c-.515-1.343-1.03-2.7-1.527-4.047a1.977,1.977,0,0,1,3.256-2.189c.589.552,1.177,1.1,1.729,1.693a5.137,5.137,0,0,1,1.361,4.047c-.166,2.005-.35,4.029-.515,6.034a1.026,1.026,0,0,1-.7,1.03c-.975.386-1.932.865-2.87,1.343-.368.184-.478.074-.552-.276A13.515,13.515,0,0,1,363.266,329.669Z" transform="translate(-202.223 -92.875)" fill="#ffd4a2"/>
      <path id="Trazado_175623" data-name="Trazado 175623" d="M278.6,470.235a9.878,9.878,0,0,1-5.869-1.969c-.313-.239-.35-.368-.092-.681a5.159,5.159,0,0,0,1.049-2.134c.092-.368.221-.442.607-.313a14.161,14.161,0,0,0,8.647,0c.386-.129.534-.055.607.313a4.882,4.882,0,0,0,1.012,2.079c.294.35.258.534-.11.791A9.854,9.854,0,0,1,278.6,470.235Z" transform="translate(-129.428 -213.13)" fill="#ffd4a2"/>
      <path id="Trazado_175624" data-name="Trazado 175624" d="M351.98,450.5c-1.085-.184-2.042-.294-2.98-.515a3.484,3.484,0,0,1-2.447-3.017c-.018-.184-.037-.368.166-.478a15.957,15.957,0,0,0,2.888-2.392c.092.221.166.386.221.552C350.527,446.547,351.226,448.46,351.98,450.5Z" transform="translate(-189.87 -196.01)" fill="#fefefe"/>
      <path id="Trazado_175625" data-name="Trazado 175625" d="M235.9,450.665c.809-2.208,1.564-4.268,2.336-6.365.423.2.662.626,1.012.883.46.35.883.736,1.343,1.067.846.607.883.644.552,1.6a3.338,3.338,0,0,1-2.557,2.355C237.74,450.389,236.875,450.5,235.9,450.665Z" transform="translate(-99.583 -196.173)" fill="#fefefe"/>
      <path id="Trazado_175626" data-name="Trazado 175626" d="M290.114,407.1a4.29,4.29,0,0,1,3,1.159,1.36,1.36,0,0,1,.2,2.005,1.387,1.387,0,0,1-1.969.092,1.749,1.749,0,0,0-2.484-.018,1.387,1.387,0,0,1-2.024-.11,1.369,1.369,0,0,1,.258-2.005A4.333,4.333,0,0,1,290.114,407.1Z" transform="translate(-140.883 -165.814)"/>
      <path id="Trazado_175627" data-name="Trazado 175627" d="M271.691,377.705a1.39,1.39,0,0,1-1.472-.993,1.287,1.287,0,0,1,.607-1.545,11.917,11.917,0,0,1,1.637-.717,1.344,1.344,0,0,1,1.38,2.208A4.99,4.99,0,0,1,271.691,377.705Z" transform="translate(-127.537 -139.108)" fill="#010100"/>
      <path id="Trazado_175628" data-name="Trazado 175628" d="M321.206,374.3a5.309,5.309,0,0,1,2.3,1.141,1.2,1.2,0,0,1,.092,1.582,1.243,1.243,0,0,1-1.49.57,8.335,8.335,0,0,1-1.748-.791,1.218,1.218,0,0,1-.515-1.509A1.407,1.407,0,0,1,321.206,374.3Z" transform="translate(-168.019 -139.051)" fill="#010101"/>
    </g>
  </g>
</svg>
