<svg xmlns="http://www.w3.org/2000/svg" width="131" height="132" viewBox="0 0 131 132">
  <g id="Grupo_118175" data-name="Grupo 118175" transform="translate(-734.5 -12877.812)">
    <g id="Grupo_118172" data-name="Grupo 118172">
      <ellipse id="Elipse_5600" data-name="Elipse 5600" cx="65.5" cy="66" rx="65.5" ry="66" transform="translate(734.5 12877.812)" fill="#fff"/>
    </g>
    <g id="Grupo_116838" data-name="Grupo 116838" transform="translate(644.366 12664.876)">
      <path id="Trazado_173841" data-name="Trazado 173841" d="M114.071,247.156a6.91,6.91,0,0,1,2.015-3.431,6,6,0,0,1,3.826-1.365c1.246-.031,2.493-.019,3.739,0s1.749.528,1.756,1.782c.01,1.967.037,3.934-.015,5.9-.019.716.221.847.883.846q27.3-.027,54.594-.014,5.983,0,11.966,0c1.681,0,2.1.419,2.1,2.112q0,17.659-.015,35.318c0,.7.12,1.026.893.916.489-.069,1,.023,1.493-.021a1.776,1.776,0,0,1,1.9,1.025v12.138c-.368,1.027-.642,1.224-1.764,1.257-.471.014-.943.023-1.413,0-.644-.029-.889.266-.884.893.01,1.33.013,2.66,0,3.99-.016,1.593-.6,2.189-2.205,2.261-.3.014-.609.008-.914.008H120.868c-.222,0-.443,0-.665,0q-5.169-.1-6.133-5.083Z"/>
      <path id="Trazado_173843" data-name="Trazado 173843" d="M165.635,347.5q-17.7,0-35.405,0c-1.772,0-2.843-.721-3.228-2.153a2.748,2.748,0,0,1,2.4-3.472c1.324-.092,2.658-.041,3.987-.05,1.574-.01,2.011-.446,2.011-2.033q0-22.649-.018-45.3c0-.781.222-.943.963-.942q32.413.029,64.826,0c.691,0,.934.109.932.886q-.046,16.872,0,33.745c0,.759-.213.893-.919.89-7.979-.026-15.957-.012-23.936-.024a4.248,4.248,0,0,0-1.987.471c-3.351,1.7-6.716,3.366-10.076,5.045-.173.086-.35.166-.516.265a1.4,1.4,0,0,0,.012,2.616c3.69,1.884,7.4,3.722,11.109,5.572a3.009,3.009,0,0,0,1.384.206c8.006,0,16.013.008,24.019-.02.721,0,.975.15.906.9a13.492,13.492,0,0,0,0,2.408c.068.778-.14,1.014-.972,1.012Q183.38,347.474,165.635,347.5Z" transform="translate(-9.989 -39.853)" fill="#e5e5e5"/>
      <path id="Trazado_173844" data-name="Trazado 173844" d="M126.839,309.89v-1.055q0-25.065,0-50.129c0-2.477,1.054-3.523,3.547-3.525,2.117,0,2.117,0,2.117,2.092q0,25.439.018,50.877c0,.8-.186,1.037-1,1.01C129.958,309.108,128.36,308.958,126.839,309.89Z" transform="translate(-9.936 -9.992)" fill="#3d46c2"/>
      <path id="Trazado_173845" data-name="Trazado 173845" d="M465.229,470.694c0,1.191-.015,2.382.008,3.573.008.427-.049.646-.567.635-1.523-.034-3.047-.029-4.57,0-.454.008-.548-.152-.546-.571q.025-3.7,0-7.4c0-.45.144-.556.568-.55,1.523.023,3.047.026,4.57,0,.455-.008.555.151.547.572C465.213,468.2,465.229,469.448,465.229,470.694Z" transform="translate(-268.863 -174.355)" fill="#3d46c2"/>
      <path id="Trazado_173846" data-name="Trazado 173846" d="M364.116,469.21c-2.1,0-4.206-.017-6.308.011-.544.007-.767-.09-.764-.708.009-2.136-.017-2.136,2.147-2.136,3.735,0,7.47.016,11.206-.015.653-.005.91.108.894.837-.045,2.01-.009,2.011-2.028,2.011Z" transform="translate(-189.087 -174.339)" fill="#dce736"/>
      <path id="Trazado_173847" data-name="Trazado 173847" d="M364.2,491.924c2.13,0,4.261.02,6.39-.014.557-.009.691.163.694.7.011,2.147.029,2.147-2.138,2.147-3.762,0-7.525-.017-11.286.016-.662.006-.83-.179-.819-.827.033-2.02.006-2.021,2.014-2.021Z" transform="translate(-189.085 -194.221)" fill="#989de5"/>
      <path id="Trazado_173848" data-name="Trazado 173848" d="M436.828,470.661c0,1.216-.015,2.432.008,3.647.008.433-.141.555-.569.575-2.273.1-2.273.116-2.273-2.178,0-1.879.018-3.758-.011-5.637-.008-.54.151-.7.7-.7,2.15-.018,2.15-.037,2.15,2.142Q436.828,469.583,436.828,470.661Z" transform="translate(-248.963 -174.338)" fill="#dce736"/>
      <path id="Trazado_173849" data-name="Trazado 173849" d="M313.921,473.7l6.736-3.373c0,.6,0,1.073,0,1.55,0,1.495-.007,2.99,0,4.485,0,.436-.013.718-.576.43C318.091,475.769,316.083,474.778,313.921,473.7Z" transform="translate(-155.528 -177.421)" fill="#f85316"/>
      <path id="Trazado_173850" data-name="Trazado 173850" d="M208.581,324.125c-2.216,0-4.433.005-6.649,0-1.391,0-1.844-.458-1.855-1.832-.005-.61-.024-1.22.007-1.828.021-.423-.1-.591-.55-.579-1.08.028-2.161.026-3.241,0-.416-.009-.516.151-.5.533.025.664.014,1.33.006,1.995-.015,1.205-.5,1.69-1.727,1.711-.665.012-1.331.021-1.995,0-.406-.015-.528.147-.522.534.017,1.08.021,2.161,0,3.241-.009.4.118.531.52.514.719-.03,1.441-.023,2.161,0a1.424,1.424,0,0,1,1.562,1.544c.021.692.026,1.386,0,2.078-.018.435.063.658.576.641,1.051-.036,2.106-.028,3.158,0,.44.01.578-.148.561-.578-.029-.719-.026-1.441,0-2.16a1.386,1.386,0,0,1,1.5-1.517q6.982-.025,13.964,0a1.4,1.4,0,0,1,1.53,1.571q.024,4.073,0,8.146a1.411,1.411,0,0,1-1.579,1.6q-6.9.019-13.8,0c-1.1,0-1.6-.52-1.62-1.644-.015-.665-.021-1.331,0-1.995.015-.4-.07-.609-.538-.6-1.08.028-2.161.024-3.241,0-.4-.009-.527.13-.514.525.026.747.027,1.5,0,2.244a1.366,1.366,0,0,1-1.462,1.459q-4.2.032-8.395,0a1.351,1.351,0,0,1-1.455-1.464q-.031-4.2,0-8.4a1.378,1.378,0,0,1,1.477-1.453c.747-.027,1.5-.029,2.244,0,.41.017.523-.126.515-.52-.022-1.08-.019-2.161,0-3.241.006-.392-.126-.542-.527-.529q-1.079.036-2.161,0a1.4,1.4,0,0,1-1.551-1.545q-.026-4.114,0-8.229a1.415,1.415,0,0,1,1.557-1.555q4.114-.035,8.228,0a1.427,1.427,0,0,1,1.533,1.58c.018.72.022,1.441,0,2.161-.013.391.106.539.514.531,1.08-.022,2.161-.027,3.241,0,.472.013.55-.2.537-.6-.022-.664-.016-1.33,0-1.995.023-1.154.528-1.675,1.682-1.683,2.106-.016,4.211,0,6.317,0,2.383,0,4.765,0,7.148,0,1.362,0,1.85.493,1.853,1.854q.007,3.865,0,7.73c0,1.262-.489,1.749-1.764,1.756C213.069,324.133,210.825,324.125,208.581,324.125Z" transform="translate(-54.78 -54.811)"/>
      <path id="Trazado_173851" data-name="Trazado 173851" d="M360.721,340.544h-8.812c-1.119,0-1.119,0-1.119-1.078,0-1.765,0-1.751,1.748-1.777.355-.005.934.242,1.032-.19a1.747,1.747,0,0,0-.247-1.722,9.514,9.514,0,0,1-2.262-4.28,9.918,9.918,0,1,1,19.406-4.058,9.5,9.5,0,0,1-2.262,8.186,2.455,2.455,0,0,0-.408,1.783c-.01.215.131.283.316.289.166.005.333-.008.5.006.652.054,1.654-.3,1.877.136a5.639,5.639,0,0,1,.132,2.355c0,.526-.416.342-.673.343C366.873,340.548,363.8,340.544,360.721,340.544Z" transform="translate(-184.213 -59.857)"/>
      <path id="Trazado_173852" data-name="Trazado 173852" d="M194.148,481.8c-3.048,0-6.1-.014-9.144.013-.573,0-.883-.066-.786-.742s-.29-1.584.152-1.981c.373-.336,1.259-.119,1.918-.119,5.653,0,11.306.013,16.959-.022.721,0,.905.2.833.874-.068.626.19,1.456-.127,1.842-.338.411-1.195.127-1.824.13C199.469,481.811,196.809,481.8,194.148,481.8Z" transform="translate(-54.54 -184.1)"/>
      <path id="Trazado_173853" data-name="Trazado 173853" d="M194.192,504.409c3.075,0,6.15.016,9.225-.014.586-.006.787.153.719.733-.08.679.284,1.557-.142,1.994-.391.4-1.261.114-1.919.116-5.679.009-11.359-.006-17.038.021-.63,0-.822-.157-.76-.774.066-.656-.211-1.539.123-1.924.394-.456,1.3-.138,1.98-.143C188.984,504.4,191.588,504.409,194.192,504.409Z" transform="translate(-54.6 -203.874)"/>
      <path id="Trazado_173854" data-name="Trazado 173854" d="M216.9,453.322c2.159,0,4.318.017,6.476-.012.507-.007.7.117.642.64-.074.707.287,1.618-.145,2.078-.4.428-1.311.121-2,.123-3.764.013-7.528-.011-11.292.023-.629.006-.824-.156-.762-.775.065-.655-.211-1.534.122-1.923.391-.459,1.294-.134,1.973-.145C213.574,453.3,215.235,453.322,216.9,453.322Z" transform="translate(-74.478 -164.118)"/>
      <path id="Trazado_173855" data-name="Trazado 173855" d="M187.321,455.1c0,1.383,0,1.383-1.371,1.383-1.463,0-1.463,0-1.463-1.456,0-1.378,0-1.378,1.369-1.378C187.321,453.65,187.321,453.65,187.321,455.1Z" transform="translate(-54.8 -164.446)" fill="#010101"/>
      <path id="Trazado_173856" data-name="Trazado 173856" d="M273.342,325.539c1.661,0,3.322.021,4.982-.012.515-.01.661.138.65.649-.033,1.466-.023,2.934,0,4.4.005.419-.041.649-.564.646q-5.107-.033-10.214,0c-.43,0-.575-.122-.568-.561.023-1.494.03-2.99,0-4.484-.011-.516.146-.657.656-.647C269.964,325.559,271.653,325.539,273.342,325.539Z" transform="translate(-119.496 -64.737)" fill="#989de5"/>
      <path id="Trazado_173857" data-name="Trazado 173857" d="M273.308,401.636c-1.689,0-3.378-.014-5.066.01-.458.006-.626-.108-.617-.595q.045-2.242,0-4.485c-.009-.472.132-.607.6-.6q5.066.029,10.133,0c.458,0,.624.1.614.592q-.046,2.241,0,4.485c.009.469-.125.615-.6.607C276.686,401.62,275,401.636,273.308,401.636Z" transform="translate(-119.5 -119.552)" fill="#989de5"/>
      <path id="Trazado_173858" data-name="Trazado 173858" d="M200.111,325.547c.746,0,1.494.024,2.238-.009.449-.02.56.148.554.571q-.031,2.28,0,4.561c.007.44-.137.565-.566.559q-2.28-.033-4.56,0c-.445.007-.56-.144-.554-.57q.033-2.28,0-4.561c-.007-.438.131-.577.566-.56C198.563,325.569,199.337,325.547,200.111,325.547Z" transform="translate(-64.712 -64.744)" fill="#989de5"/>
      <path id="Trazado_173859" data-name="Trazado 173859" d="M200.1,395.963c.691,0,1.384.027,2.073-.009.5-.026.732.074.714.66-.045,1.464-.041,2.931,0,4.4.015.541-.182.637-.665.628-1.465-.028-2.931-.037-4.4,0-.544.015-.635-.186-.626-.667.027-1.465.037-2.931,0-4.4-.015-.544.183-.648.666-.625C198.61,395.989,199.358,395.963,200.1,395.963Z" transform="translate(-64.692 -119.543)" fill="#989de5"/>
      <path id="Trazado_173860" data-name="Trazado 173860" d="M374.79,338.969c-.864-.746-.864-.746-1.682.072-.685.686-1.383,1.358-2.047,2.064-.277.295-.447.273-.716-.006-.806-.838-1.651-1.638-2.454-2.479-.306-.32-.517-.415-.849-.029-.486.563-1.364,1.049-1.425,1.634-.047.458.893,1.019,1.395,1.534l1.962,2.02c-.021.406-.359.479-.637.516a4.731,4.731,0,0,1-2.592-.15,6.913,6.913,0,0,1-1.663-7.451,7.051,7.051,0,0,1,6.4-4.581,6.809,6.809,0,0,1,4.966,1.86c.67.885.372,1.9.357,2.866a4.855,4.855,0,0,1-.361,1.518C375.341,338.661,375.224,339,374.79,338.969Z" transform="translate(-194.207 -69.863)" fill="#dce736"/>
      <path id="Trazado_173861" data-name="Trazado 173861" d="M404.5,345.5c.555-.327.51-.937.64-1.442a7.67,7.67,0,0,0,.023-3.553,6.908,6.908,0,0,1,.576,9.809,3.672,3.672,0,0,0-1.07,3.056c.086.66-.1.908-.829.892-2.007-.043-1.935-.012-2.035-2.027A3.142,3.142,0,0,1,403,349.368c.789-.644,1.432-1.462,2.194-2.142.451-.4.427-.66-.019-1.01A6.27,6.27,0,0,1,404.5,345.5Z" transform="translate(-223.918 -76.391)" fill="#dce736"/>
      <path id="Trazado_173862" data-name="Trazado 173862" d="M373.2,385.078c.8-.01,1.6,0,2.4-.04a1.164,1.164,0,0,0,.824-.326.563.563,0,0,1,.319.607c-.008.938-.02,1.876,0,2.814.011.405-.139.534-.527.519-.715-.028-1.585.222-2.106-.1-.544-.338-.16-1.266-.2-1.933A3.009,3.009,0,0,0,373.2,385.078Z" transform="translate(-201.661 -110.797)" fill="#dce736"/>
    </g>
  </g>
</svg>
