<svg xmlns="http://www.w3.org/2000/svg" width="131" height="132" viewBox="0 0 131 132">
  <g id="Grupo_118203" data-name="Grupo 118203" transform="translate(-734.5 -1103.912)">
    <g id="Grupo_118188" data-name="Grupo 118188" transform="translate(734.5 1103.913)">
      <g id="Grupo_118173" data-name="Grupo 118173" transform="translate(0 -0.001)">
        <ellipse id="Elipse_6071" data-name="Elipse 6071" cx="65.5" cy="66" rx="65.5" ry="66" fill="#fff"/>
      </g>
    </g>
    <g id="dia-laboral_1_" data-name="dia-laboral (1)" transform="translate(640.803 920.647)">
      <path id="Trazado_175576" data-name="Trazado 175576" d="M222.19,254.919c-6.97,0-13.916.023-20.885,0a4.3,4.3,0,0,1-4.089-5.808,3.658,3.658,0,0,1,2.184-2.346c.581-.232.674-.534.65-1.092a23.9,23.9,0,0,1,1.905-10.872,21.635,21.635,0,0,1,14.38-12.243,1.028,1.028,0,0,0,.836-.72,3.209,3.209,0,0,1,3.16-2.137h3.926a3.17,3.17,0,0,1,3.16,2.137.947.947,0,0,0,.767.674,21.9,21.9,0,0,1,16.378,21.234c0,.232.023.465,0,.7a2.293,2.293,0,0,0,1.347,2.788c1.51.767,2.021,2.811,1.533,4.53a4.209,4.209,0,0,1-3.856,3.136c-.372.023-.743.023-1.138.023Z" transform="translate(-63.097 -11.39)" fill="#082032"/>
      <path id="Trazado_175577" data-name="Trazado 175577" d="M360.2,370.935a3.321,3.321,0,0,0,.488.139c2.021.558,2.114.767,1.487,2.811-.651,2.091-1.278,4.2-1.928,6.3-.372,1.208-.836,1.464-2.068,1.162-5.947-1.464-11.918-2.95-17.865-4.414-1.208-.3-1.51-.836-1.162-2.021.72-2.323,1.44-4.646,2.137-6.97.256-.836.674-1.347,1.6-1.255.534.07.441-.348.511-.6.813-2.6,1.626-5.181,2.416-7.783a12.068,12.068,0,0,1,3.949-5.994,1.637,1.637,0,0,1,.209-.163,10.069,10.069,0,0,0,4.6-6.993,38.488,38.488,0,0,1,1.278-4.228,4,4,0,0,1,3.322-2.927c.534-.093.651-.325.743-.743.6-2.974,1.208-5.971,1.789-8.944a5.117,5.117,0,0,1,3.81-4.3,5.525,5.525,0,0,1,5.692,1.394,4.46,4.46,0,0,1,1.394,3.276c.046,6.319.3,12.661.093,18.98a24.109,24.109,0,0,1-5.134,13.893C365.149,364.639,362.686,367.729,360.2,370.935Z" transform="translate(-172.161 -91.257)" fill="#082032"/>
      <path id="Trazado_175578" data-name="Trazado 175578" d="M140.33,370.981c-2.207-2.834-4.321-5.622-6.528-8.363a26.682,26.682,0,0,1-6.04-17.958q.209-7.7.139-15.4c-.046-4.948,4.855-6.319,7.922-4.972a4.647,4.647,0,0,1,2.857,3.392c.674,3.113,1.278,6.249,1.905,9.362.116.534.209.86.906,1a4.029,4.029,0,0,1,3.252,3.02c.767,2.532,1.557,5.041,2.3,7.55a2.581,2.581,0,0,0,.813,1.278c1.022.813,2,1.7,3,2.532a12,12,0,0,1,3.833,5.878c.813,2.625,1.626,5.25,2.416,7.876.116.395.209.627.743.558a1.146,1.146,0,0,1,1.255.883c.79,2.532,1.6,5.088,2.37,7.62a1.243,1.243,0,0,1-1.022,1.7c-6.133,1.533-12.243,3.043-18.376,4.53a1.229,1.229,0,0,1-1.673-.953c-.79-2.486-1.557-4.972-2.323-7.457a1.229,1.229,0,0,1,.952-1.719C139.424,371.214,139.842,371.121,140.33,370.981Z" transform="translate(-9.975 -91.303)" fill="#082032"/>
      <path id="Trazado_175579" data-name="Trazado 175579" d="M227.216,247.163c1.022,2.625,2.021,5.181,3.02,7.736a1.23,1.23,0,0,0,1.347.976c.952-.093,1.371-.86.976-1.859-.953-2.509-1.905-5.041-2.95-7.5-.372-.86-.209-1.255.581-1.7A26.176,26.176,0,0,1,234.7,242.8c.441-.139.7-.209.72.465q.348,10,.767,20c.023.534-.116.7-.65.7-4.646-.023-9.293,0-13.916-.023-.3,0-.627.07-.651-.441-.279-5.32.86-10.2,4.321-14.357A14,14,0,0,1,227.216,247.163Z" transform="translate(-81.505 -29.049)" fill="#dce736"/>
      <path id="Trazado_175580" data-name="Trazado 175580" d="M338.286,263.791c-4.135.023-8.294.023-12.429.046-.534,0-.511-.3-.488-.674.163-4.042.3-8.108.465-12.15.093-2.579.209-5.157.279-7.736.023-.65.163-.813.767-.558a17.268,17.268,0,0,1,2.718,1.138c.6.465,1.231.883,1.812,1.371a1.581,1.581,0,0,1,.6.79c-.953,2.486-1.9,4.948-2.858,7.434a5.413,5.413,0,0,0-.256.65,1.25,1.25,0,1,0,2.346.86c.674-1.7,1.324-3.392,2-5.088.186-.488.395-.952.581-1.44.465-.163.627.209.813.465a20.183,20.183,0,0,1,3.9,11.639c.023.743,0,1.51,0,2.253A1.474,1.474,0,0,1,338.286,263.791Z" transform="translate(-161.676 -28.973)" fill="#dce736"/>
      <path id="Trazado_175581" data-name="Trazado 175581" d="M209.314,348.431a1.687,1.687,0,0,1-1.533-1.859,1.82,1.82,0,0,1,1.789-1.673h40.447c.256,0,.511.023.79.023a2.749,2.749,0,0,1,.279,3.067.966.966,0,0,1-.767.488H210.1A1.5,1.5,0,0,1,209.314,348.431Z" transform="translate(-71.409 -107.504)" fill="#3d46c2"/>
      <path id="Trazado_175582" data-name="Trazado 175582" d="M297.307,254.422c-2.672.186-2.648.186-2.765-2.416-.256-6.714-.511-13.451-.767-20.165-.046-1.3.093-1.44,1.417-1.44.976,0,1.975.023,2.95.023a1.346,1.346,0,0,1,.279.976c.047,2.765-.163,5.506-.3,8.247-.093,1.673-.116,3.369-.163,5.041-.07,2.277-.256,4.577-.256,6.853A5.847,5.847,0,0,1,297.307,254.422Z" transform="translate(-137.424 -19.604)" fill="#f06f39"/>
      <path id="Trazado_175583" data-name="Trazado 175583" d="M366.184,278.6a29.146,29.146,0,0,0-.7-8.154,21.185,21.185,0,0,0-3.415-6.97,1.116,1.116,0,0,0-.372-.209c.163-.441.325-.86.511-1.371a17.585,17.585,0,0,1,3.74,4.577,20.616,20.616,0,0,1,2.509,11.732c-.023.348-.139.465-.465.441C367.392,278.627,366.788,278.627,366.184,278.6Z" transform="translate(-189.574 -43.786)" fill="#75b62f"/>
      <path id="Trazado_175584" data-name="Trazado 175584" d="M309,254.492c.116-3.369.279-6.76.372-10.129.093-2.881.209-5.785.348-8.665.093-1.742.093-3.462.139-5.2,1.092-.023,1.3.163,1.254,1.231-.279,7.364-.581,14.729-.86,22.093C310.231,254.934,309.511,254.446,309,254.492Z" transform="translate(-149.118 -19.675)" fill="#ee5a1c"/>
      <path id="Trazado_175585" data-name="Trazado 175585" d="M214.4,348.46c3.392,0,6.784-.023,10.176-.023h29.644c1.742,0,2.416-.929,1.905-2.648-.07-.279-.163-.558-.256-.836,1.673-.116,2.579.465,2.625,1.673.07,1.231-.836,1.928-2.532,1.928H215.306A1.512,1.512,0,0,1,214.4,348.46Z" transform="translate(-76.495 -107.532)" fill="#3d46c2"/>
      <path id="Trazado_175586" data-name="Trazado 175586" d="M345.916,250.084A19.535,19.535,0,0,1,343.5,247.9a12.886,12.886,0,0,1,2.23,1.208C346.218,249.41,346.241,249.712,345.916,250.084Z" transform="translate(-175.603 -33.038)" fill="#f9be47"/>
      <path id="Trazado_175587" data-name="Trazado 175587" d="M378.933,378.208c-3.043-.72-6.087-1.464-9.107-2.184-1.649-.395-1.649-.418-1.162-2.021.7-2.3,1.417-4.6,2.114-6.877a9.365,9.365,0,0,1,2.881-4.46c1.115-.953,2.23-1.952,3.392-2.881a3.6,3.6,0,0,0,1.231-1.835c.79-2.672,1.626-5.32,2.439-7.969a1.778,1.778,0,0,1,2.439-1.255,1.366,1.366,0,0,1,.929,1.859c-.6,2-1.231,3.973-1.835,5.971-.279.906,0,1.533.743,1.766a1.238,1.238,0,0,0,1.649-1c.65-2.068,1.324-4.135,1.9-6.226a3.526,3.526,0,0,0-1.324-4.019.927.927,0,0,1-.395-1.069c.627-3,1.208-6.017,1.812-9.014a3.03,3.03,0,0,1,5.018-1.789,1.951,1.951,0,0,1,.256,1.092c.256,5.994.163,11.988.186,18a20.638,20.638,0,0,1-.418,4.135,25.437,25.437,0,0,1-4.9,10.733c-2.184,2.834-4.391,5.622-6.575,8.433C379.885,377.976,379.583,378.441,378.933,378.208Z" transform="translate(-194.703 -99.483)" fill="#ffd4a2"/>
      <path id="Trazado_175588" data-name="Trazado 175588" d="M365.339,529.424c-3.043-.72-6.063-1.464-9.107-2.184-1.487-.372-2.974-.767-4.46-1.092-.418-.093-.511-.209-.372-.627.465-1.44.883-2.881,1.324-4.3.093-.279.116-.534.581-.418,4.53,1.162,9.084,2.277,13.614,3.438a2.09,2.09,0,0,1,.163,1.812c-.232.976-.558,1.928-.86,2.881C366.083,529.308,365.874,529.656,365.339,529.424Z" transform="translate(-181.621 -242.521)" fill="#6faae5"/>
      <path id="Trazado_175589" data-name="Trazado 175589" d="M413.8,380.625a.876.876,0,0,0,.767-.325c2.695-3.717,5.808-7.109,8.34-10.965a23.81,23.81,0,0,0,3.671-10.106,79.588,79.588,0,0,0,.163-8.154c.047-2.486.07-4.995-.023-7.481-.07-2-.163-4-.163-5.994a1.82,1.82,0,0,1,.883,1.673c.07,6.249.325,12.522.116,18.771a22.207,22.207,0,0,1-4.9,12.94c-2.37,3.067-4.786,6.11-7.132,9.2C414.985,380.881,414.52,381.043,413.8,380.625Z" transform="translate(-229.571 -101.899)" fill="#f2b992"/>
      <path id="Trazado_175590" data-name="Trazado 175590" d="M411.6,540.727c.279,0,.488-.046.581-.395.395-1.6,1.231-3.113,1-4.832,2.277.3,2.277.3,1.6,2.486-.279.906-.581,1.812-.836,2.718-.116.465-.325.627-.79.465A15.2,15.2,0,0,0,411.6,540.727Z" transform="translate(-227.882 -253.824)" fill="#559be0"/>
      <path id="Trazado_175591" data-name="Trazado 175591" d="M141.883,334.5a2.745,2.745,0,0,1,2.95,2.393c.627,3.09,1.231,6.2,1.882,9.293a.739.739,0,0,1-.325.86,3.675,3.675,0,0,0-1.324,4.321c.6,1.975,1.185,3.926,1.812,5.9.3.953.883,1.324,1.673,1.092.767-.232,1.022-.883.743-1.835l-1.742-5.645c-.348-1.162-.07-1.812.929-2.137a1.782,1.782,0,0,1,2.346,1.208c.72,2.253,1.487,4.507,2.068,6.807a6.087,6.087,0,0,0,2.555,3.856,14.48,14.48,0,0,1,6.273,9.548,45.883,45.883,0,0,0,1.51,4.9c.139.441.116.65-.395.767-3.554.836-7.086,1.719-10.64,2.625a.89.89,0,0,1-1.092-.372c-2.486-3.206-5.018-6.389-7.481-9.618a23,23,0,0,1-4.832-14.5c.07-5.506.116-11.035.186-16.541A2.609,2.609,0,0,1,141.883,334.5Z" transform="translate(-18.451 -99.52)" fill="#ffd4a2"/>
      <path id="Trazado_175592" data-name="Trazado 175592" d="M186.223,529.929c-.209.047-.325-.093-.395-.372-.441-1.464-.883-2.927-1.371-4.391-.163-.534.163-.558.511-.65q5.68-1.394,11.384-2.788c1.208-.3,2.416-.558,3.624-.906.465-.116.674-.07.813.395.395,1.417.86,2.834,1.3,4.228.116.372.139.534-.325.651-5.088,1.231-10.176,2.509-15.24,3.764A1.157,1.157,0,0,1,186.223,529.929Z" transform="translate(-53.475 -242.515)" fill="#6faae5"/>
    </g>
  </g>
</svg>
