<svg xmlns="http://www.w3.org/2000/svg" width="297.734" height="160.383" viewBox="0 0 297.734 160.383">
  <g id="Grupo_116677" data-name="Grupo 116677" transform="translate(-147.729 -201.428)">
    <g id="Grupo_116676" data-name="Grupo 116676" transform="translate(147.729 201.428)">
      <g id="Grupo_116649" data-name="Grupo 116649" transform="translate(0 0)">
        <path id="Trazado_173395" data-name="Trazado 173395" d="M503.053,358.515s35.266-37.864,5.964-78.858c-26-36.372-56.311-33.886-78.55-19.126-9.472,6.287-36.781.775-60.024-36.236-31.7-50.472-147.84-24.618-127.377,58.129,9.317,37.674-23.668,38.607-3.693,76.17Z" transform="translate(-224.085 -198.513)" fill="#fff0de"/>
        <path id="Rectángulo_42863" data-name="Rectángulo 42863" d="M.4,0h296.93a.4.4,0,0,1,.4.4v0a.4.4,0,0,1-.4.4H.4A.4.4,0,0,1,0,.4v0A.4.4,0,0,1,.4,0Z" transform="translate(297.734 160.383) rotate(180)" fill="#2e3552"/>
      </g>
      <g id="Grupo_116656" data-name="Grupo 116656" transform="translate(82.346 97.764)">
        <g id="Grupo_116651" data-name="Grupo 116651" transform="translate(31.655 23.642)">
          <path id="Trazado_173396" data-name="Trazado 173396" d="M1345.056,1439.557s-4.143-4.833-.255-7.9c0,0,2.84-1.719,5.155-1.579,0,0-3.281,5.5-2.219,6.048s3.214-6.393,3.214-6.393,6.462-.627,8.54.373c0,0-5.524,4.521-4.361,4.789s7.13-4.168,7.13-4.168,6.014,1.023,5.694,4.692-2.393,4.8-3.3,4.7-6.239-2.131-6.354-1.385,3.091,3.185,5.337,3.3c0,0-4.24,4.676-7.058,3.326s-3.059-3.489-4.815-4.291-3.256-.8-2.531.018,3.9,1.614,4.909,3.391,1.906,2.975-1.01,2.537-7.655-2.572-7.863-5.015Z" transform="translate(-1338.054 -1429.536)" fill="#82b378"/>
          <g id="Grupo_116650" data-name="Grupo 116650" transform="translate(0 5.951)">
            <path id="Trazado_173397" data-name="Trazado 173397" d="M1349.678,1488.647s-16.334-.629-19.942,4.042a11.816,11.816,0,0,1-3.252,4.565l-.383,1.043s2.83-2.984,3.843-3.165C1329.944,1495.132,1328.36,1489.345,1349.678,1488.647Z" transform="translate(-1322.734 -1488.619)" fill="#82b378"/>
            <path id="Trazado_173398" data-name="Trazado 173398" d="M1296.424,1570.682a10.256,10.256,0,0,0-3.75,7.226l.636.057s1.12-4.79,3.144-6.664S1296.424,1570.682,1296.424,1570.682Z" transform="translate(-1292.674 -1562.046)" fill="#82b378"/>
          </g>
        </g>
        <g id="Grupo_116653" data-name="Grupo 116653" transform="translate(0 10.52)">
          <path id="Trazado_173399" data-name="Trazado 173399" d="M1002.574,1316.323s6.59-3.691,3.515-8.7c0,0-2.46-3.075-5.1-3.866,0,0,1.406,7.469,0,7.645s-.967-8.435-.967-8.435-6.942-3.339-9.666-3.075c0,0,4.305,7.293,2.9,7.117s-6.239-7.557-6.239-7.557-7.117-1.318-8.26,2.9.7,6.327,1.757,6.59,7.82.176,7.645,1.055-4.745,2.285-7.293,1.494c0,0,2.812,6.942,6.5,6.59s4.833-2.636,7.117-2.812,3.954.439,2.812,1.054-5.009.2-6.854,1.77-3.339,2.535.088,3.238,9.578.264,10.808-2.372Z" transform="translate(-978.401 -1299.257)" fill="#a8d29f"/>
          <g id="Grupo_116652" data-name="Grupo 116652" transform="translate(3.612 4.413)">
            <path id="Trazado_173400" data-name="Trazado 173400" d="M1014.256,1343.066s18.453,5.975,20.561,12.653a14.02,14.02,0,0,0,1.757,6.414v1.318s-1.933-4.481-2.987-5.1C1033.587,1358.355,1037.717,1352.556,1014.256,1343.066Z" transform="translate(-1014.256 -1343.066)" fill="#82b378"/>
            <path id="Trazado_173401" data-name="Trazado 173401" d="M1227.964,1525.044a12.17,12.17,0,0,1,1.224,9.581l-.732-.2s.711-5.794-.778-8.708S1227.964,1525.044,1227.964,1525.044Z" transform="translate(-1205.645 -1505.977)" fill="#82b378"/>
          </g>
        </g>
        <g id="Grupo_116655" data-name="Grupo 116655" transform="translate(28.946)">
          <path id="Trazado_173402" data-name="Trazado 173402" d="M1271.49,1217.313s-8.687-4.865-4.633-11.467c0,0,3.243-4.054,6.718-5.1,0,0-1.853,9.846,0,10.077s1.274-11.12,1.274-11.12,9.15-4.4,12.741-4.054c0,0-5.675,9.614-3.822,9.382s8.224-9.961,8.224-9.961,9.382-1.737,10.888,3.822-.927,8.34-2.316,8.687-10.309.232-10.077,1.39,6.255,3.011,9.614,1.969c0,0-3.707,9.15-8.571,8.687s-6.37-3.475-9.382-3.706-5.212.579-3.706,1.39,6.6.266,9.034,2.333,4.4,3.342-.116,4.268-12.625.348-14.247-3.127Z" transform="translate(-1265.779 -1194.817)" fill="#a8d29f"/>
          <g id="Grupo_116654" data-name="Grupo 116654" transform="translate(1.123 5.817)">
            <path id="Trazado_173403" data-name="Trazado 173403" d="M1328.9,1252.565s-24.324,7.876-27.1,16.679a18.48,18.48,0,0,1-2.317,8.455v1.737s2.548-5.907,3.938-6.718C1303.417,1272.719,1297.973,1265.074,1328.9,1252.565Z" transform="translate(-1297.208 -1252.565)" fill="#82b378"/>
            <path id="Trazado_173404" data-name="Trazado 173404" d="M1279.2,1492.447a16.042,16.042,0,0,0-1.613,12.63l.965-.259s-.937-7.637,1.026-11.479S1279.2,1492.447,1279.2,1492.447Z" transform="translate(-1276.927 -1467.312)" fill="#82b378"/>
          </g>
        </g>
        <path id="Trazado_173405" data-name="Trazado 173405" d="M1167.648,1624.853a17.016,17.016,0,0,0,17.016-17.017h-34.033A17.016,17.016,0,0,0,1167.648,1624.853Z" transform="translate(-1133.284 -1566.235)" fill="#ffa381"/>
        <path id="Trazado_173406" data-name="Trazado 173406" d="M1269.68,1624.721a17.028,17.028,0,0,0,19.13-16.886h-4.227A17.019,17.019,0,0,1,1269.68,1624.721Z" transform="translate(-1240.341 -1566.233)" fill="#ffac6e"/>
        <path id="Trazado_173407" data-name="Trazado 173407" d="M1182.8,1766.629h-34.5a2.1,2.1,0,0,1,2.1-2.1h30.3a2.1,2.1,0,0,1,2.1,2.1Z" transform="translate(-1131.185 -1707.145)" fill="#ed7d2b"/>
        <rect id="Rectángulo_42864" data-name="Rectángulo 42864" width="34.979" height="0.522" transform="translate(16.788 41.601)" fill="#ed7d2b"/>
      </g>
      <g id="Grupo_116658" data-name="Grupo 116658" transform="translate(85.022 4.127)">
        <rect id="Rectángulo_42865" data-name="Rectángulo 42865" width="76.052" height="107.351" transform="matrix(0, 1, -1, 0, 107.351, 0)" fill="#8eb2dd"/>
        <rect id="Rectángulo_42866" data-name="Rectángulo 42866" width="104.53" height="73.231" transform="translate(105.95 74.642) rotate(179.993)" fill="#dcdce5"/>
        <g id="Grupo_116657" data-name="Grupo 116657" transform="translate(9.117 10.299)">
          <path id="Trazado_173408" data-name="Trazado 173408" d="M1311.183,842.776l-36.665,0a1.314,1.314,0,0,1-1.315-1.314h0a1.314,1.314,0,0,1,1.314-1.315l36.665,0a1.314,1.314,0,0,1,1.315,1.314h0A1.315,1.315,0,0,1,1311.183,842.776Z" transform="translate(-1255.303 -792.533)" fill="#8eb2dd"/>
          <path id="Trazado_173409" data-name="Trazado 173409" d="M1311.193,919.486l-36.665,0a1.314,1.314,0,0,1-1.315-1.314h0a1.314,1.314,0,0,1,1.314-1.315l36.665,0a1.314,1.314,0,0,1,1.315,1.314h0A1.314,1.314,0,0,1,1311.193,919.486Z" transform="translate(-1255.312 -861.516)" fill="#8eb2dd"/>
          <rect id="Rectángulo_42867" data-name="Rectángulo 42867" width="84.865" height="0.679" transform="translate(0 42.384)" fill="#8eb2dd"/>
          <path id="Trazado_173410" data-name="Trazado 173410" d="M1928.6,780.547v-2.774l3.8,1.386Z" transform="translate(-1844.682 -736.441)" fill="#8eb2dd"/>
          <rect id="Rectángulo_42868" data-name="Rectángulo 42868" width="45.119" height="0.711" transform="matrix(0, -1, 1, 0, 3.958, 47.286)" fill="#8eb2dd"/>
          <path id="Trazado_173411" data-name="Trazado 173411" d="M1123.857,370.889h2.9l-1.451-3.453Z" transform="translate(-1120.999 -367.435)" fill="#8eb2dd"/>
          <path id="Trazado_173412" data-name="Trazado 173412" d="M1200.578,837.5h-.219a2.384,2.384,0,0,1-2.385-2.384h0a2.384,2.384,0,0,1,2.384-2.385h.219a2.384,2.384,0,0,1,2.385,2.384h0A2.384,2.384,0,0,1,1200.578,837.5Z" transform="translate(-1187.652 -785.862)" fill="#2a4e96"/>
          <path id="Rectángulo_42869" data-name="Rectángulo 42869" d="M2.385,0H2.6A2.384,2.384,0,0,1,4.988,2.384v0A2.384,2.384,0,0,1,2.6,4.769H2.384A2.384,2.384,0,0,1,0,2.385v0A2.385,2.385,0,0,1,2.385,0Z" transform="translate(10.324 53.714)" fill="#f99746"/>
          <path id="Trazado_173413" data-name="Trazado 173413" d="M1241.366,409.386l-4.874.407.641,1.264-15.3,7.2-14.291,24.021-16.866-14.459-13.606,6.6-.039.019-8.674,8.08.4.389,8.612-8.022,13.221-6.411,17.1,14.66,14.554-24.461,15.139-7.128.633,1.247Z" transform="translate(-1161.018 -405.161)" fill="#699ff0"/>
          <path id="Trazado_173414" data-name="Trazado 173414" d="M1238.65,648.128h-.162a1.763,1.763,0,0,1-1.764-1.763h0a1.764,1.764,0,0,1,1.763-1.764h.162a1.764,1.764,0,0,1,1.764,1.763h0A1.764,1.764,0,0,1,1238.65,648.128Z" transform="translate(-1222.498 -616.683)" fill="#2a4e96"/>
          <path id="Trazado_173415" data-name="Trazado 173415" d="M1684.1,489.136h-.162a1.764,1.764,0,0,1-1.764-1.763h0a1.764,1.764,0,0,1,1.764-1.764h.162a1.763,1.763,0,0,1,1.764,1.763h0A1.763,1.763,0,0,1,1684.1,489.136Z" transform="translate(-1623.081 -473.706)" fill="#2a4e96"/>
          <path id="Trazado_173416" data-name="Trazado 173416" d="M1372.3,586.134h-.162a1.764,1.764,0,0,1-1.764-1.763h0a1.763,1.763,0,0,1,1.763-1.764h.162a1.764,1.764,0,0,1,1.764,1.764h0A1.764,1.764,0,0,1,1372.3,586.134Z" transform="translate(-1342.685 -560.934)" fill="#2a4e96"/>
          <path id="Trazado_173417" data-name="Trazado 173417" d="M1540.916,721.263h-.162a1.764,1.764,0,0,1-1.764-1.764h0a1.764,1.764,0,0,1,1.764-1.764h.162a1.764,1.764,0,0,1,1.764,1.764h0A1.764,1.764,0,0,1,1540.916,721.263Z" transform="translate(-1494.318 -682.452)" fill="#f99746"/>
        </g>
      </g>
      <g id="Grupo_116662" data-name="Grupo 116662" transform="translate(17.488 15.919)">
        <path id="Trazado_173418" data-name="Trazado 173418" d="M618.827,536.391s3.8,4.509,8.641,2.623a14.668,14.668,0,0,0,1.056-4.375c0-.229,0-.45.008-.66.026-2.091.1-3.264.1-3.264h0c-.22-.092-7.4-3.039-7.394-2.795C621.354,533.573,618.827,536.391,618.827,536.391Z" transform="translate(-590.188 -513.234)" fill="#ffb27d"/>
        <path id="Trazado_173419" data-name="Trazado 173419" d="M649.8,540.961a11.229,11.229,0,0,0,6.581,4.711c.026-2.091.1-3.263.1-3.263h0C656.276,542.354,649.6,540.583,649.8,540.961Z" transform="translate(-618.039 -524.928)" fill="#ed975d"/>
        <path id="Trazado_173420" data-name="Trazado 173420" d="M638.194,434.844s-8.074,1.9-9.178-3.148-2.891-8.2,2.218-9.625,6.535.28,7.313,1.875S640.266,434.221,638.194,434.844Z" transform="translate(-598.249 -417.582)" fill="#ffb27d"/>
        <path id="Trazado_173421" data-name="Trazado 173421" d="M592.556,397.749c-.11.071-1.847.6-5.137-5.95a5.708,5.708,0,0,1,.336-5.221c1.2-1.967,5.473-3.513,9.019-4.186s4.4,1.323,5.233,3.328a10.829,10.829,0,0,0,3.409,3.839c-3.058,1.708-6.742-.735-8.018-.333s-1.727,2.413-1.823,3.058-.243,1.18-1.848.6-.726,2.274-.469,2.819C593.258,395.708,593.476,397.159,592.556,397.749Z" transform="translate(-561.513 -382.259)" fill="#a9453d"/>
        <g id="Grupo_116659" data-name="Grupo 116659" transform="translate(0 61.986)">
          <path id="Trazado_173422" data-name="Trazado 173422" d="M344.738,1677.565H339.85c-1.025,0-2.164-1.026-2.449-2.9s-2.392-2.9-2.848-4.443,1.88-3.7,1.88-3.7l.391-.5.406-.523,3.873.911s.1.922.155,2.1a26.871,26.871,0,0,1,.016,2.688c-.114,2.051.574,4.259,2.4,4.658S344.738,1677.565,344.738,1677.565Z" transform="translate(-334.494 -1598.222)" fill="#2c3a64"/>
          <path id="Trazado_173423" data-name="Trazado 173423" d="M650.454,1722.381H637.5a1.166,1.166,0,0,1-.275-.08c-.865-.433-.594-3.746-.49-4.769.02-.19.034-.3.034-.3s4.557-3.644,5.184-.854c.02.087.043.172.067.257h0c.791,2.611,4.327,3.8,6.37,4.128A2.224,2.224,0,0,1,650.454,1722.381Z" transform="translate(-606.176 -1643.038)" fill="#2c3a64"/>
          <path id="Trazado_173424" data-name="Trazado 173424" d="M575.52,1032.778s-.692,8.634-1.505,19.013c-1.106,14.1-2.435,31.417-2.567,34.7-.227,5.7-1.14,14.81-1.14,14.81s-2.163,2.165-6.493,1.252a149.072,149.072,0,0,1-4.96-26.772c-.017-.226-.034-.453-.051-.68-1.025-14.012-2.619-43.516-2.619-43.516Z" transform="translate(-533.854 -1028.165)" fill="#3d46c2"/>
          <path id="Trazado_173425" data-name="Trazado 173425" d="M575.52,1032.778s-.692,8.634-1.505,19.013l-15.16,23.987c-.017-.226-.034-.453-.051-.68-1.025-14.012-2.619-43.516-2.619-43.516Z" transform="translate(-533.854 -1028.165)" fill="#8d93e3"/>
          <path id="Trazado_173426" data-name="Trazado 173426" d="M390.306,1003.293s-12.474,31.27-20.676,45.965-10.765,18.8-10.765,18.8-4.7-1.88-5.126-3.161c0,0,3.136-28.37,8.629-35.285,3.1-3.908,6.75-15.635,6.921-19.736s1.111-12.217,1.111-12.217Z" transform="translate(-351.801 -997.654)" fill="#3d46c2"/>
        </g>
        <g id="Grupo_116660" data-name="Grupo 116660" transform="translate(5.869 23.656)">
          <path id="Trazado_173427" data-name="Trazado 173427" d="M396.948,990.663l-.132,2.011a4.333,4.333,0,0,1-2.39,5.405s-1.591.642-1.655-.6.139-.773.01-2.516.556-3.392,1.71-3.947l.947-1.092Z" transform="translate(-392.758 -952.375)" fill="#ffa381"/>
          <path id="Trazado_173428" data-name="Trazado 173428" d="M404.612,656.865c1.381.443,1.6.343,1.6.343s6.72-12.235,7.4-13.355,14.268-13.72,14.268-13.72l-3.492-13.021S408.937,637.125,407.268,640c-2.758,4.745-4.373,15.766-4.373,15.766A4.04,4.04,0,0,0,404.612,656.865Z" transform="translate(-401.874 -617.113)" fill="#ffa381"/>
        </g>
        <path id="Trazado_173429" data-name="Trazado 173429" d="M510.556,636.219a33.646,33.646,0,0,0,10.38,4.3c4.435.966,9.853.553,11.67.782a.778.778,0,0,0,.531-.136c.133-.083.847-5.555,1.528-12.479.018-.159.036-.327.05-.495.009-.112.016-.224.018-.333l.012-.1c.074-.719.146-1.452.213-2.194.167-1.848.312-3.744.446-5.636.013-.18.026-.361.038-.543.21-3.052.365-6.059.414-8.732,0-.064,0-.128,0-.192a57.883,57.883,0,0,0-.143-5.83c-.029-.335-.063-.65-.1-.946a16.821,16.821,0,0,0-4.3-8.958l-1.784-2.024a6.944,6.944,0,0,1-4.866-.861c-1.811-1.161-2.981-2.255-3.348-2.05-2.8,1.64-5.839,5.674-7.36,11.149a62.077,62.077,0,0,0-1.809,9.759q-.217,2.012-.334,4.087a134.349,134.349,0,0,1-2.231,17.432c-.193,1.059-.346,1.9-.429,2.484C509.07,635.241,510.1,635.951,510.556,636.219Z" transform="translate(-488.97 -569.534)" fill="#ffa381"/>
        <path id="Trazado_173430" data-name="Trazado 173430" d="M650.976,706.825s1.525,16.863,11.281,26.632c.009-.112.016-.224.018-.333l.012-.1c.074-.719.146-1.453.213-2.194.167-1.848.312-3.744.446-5.636.013-.18.026-.361.038-.543.21-3.052.365-6.059.414-8.732,0-.064,0-.128,0-.192-.02-1.6-.067-3.056-.143-4.336A21.507,21.507,0,0,0,650.976,706.825Z" transform="translate(-619.098 -674.133)" fill="#d28568"/>
        <g id="Grupo_116661" data-name="Grupo 116661" transform="translate(62.465 12.377)">
          <path id="Trazado_173431" data-name="Trazado 173431" d="M956.578,559.154,974.728,505.8c.084-.243.195-.475-.047-.563l-.22-.08c-.247-.09-.32.07-.41.317L954.7,558.061a1.018,1.018,0,0,0,.543,1.278l.448.2A.654.654,0,0,0,956.578,559.154Z" transform="translate(-954.642 -505.136)" fill="#2a4e96"/>
        </g>
        <path id="Trazado_173432" data-name="Trazado 173432" d="M1006.711,773.13c.009-.781,2.069-2.586,2.206-2.369a3.357,3.357,0,0,1-.23,1.322c.856-.573,1.051-2.6,2.5-3.5.4-.25,1.826,3.662.474,5.081s-2,1.261-4.251,2.575l-1.631.11-.805-2.535S1005.838,773.5,1006.711,773.13Z" transform="translate(-937.435 -729.66)" fill="#ffb27d"/>
        <path id="Trazado_173433" data-name="Trazado 173433" d="M649.208,656.576c.107-1.538-1.922-2.428-1.922-2.428s-15.454,1.611-16.784,1.193-11.262-14.671-11.262-14.671-4.357-4.914-7.925-3.829a6.7,6.7,0,0,0-4.725,5.665,6.786,6.786,0,0,0,3.151,6.966c5.337,3.273,14.672,12.3,17.188,13.033,5.6,1.642,21.6-3.725,21.6-3.725A5.536,5.536,0,0,0,649.208,656.576Z" transform="translate(-579.09 -611.057)" fill="#ffa381"/>
      </g>
      <g id="Grupo_116675" data-name="Grupo 116675" transform="translate(195.072 48.473)">
        <g id="Grupo_116670" data-name="Grupo 116670" transform="translate(5.002)">
          <g id="Grupo_116668" data-name="Grupo 116668">
            <path id="Trazado_173434" data-name="Trazado 173434" d="M2738.05,1034.212a139.449,139.449,0,0,1,1.61-17.1c1.155-6.676,2.194-10.517,2.206-10.558.152-.587,2.349-2.963,7.234-2.889s4.422,3.189,4.422,3.189h0a1,1,0,0,1-.035.277,149.564,149.564,0,0,0-4.336,37.41c0,.295.036.8.015,1.143,0,0-11.32.292-11.322,0C2737.447,1043.853,2737.64,1038.769,2738.05,1034.212Z" transform="translate(-2678.155 -973.629)" fill="#b7d3f3"/>
            <path id="Trazado_173435" data-name="Trazado 173435" d="M2725.631,1044.44c0,.293.158.526.346.526h0c.188,0,.338-.238.341-.526h9.7c0,.293.158.526.346.526h0c.192,0,.344-.246.342-.542a146.438,146.438,0,0,1,.8-16.572,130.208,130.208,0,0,1,3.708-20.719,1.025,1.025,0,0,0,.035-.277s.463-3.115-4.421-3.189-7.082,2.3-7.234,2.89c-.009.031-.6,2.206-1.38,6.115-.259,1.3-.539,2.781-.826,4.441a139.622,139.622,0,0,0-1.61,17.1C2725.381,1038.769,2725.236,1042.606,2725.631,1044.44Z" transform="translate(-2667.16 -973.629)" fill="#d2e3fc"/>
            <path id="Trazado_173436" data-name="Trazado 173436" d="M2505.308,1385.981h-38.033s.886-3.584,22.912-3.05C2505.774,1383.309,2505.308,1385.981,2505.308,1385.981Z" transform="translate(-2435.035 -1314.643)" fill="#c5dcf8"/>
            <g id="Grupo_116663" data-name="Grupo 116663" transform="translate(66.921 71.893)">
              <path id="Trazado_173437" data-name="Trazado 173437" d="M2818.036,1456.094c-4.41-22.324-3.276-36.023-3.27-36.2.011-.344-.623-.656-.963-.667s-1.867-.1-2.043.193c-.231.385-1.119,17.263,5.454,36.67Z" transform="translate(-2811.588 -1419.212)" fill="#b7d3f3"/>
            </g>
            <g id="Grupo_116664" data-name="Grupo 116664" transform="translate(37.857 71.893)">
              <path id="Trazado_173438" data-name="Trazado 173438" d="M2523.048,1456.094c4.41-22.324,3.276-36.023,3.271-36.2-.011-.344.622-.656.963-.667s1.867-.1,2.043.193c.231.385,1.119,17.263-5.453,36.67Z" transform="translate(-2523.048 -1419.212)" fill="#b7d3f3"/>
            </g>
            <g id="Grupo_116665" data-name="Grupo 116665" transform="translate(30.82 71.893)">
              <path id="Trazado_173439" data-name="Trazado 173439" d="M2453.18,1456.094c4.41-22.324,3.276-36.023,3.271-36.2-.011-.344.623-.656.963-.667s1.867-.1,2.043.193c.231.385,1.119,17.263-5.453,36.67Z" transform="translate(-2453.18 -1419.212)" fill="#b7d3f3"/>
            </g>
            <g id="Grupo_116666" data-name="Grupo 116666" transform="translate(59.836 71.893)">
              <path id="Trazado_173440" data-name="Trazado 173440" d="M2747.7,1456.094c-4.41-22.324-3.276-36.023-3.27-36.2.011-.344-.622-.656-.963-.667s-1.867-.1-2.043.193c-.231.385-1.119,17.263,5.453,36.67Z" transform="translate(-2741.251 -1419.212)" fill="#b7d3f3"/>
            </g>
            <rect id="Rectángulo_42870" data-name="Rectángulo 42870" width="39.591" height="2.07" rx="1.035" transform="translate(71.029 72.482) rotate(-180)" fill="#b7d3f3"/>
            <g id="Grupo_116667" data-name="Grupo 116667">
              <path id="Trazado_173441" data-name="Trazado 173441" d="M2360.8,1059.609l-12.642-2.738-.744,1.815s13.949,8.3,15.256,7.894S2360.8,1059.609,2360.8,1059.609Z" transform="translate(-2327.244 -1021.475)" fill="#ffb27d"/>
              <path id="Trazado_173442" data-name="Trazado 173442" d="M2503.972,1561.732a1.123,1.123,0,0,1,.2,1.2.011.011,0,0,1,0,.006,7.47,7.47,0,0,1-2.359,2.588c-.142.115-.269.219-.379.316-.029.025-.058.051-.085.076l-.065.059c-1.037.956-.647,1.175-2.51,3.115-2.125,2.21-3.587,2.25-4,2.049-.352-.172.363-1.344,1.156-2.661l.115-.192c.105-.175.21-.353.315-.529.928-1.586.69-2.33.47-4.69-.179-1.918-2.984-10.714-2.984-10.714l4.071-.7s1.226,7,2.577,8.083c.722.575,1.531.582,2.225,1.009q.074.044.144.091A5.345,5.345,0,0,1,2503.972,1561.732Z" transform="translate(-2458.925 -1466.421)" fill="#ffb27d"/>
              <path id="Trazado_173443" data-name="Trazado 173443" d="M2511.427,1642.9a1.123,1.123,0,0,1,.2,1.2.008.008,0,0,1,0,.006,8.647,8.647,0,0,1-2.363,2.58c-.141.117-.265.224-.375.324-.029.025-.058.051-.085.076l-.066.059c-1.037.956-.646,1.175-2.51,3.115-2.125,2.21-3.587,2.25-4,2.049-.352-.172.363-1.344,1.156-2.662a9.053,9.053,0,0,0,3.787-2.791c1.279-1.632,2.133-3.73,3-4.945.049.03.1.06.144.091A5.334,5.334,0,0,1,2511.427,1642.9Z" transform="translate(-2466.38 -1547.592)" fill="#1c468a"/>
              <path id="Trazado_173444" data-name="Trazado 173444" d="M2159.42,1548.128c-.251,1.257-2.043,1.047-4.044.558s-1.526.092-4.374-.223-3.711-1.377-3.8-1.8c-.078-.376,1.33-.508,2.839-.682.19-.021.381-.045.571-.068,1.7-.214,2.952-1.313,4.5-2.217,1.466-.855,3.655-4.341,3.655-4.341l3.906.31s-2.05,3.113-2.843,4.467a4.721,4.721,0,0,0-.383,2.662A5.012,5.012,0,0,1,2159.42,1548.128Z" transform="translate(-2147.2 -1455.359)" fill="#ffb27d"/>
              <path id="Trazado_173445" data-name="Trazado 173445" d="M2155.375,1607.847c-2-.489-1.526.092-4.374-.223s-3.711-1.377-3.8-1.8c-.078-.376,1.33-.508,2.839-.682l.014.029a8.031,8.031,0,0,0,4.079,1.268c1.932.047,3.979-.507,5.313-.485a5.011,5.011,0,0,1-.03,1.336C2159.168,1608.546,2157.377,1608.336,2155.375,1607.847Z" transform="translate(-2147.2 -1514.52)" fill="#1c468a"/>
              <path id="Trazado_173446" data-name="Trazado 173446" d="M2296.274,1032.716s-.93-2.28-1.954-2.373-4.281-.6-4.514-.14a3.221,3.221,0,0,0,.7,2.746c.7.6,5.026,1.582,5.026,1.582Z" transform="translate(-2275.364 -997.319)" fill="#ffb27d"/>
              <path id="Trazado_173447" data-name="Trazado 173447" d="M2417.13,1322.587l8.419,22.656a7.71,7.71,0,0,0,2.533-.232,10.909,10.909,0,0,0,2.448-1.193s-2.088-21.754-5.917-26.279S2417.13,1322.587,2417.13,1322.587Z" transform="translate(-2389.941 -1254.795)" fill="#3d46c2"/>
              <path id="Trazado_173448" data-name="Trazado 173448" d="M2290.789,1227.839s-24.19-8.18-29.585-6.439-21.594,33.968-21.594,33.968a3.125,3.125,0,0,0,1.363.861,12.868,12.868,0,0,0,3.175.326s14.618-12.53,16.359-16.185,2.437-7.135,4.177-6.787,22.45,8.527,27.149,3.655a13.563,13.563,0,0,0,3.47-11.2Z" transform="translate(-2228.674 -1171.321)" fill="#3d46c2"/>
              <path id="Trazado_173449" data-name="Trazado 173449" d="M2580.491,726.03a13.742,13.742,0,0,1-1.03-4.74,14.539,14.539,0,0,0,1.693,5.239c5.031,3.3,14.673,14.332,14.483,16.421,0,0,3.4-5.761,3.455-5.8,0,0,6.265-7.967-1.16-12.531-3.774-2.32-3.755-5.3-3.6-7.882s-1.029-13.718-8.59-10.8a4.923,4.923,0,0,0-1.756-.458,1.483,1.483,0,0,1,.669.318,5.868,5.868,0,0,0-3.175.607C2578.711,707.98,2576.231,722.11,2580.491,726.03Z" transform="translate(-2534.788 -705.456)" fill="#2c3a64"/>
              <path id="Trazado_173450" data-name="Trazado 173450" d="M2610.485,849.807c-.025.011,2.429,1.286,4.275.781,1.737-.473,2.871-2.725,2.847-2.73-.735-.146-.947-1.157-.932-5.5l-.333.065-5.59,1.107s.127,1.759.131,3.416C2610.888,848.339,2610.8,849.659,2610.485,849.807Z" transform="translate(-2563.821 -828.569)" fill="#ffb27d"/>
              <path id="Trazado_173451" data-name="Trazado 173451" d="M2613.149,844.116s.127,1.759.131,3.416c3.128-.088,4.782-2.942,5.459-4.523Z" transform="translate(-2566.216 -829.154)" fill="#ed975d"/>
              <path id="Trazado_173452" data-name="Trazado 173452" d="M2587.887,734.427a16.435,16.435,0,0,0,2.032-4.8c.281-1.581-.524-7.442-6.414-6.6a8,8,0,0,0-3.319,1.255c-1.279.864-3.124,2.728-1.06,7.842l.536,1.728Z" transform="translate(-2534.787 -721.181)" fill="#2c3a64"/>
              <path id="Trazado_173453" data-name="Trazado 173453" d="M2580.772,758.087s7.4.122,7.406-4.488.964-7.7-3.761-7.972-5.645,1.485-6.021,3.023S2578.847,757.936,2580.772,758.087Z" transform="translate(-2534.884 -741.555)" fill="#ffb27d"/>
              <path id="Trazado_173454" data-name="Trazado 173454" d="M2605.5,734.736s2.026,5.408,5.136,6.208,4.459-.034,4.459-.034a29.616,29.616,0,0,1-1.633-6.09S2607.026,732.162,2605.5,734.736Z" transform="translate(-2559.336 -730.778)" fill="#2c3a64"/>
              <path id="Trazado_173455" data-name="Trazado 173455" d="M2577.029,741.243a6.535,6.535,0,0,0-1.882,2.381c-.369,1.174-.535,3.59-1.239,3.508,0,0-1.527-3.676.189-5.755C2575.916,739.172,2577.029,741.243,2577.029,741.243Z" transform="translate(-2530.364 -736.846)" fill="#2c3a64"/>
              <path id="Trazado_173456" data-name="Trazado 173456" d="M2496.771,918.782c.73-3.061-1.753-9-4.345-13.917-2.352-4.457-4.793-8.072-5.012-7.942-6.2,3.681-6.763.621-6.763.621h0s-5.635.748-7.23,3.494c-1.979,3.408-4.117,12.929-6.241,14.731a4,4,0,0,1-.159,2.766c-.074.265-.156.517-.246.756a14.548,14.548,0,0,1-1.066,2.189c1.08.656,3.164,1.9,4.7,1.006,2.341-1.37,4.168-5.542,5.2-7.2l.011-.019c2.235,12.649-.8,15.53.734,16.864,1.625,1.409,3.945-.671,9.05,1.542,3.349,1.453,8,3.553,11.124,3.918,1.641.193,2.865-.093,3.263-1.2C2500.948,933.168,2495.378,924.617,2496.771,918.782Z" transform="translate(-2433.626 -877.634)" fill="#b8e587"/>
              <path id="Trazado_173457" data-name="Trazado 173457" d="M2594.28,838.491s-.138.586-1.595.5c0,0-1.223-.076-1.186-.719A3.935,3.935,0,0,1,2594.28,838.491Z" transform="translate(-2546.746 -824.754)" fill="#fff"/>
              <path id="Trazado_173458" data-name="Trazado 173458" d="M2673,1058.275c-.4,1.108-1.624,1.394-3.264,1.2-2.165-.943-11.518-4.567-11.414-7.022.156-3.635,1.8-3.751.638-8.238-.932-3.6,7.71-10.3,9.089-11.757,2.592,4.917,2.664,5.15,1.934,8.21C2668.591,1046.5,2674.16,1055.055,2673,1058.275Z" transform="translate(-2606.839 -999.522)" fill="#82b378"/>
              <path id="Trazado_173459" data-name="Trazado 173459" d="M2694.628,923.3a13.712,13.712,0,0,0-4.523-4.18c.262-.674-6.977-9.548-6.977-10.923,0-1.392-1.931-11.252-1.931-11.252s6.031.372,8.119,3.284C2691.928,903.875,2697.352,917.891,2694.628,923.3Z" transform="translate(-2627.41 -877.66)" fill="#b8e587"/>
              <path id="Trazado_173460" data-name="Trazado 173460" d="M2662.031,1117.1l-12.052,3.145,1.131,2.031s14.667-.1,15.445-1S2662.031,1117.1,2662.031,1117.1Z" transform="translate(-2599.336 -1075.637)" fill="#ffb27d"/>
              <path id="Trazado_173461" data-name="Trazado 173461" d="M2475.6,1079.236c-1.028,1.661-2.855,5.833-5.2,7.2-1.536.9-3.62-.35-4.7-1.006a14.535,14.535,0,0,0,1.066-2.189c.862.2,1.913.449,2.591.654C2470.684,1084.3,2475.6,1079.236,2475.6,1079.236Z" transform="translate(-2433.626 -1041.587)" fill="#82b378"/>
              <path id="Trazado_173462" data-name="Trazado 173462" d="M2576.018,1140.657s-3.785-1.071-4.687-.82-3.99,2.3-3.556,2.851,3.156-.333,4.408-.164,2.22.786,3.122.652a10.469,10.469,0,0,0,1.844-.488Z" transform="translate(-2525.376 -1096.05)" fill="#ffb27d"/>
              <path id="Trazado_173463" data-name="Trazado 173463" d="M2625.656,1134.6a14.172,14.172,0,0,1-2.378-1.493.148.148,0,0,0-.23.026c-.142.223-.273.653.376,1.08A3.492,3.492,0,0,0,2625.656,1134.6Z" transform="translate(-2575.013 -1089.997)" fill="#ffb27d"/>
            </g>
          </g>
          <g id="Grupo_116669" data-name="Grupo 116669" transform="translate(5.499 30.702)">
            <path id="Trazado_173464" data-name="Trazado 173464" d="M2476.327,1188.622h17.658a1.408,1.408,0,0,0-1.408-1.408h-16.25Z" transform="translate(-2448.675 -1169.391)" fill="#ed7d2b"/>
            <path id="Trazado_173465" data-name="Trazado 173465" d="M2233.092,1010.262h-27.3l6.548,19.231h27.478Z" transform="translate(-2205.388 -1010.262)" fill="#ed7d2b"/>
            <path id="Trazado_173466" data-name="Trazado 173466" d="M2201.795,1010.262l6.549,19.231h27.477l-6.725-19.231Z" transform="translate(-2201.795 -1010.262)" fill="#f99746"/>
            <path id="Trazado_173467" data-name="Trazado 173467" d="M2347.613,1092.081a1.775,1.775,0,0,0,1.638,1.33,1.025,1.025,0,0,0,1.023-1.33,1.775,1.775,0,0,0-1.638-1.33A1.024,1.024,0,0,0,2347.613,1092.081Z" transform="translate(-2332.894 -1082.644)" fill="#f9ddbf"/>
            <path id="Trazado_173468" data-name="Trazado 173468" d="M2201.795,1010.262l6.549,19.231h18.2c-12.054-4.114-15.263-16.659-15.8-19.231Z" transform="translate(-2201.795 -1010.262)" fill="#ed893e"/>
          </g>
        </g>
        <g id="Grupo_116672" data-name="Grupo 116672" transform="translate(79.318 52.897)">
          <g id="Grupo_116671" data-name="Grupo 116671">
            <path id="Trazado_173469" data-name="Trazado 173469" d="M2895.459,1286.5a.706.706,0,0,1-.7-.574l-3.429-19.435-4.932-27.952-1.379-7.816,3.513-.1.61,4.537,4.28,31.886,2.537,18.9A.5.5,0,0,1,2895.459,1286.5Z" transform="translate(-2885.019 -1230.622)" fill="#95c0f4"/>
          </g>
          <path id="Trazado_173470" data-name="Trazado 173470" d="M2889.141,1235.159a5.039,5.039,0,0,0-2.743,3.379l-1.379-7.816,3.513-.1Z" transform="translate(-2885.019 -1230.622)" fill="#78acea"/>
        </g>
        <g id="Grupo_116674" data-name="Grupo 116674" transform="translate(1.879 52.897)">
          <g id="Grupo_116673" data-name="Grupo 116673">
            <path id="Trazado_173471" data-name="Trazado 173471" d="M2116.7,1286.5a.705.705,0,0,0,.7-.574l3.429-19.435,4.932-27.952,1.379-7.816-3.513-.1-.61,4.537-4.279,31.886-2.537,18.9A.5.5,0,0,0,2116.7,1286.5Z" transform="translate(-2116.196 -1230.622)" fill="#95c0f4"/>
          </g>
          <path id="Trazado_173472" data-name="Trazado 173472" d="M2183.914,1235.159a5.04,5.04,0,0,1,2.743,3.379l1.379-7.816-3.512-.1Z" transform="translate(-2177.093 -1230.622)" fill="#78acea"/>
        </g>
        <path id="Rectángulo_42871" data-name="Rectángulo 42871" d="M3.069,0H91.176a3.069,3.069,0,0,1,3.069,3.069v0a3.069,3.069,0,0,1-3.069,3.069H3.069A3.069,3.069,0,0,1,0,3.069v0A3.069,3.069,0,0,1,3.069,0Z" transform="translate(0 49.929)" fill="#78acea"/>
      </g>
    </g>
  </g>
</svg>
