<svg xmlns="http://www.w3.org/2000/svg" width="101.203" height="101.207" viewBox="0 0 101.203 101.207">
  <g id="Grupo_117186" data-name="Grupo 117186" transform="translate(-50.089 -140.096)">
    <path id="Trazado_174187" data-name="Trazado 174187" d="M50.089,231.024V200.385a1.97,1.97,0,0,1,2.154-1.625c1.571.388,2.084,1.063,2.088,2.858.013,5.632,0,11.263.009,16.9a2.61,2.61,0,0,0,.16,1.311,12.362,12.362,0,0,1,7.418-2.525,12.163,12.163,0,0,1,7.414,2.494c.327-.33.223-.643.223-.924q.007-22.28,0-44.56a7.606,7.606,0,1,0-15.208-.176c-.04,3.524.01,7.048-.019,10.572a2.325,2.325,0,0,1-2.065,2.678,1.975,1.975,0,0,1-2.173-1.626V172.316c.51-5.6,5.426-9.308,9.452-10.112a12.247,12.247,0,0,1,13.886,7.984,18.371,18.371,0,0,1,.652,6.151c-.011,1.437,0,1.44,1.4,1.441q5.531,0,11.063,0c1.039,0,1.064-.052.557-.945a64.689,64.689,0,0,1-5.459-11.706c-2.177-6.623-.623-12.54,3.544-17.885a19.253,19.253,0,0,1,10.425-6.753c.826-.226,1.693-.145,2.512-.394h4.546a17.687,17.687,0,0,1,5.72,1.279A19.946,19.946,0,0,1,119.258,152.4a18.314,18.314,0,0,1-.09,14.411,78,78,0,0,1-4.659,9.581c-.131.229-.256.46-.386.689-.275.485-.187.71.417.708q5.925-.019,11.85,0c.689,0,.909-.305.922-.961a26.019,26.019,0,0,1,.217-5.019,12.2,12.2,0,0,1,12.653-9.832,12.365,12.365,0,0,1,10.754,8.325c.219.727.14,1.493.355,2.216v58.708c-.556,4.331-3,7.267-6.792,9.218a11.19,11.19,0,0,1-3.486.864H60.565a11.8,11.8,0,0,1-6.686-3.068A10.422,10.422,0,0,1,50.089,231.024Z" transform="translate(0)"/>
    <path id="Trazado_174188" data-name="Trazado 174188" d="M50.089,399.61v-1.186a1.952,1.952,0,0,1,2.038-1.624c1.419.287,2.174,1.081,2.152,2.258-.022,1.147-.754,1.892-2.134,2.176A1.955,1.955,0,0,1,50.089,399.61Z" transform="translate(0 -205.945)" fill="#010101"/>
    <path id="Trazado_174189" data-name="Trazado 174189" d="M52.063,376.327a2.466,2.466,0,0,0-1.974,1.416v-6.721a2.475,2.475,0,0,0,1.974,1.415A5.334,5.334,0,0,1,52.063,376.327Z" transform="translate(0 -185.264)" fill="#fefefe"/>
    <path id="Trazado_174190" data-name="Trazado 174190" d="M50.089,411.01a2.472,2.472,0,0,0,1.974,1.415,5.334,5.334,0,0,1,0,3.89,2.47,2.47,0,0,0-1.974,1.415Z" transform="translate(0 -217.345)" fill="#fefefe"/>
    <path id="Trazado_174191" data-name="Trazado 174191" d="M60.072,304.839v-3.89c1.327-.3,2-1,1.976-2.058-.026-1.027-.678-1.673-1.976-1.958v-3.89a2.09,2.09,0,0,0,1.978-2.461c0-3.458-.007-6.916,0-10.374a7.906,7.906,0,1,1,15.806-.059q.018,22.774,0,45.547v.675c-5.273-3.9-10.493-3.922-15.813.012v-1q0-9.04,0-18.081A2.089,2.089,0,0,0,60.072,304.839Z" transform="translate(-8.009 -105.869)" fill="#afafaf"/>
    <path id="Trazado_174192" data-name="Trazado 174192" d="M477.616,326.336A12.058,12.058,0,0,0,462,326.322c-.294-.135-.155-.4-.155-.6q-.011-22.874,0-45.749a7.9,7.9,0,1,1,15.8.012q.033,22.924.008,45.847C477.646,325.961,477.631,326.089,477.616,326.336Z" transform="translate(-330.308 -105.87)" fill="#636363"/>
    <path id="Trazado_174193" data-name="Trazado 174193" d="M172.76,407.115l12.624-12.02,8.3-7.9c1.383-1.318,1.386-2.316-.025-3.661q-11.582-11.041-23.181-22.063a1.964,1.964,0,0,1-.7-1.611c.047-2.238,0-4.478.031-6.717.006-.451-.276-1.207.216-1.3a2.236,2.236,0,0,1,2.219.35c2.212,2.164,4.467,4.284,6.708,6.419q8.4,8.005,16.8,16.015a2.975,2.975,0,0,0,2.207.88c8.2-.021,16.4,0,24.6-.032.807,0,1.053.165,1.024,1.006-.07,2.039-.049,4.083-.007,6.124.013.644-.162.817-.81.813-4.544-.029-9.088.006-13.632-.032a3.175,3.175,0,0,0-2.443,1.024q-10.981,11.022-21.984,22.024a2.165,2.165,0,0,1-1.718.7C179.669,407.1,176.351,407.115,172.76,407.115Z" transform="translate(-95.985 -169.766)" fill="#dce736"/>
    <path id="Trazado_174194" data-name="Trazado 174194" d="M270.245,551.349a3.66,3.66,0,0,0,.744-.452q9.2-9.176,18.368-18.379a1.968,1.968,0,0,1,1.549-.632c4.149.025,8.3.031,12.448,0,.7-.006.864.185.857.87-.037,3.491-.018,6.982-.016,10.473,0,1.547.7,2.461,1.9,2.509s1.987-.842,2.063-2.361a7.922,7.922,0,0,1,8.2-7.514,7.9,7.9,0,0,1-.11,15.79c-15.247.039-30.495.015-45.742.015Z" transform="translate(-176.624 -314.316)" fill="#777edb"/>
    <path id="Trazado_174195" data-name="Trazado 174195" d="M257.907,175.624a16.731,16.731,0,0,1-1.493,6.294,98.02,98.02,0,0,1-8.849,16.152c-1.623,2.516-3.355,4.961-5.032,7.442-.239.353-.41.711-.817.121-5.232-7.587-10.285-15.264-14.007-23.756-4.392-10.021,2.5-19.256,10.353-21.283A15.9,15.9,0,0,1,257.907,175.624Z" transform="translate(-141.4 -16.041)" fill="#f85316"/>
    <path id="Trazado_174196" data-name="Trazado 174196" d="M89.908,425.337l7.932,7.553c3.84,3.656,7.671,7.323,11.532,10.957.517.487.495.725-.008,1.2q-10.861,10.3-21.683,20.644a1.482,1.482,0,0,1-1.111.509c-2.766-.03-5.534.026-8.3-.033a8.238,8.238,0,0,1-7.966-6.432,7.882,7.882,0,0,1,15.462-3.065c.107.546.136,1.108.188,1.664a2.006,2.006,0,0,0,2,1.92,1.974,1.974,0,0,0,1.946-1.964c.038-1.053.009-2.108.009-3.162Z" transform="translate(-16.099 -228.839)" fill="#3d46c2"/>
    <path id="Trazado_174197" data-name="Trazado 174197" d="M209.824,351.948c2.85,0,5.549.024,8.246-.018.6-.009.793.338,1.035.724,2.451,3.9,5.062,7.7,7.773,11.425,1.289,1.772,2.64,1.77,3.927,0,2.69-3.7,5.287-7.466,7.713-11.346a1.432,1.432,0,0,1,1.392-.8q7.461.054,14.922,0c.76-.006.911.212.907.931q-.045,8.993,0,17.986c0,.666-.13.889-.849.886q-11.859-.041-23.717-.013a1.509,1.509,0,0,1-1.165-.382q-9.962-9.527-19.943-19.034A2.779,2.779,0,0,1,209.824,351.948Z" transform="translate(-128.15 -169.946)" fill="#75b62f"/>
    <path id="Trazado_174198" data-name="Trazado 174198" d="M265.826,209.85a9.883,9.883,0,1,1,9.958-9.782A9.922,9.922,0,0,1,265.826,209.85Z" transform="translate(-165.212 -40.105)"/>
    <path id="Trazado_174199" data-name="Trazado 174199" d="M287.869,215.968a5.929,5.929,0,1,1-5.919-5.889A5.954,5.954,0,0,1,287.869,215.968Z" transform="translate(-181.25 -56.145)" fill="#ebebf0"/>
  </g>
</svg>
