<svg xmlns="http://www.w3.org/2000/svg" width="98.535" height="98.649" viewBox="0 0 98.535 98.649">
  <g id="Grupo_117185" data-name="Grupo 117185" transform="translate(-115.973 -205.946)">
    <path id="Trazado_174138" data-name="Trazado 174138" d="M134.843,308.5c-1.02-.008-2.323.361-2.978-.133-.62-.466-.169-1.852-.179-2.832-.027-2.615-.015-5.231-.007-7.846a6.356,6.356,0,0,1,6.6-6.642c1.345-.006,1.345-.006,1.345-1.339,0-.033,0-.066,0-.1a8.57,8.57,0,0,0-1.283-5.677,12.319,12.319,0,0,1-1.893-7.577,28.934,28.934,0,0,1,.168-4.95,7.165,7.165,0,0,1,6.9-5.764,30.8,30.8,0,0,1,6.141.151,7.129,7.129,0,0,1,5.847,7.026c.01,2.934.285,5.9-.776,8.743a12.929,12.929,0,0,1-2.11,4.009c-.1.123-.256.269-.258.406-.021,1.589-.03,3.178-.012,4.767.005.5.441.3.68.293a7.19,7.19,0,0,1,4.028.886c.019-.441.047-.78.047-1.119,0-6.125.012-12.249-.008-18.373,0-.966.251-1.724,1.245-1.99.588-.158.341-.57.343-.866.017-4.3.011-8.607.012-12.911,0-5.3,2.785-8.847,7.957-10.15,1.345-.338,2.687-.689,4.037-1a.8.8,0,0,0,.749-.9A2.733,2.733,0,0,0,170.3,242a8.064,8.064,0,0,1-2.731-3.828,1.516,1.516,0,0,0-1.75-1.195,5.479,5.479,0,0,1-5.529-5.743,5.277,5.277,0,0,1,2.587-4.438,1.122,1.122,0,0,0,.594-1.1c.061-2.643-.255-5.3.178-7.929a9.419,9.419,0,0,1,8.834-7.745c2.911-.086,5.826-.061,8.739-.013a6.2,6.2,0,0,1,5.684,4.225,1.319,1.319,0,0,0,.888.909,6.262,6.262,0,0,1,4.268,6.059c.011,1.49.015,2.98-.005,4.469a1.086,1.086,0,0,0,.565,1.109,5.465,5.465,0,0,1,2.383,6.287,5.525,5.525,0,0,1-5.378,3.918c-.856-.007-1.307.149-1.628,1.069a9.951,9.951,0,0,1-3.416,4.535,3.539,3.539,0,0,0-.409,2.57c.132.185.348.157.538.2.906.186,1.811.378,2.717.56a8.141,8.141,0,0,1,6.262,5.21c.672,1.649,1.356,3.295,1.971,4.965.263.713.476.882,1.219.458,3.641-2.079,7.3-4.126,10.993-6.112a5.363,5.363,0,0,1,7.974,3.848,5.971,5.971,0,0,1-3.285,6.144c-3.411,1.881-6.838,3.73-10.258,5.594-.957.521-1.911,1.047-2.868,1.568-3.456,1.884-5.914,1.565-8.96-1.282,0,1.334,0,2.532,0,3.73,0,.522.409.329.655.331,1.788.015,3.575,0,5.363.01,1.351.006,1.923.578,1.924,1.939q.008,9.187,0,18.373v1.218a7.48,7.48,0,0,1,4.274-.869c.4.025.505-.126.5-.507-.018-1.423-.013-2.847,0-4.271a1.088,1.088,0,0,0-.272-.711,13.871,13.871,0,0,1-2.894-8.57,27.132,27.132,0,0,1,.152-5.546,7.139,7.139,0,0,1,6.959-5.808,30.652,30.652,0,0,1,6.14.161,7.131,7.131,0,0,1,5.788,6.976c.012,2.933.291,5.9-.763,8.745a12.587,12.587,0,0,1-2.1,4.01,1.243,1.243,0,0,0-.3.9c.012,1.324.03,2.649-.008,3.972-.015.527.145.684.662.654a7.752,7.752,0,0,1,2.847.285,6.327,6.327,0,0,1,4.439,5.951c.034,3.509,0,7.018.022,10.527,0,.546-.118.759-.7.719-.823-.057-1.653-.031-2.479-.04a1.411,1.411,0,0,1-.318-1.091c0-1.2-.034-2.405.014-3.607-.037-1.983.005-3.966-.02-5.949-.028-2.195-1.111-3.3-3.312-3.311-5.123-.034-10.247.017-15.37-.023-2.062.289-2.938,1.269-2.951,3.372-.019,3.067,0,6.134-.01,9.2a1.846,1.846,0,0,1-.3,1.409l-3.161,0a1.433,1.433,0,0,1-.31-1.11c0-1.187-.035-2.374.014-3.56-.025-9.366,0-18.734-.012-28.1,0-1.854,0-1.854-1.849-1.855-.993,0-1.986-.008-2.979,0-2.815.029-2.507-.335-2.5,2.469a16.465,16.465,0,0,1-.434,3.935,13.99,13.99,0,0,1-2.286,5.135,2.257,2.257,0,0,0-.464,1.383c0,.96.018,1.92-.008,2.88-.02.742.263,1.1,1.04,1.079a6.65,6.65,0,0,1,2.984.631,6.471,6.471,0,0,1,3.907,6.074c.079,2.115.035,4.236.008,6.355.05,1.191.02,2.381.016,3.571a1.438,1.438,0,0,1-.312,1.114l-3.161,0a1.411,1.411,0,0,1-.318-1.091c0-1.2-.034-2.405.014-3.607-.037-1.983.005-3.966-.02-5.949-.028-2.195-1.111-3.3-3.313-3.311-5.123-.034-10.247.017-15.37-.023-2.062.289-2.938,1.269-2.951,3.372-.019,3.067,0,6.134-.01,9.2a1.847,1.847,0,0,1-.305,1.409l-3.161,0a1.3,1.3,0,0,1-.311-1.01c-.012-3.461-.031-6.921.01-10.382a4.278,4.278,0,0,1,.138-.976,6.619,6.619,0,0,1,6.7-5.364c1.036-.035,1.105-.105,1.125-1.157,0-.231-.012-.463,0-.694a7.153,7.153,0,0,0-1.158-4.651,14.137,14.137,0,0,1-2.036-8.249c.052-2.417.231-2.146-2.184-2.163q-1.239-.009-2.479.011c-.6.052-1.191.02-1.787.036a.769.769,0,0,0-.864.845c-.011.4-.014.793-.014,1.19q0,15.378-.007,30.757c0,.613.148,1.269-.319,1.807l-3.161,0a1.411,1.411,0,0,1-.318-1.091c0-1.2-.034-2.405.014-3.607-.037-1.983.005-3.966-.02-5.949-.028-2.195-1.111-3.3-3.312-3.311-5.123-.034-10.247.017-15.37-.023-2.062.289-2.938,1.269-2.951,3.372-.019,3.067,0,6.134-.01,9.2A1.847,1.847,0,0,1,134.843,308.5Z" transform="translate(-12.521 -4.026)"/>
    <path id="Trazado_174139" data-name="Trazado 174139" d="M398.265,240.053c3.076,0,6.153,0,9.229,0a4.767,4.767,0,0,1,5.076,5.1q.009,6.053,0,12.106a4.776,4.776,0,0,1-5.033,5.042c-2.646.008-5.293.015-7.939-.009a1.9,1.9,0,0,0-1.334.483c-2.706,2.278-5.435,4.529-8.142,6.806-.686.577-1.394.949-2.237.4a1.743,1.743,0,0,1-.617-2.106c.378-1.64.66-3.3,1.012-4.947.1-.443.017-.6-.453-.734a4.736,4.736,0,0,1-3.861-5.128q0-5.954,0-11.908a4.776,4.776,0,0,1,5.068-5.1C392.112,240.048,395.189,240.053,398.265,240.053Z" transform="translate(-198.067 -26.135)"/>
    <path id="Trazado_174140" data-name="Trazado 174140" d="M134.328,210.062c3.11,0,6.219-.007,9.328,0a4.757,4.757,0,0,1,5,4.968q.017,6.153,0,12.305a4.7,4.7,0,0,1-3.732,4.831c-.484.127-.711.237-.57.834.392,1.67.68,3.364,1.044,5.041a1.664,1.664,0,0,1-.717,1.982,1.6,1.6,0,0,1-2-.294c-2.74-2.289-5.5-4.559-8.219-6.87a2.243,2.243,0,0,0-1.6-.564c-2.613.027-5.227.02-7.84.009a4.761,4.761,0,0,1-4.967-5.006q-.014-6.1,0-12.206a4.767,4.767,0,0,1,5.039-5.032C128.176,210.057,131.252,210.062,134.328,210.062Z" transform="translate(-4.081 -4.09)"/>
    <path id="Trazado_174141" data-name="Trazado 174141" d="M286.2,537.572q.023,2.373.045,4.745H263.97c0-3.654,0-7.308.016-10.962a3.11,3.11,0,0,1,3.181-3.28,1.628,1.628,0,0,1,.29,1.22c.013,1.092-.008,2.184.008,3.275a4.536,4.536,0,0,0,4.709,4.7c4.168.031,8.337,0,12.505.014A2.068,2.068,0,0,1,286.2,537.572Z" transform="translate(-109.866 -237.846)" fill="#75b62f"/>
    <path id="Trazado_174142" data-name="Trazado 174142" d="M166.243,537.572q.022,2.373.045,4.745H144.015c0-3.654,0-7.308.016-10.962a3.11,3.11,0,0,1,3.18-3.28,1.628,1.628,0,0,1,.29,1.22c.014,1.092-.009,2.184.008,3.275a4.536,4.536,0,0,0,4.709,4.7c4.169.031,8.337,0,12.506.014A2.068,2.068,0,0,1,166.243,537.572Z" transform="translate(-21.693 -237.846)" fill="#75b62f"/>
    <path id="Trazado_174143" data-name="Trazado 174143" d="M383.926,542.318c0-3.654,0-7.308.016-10.962a3.11,3.11,0,0,1,3.181-3.28,1.627,1.627,0,0,1,.29,1.22c.013,1.092-.009,2.184.008,3.275a4.536,4.536,0,0,0,4.709,4.7c4.168.031,8.337,0,12.506.014a2.068,2.068,0,0,1,1.518.29q.022,2.373.045,4.745Z" transform="translate(-198.038 -237.846)" fill="#75b62f"/>
    <path id="Trazado_174144" data-name="Trazado 174144" d="M243.307,472.306a33.284,33.284,0,0,0-.148,5.308c-.03,2.4,0,4.8,0,7.2h-3.189q0-16.9-.013-33.792c0-.877.181-1.269,1.127-1.152a19.324,19.324,0,0,0,2.078.046,1.723,1.723,0,0,1,.308,1.313c.009,6.375,0,12.749.016,19.124C243.486,471.015,243.157,471.637,243.307,472.306Z" transform="translate(-92.213 -180.346)" fill="#f85316"/>
    <path id="Trazado_174145" data-name="Trazado 174145" d="M363.112,562.945q.018,2.371.037,4.743H359.96q.018-2.372.037-4.743A3.661,3.661,0,0,1,363.112,562.945Z" transform="translate(-180.422 -263.22)" fill="#883b1b"/>
    <path id="Trazado_174146" data-name="Trazado 174146" d="M291.806,268.765a26.044,26.044,0,0,1-.1,4.556,7.929,7.929,0,0,1-15.712-1.181c-.061-2.018.007-4.039-.034-6.058-.012-.571.22-.625.69-.633a38.038,38.038,0,0,0,4.858-.122,11.96,11.96,0,0,0,6.817-3.349c.383-.375.642-.506.976-.012a.534.534,0,0,0,.07.07c.813.824,2.03,1.521,2.34,2.5C292.114,265.829,291.806,267.345,291.806,268.765Z" transform="translate(-118.675 -42.007)" fill="#fee0d2"/>
    <path id="Trazado_174147" data-name="Trazado 174147" d="M341.03,480.089h-3.116q-.016-3.125-.032-6.25a6.368,6.368,0,0,0-6.487-6.455,4.932,4.932,0,0,0-.694,0c-.622.086-.847-.181-.769-.782a4.153,4.153,0,0,0,0-.694,8.8,8.8,0,0,1,1.3-5.674c1.827-2.714,2.069-5.949,1.861-9.167-.062-.967.224-1.231,1.187-1.193,2.014.081,4.035.041,6.052.014.557-.008.737.16.736.727Q341.034,465.354,341.03,480.089Z" transform="translate(-158.34 -180.365)" fill="#f85316"/>
    <path id="Trazado_174148" data-name="Trazado 174148" d="M321.9,377.271a9.417,9.417,0,0,0-2.263-1.2c-.365-.1-.437-.32-.466-.649-.3-3.36-.62-6.718-.915-10.078-.069-.785.333-1.095,1.075-.884a1.7,1.7,0,0,0,1.772-.6c1.26-1.268,2.554-2.5,3.776-3.805a.812.812,0,0,1,1.314-.085,5.54,5.54,0,0,1,1.776,2.338q1.426,3.586,2.88,7.162c.6,1.479,1.4,1.77,2.786,1.007,2.515-1.388,5.03-2.777,7.529-4.193.516-.292.805-.35,1.109.282.457.95,1.017,1.852,1.564,2.756.242.4.313.641-.2.915-3.085,1.652-6.14,3.359-9.23,5a3.1,3.1,0,0,1-3.9-.638q-1.494-1.453-2.95-2.946a1.663,1.663,0,0,0-3.029,1.22c.018,1.455-.014,2.911-.024,4.366A2.779,2.779,0,0,1,321.9,377.271Z" transform="translate(-149.766 -114.063)" fill="#afafaf"/>
    <path id="Trazado_174149" data-name="Trazado 174149" d="M295.046,537.5q-7.147,0-14.295,0a4.846,4.846,0,0,1-4.741-4.734c-.007-1.589,0-3.177,0-4.765,5.346-.01,10.693-.044,16.039-.017a3.1,3.1,0,0,1,3.013,3.079C295.1,533.206,295.057,535.352,295.046,537.5Z" transform="translate(-118.714 -237.77)" fill="#75b62f"/>
    <path id="Trazado_174150" data-name="Trazado 174150" d="M175.091,537.5q-7.147,0-14.295,0a4.846,4.846,0,0,1-4.741-4.734c-.007-1.589,0-3.177,0-4.765,5.347-.01,10.693-.044,16.039-.017a3.1,3.1,0,0,1,3.013,3.079C175.144,533.206,175.1,535.352,175.091,537.5Z" transform="translate(-30.542 -237.77)" fill="#75b62f"/>
    <path id="Trazado_174151" data-name="Trazado 174151" d="M415,537.5q-7.148,0-14.295,0a4.846,4.846,0,0,1-4.741-4.734c-.007-1.589,0-3.177,0-4.765,5.346-.01,10.693-.044,16.039-.017a3.1,3.1,0,0,1,3.013,3.079C415.054,533.206,415.012,535.352,415,537.5Z" transform="translate(-206.887 -237.77)" fill="#75b62f"/>
    <path id="Trazado_174152" data-name="Trazado 174152" d="M401.939,438.487a12.894,12.894,0,0,1,.141-3.545,4,4,0,0,1,3.753-2.993c1.617-.048,3.238-.051,4.855,0a3.929,3.929,0,0,1,3.87,3.563,26.47,26.47,0,0,1-.181,6.815,9.807,9.807,0,0,1-1.52,3.72,1.377,1.377,0,0,1-.866.429,25.876,25.876,0,0,1-4.635-.066,5.272,5.272,0,0,1-3.87-2.792A10.344,10.344,0,0,1,401.939,438.487Z" transform="translate(-211.241 -167.161)" fill="#e6b432"/>
    <path id="Trazado_174153" data-name="Trazado 174153" d="M282.034,438.5c-.008-.858-.042-1.717-.02-2.575a4.109,4.109,0,0,1,4.021-3.972q2.327-.04,4.656,0a3.9,3.9,0,0,1,3.931,3.383c.189,2.845.455,5.744-.583,8.523a8.061,8.061,0,0,1-1.094,2.2,1.378,1.378,0,0,1-.961.444,30.768,30.768,0,0,1-4.341-.045,5.258,5.258,0,0,1-4.01-2.744A10.364,10.364,0,0,1,282.034,438.5Z" transform="translate(-123.123 -167.181)" fill="#5a5b5d"/>
    <path id="Trazado_174154" data-name="Trazado 174154" d="M162.083,438.687c-.01-.957-.059-1.916-.021-2.872a4.092,4.092,0,0,1,3.912-3.872c1.617-.045,3.237-.041,4.854,0a3.873,3.873,0,0,1,3.832,3.375c.2,2.813.447,5.678-.543,8.432a8.738,8.738,0,0,1-1.119,2.3c-.207.16-.4.386-.672.39-1.994.024-4.017.4-5.954-.377a5.292,5.292,0,0,1-2.749-2.44A10.842,10.842,0,0,1,162.083,438.687Z" transform="translate(-34.948 -167.16)" fill="#a34b2f"/>
    <path id="Trazado_174155" data-name="Trazado 174155" d="M269.6,224.208a5.783,5.783,0,0,1,4.477-2.18c2.74-.065,5.483-.035,8.225-.013a3.151,3.151,0,0,1,3.179,3.029c.1,1.092.562,1.62,1.528,1.73,2.206.251,3.237,1.386,3.24,3.572,0,.4-.015.792-.023,1.188a2.429,2.429,0,0,1-2.394.037c-.874-.853-1.742-1.712-2.624-2.557a1.613,1.613,0,0,0-2.747.222,7.355,7.355,0,0,1-2.5,2.347,8.319,8.319,0,0,1-10.317-5.741A1.988,1.988,0,0,1,269.6,224.208Z" transform="translate(-113.887 -12.858)" fill="#5a5b5d"/>
    <path id="Trazado_174156" data-name="Trazado 174156" d="M252.143,472.367c-.239-.249-.152-.562-.152-.851q0-10.77,0-21.54c1.355-.01,2.711.005,4.065-.043.6-.021.705.23.705.759a23.344,23.344,0,0,0,.35,5.72,13.994,13.994,0,0,0,2.541,5.53.97.97,0,0,1,.258.51c.021,1.521.018,3.042.011,4.563,0,.536-.427.406-.726.4a8.058,8.058,0,0,0-2.838.325A6.344,6.344,0,0,0,252.143,472.367Z" transform="translate(-101.049 -180.407)" fill="#f85316"/>
    <path id="Trazado_174157" data-name="Trazado 174157" d="M260.328,377.13c-.011-2.312-.045-4.625-.017-6.937.008-.637-.148-.873-.81-.819-.788.064-1.584.027-2.377.034a1.265,1.265,0,0,1-.316-1.006c-.024-2.208-.014-4.415-.007-6.623a1.9,1.9,0,0,1,.321-1.121,4.88,4.88,0,0,1,.573-.374c1.538-.731,1.667-.7,2.875.5q1.616,1.614,3.231,3.228a1.634,1.634,0,0,0,1.7.535c.777-.221,1.144.113,1.067.982-.254,2.867-.566,5.729-.75,8.6-.08,1.245-.3,2.2-1.7,2.526a4.5,4.5,0,0,0-1.183.7A2.361,2.361,0,0,1,260.328,377.13Z" transform="translate(-104.59 -114.151)" fill="#afafaf"/>
    <path id="Trazado_174158" data-name="Trazado 174158" d="M249.173,363.052q0,4.375,0,8.75c0,3.435-.022,6.871.01,10.306.006.657-.185.815-.824.814-2.37-.006-2.37.018-2.37-2.323,0-4-.034-7.994.013-11.991A6.1,6.1,0,0,1,249.173,363.052Z" transform="translate(-96.641 -116.546)" fill="#b3b3b3"/>
    <path id="Trazado_174159" data-name="Trazado 174159" d="M265.522,230.365c.59,3.914,2.8,6.5,6.416,7.224a23.853,23.853,0,0,0,3.948.151,7.819,7.819,0,0,1-4.607,1.537c-1.75.055-3.5.036-5.254,0a2.28,2.28,0,0,0-2.05.837c.163-2.632-.486-5.266.369-7.833A4.87,4.87,0,0,1,265.522,230.365Z" transform="translate(-109.807 -19.016)" fill="#3f4042"/>
    <path id="Trazado_174160" data-name="Trazado 174160" d="M162.035,457.486a21.105,21.105,0,0,0,1.67,4.616,5.185,5.185,0,0,0,4.8,2.916,18.4,18.4,0,0,0,4.44-.172,3.093,3.093,0,0,1-2.788,1.753,26.985,26.985,0,0,1-3.573.006,3.441,3.441,0,0,1-2.96-1.875A12.3,12.3,0,0,1,162.035,457.486Z" transform="translate(-34.9 -185.959)" fill="#883b1b"/>
    <path id="Trazado_174161" data-name="Trazado 174161" d="M281.965,456.721a16.926,16.926,0,0,0,1.681,4.812,5.113,5.113,0,0,0,4.79,2.926,18.806,18.806,0,0,0,4.441-.18,3.077,3.077,0,0,1-2.855,1.761,28.313,28.313,0,0,1-3.459,0,3.435,3.435,0,0,1-2.968-1.827A12.66,12.66,0,0,1,281.965,456.721Z" transform="translate(-123.054 -185.397)" fill="#3f4042"/>
    <path id="Trazado_174162" data-name="Trazado 174162" d="M401.94,456.728a16.879,16.879,0,0,0,1.631,4.728,5.169,5.169,0,0,0,4.942,3.011,19.251,19.251,0,0,0,4.344-.18,3.112,3.112,0,0,1-2.789,1.754,31.131,31.131,0,0,1-3.572.006,3.5,3.5,0,0,1-3.008-1.964A12.561,12.561,0,0,1,401.94,456.728Z" transform="translate(-211.241 -185.402)" fill="#c89628"/>
    <path id="Trazado_174163" data-name="Trazado 174163" d="M174.029,503.436a32.856,32.856,0,0,0,6.356-.011c0,.946-.018,1.9.008,2.846.012.417-.174.482-.53.479q-2.668-.019-5.336,0c-.384,0-.515-.117-.506-.5C174.044,505.3,174.029,504.352,174.029,503.436Z" transform="translate(-43.749 -219.726)" fill="#fee0d2"/>
    <path id="Trazado_174164" data-name="Trazado 174164" d="M297.094,506.705c-.856,0-1.713-.019-2.569.008-.416.013-.631-.095-.56-.543a.694.694,0,0,0,0-.1q.011-1.283.022-2.567c.789.007,1.578.038,2.367.017a18.483,18.483,0,0,0,3.545-.126c.288-.063.442-.019.423.306,0,.066,0,.132,0,.2-.05.911.383,2.319-.154,2.619-.8.446-2.027.116-3.073.116Z" transform="translate(-131.904 -219.687)" fill="#fee0d2"/>
    <path id="Trazado_174165" data-name="Trazado 174165" d="M417.048,506.706c-.823,0-1.648-.028-2.47.01-.5.023-.706-.1-.673-.643.052-.853.026-1.711.032-2.566.789.007,1.578.036,2.366.015a18.6,18.6,0,0,0,3.545-.125c.284-.062.444-.027.425.3,0,.066,0,.132,0,.2-.049.911.382,2.321-.153,2.62-.8.446-2.027.116-3.072.116Z" transform="translate(-220.072 -219.687)" fill="#fee0d2"/>
    <path id="Trazado_174166" data-name="Trazado 174166" d="M423.58,374.294a3.8,3.8,0,0,1-2.819,3.105c-.327.02-.362-.244-.467-.425-.581-1-1.136-2.011-1.726-3-.2-.334-.292-.559.148-.772.623-.3,1.2-.7,1.835-.97A2.181,2.181,0,0,1,423.58,374.294Z" transform="translate(-223.38 -123.162)" fill="#fde0d2"/>
    <path id="Trazado_174167" data-name="Trazado 174167" d="M348.589,281.955a2.437,2.437,0,0,1,2.53,2.434,2.47,2.47,0,0,1-2.642,2.349c-.446-.014-.549-.161-.541-.572.022-1.184.039-2.369-.005-3.552C347.908,282.01,348.142,281.851,348.589,281.955Z" transform="translate(-171.579 -56.914)" fill="#ecb7aa"/>
    <path id="Trazado_174168" data-name="Trazado 174168" d="M255.2,284.287a13.236,13.236,0,0,0,.014,1.676c.1.787-.3.847-.911.792a2.431,2.431,0,0,1-2.27-2.6,2.49,2.49,0,0,1,2.7-2.184c.415.029.482.192.472.539C255.188,283.1,255.2,283.695,255.2,284.287Z" transform="translate(-101.084 -56.944)" fill="#edb7aa"/>
    <path id="Trazado_174169" data-name="Trazado 174169" d="M303.514,384.262q.327,3.519.656,7.038c.058.623.1,1.248.184,1.869.058.436-.1.549-.527.573-1.5.083-1.473.105-1.327-1.353.246-2.459.45-4.921.675-7.382.023-.25.06-.5.091-.747Z" transform="translate(-138.138 -132.136)" fill="#f85316"/>
    <path id="Trazado_174170" data-name="Trazado 174170" d="M297.1,342.325c-1-.33-1.976-.636-2.937-.972-.385-.134-.294-.512-.225-.767.092-.346.383-.118.575-.072a10.621,10.621,0,0,0,5.184-.01c.187-.047.475-.263.551.112.048.237.139.59-.174.7C299.087,341.683,298.084,342,297.1,342.325Z" transform="translate(-131.847 -99.895)" fill="#fbddcf"/>
    <path id="Trazado_174171" data-name="Trazado 174171" d="M316.93,355.218a3.863,3.863,0,0,1,3.789-.309,15.726,15.726,0,0,1-1.634,1.729c-.2.222-.368.19-.578-.007C318.007,356.163,317.487,355.715,316.93,355.218Z" transform="translate(-148.793 -110.292)" fill="#b1b1b1"/>
    <path id="Trazado_174172" data-name="Trazado 174172" d="M270,425.223a10.452,10.452,0,0,0,2.6.228,8.92,8.92,0,0,0-2,2.752c-.093.227-.181.45-.473.364-.259-.076-.154-.327-.154-.5C269.975,427.119,269.992,426.171,270,425.223Z" transform="translate(-114.265 -162.245)" fill="#b2b2b2"/>
    <path id="Trazado_174173" data-name="Trazado 174173" d="M284.82,355.078c-1.7,2.038-1.925,2.031-3.495-.022-.014-.018,0-.06,0-.091C282.9,354.341,282.92,354.341,284.82,355.078Z" transform="translate(-122.619 -110.268)" fill="#b1b1b1"/>
    <path id="Trazado_174174" data-name="Trazado 174174" d="M332.034,426l2.6-.031c.011.883.028,1.765.027,2.647,0,.173.1.424-.155.5-.293.085-.379-.139-.472-.366A8.883,8.883,0,0,0,332.034,426Z" transform="translate(-159.896 -162.795)" fill="#b2b2b2"/>
    <path id="Trazado_174175" data-name="Trazado 174175" d="M302.224,365.358c-.849.211-1.07-.44-1.336-.993-.071-.148,1.137-1.365,1.325-1.377.239-.016,1.467,1.219,1.368,1.42C303.31,364.964,303.049,365.59,302.224,365.358Z" transform="translate(-136.999 -116.5)" fill="#f85316"/>
    <path id="Trazado_174176" data-name="Trazado 174176" d="M338.859,258.051l2.394-.037v2.219Z" transform="translate(-164.912 -39.339)" fill="#404143"/>
    <path id="Trazado_174177" data-name="Trazado 174177" d="M401.091,252.107q9.484-.016,18.968-.025a1.55,1.55,0,0,1,1.678,1.679c.008,4.2-.014,8.407-.025,12.611a1.7,1.7,0,0,1-1.313.309c-4.762.008-9.524.023-14.287,0a5.128,5.128,0,0,1-5.329-5.321c-.024-2.645-.01-5.291,0-7.937A1.709,1.709,0,0,1,401.091,252.107Z" transform="translate(-210.419 -34.978)" fill="#3d46c2"/>
    <path id="Trazado_174178" data-name="Trazado 174178" d="M397.546,252.178c0,3.177-.01,6.354,0,9.53a4.838,4.838,0,0,0,4.739,4.736q7.942.01,15.884,0c-.194,1.173-.655,1.587-1.842,1.591-2.812.01-5.624.034-8.434-.014a3.323,3.323,0,0,0-2.429.862c-1.486,1.313-3.031,2.56-4.562,3.822-.219.18-.389.459-.843.474.192-.988.372-1.945.564-2.9.287-1.426-.354-2.221-1.819-2.241-.364,0-.728.009-1.091,0a1.59,1.59,0,0,1-1.751-1.711q-.025-6.251,0-12.5C395.965,252.809,396.443,252.359,397.546,252.178Z" transform="translate(-206.874 -35.049)" fill="#3d46c2"/>
    <path id="Trazado_174179" data-name="Trazado 174179" d="M137.189,222.118q9.484-.016,18.968-.025a1.55,1.55,0,0,1,1.678,1.679c.008,4.2-.014,8.407-.025,12.611a1.7,1.7,0,0,1-1.313.309c-4.762.008-9.524.023-14.286,0a5.129,5.129,0,0,1-5.329-5.321c-.024-2.645-.01-5.291,0-7.937A1.709,1.709,0,0,1,137.189,222.118Z" transform="translate(-16.44 -12.934)" fill="#3d46c2"/>
    <path id="Trazado_174180" data-name="Trazado 174180" d="M133.653,222.189c0,3.177-.01,6.354,0,9.531a4.839,4.839,0,0,0,4.739,4.736q7.942.01,15.884,0c-.189,1.14-.644,1.557-1.742,1.593a.729.729,0,0,1-.1,0c-2.358-.249-3.369.476-2.6,3.229.166.6.243,1.223.371,1.884-.445.028-.63-.28-.859-.468-1.608-1.323-3.212-2.651-4.8-4a2.587,2.587,0,0,0-1.8-.654c-2.877.026-5.754.014-8.63.01-1.5,0-2.047-.542-2.049-2.014q-.006-6,0-12C132.064,222.845,132.483,222.381,133.653,222.189Z" transform="translate(-12.904 -13.006)" fill="#3d46c2"/>
    <path id="Trazado_174181" data-name="Trazado 174181" d="M433.54,291.218c-1.586,0-1.586,0-1.586-1.592s0-1.586,1.592-1.586,1.586,0,1.586,1.592S435.132,291.218,433.54,291.218Z" transform="translate(-233.341 -61.409)"/>
    <path id="Trazado_174182" data-name="Trazado 174182" d="M407.963,289.545c0-1.5,0-1.5,1.476-1.5,1.7,0,1.7,0,1.7,1.674,0,1.5,0,1.5-1.476,1.5C407.963,291.218,407.963,291.218,407.963,289.545Z" transform="translate(-215.707 -61.409)"/>
    <path id="Trazado_174183" data-name="Trazado 174183" d="M459.123,289.725c0,1.493,0,1.493-1.487,1.493-1.691,0-1.691,0-1.691-1.685,0-1.493,0-1.493,1.487-1.493C459.123,288.04,459.123,288.04,459.123,289.725Z" transform="translate(-250.976 -61.409)"/>
    <path id="Trazado_174184" data-name="Trazado 174184" d="M193.629,261.229c-1.586,0-1.586,0-1.586-1.592s0-1.586,1.592-1.586,1.586,0,1.586,1.592S195.221,261.229,193.629,261.229Z" transform="translate(-56.996 -39.366)"/>
    <path id="Trazado_174185" data-name="Trazado 174185" d="M171.23,259.692c0,1.537,0,1.537-1.542,1.537-1.636,0-1.636,0-1.636-1.642,0-1.537,0-1.537,1.543-1.537C171.23,258.051,171.23,258.051,171.23,259.692Z" transform="translate(-39.362 -39.366)"/>
    <path id="Trazado_174186" data-name="Trazado 174186" d="M147.239,259.561c0,1.668,0,1.668-1.708,1.668-1.47,0-1.47,0-1.47-1.51,0-1.668,0-1.668,1.708-1.668C147.239,258.051,147.239,258.051,147.239,259.561Z" transform="translate(-21.727 -39.366)"/>
  </g>
</svg>
