<svg xmlns="http://www.w3.org/2000/svg" width="238.167" height="165.376" viewBox="0 0 238.167 165.376">
  <g id="Grupo_116586" data-name="Grupo 116586" transform="matrix(1, 0.017, -0.017, 1, -248.708, -184.467)">
    <g id="Grupo_116585" data-name="Grupo 116585" transform="translate(246.748 135.671)">
      <g id="Grupo_116456" data-name="Grupo 116456" transform="translate(114.486 131.875)">
        <rect id="Rectángulo_42821" data-name="Rectángulo 42821" width="16.741" height="50.848" transform="translate(16.741 50.848) rotate(180)" fill="#8f8f8f"/>
      </g>
      <g id="Grupo_116457" data-name="Grupo 116457" transform="translate(50.576 54.389)">
        <path id="Rectángulo_42822" data-name="Rectángulo 42822" d="M50.99,0H93.57A50.989,50.989,0,0,1,144.56,50.989v0a50.99,50.99,0,0,1-50.99,50.99H50.989A50.989,50.989,0,0,1,0,50.99v0A50.99,50.99,0,0,1,50.99,0Z" transform="translate(144.56 101.979) rotate(180)" fill="#f6e7d6"/>
      </g>
      <g id="Grupo_116458" data-name="Grupo 116458" transform="translate(56.238 43.535)">
        <rect id="Rectángulo_42823" data-name="Rectángulo 42823" width="133.237" height="96.852" transform="translate(133.237 96.852) rotate(180)" fill="#fff"/>
      </g>
      <g id="Grupo_116459" data-name="Grupo 116459" transform="translate(56.238 43.535)">
        <rect id="Rectángulo_42824" data-name="Rectángulo 42824" width="133.237" height="11.698" transform="translate(133.237 11.698) rotate(180)" fill="#b8e587"/>
      </g>
      <g id="Grupo_116460" data-name="Grupo 116460" transform="translate(173.261 143.037)">
        <path id="Trazado_173109" data-name="Trazado 173109" d="M1691.9,1333.393c0,2.575,2.455,4.663,5.483,4.663s5.483-2.088,5.483-4.663-2.455-4.663-5.483-4.663S1691.9,1330.818,1691.9,1333.393Z" transform="translate(-1691.895 -1328.73)" fill="#ccc"/>
      </g>
      <rect id="Rectángulo_42825" data-name="Rectángulo 42825" width="75.316" height="3.838" transform="translate(85.198 180.804)" fill="#ccc"/>
      <rect id="Rectángulo_42826" data-name="Rectángulo 42826" width="19.003" height="4.42" rx="2.21" transform="translate(61.803 47.174)" fill="#f5f7ff"/>
      <rect id="Rectángulo_42827" data-name="Rectángulo 42827" width="69.757" height="2.398" transform="translate(65.999 95.992)" fill="#e6e6e6"/>
      <rect id="Rectángulo_42828" data-name="Rectángulo 42828" width="51.739" height="2.398" transform="translate(65.999 100.311)" fill="#e6e6e6"/>
      <rect id="Rectángulo_42829" data-name="Rectángulo 42829" width="32.806" height="2.398" transform="translate(65.999 109.695)" fill="#e6e6e6"/>
      <rect id="Rectángulo_42830" data-name="Rectángulo 42830" width="58.939" height="2.398" transform="translate(65.999 114.014)" fill="#e6e6e6"/>
      <rect id="Rectángulo_42831" data-name="Rectángulo 42831" width="55.213" height="2.398" transform="translate(65.999 124.333)" fill="#e6e6e6"/>
      <rect id="Rectángulo_42832" data-name="Rectángulo 42832" width="67.422" height="2.398" transform="translate(65.999 128.651)" fill="#e6e6e6"/>
      <rect id="Rectángulo_42833" data-name="Rectángulo 42833" width="1.753" height="6.716" transform="translate(62.595 95.992)" fill="#78c2ff"/>
      <rect id="Rectángulo_42834" data-name="Rectángulo 42834" width="1.753" height="6.716" transform="translate(62.595 109.695)" fill="#78c2ff"/>
      <rect id="Rectángulo_42835" data-name="Rectángulo 42835" width="1.753" height="6.716" transform="translate(62.595 124.333)" fill="#78c2ff"/>
      <g id="Grupo_116465" data-name="Grupo 116465" transform="translate(151.327 124.465)">
        <g id="Grupo_116461" data-name="Grupo 116461" transform="translate(0 0)">
          <path id="Rectángulo_42836" data-name="Rectángulo 42836" d="M4.8,0h0a4.8,4.8,0,0,1,4.8,4.8v0a4.8,4.8,0,0,1-4.8,4.8h0A4.8,4.8,0,0,1,0,4.8v0A4.8,4.8,0,0,1,4.8,0Z" fill="#78c2ff"/>
        </g>
        <g id="Grupo_116464" data-name="Grupo 116464" transform="translate(1.907 2.688)">
          <g id="Grupo_116463" data-name="Grupo 116463">
            <g id="Grupo_116462" data-name="Grupo 116462">
              <path id="Trazado_173110" data-name="Trazado 173110" d="M1527.446,1200.473l-2.429-2.117a.478.478,0,0,1,.629-.721l1.718,1.5,2.449-2.732a.478.478,0,0,1,.712.639Z" transform="translate(-1524.853 -1196.24)" fill="#f3f3f3"/>
            </g>
          </g>
        </g>
      </g>
      <g id="Grupo_116468" data-name="Grupo 116468" transform="translate(151.323 109.823)">
        <g id="Grupo_116467" data-name="Grupo 116467">
          <g id="Grupo_116466" data-name="Grupo 116466">
            <path id="Trazado_173111" data-name="Trazado 173111" d="M1516.339,1061.309H1511.1a2.192,2.192,0,0,1-2.189-2.19v-5.238a2.192,2.192,0,0,1,2.189-2.19h5.238a2.192,2.192,0,0,1,2.189,2.19v5.238A2.192,2.192,0,0,1,1516.339,1061.309Zm-5.238-9.008a1.582,1.582,0,0,0-1.58,1.58v5.238a1.582,1.582,0,0,0,1.58,1.58h5.238a1.581,1.581,0,0,0,1.58-1.58v-5.238a1.582,1.582,0,0,0-1.58-1.58Z" transform="translate(-1508.912 -1051.692)" fill="#78c2ff"/>
          </g>
        </g>
      </g>
      <g id="Grupo_116471" data-name="Grupo 116471" transform="translate(165.788 124.461)">
        <g id="Grupo_116470" data-name="Grupo 116470">
          <g id="Grupo_116469" data-name="Grupo 116469">
            <path id="Trazado_173112" data-name="Trazado 173112" d="M1637,1183.4h-5.238a2.192,2.192,0,0,1-2.19-2.19v-5.238a2.192,2.192,0,0,1,2.19-2.19H1637a2.192,2.192,0,0,1,2.189,2.19v5.238A2.192,2.192,0,0,1,1637,1183.4Zm-5.238-9.007a1.582,1.582,0,0,0-1.58,1.58v5.238a1.582,1.582,0,0,0,1.58,1.58H1637a1.581,1.581,0,0,0,1.58-1.58v-5.238a1.581,1.581,0,0,0-1.58-1.58Z" transform="translate(-1629.568 -1173.783)" fill="#78c2ff"/>
          </g>
        </g>
      </g>
      <g id="Grupo_116476" data-name="Grupo 116476" transform="translate(165.793 109.828)">
        <g id="Grupo_116472" data-name="Grupo 116472">
          <path id="Rectángulo_42837" data-name="Rectángulo 42837" d="M4.8,0h0a4.8,4.8,0,0,1,4.8,4.8v0a4.8,4.8,0,0,1-4.8,4.8h0A4.8,4.8,0,0,1,0,4.8v0A4.8,4.8,0,0,1,4.8,0Z" fill="#78c2ff"/>
        </g>
        <g id="Grupo_116475" data-name="Grupo 116475" transform="translate(1.907 2.688)">
          <g id="Grupo_116474" data-name="Grupo 116474">
            <g id="Grupo_116473" data-name="Grupo 116473">
              <path id="Trazado_173113" data-name="Trazado 173113" d="M1648.106,1078.383l-2.429-2.117a.479.479,0,1,1,.629-.721l1.718,1.5,2.449-2.732a.478.478,0,1,1,.712.639Z" transform="translate(-1645.513 -1074.15)" fill="#f3f3f3"/>
            </g>
          </g>
        </g>
      </g>
      <g id="Grupo_116479" data-name="Grupo 116479" transform="translate(165.788 95.186)">
        <g id="Grupo_116478" data-name="Grupo 116478">
          <g id="Grupo_116477" data-name="Grupo 116477">
            <path id="Trazado_173114" data-name="Trazado 173114" d="M1637,939.221h-5.238a2.192,2.192,0,0,1-2.19-2.19v-5.238a2.192,2.192,0,0,1,2.19-2.19H1637a2.192,2.192,0,0,1,2.189,2.19v5.238A2.192,2.192,0,0,1,1637,939.221Zm-5.238-9.008a1.582,1.582,0,0,0-1.58,1.58v5.238a1.582,1.582,0,0,0,1.58,1.58H1637a1.582,1.582,0,0,0,1.58-1.58v-5.238a1.582,1.582,0,0,0-1.58-1.58Z" transform="translate(-1629.568 -929.604)" fill="#78c2ff"/>
          </g>
        </g>
      </g>
      <g id="Grupo_116484" data-name="Grupo 116484" transform="translate(151.327 95.19)">
        <g id="Grupo_116480" data-name="Grupo 116480">
          <path id="Rectángulo_42838" data-name="Rectángulo 42838" d="M4.8,0h0a4.8,4.8,0,0,1,4.8,4.8v0a4.8,4.8,0,0,1-4.8,4.8h0A4.8,4.8,0,0,1,0,4.8v0A4.8,4.8,0,0,1,4.8,0Z" fill="#78c2ff"/>
        </g>
        <g id="Grupo_116483" data-name="Grupo 116483" transform="translate(1.907 2.688)">
          <g id="Grupo_116482" data-name="Grupo 116482">
            <g id="Grupo_116481" data-name="Grupo 116481">
              <path id="Trazado_173115" data-name="Trazado 173115" d="M1527.446,956.294l-2.429-2.118a.478.478,0,0,1,.629-.721l1.718,1.5,2.449-2.732a.478.478,0,0,1,.712.639Z" transform="translate(-1524.853 -952.062)" fill="#f3f3f3"/>
            </g>
          </g>
        </g>
      </g>
      <g id="Grupo_116489" data-name="Grupo 116489" transform="translate(0 108.261)">
        <path id="Trazado_173116" data-name="Trazado 173116" d="M410.713,1038.771c-2.268-1.085-4.526,6.136-4.526,6.136-3.855,5.094-9.243-1.683-8.716,5.932.922,13.326-15.338,4.19-7.837,18.1s-6.624,7.867-1.962,19.084-1.38,24.6,5.634,19.1c0,0,6.176-13.544,12.545-17.734s-3.816-9.162-1.823-14.854c2.895-8.267,9.869-7.942,4.84-16.826S418.423,1042.458,410.713,1038.771Z" transform="translate(-369.926 -1038.66)" fill="#b8e587"/>
        <g id="Grupo_116485" data-name="Grupo 116485" transform="translate(20.869 14.127)">
          <path id="Trazado_173117" data-name="Trazado 173117" d="M421.107,1205.735c3.041-2.138,6.6-17.039,6.811-25.914a12.5,12.5,0,0,1,2.638-8.112,6.856,6.856,0,0,0,1.542-6.145c-1.09-6.053,1.775-8.667,1.8-8.692l-.332-.378c-.127.112-3.111,2.807-1.968,9.159a6.374,6.374,0,0,1-1.457,5.764,13.082,13.082,0,0,0-2.731,8.39c-.228,9.525-3.866,23.594-6.6,25.515Z" transform="translate(-420.818 -1156.494)" fill="#fff"/>
        </g>
        <path id="Trazado_173120" data-name="Trazado 173120" d="M312.179,1132.254c3.174-1.088,2.514,5.029,3.855,9.554s14.918,1.974,9.219,13.307,7.207,3.79,3.352,13.679-.335,20.466-4.526,17.776-2.354-15.144-6.712-16.623-5.069-3.206-.754-7.229-11.307-8.016-7.451-16.139S308.513,1133.511,312.179,1132.254Z" transform="translate(-301.136 -1120.921)" fill="#b8e587"/>
        <g id="Grupo_116488" data-name="Grupo 116488" transform="translate(12.64 25.519)">
          <path id="Trazado_173121" data-name="Trazado 173121" d="M360.534,1291.169c.4-1.693,3.807-16.592.627-18.393-2.8-1.587-2.734-7.761-2.3-13.591.387-5.161-6.241-7.572-6.523-7.673l-.168.474c.066.023,6.548,2.385,6.19,7.161-.449,5.987-.5,12.34,2.55,14.066,2.415,1.367.192,13.341-.869,17.839Z" transform="translate(-352.173 -1251.513)" fill="#fff"/>
        </g>
        <path id="Trazado_173122" data-name="Trazado 173122" d="M380.924,1538.029l-4.531,17.19H366.267l-4.531-17.19Z" transform="translate(-347.95 -1478.159)" fill="#ffa381"/>
        <path id="Trazado_173123" data-name="Trazado 173123" d="M380.924,1538.029s-9.975,1.873-9.975,17.19h-4.682l-4.531-17.19Z" transform="translate(-347.95 -1478.159)" fill="#ffa381"/>
      </g>
      <g id="Grupo_116522" data-name="Grupo 116522" transform="translate(109.059 113.49)">
        <g id="Grupo_116492" data-name="Grupo 116492" transform="translate(0.027 42.822)">
          <g id="Grupo_116491" data-name="Grupo 116491">
            <g id="Grupo_116490" data-name="Grupo 116490">
              <path id="Trazado_173124" data-name="Trazado 173124" d="M1159.864,1439.857a3.029,3.029,0,0,1,.393,1.037,4.979,4.979,0,0,0,.479,1.225,11.659,11.659,0,0,1,.582,2.042,9.418,9.418,0,0,0-.275,1.367c.046.3.216.882-.05.921s-.567-.441-.567-.441a.39.39,0,0,1-.2.376.658.658,0,0,1-.668.024s-.161.3-.364.34a.823.823,0,0,1-.665-.09.8.8,0,0,1-.5.162.662.662,0,0,1-.56-.348s-.5.1-.644-.132a2.233,2.233,0,0,1-.18-.693,8.065,8.065,0,0,1,.633-3.491,3.093,3.093,0,0,0-.165-2.712Z" transform="translate(-1156.622 -1439.446)" fill="#eea886"/>
            </g>
          </g>
        </g>
        <g id="Grupo_116494" data-name="Grupo 116494" transform="translate(0 46.685)">
          <g id="Grupo_116493" data-name="Grupo 116493">
            <path id="Trazado_173125" data-name="Trazado 173125" d="M1160.3,1474.191s.045-1.711-.406-2.075-.5.253-.5.253.061-.61-.431-.692-.513.642-.513.642a.476.476,0,0,0-.6-.374c-.517.1-.394.7-.394.7s-.494-.589-.814-.023a2.521,2.521,0,0,0-.02,2.083s.152.259.644.132a.679.679,0,0,0,1.065.186s.754.415,1.028-.25A.624.624,0,0,0,1160.3,1474.191Z" transform="translate(-1156.4 -1471.67)" fill="#db9c7c"/>
          </g>
        </g>
        <path id="Trazado_173126" data-name="Trazado 173126" d="M1166.3,1207.98s-2.928,9.761-3.918,13.361c-.31,1.129-1.062,11.913-1.194,12.347s-3.847,1.029-3.847,1.029.45-13.49.492-14.226,4.1-15.8,5.279-16.338c.884-.4,1.35-.07,2.464.757A2.607,2.607,0,0,1,1166.3,1207.98Z" transform="translate(-1157.226 -1189.391)" fill="#323657"/>
        <g id="Grupo_116495" data-name="Grupo 116495" transform="translate(37.632 0.529)">
          <rect id="Rectángulo_42839" data-name="Rectángulo 42839" width="8.012" height="0.595" transform="translate(0 4.387) rotate(-33.204)" fill="#4da8f2"/>
        </g>
        <path id="Trazado_173127" data-name="Trazado 173127" d="M1498.69,1092.709a1.748,1.748,0,0,1-.173.531s-.219.262-.364.457a1.577,1.577,0,0,0-.105.156,3.194,3.194,0,0,1-.554.86c-.319.324-1.562,1.354-1.562,1.354l-1.065-.9-1.106-.5a20.821,20.821,0,0,1,.882-3.028,1.1,1.1,0,0,1,.08-.092,4.09,4.09,0,0,1,.693-.477c.054-.045.623-.455.826-.4a.685.685,0,0,1,.511.427,1.638,1.638,0,0,1,.757.487,1.018,1.018,0,0,1,.659.611S1498.668,1092.392,1498.69,1092.709Z" transform="translate(-1453.313 -1089.658)" fill="#efaa88"/>
        <g id="Grupo_116497" data-name="Grupo 116497" transform="translate(3.188 84.995)">
          <g id="Grupo_116496" data-name="Grupo 116496">
            <path id="Trazado_173128" data-name="Trazado 173128" d="M1186.5,1791.448s-.267,1.853-.3,2.131-2.97-.164-2.97-.164l-.238-2.206A17.394,17.394,0,0,1,1186.5,1791.448Z" transform="translate(-1182.989 -1791.209)" fill="#424773"/>
          </g>
        </g>
        <g id="Grupo_116499" data-name="Grupo 116499" transform="translate(2.729 87.004)">
          <g id="Grupo_116498" data-name="Grupo 116498">
            <path id="Trazado_173129" data-name="Trazado 173129" d="M1182.859,1808.094a7.933,7.933,0,0,0,1.83,1.6c.9.487,2.314.68,2.846,1.183.384.364,1.4,1.929-2.338,1.9s-5.539.221-5.939-.379.579-4.43.579-4.43A7.91,7.91,0,0,0,1182.859,1808.094Z" transform="translate(-1179.161 -1807.968)" fill="#292c47"/>
          </g>
        </g>
        <g id="Grupo_116501" data-name="Grupo 116501" transform="translate(24.227 84.995)">
          <g id="Grupo_116500" data-name="Grupo 116500">
            <path id="Trazado_173130" data-name="Trazado 173130" d="M1361.985,1791.448s-.267,1.853-.3,2.131-2.97-.164-2.97-.164l-.238-2.206A17.39,17.39,0,0,1,1361.985,1791.448Z" transform="translate(-1358.477 -1791.209)" fill="#424773"/>
          </g>
        </g>
        <g id="Grupo_116503" data-name="Grupo 116503" transform="translate(23.768 87.004)">
          <g id="Grupo_116502" data-name="Grupo 116502">
            <path id="Trazado_173131" data-name="Trazado 173131" d="M1358.346,1808.094a7.93,7.93,0,0,0,1.83,1.6c.9.487,4.211.886,4.743,1.39.384.364,1.023,1.828-4.235,1.691-3.736-.1-5.539.221-5.939-.379s.579-4.43.579-4.43A7.183,7.183,0,0,0,1358.346,1808.094Z" transform="translate(-1354.648 -1807.968)" fill="#292c47"/>
          </g>
        </g>
        <g id="Grupo_116505" data-name="Grupo 116505" transform="translate(2.729 37.621)">
          <g id="Grupo_116504" data-name="Grupo 116504">
            <path id="Trazado_173132" data-name="Trazado 173132" d="M1185.559,1396.065s-2.759,4.384-2.553,8.346-1,8.288-1.415,12.428c-.462,4.615-2.353,15.539-2.422,18.008s.294,10.351.294,10.351l3.785.087s3.179-19.1,4-21.048,4.906-15.842,5.043-17.4S1185.559,1396.065,1185.559,1396.065Z" transform="translate(-1179.161 -1396.065)" fill="#292c47"/>
          </g>
        </g>
        <g id="Grupo_116507" data-name="Grupo 116507" transform="translate(7.739 36.865)">
          <g id="Grupo_116506" data-name="Grupo 116506">
            <path id="Trazado_173133" data-name="Trazado 173133" d="M1236.86,1391.116s2.079,10.86,2.354,13.286.457,11.736.595,13.252,1.282,19.79,1.647,22.087h-4.839s-3.715-13.317-3.715-19.619-2.87-13.7-4.722-17.856-6.093-4.256-7.232-11.969C1220.947,1390.3,1235.318,1388.669,1236.86,1391.116Z" transform="translate(-1220.947 -1389.766)" fill="#292c47"/>
          </g>
        </g>
        <g id="Grupo_116509" data-name="Grupo 116509" transform="translate(11.413 0.427)">
          <g id="Grupo_116508" data-name="Grupo 116508">
            <path id="Trazado_173134" data-name="Trazado 173134" d="M1253.916,1086.174s3.7-1.383,5.411,1.436,1.543,8.463-.324,9.157-4.671.331-5.626-1.433a14.128,14.128,0,0,1-1.777-6.018A3.713,3.713,0,0,1,1253.916,1086.174Z" transform="translate(-1251.598 -1085.834)" fill="#eea886"/>
          </g>
        </g>
        <g id="Grupo_116511" data-name="Grupo 116511" transform="translate(12.468 7.973)">
          <g id="Grupo_116510" data-name="Grupo 116510">
            <path id="Trazado_173135" data-name="Trazado 173135" d="M1266.345,1152.289a3.2,3.2,0,0,0,.1,1.492c.255.493-4.8.505-4.8.505a33.306,33.306,0,0,0-1.188-4.943C1259.683,1147.081,1266.345,1152.289,1266.345,1152.289Z" transform="translate(-1260.397 -1148.774)" fill="#eea886"/>
          </g>
        </g>
        <g id="Grupo_116513" data-name="Grupo 116513" transform="translate(11.105)">
          <g id="Grupo_116512" data-name="Grupo 116512">
            <path id="Trazado_173136" data-name="Trazado 173136" d="M1250.455,1090.819s.349.575,1.772.352,3.16-2.117,3.755-2.325.6-.557.6-.557l.372.544.631.04s-.576-1.694.293-2.385-.9-5.483-5.467-3.888c0,0-3.506.966-3.379,2.961S1249.67,1089.826,1250.455,1090.819Z" transform="translate(-1249.029 -1082.276)" fill="#d88a51"/>
          </g>
        </g>
        <g id="Grupo_116515" data-name="Grupo 116515" transform="translate(13.143 11.536)">
          <g id="Grupo_116514" data-name="Grupo 116514">
            <path id="Trazado_173137" data-name="Trazado 173137" d="M1271.695,1179.883s-.016-.941-.443-1.031a30.447,30.447,0,0,0-5.232-.3v1.1S1267.029,1180.273,1271.695,1179.883Z" transform="translate(-1266.02 -1178.499)" fill="#e2d2ca"/>
          </g>
        </g>
        <g id="Grupo_116517" data-name="Grupo 116517" transform="translate(17.233 4.56)">
          <g id="Grupo_116516" data-name="Grupo 116516">
            <path id="Trazado_173138" data-name="Trazado 173138" d="M1301.469,1121.042c-.08-.334-.93-1.29-1.256-.267s.492,2.4.948,2.282S1301.672,1121.889,1301.469,1121.042Z" transform="translate(-1300.139 -1120.315)" fill="#eea886"/>
          </g>
        </g>
        <g id="Grupo_116519" data-name="Grupo 116519" transform="translate(5.154 4.539)">
          <g id="Grupo_116518" data-name="Grupo 116518">
            <path id="Trazado_173139" data-name="Trazado 173139" d="M1220.133,1129.944c-2.936-.387-7.082-1.425-7.082-1.425l-5.675-.231a55.23,55.23,0,0,0-7.259,2.073c-.194.088-.2,4.646-.729,5.842l1.7,3.588s.983,7.106,1.186,10.267c.094,1.451-2.026,13.605-2.026,13.605a39.185,39.185,0,0,0,6.144,1.1c3.873.427,13.549-.154,13.61-.612s-1.874-17.033-1.96-17.891c-.131-1.318.454-8.318.454-8.318.894-.694,8.745-4.338,10.887-6.237.573-.508,2.993-2.864,3.68-3.677a66.059,66.059,0,0,0,4.675-5.883c.276-.3-2.709-1.912-2.974-2-.232-.077-3.462,4.208-4.729,5.581a35.542,35.542,0,0,1-2.914,2.321S1221.97,1130.049,1220.133,1129.944Z" transform="translate(-1199.388 -1120.137)" fill="#323657"/>
          </g>
        </g>
        <g id="Grupo_116521" data-name="Grupo 116521" transform="translate(10.534 1.099)">
          <g id="Grupo_116520" data-name="Grupo 116520">
            <path id="Trazado_173140" data-name="Trazado 173140" d="M1246.407,1091.439s-4.722.37-.145,7.444Z" transform="translate(-1244.265 -1091.439)" fill="#d88a51"/>
          </g>
        </g>
        <path id="Trazado_173141" data-name="Trazado 173141" d="M1526.525,1086.5l.387-.591-.713.093Z" transform="translate(-1481.863 -1085.47)" fill="#dfe1e8"/>
      </g>
      <g id="Grupo_116536" data-name="Grupo 116536" transform="translate(39.106 116.62)">
        <path id="Trazado_173142" data-name="Trazado 173142" d="M736.564,1364.589a11.743,11.743,0,0,1,2.941.5c.643.358,4.987-1.011,5.068-1.327a.714.714,0,0,0,0-.472h-8.526Z" transform="translate(-716.489 -1332.727)" fill="#de9673"/>
        <g id="Grupo_116523" data-name="Grupo 116523" transform="translate(4.488 21.31)">
          <path id="Trazado_173143" data-name="Trazado 173143" d="M615.638,1286.553s-.733,5.759,0,6.513c2.8,2.883,13.175,2.654,13.175,2.654l0,1.172s-15.771,1.967-17.236-1.092c-1.761-3.676-1.077-9.67-1.077-9.67Z" transform="translate(-610.365 -1286.131)" fill="#de9673"/>
        </g>
        <g id="Grupo_116524" data-name="Grupo 116524" transform="translate(2.374 79.579)">
          <path id="Trazado_173144" data-name="Trazado 173144" d="M594.912,1774.982l.937-1.068-1.691-1.769-1.428,1Z" transform="translate(-592.729 -1772.146)" fill="#2f4563"/>
        </g>
        <g id="Grupo_116525" data-name="Grupo 116525" transform="translate(0.101 80.579)">
          <path id="Trazado_173145" data-name="Trazado 173145" d="M576.046,1780.489a11.945,11.945,0,0,0,2.467,1.513c.537.059.79.3.726,1.116s.785,4.263,1.376,4.318,2.6.066,2.969,1.393-6.384,1.048-6.8-.04-3.324-6.362-2.98-6.786A4.138,4.138,0,0,1,576.046,1780.489Z" transform="translate(-573.773 -1780.489)" fill="#1e2d40"/>
        </g>
        <g id="Grupo_116526" data-name="Grupo 116526" transform="translate(3.397 38.217)">
          <path id="Trazado_173146" data-name="Trazado 173146" d="M612.627,1428.3s12.61,21.968,7.492,26.513c-2.007,1.782-3.94,3.394-6.717,5.78a68.492,68.492,0,0,0-5.373,4.937l-.088.092c-1.507,1.571-2.751,2.9-3.134,3.31-.014.014-.026.026-.036.038l-.043.046-1.4,1.339-2.059-1.81a61.024,61.024,0,0,0,3.651-5.711c1.848-3.482,4.952-7.575,6.388-8.717,2.46-1.956,3.136-2.34,3.136-4.21,0-2.006-11.558-13.211-11.558-13.211s-1.677-7.013,2.329-8.848A8.271,8.271,0,0,1,612.627,1428.3Z" transform="translate(-601.264 -1427.152)" fill="#23344a"/>
        </g>
        <path id="Trazado_173147" data-name="Trazado 173147" d="M595.321,1809.211a6.247,6.247,0,0,1,.091-1.658c.171-.647-2.611-.276-2.611-.276a24.131,24.131,0,0,0-.255,3.321C592.651,1811.217,595.321,1809.211,595.321,1809.211Z" transform="translate(-590.178 -1723.393)" fill="#41608a"/>
        <g id="Grupo_116527" data-name="Grupo 116527" transform="translate(1.684 38.543)">
          <path id="Trazado_173148" data-name="Trazado 173148" d="M590.952,1475.493l-3.751.676s-.27-4.786-.222-8.453c.053-3.941-.146-7.04,1.058-10.177,1.126-2.934.87-4.052.968-6.055s-.962-12.319-.962-12.319-1.281-4.619,1.685-7.876c2.89-3.175,10.366-.013,10.366-.013s-1.557,14.093-5.3,22.809c-1.058,2.467-.486,3.966-1.836,7.778C592.961,1461.861,590.911,1470.174,590.952,1475.493Z" transform="translate(-586.973 -1429.873)" fill="#2f4563"/>
        </g>
        <g id="Grupo_116528" data-name="Grupo 116528" transform="translate(3.929 9.253)">
          <path id="Trazado_173149" data-name="Trazado 173149" d="M610.694,1188.4a4.33,4.33,0,0,0-.445,1.206,10.272,10.272,0,0,0-.206,1.287,15.046,15.046,0,0,0-.076,1.638s-5-1.089-4.182-2.256.338-4.7.338-4.7S611.342,1187.3,610.694,1188.4Z" transform="translate(-605.695 -1185.568)" fill="#eea987"/>
        </g>
        <g id="Grupo_116529" data-name="Grupo 116529" transform="translate(2.972 1.557)">
          <path id="Trazado_173150" data-name="Trazado 173150" d="M606.489,1122.26s1.281,1.112.708,4.317a10.97,10.97,0,0,0,.674,3c.391.445-1.049.61-1.2.93a6.367,6.367,0,0,1-1.442,2.725c-1,.9-5.974-1.822-6.216-3.362s-3.686-8.141,1.765-8.443S606.489,1122.26,606.489,1122.26Z" transform="translate(-597.719 -1121.374)" fill="#eea886"/>
        </g>
        <g id="Grupo_116530" data-name="Grupo 116530" transform="translate(2.617 14.171)">
          <path id="Trazado_173151" data-name="Trazado 173151" d="M607.306,1238.5c-.1.321.28,5.252.246,5.677a32.58,32.58,0,0,0,.649,7.145c.056.3.088.453.088.453-5.4,2.642-12.917,2.411-12.917,2.411.027-.2,1.076-2.743,1.1-2.938.445-3.172,1.1-4.62.923-6.765h0a13.411,13.411,0,0,0-1.042-4.026,18.418,18.418,0,0,1-1.436-9.986,12.2,12.2,0,0,1,1.041-3.889l4.564.49c.969,1.073,1.831,1.645,4.585,4.089C608.04,1233.765,608.552,1234.554,607.306,1238.5Z" transform="translate(-594.751 -1226.584)" fill="#f85316"/>
        </g>
        <g id="Grupo_116531" data-name="Grupo 116531" transform="translate(1.912 85.532)">
          <path id="Trazado_173152" data-name="Trazado 173152" d="M589.16,1822.771s2.64-.75,2.718-.824.1-.233.46-.088.515.7.872.872,2.536.812,3.73,1.4c.431.212,2.257.908,2.52,1.49s.181,1.455-2.955,1.248-6.567.235-7.254-.108S588.98,1823.678,589.16,1822.771Z" transform="translate(-588.871 -1821.799)" fill="#23344a"/>
        </g>
        <g id="Grupo_116532" data-name="Grupo 116532" transform="translate(2.861)">
          <path id="Trazado_173153" data-name="Trazado 173153" d="M606.514,1114s.613-6.654-5.839-5.466-3.126,8.46-2.257,10.831c0,0-.106-3.682,3-3.8A8.485,8.485,0,0,0,606.514,1114Z" transform="translate(-596.788 -1108.389)" fill="#464240"/>
        </g>
        <g id="Grupo_116533" data-name="Grupo 116533" transform="translate(5.408 5.893)">
          <path id="Trazado_173154" data-name="Trazado 173154" d="M619.611,1157.885a.889.889,0,0,0-1.568.714c.152,1.029,1.22,2.056,1.573,1.558A2,2,0,0,0,619.611,1157.885Z" transform="translate(-618.03 -1157.54)" fill="#eea987"/>
        </g>
        <g id="Grupo_116534" data-name="Grupo 116534" transform="translate(2.617 18.75)">
          <path id="Trazado_173155" data-name="Trazado 173155" d="M599.269,1265.341s-.532,5.7.2,6.455c2.8,2.883,13.845,2.938,13.845,2.938l.528,1.657s-16.419,1.118-17.884-1.941c-1.761-3.676-1.078-9.67-1.078-9.67Z" transform="translate(-594.751 -1264.781)" fill="#eea987"/>
        </g>
        <path id="Trazado_173156" data-name="Trazado 173156" d="M577.63,1116.1s-2.485-2.384-4.251.316,2.1,6.466,3.665,4.23A4.981,4.981,0,0,0,577.63,1116.1Z" transform="translate(-572.927 -1114.322)" fill="#464240"/>
        <path id="Trazado_173157" data-name="Trazado 173157" d="M620.846,1206.109a10.291,10.291,0,0,0-.206,1.287,8.043,8.043,0,0,1-2.905-3.072,12.8,12.8,0,0,0,3.111,1.785Z" transform="translate(-612.363 -1192.822)" fill="#a77860"/>
        <rect id="Rectángulo_42840" data-name="Rectángulo 42840" width="15.659" height="0.874" transform="translate(16.574 30.361)" fill="#6e6760"/>
        <rect id="Rectángulo_42841" data-name="Rectángulo 42841" width="15.659" height="0.874" transform="translate(31.452 30.841) rotate(-63.225)" fill="#6e6760"/>
        <path id="Trazado_173158" data-name="Trazado 173158" d="M726.556,1342.606a9.459,9.459,0,0,0,2.941-.632c.643-.456,4.987,1.287,5.067,1.689a1.141,1.141,0,0,1,0,.6h-8.526Z" transform="translate(-707.681 -1313.902)" fill="#eea987"/>
        <path id="Trazado_173159" data-name="Trazado 173159" d="M604.848,1220.176l.321-.873,4.384.873v.776Z" transform="translate(-601.021 -1206.005)" fill="#eb4747"/>
        <g id="Grupo_116535" data-name="Grupo 116535" transform="translate(2.746 15.773)">
          <path id="Trazado_173160" data-name="Trazado 173160" d="M600.209,1243.561s.47-3.3-1.83-3.594-2.552,2.971-2.552,2.971Z" transform="translate(-595.827 -1239.948)" fill="#eea987"/>
        </g>
      </g>
      <g id="Grupo_116553" data-name="Grupo 116553" transform="translate(161.112 112.61)">
        <g id="Grupo_116537" data-name="Grupo 116537" transform="translate(34.975 85.442)">
          <path id="Trazado_173161" data-name="Trazado 173161" d="M1882.288,1787.845s.267,1.871.3,2.151,2.969-.166,2.969-.166l.238-2.227A17.226,17.226,0,0,0,1882.288,1787.845Z" transform="translate(-1882.288 -1787.604)" fill="#5c544d"/>
        </g>
        <g id="Grupo_116538" data-name="Grupo 116538" transform="translate(30.15 87.471)">
          <path id="Trazado_173162" data-name="Trazado 173162" d="M1847.131,1804.647a7.946,7.946,0,0,1-1.83,1.618c-.9.491-2.313.686-2.846,1.194-.384.367-1.4,1.948,2.338,1.916s5.538.223,5.938-.383-.579-4.472-.579-4.472A7.842,7.842,0,0,1,1847.131,1804.647Z" transform="translate(-1842.036 -1804.521)" fill="#3c4145"/>
        </g>
        <g id="Grupo_116539" data-name="Grupo 116539" transform="translate(13.94 85.442)">
          <path id="Trazado_173163" data-name="Trazado 173163" d="M1706.83,1787.845s.267,1.871.3,2.151,2.969-.166,2.969-.166l.238-2.227A17.224,17.224,0,0,0,1706.83,1787.845Z" transform="translate(-1706.83 -1787.604)" fill="#5c544d"/>
        </g>
        <g id="Grupo_116540" data-name="Grupo 116540" transform="translate(7.388 87.471)">
          <path id="Trazado_173164" data-name="Trazado 173164" d="M1659,1804.647a7.944,7.944,0,0,1-1.83,1.618c-.9.491-4.21.895-4.742,1.4-.384.367-1.023,1.845,4.235,1.706,3.735-.1,5.538.223,5.938-.383s-.579-4.472-.579-4.472A7.117,7.117,0,0,1,1659,1804.647Z" transform="translate(-1652.183 -1804.521)" fill="#3c4145"/>
        </g>
        <g id="Grupo_116541" data-name="Grupo 116541" transform="translate(25.809 37.395)">
          <path id="Trazado_173165" data-name="Trazado 173165" d="M1813.953,1386.85a27.654,27.654,0,0,1,1.357,8.641c-.206,4,.808,8.377,1.222,12.555.462,4.658,2.353,15.686,2.421,18.177s-.293,10.448-.293,10.448l-3.785.088s-3.179-19.279-4-21.246-4.906-15.991-5.043-17.565S1813.953,1386.85,1813.953,1386.85Z" transform="translate(-1805.829 -1386.85)" fill="#33373b"/>
        </g>
        <g id="Grupo_116542" data-name="Grupo 116542" transform="translate(13.428 36.86)">
          <path id="Trazado_173166" data-name="Trazado 173166" d="M1707.158,1383.742s-2.079,10.963-2.353,13.411-.457,11.847-.595,13.377-.915,20.022-1.646,22.3h4.838s3.714-13.443,3.714-19.8,2.87-13.827,4.722-18.024,6.092-4.3,7.23-12.082C1723.069,1382.916,1708.7,1381.273,1707.158,1383.742Z" transform="translate(-1702.564 -1382.38)" fill="#3c4145"/>
        </g>
        <g id="Grupo_116543" data-name="Grupo 116543" transform="translate(21.063 0.406)">
          <path id="Trazado_173167" data-name="Trazado 173167" d="M1773.037,1078.673s-3.814-1.424-5.572,1.479-1.589,8.715.333,9.43,4.81.341,5.795-1.476a14.55,14.55,0,0,0,1.83-6.2A3.824,3.824,0,0,0,1773.037,1078.673Z" transform="translate(-1766.244 -1078.324)" fill="#eea886"/>
        </g>
        <g id="Grupo_116544" data-name="Grupo 116544" transform="translate(23.147 7.971)">
          <path id="Trazado_173168" data-name="Trazado 173168" d="M1783.735,1144.941a3.2,3.2,0,0,1-.1,1.492c-.255.492,4.8.505,4.8.505a33.331,33.331,0,0,1,1.188-4.942C1790.4,1139.734,1783.735,1144.941,1783.735,1144.941Z" transform="translate(-1783.625 -1141.427)" fill="#eea886"/>
        </g>
        <g id="Grupo_116545" data-name="Grupo 116545" transform="translate(21.505 0)">
          <path id="Trazado_173169" data-name="Trazado 173169" d="M1777.571,1083.48s-.349.575-1.772.352-3.159-2.117-3.754-2.325-.6-.557-.6-.557l-.372.543-.631.04s.576-1.694-.293-2.384.9-5.483,5.466-3.887c0,0,3.506.966,3.378,2.96S1778.355,1082.487,1777.571,1083.48Z" transform="translate(-1769.936 -1074.939)" fill="#fccca2"/>
        </g>
        <g id="Grupo_116546" data-name="Grupo 116546" transform="translate(22.856 11.534)">
          <path id="Trazado_173170" data-name="Trazado 173170" d="M1781.2,1172.531s.016-.941.442-1.031a30.451,30.451,0,0,1,5.231-.3v1.1S1785.867,1172.92,1781.2,1172.531Z" transform="translate(-1781.202 -1171.146)" fill="#e2d2ca"/>
        </g>
        <g id="Grupo_116547" data-name="Grupo 116547" transform="translate(22.997 4.56)">
          <path id="Trazado_173171" data-name="Trazado 173171" d="M1782.492,1113.7c.08-.334.93-1.29,1.256-.267s-.492,2.4-.948,2.282S1782.289,1114.546,1782.492,1113.7Z" transform="translate(-1782.38 -1112.972)" fill="#eea886"/>
        </g>
        <g id="Grupo_116548" data-name="Grupo 116548" transform="translate(6.976 12.688)">
          <path id="Trazado_173172" data-name="Trazado 173172" d="M1664.63,1181s-2.347.844-5.065,2a5.707,5.707,0,0,0-3.466,4.621c-.18,1.833-2.132,11.562-2.5,12.385s-4.694,14.048-4.846,14.322,3.532,1.8,3.776,1.682,4.191-12.062,4.587-12.946c0,0,2.272-7.159,2.333-8.226,0,0,.065,3.042.187,3.9s-2.02,17.431-1.959,17.888,9.736,1.038,13.608.612a47.433,47.433,0,0,0,7-1.318s-3.047-13.083-2.953-14.533c.2-3.16,1.26-9.113,1.26-9.113l3.157,5.953-4.042,10.4.926,3.16s7.51-11.349,7.754-12.385a5.583,5.583,0,0,0-.764-3.211c-.4-.854-3-7.351-3.61-8.266s-1.64-4.578-4.131-5.6a38.937,38.937,0,0,0-5.578-1.55Z" transform="translate(-1648.751 -1180.764)" fill="#f85316"/>
        </g>
        <g id="Grupo_116549" data-name="Grupo 116549" transform="translate(0 35.36)">
          <rect id="Rectángulo_42842" data-name="Rectángulo 42842" width="18.265" height="12.742" transform="matrix(0.969, 0.248, -0.248, 0.969, 3.165, 0)" fill="#d6d6d6"/>
        </g>
        <g id="Grupo_116550" data-name="Grupo 116550" transform="translate(4.717 48.945)">
          <path id="Trazado_173173" data-name="Trazado 173173" d="M1630.63,1483.184s-.506.817-.69,1.05.454.379.727.143S1630.63,1483.184,1630.63,1483.184Z" transform="translate(-1629.907 -1483.184)" fill="#c98462"/>
        </g>
        <g id="Grupo_116551" data-name="Grupo 116551" transform="translate(5.4 45.971)">
          <path id="Trazado_173174" data-name="Trazado 173174" d="M1639.327,1464.144a1.958,1.958,0,0,0,.363-.511s.089-.372.168-.634a1.893,1.893,0,0,1,.07-.2,3.585,3.585,0,0,0,.4-1.075c.078-.5.3-2.768.3-2.768l-1.371-.345-1.1-.232a22.558,22.558,0,0,0-2.506,2.834,1.23,1.23,0,0,0-.029.133,4.566,4.566,0,0,0,.034.944c0,.079.007.866.191,1.013a.769.769,0,0,0,.727.175,1.836,1.836,0,0,0,.946.356,1.142,1.142,0,0,0,.992.184S1639.027,1464.337,1639.327,1464.144Z" transform="translate(-1635.603 -1458.38)" fill="#de9d7d"/>
        </g>
        <g id="Grupo_116552" data-name="Grupo 116552" transform="translate(6.981 35.983)">
          <path id="Trazado_173175" data-name="Trazado 173175" d="M1656.282,1376.5s-3.14,9.51-3.717,10.508a10.357,10.357,0,0,1-3.776-1.682l3.448-10.263Z" transform="translate(-1648.789 -1375.067)" fill="#eb4747"/>
        </g>
      </g>
      <g id="Grupo_116575" data-name="Grupo 116575" transform="translate(207.14 115.32)">
        <g id="Grupo_116555" data-name="Grupo 116555" transform="translate(34.507 43.438)">
          <g id="Grupo_116554" data-name="Grupo 116554">
            <path id="Trazado_173176" data-name="Trazado 173176" d="M2263.344,1462.479s-.127-2.19-.708-2.53-.245.338-.245.338.326,1.589.4,2.233A3.31,3.31,0,0,0,2263.344,1462.479Z" transform="translate(-2262.296 -1459.854)" fill="#1d3b54"/>
          </g>
        </g>
        <path id="Trazado_173177" data-name="Trazado 173177" d="M2142.253,1097.554s5.445-.453,5.3,5.275-1.057,6.59,0,10.638-5.309-2.3-5.309-2.3Z" transform="translate(-2122.13 -1097.546)" fill="#434343"/>
        <path id="Trazado_173178" data-name="Trazado 173178" d="M2003.562,1208.212s-7.713,4.813-8.366,4.3c-.913-.716-3.391-6.822-3.391-6.822l-1.942.924s2.315,10.558,5.435,9.781,10.28-5.206,10.28-5.206Z" transform="translate(-1988.019 -1192.725)" fill="#eea987"/>
        <path id="Trazado_173179" data-name="Trazado 173179" d="M2109.148,1386.414a25.1,25.1,0,0,1,2.713,4.246,21.89,21.89,0,0,1,1.73,8.267c-.157,2.87-1.1,8.257-.826,9.476s.55,3.735.845,4.6a20,20,0,0,1,1.593,5.976c.118,2.595-1.651,14-1.573,15.059s-2.005.432-2.005.432-.708-10.3-1.1-12.071-.865-7.785-1.219-8.218a20.111,20.111,0,0,1-1.172-5.622c.149-.708-3.861-11.323-4.1-13.447s-6.15-8.7-6.15-8.7A18.383,18.383,0,0,1,2109.148,1386.414Z" transform="translate(-2083.091 -1351.008)" fill="#eea987"/>
        <path id="Trazado_173180" data-name="Trazado 173180" d="M2072.5,1381.555a12,12,0,0,1-.22,1.465c-.118.393-2.831,10.419-3.106,14.272a76.009,76.009,0,0,1-1.1,7.945,17.046,17.046,0,0,0,.354,4.283c.236.708-1.18,17.418-1.3,17.811s.944.511,1.691.393,4.522-12.267,4.286-14.312-.472-6.4.2-8.176,6.684-14.59,6.724-15.376S2082.624,1375.53,2072.5,1381.555Z" transform="translate(-2056.009 -1346.149)" fill="#eea987"/>
        <path id="Trazado_173181" data-name="Trazado 173181" d="M2198.8,1779.649a8.41,8.41,0,0,1-.406,1.728c-.211.37-.793,2.257-1.058,2.609s-.846,3,0,3.314,2.838.846,3.508-.211a4.35,4.35,0,0,0,.652-2.926c-.106-.811-.91-4.532-.9-4.9S2198.8,1779.649,2198.8,1779.649Z" transform="translate(-2170.226 -1697.44)" fill="#eea987"/>
        <path id="Trazado_173182" data-name="Trazado 173182" d="M2195.788,1813.3s-.091,2.055,1.46,2.055,2.239-1.87,2.239-1.87a4.017,4.017,0,0,1,0,2.874c-.529,1.957-2.732,1.551-3.226,1.481S2193.428,1817.149,2195.788,1813.3Z" transform="translate(-2168.342 -1727.486)" fill="#eb4747"/>
        <path id="Trazado_173183" data-name="Trazado 173183" d="M2018.091,1767.846a9.757,9.757,0,0,1-1.748,2.359c-.812.495-2.387,2.084-2.937,2.157s-2.528.424-2.146,1.541c.313.915,5.03.784,5.562.325s2.123-2.1,2.765-2.068.4,2.374.4,2.374h.7s.243-2.274.273-2.665c.087-1.157-.738-2.008-.775-2.668s-.075-1.153-.075-1.153Z" transform="translate(-2006.808 -1687.483)" fill="#eb4747"/>
        <path id="Trazado_173184" data-name="Trazado 173184" d="M2030.832,1771.427a3.758,3.758,0,0,0,2.751-.15,14.719,14.719,0,0,1,4.305-1.74s-.443-1.354-.452-1.506-.058-.865-.058-.865l-2.008-.322a17.367,17.367,0,0,1-1.876,2.362A32.6,32.6,0,0,0,2030.832,1771.427Z" transform="translate(-2024.075 -1686.602)" fill="#eea987"/>
        <path id="Trazado_173185" data-name="Trazado 173185" d="M2078.343,1389.438s-.56,2.329-.767,3.008-1.531,11.2-1.858,17.781a51.556,51.556,0,0,0,18.843,2.506s.265-12.09-.737-15.511-2.818-6.621-4.187-7.608C2088.418,1388.737,2078.343,1389.438,2078.343,1389.438Z" transform="translate(-2063.58 -1354.209)" fill="#f85316"/>
        <g id="Grupo_116557" data-name="Grupo 116557" transform="translate(31.931 39.652)">
          <g id="Grupo_116556" data-name="Grupo 116556">
            <path id="Trazado_173186" data-name="Trazado 173186" d="M2241.753,1429.76a16.084,16.084,0,0,1-.459,1.929c-.3.947-.572,1.248-.452,1.791.09.409.553.717.67.585s.174-1.723.833-1.716-.2,1.971.2,1.827,1.9-.972,1.809-1.775-.7-1.382-.661-2.581a2.577,2.577,0,0,0-.3-1.542Z" transform="translate(-2240.813 -1428.279)" fill="#eea987"/>
          </g>
        </g>
        <g id="Grupo_116559" data-name="Grupo 116559" transform="translate(1.322 12.302)">
          <g id="Grupo_116558" data-name="Grupo 116558">
            <path id="Trazado_173187" data-name="Trazado 173187" d="M1985.5,1201.271s.92,1.2,1.488,1.323,1.185-1.225,1.185-1.225l-.335-1.216Z" transform="translate(-1985.499 -1200.153)" fill="#eea886"/>
          </g>
        </g>
        <g id="Grupo_116561" data-name="Grupo 116561" transform="translate(0 8.497)">
          <g id="Grupo_116560" data-name="Grupo 116560">
            <path id="Trazado_173188" data-name="Trazado 173188" d="M1978.07,1172.942s.441-1.38.5-1.593a2.624,2.624,0,0,0-.546-1.432,12.7,12.7,0,0,0-1.026-1.381c-.087-.087-.135-.184-.422-.055a1.2,1.2,0,0,0-.459.4.728.728,0,0,0-.616.339.634.634,0,0,0-.552.439s-.394.022-.475.342a4.809,4.809,0,0,1,.2.828,10.112,10.112,0,0,0,1.124,2.515S1976.744,1174.158,1978.07,1172.942Z" transform="translate(-1974.476 -1168.419)" fill="#eea886"/>
          </g>
        </g>
        <g id="Grupo_116563" data-name="Grupo 116563" transform="translate(0.612 11.017)">
          <g id="Grupo_116562" data-name="Grupo 116562">
            <path id="Trazado_173189" data-name="Trazado 173189" d="M1981.551,1189.648a3.562,3.562,0,0,0-.53.774c-.055.222-1.442-.6-1.442-.6S1980.866,1189.089,1981.551,1189.648Z" transform="translate(-1979.58 -1189.437)" fill="#cf8c6c"/>
          </g>
        </g>
        <g id="Grupo_116565" data-name="Grupo 116565" transform="translate(0 8.58)">
          <g id="Grupo_116564" data-name="Grupo 116564">
            <path id="Trazado_173190" data-name="Trazado 173190" d="M1977.072,1169.285s.767,1.625.51,1.766a.459.459,0,0,1-.437.036l-.04.815a.469.469,0,0,1-.806.01s-.259.522-.658-.029c0,0-.324.268-.554.046a6.015,6.015,0,0,1-.612-1.32s.024-.268.475-.342a.623.623,0,0,1,.552-.439.942.942,0,0,1,.716-.447.709.709,0,0,1,.781-.234A.884.884,0,0,1,1977.072,1169.285Z" transform="translate(-1974.476 -1169.111)" fill="#db9c7c"/>
          </g>
        </g>
        <g id="Grupo_116567" data-name="Grupo 116567" transform="translate(1.967 10.293)">
          <g id="Grupo_116566" data-name="Grupo 116566">
            <path id="Trazado_173191" data-name="Trazado 173191" d="M1993,1184.474a6.13,6.13,0,0,0-1.635-1.041c-.159-.051-.323-.071-.43.058s-.056.447.329.822a4.53,4.53,0,0,1,.711,1.035S1992.482,1185.618,1993,1184.474Z" transform="translate(-1990.885 -1183.394)" fill="#eea886"/>
          </g>
        </g>
        <g id="Grupo_116568" data-name="Grupo 116568" transform="translate(1.742 8.499)">
          <path id="Trazado_173192" data-name="Trazado 173192" d="M1989.009,1168.783a15.126,15.126,0,0,1,.939,1.888c-.011.2.622-.139.619-.309a14.267,14.267,0,0,0-.777-1.813A.487.487,0,0,0,1989.009,1168.783Z" transform="translate(-1989.009 -1168.433)" fill="#eea886"/>
        </g>
        <g id="Grupo_116569" data-name="Grupo 116569" transform="translate(0.823 6.217)">
          <path id="Trazado_173193" data-name="Trazado 173193" d="M1983.233,1152.122s-1.513-2.823-1.736-2.72c-.324.149-.237.931,1.039,3.039C1983.777,1154.49,1983.233,1152.122,1983.233,1152.122Z" transform="translate(-1981.337 -1149.399)" fill="#eea886"/>
        </g>
        <path id="Trazado_173194" data-name="Trazado 173194" d="M2077.8,1226.968l-3.115-4.133s5.568-4.313,7.286-1.571C2081.972,1221.264,2082.095,1225.782,2077.8,1226.968Z" transform="translate(-2062.672 -1205.629)" fill="#3d46c2"/>
        <path id="Trazado_173195" data-name="Trazado 173195" d="M2085.031,1221.7a11.435,11.435,0,0,0,.914,3.037c.118.5,0,1.651.147,2.8a70.9,70.9,0,0,1,.442,8.2c-.147,1.563,10.727.857,11.553.385,0,0-1.832-3.275-1.881-4.631a4.45,4.45,0,0,1,.472-2.978c.4-.56,1.155-2.344,1.9-3.648h0c.291-.506.595-1.01.807-1.385h0a5.249,5.249,0,0,0,.431-1.071s.484-6.016-.843-6.694a6.757,6.757,0,0,0-3.332-.855,9.431,9.431,0,0,1-2.153-.324l-3.037.324a17.562,17.562,0,0,1-2.713.737c-.767.059-1.74,1.71-1.651,2.772S2084.942,1220.319,2085.031,1221.7Z" transform="translate(-2071.772 -1200.512)" fill="#3d46c2"/>
        <g id="Grupo_116571" data-name="Grupo 116571" transform="translate(32.57 43.646)">
          <g id="Grupo_116570" data-name="Grupo 116570">
            <path id="Trazado_173196" data-name="Trazado 173196" d="M2246.965,1461.6s-.878.224-.826,3.2l.995-.166a10.237,10.237,0,0,1,.279-2.537S2247.362,1461.51,2246.965,1461.6Z" transform="translate(-2246.136 -1461.589)" fill="#1d3b54"/>
          </g>
        </g>
        <g id="Grupo_116573" data-name="Grupo 116573" transform="translate(29.752 45.324)">
          <g id="Grupo_116572" data-name="Grupo 116572">
            <path id="Trazado_173197" data-name="Trazado 173197" d="M2222.63,1477.781l7.745-2.2-.023,9.539-7.708,4.619Z" transform="translate(-2222.63 -1475.584)" fill="#1d3b54"/>
          </g>
        </g>
        <g id="Grupo_116574" data-name="Grupo 116574" transform="translate(29.766 45.324)">
          <path id="Trazado_173198" data-name="Trazado 173198" d="M2222.75,1489.742l.97.179,7.5-4.662-.093-9.631-.644-.044Z" transform="translate(-2222.75 -1475.584)" fill="#1d3b54"/>
        </g>
        <path id="Trazado_173199" data-name="Trazado 173199" d="M2184.222,1219.775a4.14,4.14,0,0,1,3.5,2.115,21.429,21.429,0,0,1,1.474,5.161c.265.8.959,5.481,1.225,6.159a53.229,53.229,0,0,1,2.226,7.878,51.793,51.793,0,0,1,.464,5.228l-1.935-.061s-1.921-7.06-2.582-8.741c-.566-1.437-.783-3.946-1.107-4.83s-2.33-7.107-2.742-7.549S2182.165,1220.167,2184.222,1219.775Z" transform="translate(-2158.307 -1205.121)" fill="#eea886"/>
        <path id="Trazado_173200" data-name="Trazado 173200" d="M2181.758,1228.351l4.915-1.548s-1.507-7.25-5.705-7.056C2177.6,1219.9,2181.758,1228.351,2181.758,1228.351Z" transform="translate(-2155.053 -1205.093)" fill="#3d46c2"/>
        <path id="Trazado_173201" data-name="Trazado 173201" d="M2104.094,1102.07a4.628,4.628,0,0,0-5.313,3.661,11.309,11.309,0,0,0,.146,1.771c.148.789-.792,2.957-.626,3.088a4.963,4.963,0,0,0,.886.357s.511,2.545,1.375,2.622a7.189,7.189,0,0,0,6.087-3.1C2108.534,1107.592,2109.544,1102.962,2104.094,1102.07Z" transform="translate(-2083.438 -1101.481)" fill="#eea886"/>
        <path id="Trazado_173202" data-name="Trazado 173202" d="M2127.522,1173.3s.067.356.129.88c.032.268.062.58.082.909a6.092,6.092,0,0,1-.286,2.641s1.691,1.048,3.5-1.472c0,0-.177-3.145.864-4.807S2127.522,1173.3,2127.522,1173.3Z" transform="translate(-2109.107 -1162.194)" fill="#eea886"/>
        <path id="Trazado_173203" data-name="Trazado 173203" d="M2102.449,1101.815a12.281,12.281,0,0,0,4.183,2.307,5.889,5.889,0,0,1,3.291,2.97s3.807-3.8,1.51-7.483S2102.453,1097.568,2102.449,1101.815Z" transform="translate(-2087.106 -1097.565)" fill="#434343"/>
        <path id="Trazado_173204" data-name="Trazado 173204" d="M2129.147,1188.139c.032.268.062.58.082.909a9.506,9.506,0,0,0,2.944-2.183A10.805,10.805,0,0,1,2129.147,1188.139Z" transform="translate(-2110.603 -1176.156)" fill="#a77860"/>
        <path id="Trazado_173205" data-name="Trazado 173205" d="M2140.643,1149.866s2.2,5.918,1.937,7.343a7.752,7.752,0,0,1,3.24.434S2144.817,1147.084,2140.643,1149.866Z" transform="translate(-2120.721 -1143.182)" fill="#434343"/>
        <path id="Trazado_173206" data-name="Trazado 173206" d="M2127.726,1213.969s-.725,4.439-3.409,3.937-.648-3.754-.648-3.754S2124.718,1213.211,2127.726,1213.969Z" transform="translate(-2105.132 -1199.751)" fill="#eea886"/>
      </g>
      <g id="Grupo_116576" data-name="Grupo 116576" transform="translate(149.058 60.2)">
        <path id="Trazado_173207" data-name="Trazado 173207" d="M1518.334,651.945a14.156,14.156,0,1,1-14.156-14.156A14.1,14.1,0,0,1,1518.334,651.945Z" transform="translate(-1490.022 -637.789)" fill="#eef0f7"/>
        <path id="Trazado_173208" data-name="Trazado 173208" d="M1535.99,705.125a1.744,1.744,0,0,0-.238-.14l-.013-.009h0a30,30,0,0,0-6.035-2.279h0c-.652-.2-1.144-.328-1.314-.371l-.3-.485a15.065,15.065,0,0,1-.025-1.7,6.036,6.036,0,0,0,1.219-2.935c.082.062.145-.073.145-.073-.045-.081.683-1.859.552-2.26-.074-.228-.226-.2-.344-.133.018-.1.036-.212.054-.326,0,0,.289-2.727-1.092-4.246a1.526,1.526,0,0,0-.651-.171,6.077,6.077,0,0,0-4.379-.019,4.406,4.406,0,0,0-1.272,3.68c.025.224.05.45.076.67a.036.036,0,0,0,0,.007c.01.088.021.173.031.258-.115-.072-.266-.108-.35.118a6.77,6.77,0,0,0,.458,2.281s.116.182.207.1c0,0,0,0,0,0a6.525,6.525,0,0,0,1.2,3.116c-.035.633-.126,1.378-.191,1.854l-.548.572h0l-.087.029v0c-6.2,1.653-7.948,2.8-7.948,2.8a1.638,1.638,0,0,0-.475.734,14.157,14.157,0,0,0,22.041.452A5.828,5.828,0,0,0,1535.99,705.125Z" transform="translate(-1511.709 -683.379)" fill="#a9adee"/>
      </g>
      <g id="Grupo_116584" data-name="Grupo 116584" transform="translate(63.512 60.253)">
        <g id="Grupo_116577" data-name="Grupo 116577" transform="translate(0 2.948)">
          <rect id="Rectángulo_42843" data-name="Rectángulo 42843" width="0.253" height="23.922" fill="#e0e0e0"/>
        </g>
        <g id="Grupo_116578" data-name="Grupo 116578" transform="translate(18.025 2.948)">
          <rect id="Rectángulo_42844" data-name="Rectángulo 42844" width="0.253" height="23.922" fill="#e0e0e0"/>
        </g>
        <g id="Grupo_116579" data-name="Grupo 116579" transform="translate(36.05 2.948)">
          <rect id="Rectángulo_42845" data-name="Rectángulo 42845" width="0.253" height="23.922" fill="#e0e0e0"/>
        </g>
        <g id="Grupo_116580" data-name="Grupo 116580" transform="translate(54.075 2.948)">
          <rect id="Rectángulo_42846" data-name="Rectángulo 42846" width="0.253" height="23.922" fill="#e0e0e0"/>
        </g>
        <g id="Grupo_116581" data-name="Grupo 116581" transform="translate(72.1 2.948)">
          <rect id="Rectángulo_42847" data-name="Rectángulo 42847" width="0.253" height="23.922" fill="#e0e0e0"/>
        </g>
        <rect id="Rectángulo_42848" data-name="Rectángulo 42848" width="2.868" height="0.831" transform="translate(0.127 28.286)" fill="#b8b8b8"/>
        <rect id="Rectángulo_42849" data-name="Rectángulo 42849" width="4.317" height="0.624" transform="translate(0.127)" fill="#d9d9d9"/>
        <rect id="Rectángulo_42850" data-name="Rectángulo 42850" width="6.124" height="0.624" transform="translate(0.127 1.153)" fill="#d9d9d9"/>
        <rect id="Rectángulo_42851" data-name="Rectángulo 42851" width="5.069" height="0.624" transform="translate(17.957)" fill="#d9d9d9"/>
        <rect id="Rectángulo_42852" data-name="Rectángulo 42852" width="3.241" height="0.624" transform="translate(17.957 1.153)" fill="#d9d9d9"/>
        <rect id="Rectángulo_42853" data-name="Rectángulo 42853" width="3.141" height="0.624" transform="translate(36.303)" fill="#d9d9d9"/>
        <rect id="Rectángulo_42854" data-name="Rectángulo 42854" width="3.661" height="0.624" transform="translate(36.303 1.153)" fill="#d9d9d9"/>
        <rect id="Rectángulo_42855" data-name="Rectángulo 42855" width="4.575" height="0.624" transform="translate(54.328)" fill="#d9d9d9"/>
        <rect id="Rectángulo_42856" data-name="Rectángulo 42856" width="3.661" height="0.624" transform="translate(54.328 1.153)" fill="#d9d9d9"/>
        <rect id="Rectángulo_42857" data-name="Rectángulo 42857" width="2.733" height="0.624" transform="translate(72.226)" fill="#d9d9d9"/>
        <rect id="Rectángulo_42858" data-name="Rectángulo 42858" width="2.187" height="0.624" transform="translate(72.226 1.153)" fill="#d9d9d9"/>
        <rect id="Rectángulo_42859" data-name="Rectángulo 42859" width="2.868" height="0.831" transform="translate(18.152 28.286)" fill="#b8b8b8"/>
        <rect id="Rectángulo_42860" data-name="Rectángulo 42860" width="2.868" height="0.831" transform="translate(36.303 28.286)" fill="#b8b8b8"/>
        <rect id="Rectángulo_42861" data-name="Rectángulo 42861" width="2.868" height="0.831" transform="translate(54.328 28.286)" fill="#b8b8b8"/>
        <rect id="Rectángulo_42862" data-name="Rectángulo 42862" width="2.868" height="0.831" transform="translate(72.353 28.286)" fill="#b8b8b8"/>
        <g id="Grupo_116582" data-name="Grupo 116582" transform="translate(0.127 9.15)">
          <path id="Trazado_173209" data-name="Trazado 173209" d="M843.405,725.161c-5.622,0-10.509-2.186-15.6-4.465-6.29-2.813-12.794-5.722-21.46-4.926-5.534.509-9.007,2.535-12.071,4.324-2.775,1.619-5.4,3.043-8.951,3.165-5.742.2-7.734-2.006-7.767-2.14V719.7h0c.007.024,1.261,2.5,7.761,2.467,3.2-.014,5.564-1.393,8.3-2.99,3.179-1.855,6.782-3.958,12.606-4.493,9.013-.829,15.677,2.152,22.12,5.034,6.743,3.016,13.177,5.844,21.313,3.39v1.162A20.262,20.262,0,0,1,843.405,725.161Z" transform="translate(-777.552 -714.549)" fill="#dce736"/>
        </g>
        <g id="Grupo_116583" data-name="Grupo 116583" transform="translate(0.127 5.911)">
          <path id="Trazado_173210" data-name="Trazado 173210" d="M809.659,701.115c-4.15,0-7.441-2.51-10.664-4.967-2.443-1.863-4.978-3.768-7.9-4.708-8.93-2.868-13.5,2.369-13.539,2.415v-1.593a8.167,8.167,0,0,1,3.221-1.915c2.147-.827,5.748-1.487,10.715.067,3.147.985,5.761,2.978,8.288,4.905,5.127,3.91,9.556,7.287,17.246,2,5.825-4.006,11.315-7.824,16.718-9.218,5.284-1.364,10.793-.366,15.949,4.272l-.038,1.447c-10.954-9.9-20.28-3.626-31.9,4.362A14.275,14.275,0,0,1,809.659,701.115Z" transform="translate(-777.552 -687.535)" fill="#dce736"/>
        </g>
      </g>
    </g>
  </g>
</svg>
