<svg xmlns="http://www.w3.org/2000/svg" width="150" height="150" viewBox="0 0 150 150">
  <g id="Grupo_118162" data-name="Grupo 118162" transform="translate(-362.701 -3243.628)">
    <circle id="Elipse_5676" data-name="Elipse 5676" cx="75" cy="75" r="75" transform="translate(362.701 3243.628)" fill="#fff"/>
    <g id="Grupo_116356" data-name="Grupo 116356" transform="translate(265.598 3055.747)">
      <path id="Trazado_172725" data-name="Trazado 172725" d="M200.8,343.384c-.746-1.117-1.446-2.145-2.125-3.187-.929-1.424-.356-2.646,1.338-2.717q8.205-.344,16.414-.6a1.553,1.553,0,0,1,1.67,2.2q-2.636,8.624-5.3,17.238a1.652,1.652,0,0,1-1.422,1.368,1.684,1.684,0,0,1-1.635-.96c-.782-1.2-1.6-2.386-2.452-3.652-.481.272-.92.513-1.353.765a138.989,138.989,0,0,1-40.994,16.079,145.98,145.98,0,0,1-16.61,2.381c-6.656.627-13.35.86-20.03,1.227-1.865.1-2.3-.389-2.3-2.288q0-3.892,0-7.785c0-1.644.455-2.075,2.094-2.172,6.71-.394,13.427-.695,20.124-1.244a121.984,121.984,0,0,0,33.26-7.689,147.121,147.121,0,0,0,18.554-8.513C200.255,343.711,200.471,343.576,200.8,343.384Zm1.938-2.821c.466.7.848,1.28,1.231,1.856,1.079,1.624.906,2.34-.806,3.289-15.285,8.474-31.4,14.558-48.826,16.762-5.291.669-10.619,1.067-15.937,1.5-2.836.232-5.688.269-8.531.434-.252.015-.693.323-.7.505-.054,1.75-.032,3.5-.032,5.356.458,0,.8.017,1.143,0,5.428-.321,10.864-.544,16.279-1,4.549-.385,9.1-.9,13.606-1.615a115.9,115.9,0,0,0,21.765-5.989,142.523,142.523,0,0,0,24.511-11.794c1.394-.841,2.055-.681,2.966.666.388.574.772,1.152,1.269,1.894l3.789-12.3Z" transform="translate(0 -89.963)"/>
      <path id="Trazado_172726" data-name="Trazado 172726" d="M259.487,274.816c-1.279-.264-1.589-1.115-1.552-2.282.056-1.728,0-3.458.018-5.187.009-1.258.564-1.8,1.82-1.822.608-.01,1.216,0,1.824-.012a.712.712,0,0,0,.19-.063c-.221-.727-.5-1.442-.653-2.182a4.345,4.345,0,0,1,5.359-5.327c1.949.4,3.159,1.18,5.3,3.451.231-.249.459-.493.686-.739a8.456,8.456,0,0,1,4.727-2.746,4.337,4.337,0,0,1,5.238,5.3c-.15.744-.428,1.462-.684,2.317.636,0,1.257,0,1.878,0,1.453.008,1.982.521,1.988,1.946.007,1.761-.028,3.523.013,5.284a1.8,1.8,0,0,1-1.548,2.052v1.027q0,5.38,0,10.76c0,1.453-.526,2-1.942,2q-10.371.008-20.742,0c-1.37,0-1.909-.55-1.911-1.931C259.483,282.723,259.487,278.786,259.487,274.816Zm7.626.025H262.64v10.57h4.474Zm9.385-.024v10.606h4.429V274.817Zm-6.194.035v10.534h2.964V274.852Zm-.345-9.386c.02-2.082-2.8-4.7-4.71-4.5a1.088,1.088,0,0,0-1.049,1.409,16.98,16.98,0,0,0,1.395,2.782.871.871,0,0,0,.652.291C267.461,265.481,268.675,265.466,269.96,265.466Zm3.524,0a19.443,19.443,0,0,1,2.8.025c1.43.219,2.122-.568,2.644-1.675a5.657,5.657,0,0,0,.4-1.173c.265-1.19-.429-1.894-1.612-1.615a5.747,5.747,0,0,0-3.924,3.25A6.488,6.488,0,0,0,273.484,265.467Zm-4.685,6.072h5.942v-2.8H268.8Zm-3.261.064v-2.915h-4.431V271.6Zm16.985-2.911h-4.5V271.6h4.5v-2.907Z" transform="translate(-98.129 -31.158)"/>
      <path id="Trazado_172727" data-name="Trazado 172727" d="M405.372,466.121q0,7.017,0,14.034c0,1.634-.482,2.115-2.115,2.116q-5.621,0-11.242,0c-1.5,0-2.015-.512-2.016-2.019q0-14.13,0-28.26c0-1.508.509-2.016,2.017-2.017q5.669-.006,11.338,0c1.506,0,2.016.511,2.017,2.018Q405.376,459.056,405.372,466.121Z" transform="translate(-196.354 -174.079)" fill="#f85316" stroke="#000" stroke-width="2"/>
      <path id="Trazado_172728" data-name="Trazado 172728" d="M327.372,487.152q0,5.479,0,10.958c0,1.506-.513,2.016-2.019,2.018q-5.669.006-11.337,0c-1.5,0-2.014-.512-2.015-2.02q0-11.054,0-22.108c0-1.507.509-2.015,2.018-2.016q5.669-.006,11.337,0c1.505,0,2.015.511,2.017,2.019Q327.377,481.577,327.372,487.152Z" transform="translate(-138.34 -191.937)" fill="#f85316" stroke="#000" stroke-width="2"/>
      <path id="Trazado_172729" data-name="Trazado 172729" d="M249.37,502.754c0,2.948.005,5.9,0,8.843,0,1.378-.544,1.918-1.922,1.921q-5.765.01-11.53,0c-1.377,0-1.917-.543-1.918-1.923q-.008-8.843,0-17.686c0-1.38.54-1.917,1.92-1.92q5.765-.01,11.53,0c1.378,0,1.916.542,1.92,1.922C249.375,496.858,249.37,499.806,249.37,502.754Z" transform="translate(-80.324 -205.328)" fill="#f85316" stroke="#000" stroke-width="2"/>
      <path id="Trazado_172730" data-name="Trazado 172730" d="M155.995,513.124c0-2.4-.005-4.806,0-7.209,0-1.38.54-1.918,1.919-1.92q5.765-.01,11.53,0c1.379,0,1.919.541,1.921,1.92q.009,7.305,0,14.61c0,1.379-.543,1.92-1.92,1.922q-5.765.01-11.53,0c-1.378,0-1.915-.542-1.919-1.922C155.989,518.058,155.995,515.591,155.995,513.124Z" transform="translate(-22.31 -214.257)" fill="#f85316" stroke="#000" stroke-width="2"/>
      <path id="Trazado_172731" data-name="Trazado 172731" d="M145.892,311.92A13.842,13.842,0,1,1,132,325.659,13.863,13.863,0,0,1,145.892,311.92Zm10.683,13.828A10.736,10.736,0,1,0,145.8,336.5,10.789,10.789,0,0,0,156.575,325.748Z" transform="translate(-4.467 -71.402)"/>
      <path id="Trazado_172732" data-name="Trazado 172732" d="M388.132,238.784c.315-1.943.588-3.942.983-5.917a1.942,1.942,0,0,0-.641-2.021c-1.3-1.235-2.514-2.556-3.774-3.831a1.691,1.691,0,0,1-.613-1.8,1.663,1.663,0,0,1,1.532-1.11c1.867-.269,3.735-.542,5.587-.893a1.652,1.652,0,0,0,1.026-.766c.884-1.738,1.7-3.512,2.507-5.286.314-.687.717-1.228,1.537-1.242.87-.014,1.284.559,1.612,1.276.8,1.744,1.646,3.466,2.434,5.215a1.243,1.243,0,0,0,1.115.846c1.871.237,3.727.584,5.594.857.734.107,1.405.416,1.461,1.146a2.528,2.528,0,0,1-.572,1.693c-1.227,1.391-2.539,2.711-3.882,3.991a1.82,1.82,0,0,0-.546,1.872c.35,1.886.685,3.78.892,5.686a2.457,2.457,0,0,1-.565,1.678c-.5.573-1.216.366-1.85.009-1.617-.909-3.256-1.778-4.858-2.711a1.359,1.359,0,0,0-1.566-.016c-1.655.97-3.336,1.9-5.031,2.793A1.544,1.544,0,0,1,388.132,238.784Zm8.177-17.631c-.632,1.335-1.191,2.444-1.684,3.583a2.134,2.134,0,0,1-1.858,1.426c-1.259.144-2.507.381-3.945.608,1.028,1.059,1.933,2.033,2.885,2.959a2.249,2.249,0,0,1,.692,2.251c-.262,1.284-.426,2.587-.66,4.058,1.219-.674,2.274-1.206,3.273-1.826a2.251,2.251,0,0,1,2.595,0c1.02.622,2.086,1.167,3.271,1.822-.231-1.452-.374-2.721-.648-3.961a2.336,2.336,0,0,1,.748-2.41c.938-.893,1.809-1.855,2.8-2.885-1.429-.23-2.677-.477-3.937-.618a2.071,2.071,0,0,1-1.821-1.33C397.507,223.66,396.948,222.516,396.309,221.153Z" transform="translate(-191.9)"/>
      <path id="Trazado_172733" data-name="Trazado 172733" d="M211.837,350l11.728-.437-3.789,12.3c-.5-.742-.88-1.32-1.269-1.894-.911-1.347-1.572-1.507-2.966-.666A142.524,142.524,0,0,1,191.031,371.1a115.894,115.894,0,0,1-21.765,5.989c-4.508.714-9.057,1.23-13.606,1.615-5.416.458-10.852.682-16.279,1-.341.02-.685,0-1.143,0,0-1.853-.022-3.605.032-5.356.005-.182.446-.49.7-.505,2.843-.165,5.695-.2,8.531-.434,5.318-.436,10.646-.834,15.937-1.5,17.425-2.2,33.541-8.288,48.826-16.762,1.711-.949,1.885-1.665.806-3.289C212.685,351.281,212.3,350.7,211.837,350Z" transform="translate(-9.101 -99.401)" fill="#75b62f"/>
      <path id="Trazado_172734" data-name="Trazado 172734" d="M280.777,324.271v10.57H276.3v-10.57Z" transform="translate(-111.792 -80.588)" fill="#f67849"/>
      <path id="Trazado_172735" data-name="Trazado 172735" d="M330.391,324.177h4.429v10.606h-4.429Z" transform="translate(-152.021 -80.518)" fill="#f67849"/>
      <path id="Trazado_172736" data-name="Trazado 172736" d="M306.216,324.314h2.964v10.534h-2.964V324.314Z" transform="translate(-134.04 -80.62)" fill="#f67849"/>
      <path id="Trazado_172737" data-name="Trazado 172737" d="M287.979,274.6c-1.285,0-2.5.015-3.712-.013a.871.871,0,0,1-.652-.291,16.981,16.981,0,0,1-1.395-2.782,1.088,1.088,0,0,1,1.049-1.409C285.18,269.9,288,272.52,287.979,274.6Z" transform="translate(-116.148 -40.294)" fill="#f67849"/>
      <path id="Trazado_172738" data-name="Trazado 172738" d="M318.623,274.629a6.484,6.484,0,0,1,.315-1.189,5.747,5.747,0,0,1,3.924-3.25c1.183-.279,1.877.425,1.612,1.615a5.66,5.66,0,0,1-.4,1.173c-.522,1.108-1.214,1.894-2.644,1.675A19.439,19.439,0,0,0,318.623,274.629Z" transform="translate(-143.268 -40.319)" fill="#f67849"/>
      <path id="Trazado_172739" data-name="Trazado 172739" d="M300.339,303.246v-2.8h5.942v2.8Z" transform="translate(-129.669 -62.865)" fill="#f67849"/>
      <path id="Trazado_172740" data-name="Trazado 172740" d="M274.751,303.173H270.32v-2.915h4.431Z" transform="translate(-107.342 -62.728)" fill="#f67849"/>
      <path id="Trazado_172741" data-name="Trazado 172741" d="M340.837,300.274v2.907h-4.5v-2.907Z" transform="translate(-156.442 -62.74)" fill="#f67849"/>
      <path id="Trazado_172742" data-name="Trazado 172742" d="M165.57,334.747a10.736,10.736,0,1,1-10.7-10.728A10.794,10.794,0,0,1,165.57,334.747ZM156.4,331.6h3.069a4.124,4.124,0,0,0-1.69-3.41c-1-.656-1.746-1.3-1.369-2.62h-3.184c.41,1.338-.356,1.924-1.306,2.592a4.345,4.345,0,0,0-1.521,4.893,4.687,4.687,0,0,0,4.1,3.262,3.219,3.219,0,0,1,.843.134,1.249,1.249,0,0,1,.943,1.472,2.053,2.053,0,0,1-1.141,1.306c-.463.107-1.1-.371-1.6-.68-.193-.119-.236-.482-.326-.685H150.21a4.026,4.026,0,0,0,1.868,3.612,2.162,2.162,0,0,1,1.235,2.35c0,.042.074.093.093.115h3.04c-.322-1.23.215-1.851,1.184-2.494a4.123,4.123,0,0,0,1.751-4.463,4.418,4.418,0,0,0-3.326-3.6,11.342,11.342,0,0,0-1.321-.2,1.472,1.472,0,0,1-1.391-1.458,1.488,1.488,0,0,1,2.849-.644C156.277,331.255,156.338,331.437,156.4,331.6Z" transform="translate(-13.462 -80.401)" fill="#e6ee74"/>
      <path id="Trazado_172743" data-name="Trazado 172743" d="M410.278,236.344c.64,1.363,1.2,2.508,1.716,3.671a2.071,2.071,0,0,0,1.821,1.33c1.26.141,2.508.388,3.937.618-1,1.03-1.867,1.992-2.8,2.885a2.336,2.336,0,0,0-.748,2.41c.274,1.24.417,2.509.648,3.961-1.185-.655-2.251-1.2-3.271-1.822a2.251,2.251,0,0,0-2.595,0c-1,.62-2.055,1.152-3.273,1.826.234-1.471.4-2.774.66-4.058a2.249,2.249,0,0,0-.692-2.251c-.952-.926-1.858-1.9-2.885-2.959,1.438-.226,2.686-.464,3.945-.608a2.134,2.134,0,0,0,1.858-1.426C409.087,238.788,409.647,237.679,410.278,236.344Z" transform="translate(-205.869 -15.191)" fill="#3d46c2"/>
      <path id="Trazado_172744" data-name="Trazado 172744" d="M174.081,336.091c-.065-.16-.126-.342-.212-.512a1.488,1.488,0,0,0-2.849.644,1.472,1.472,0,0,0,1.391,1.458,11.342,11.342,0,0,1,1.321.2,4.418,4.418,0,0,1,3.326,3.6,4.123,4.123,0,0,1-1.751,4.463c-.968.643-1.506,1.264-1.184,2.494h-3.04c-.019-.022-.1-.073-.093-.115a2.162,2.162,0,0,0-1.235-2.35,4.026,4.026,0,0,1-1.868-3.612H170.9c.09.2.133.567.326.685.5.309,1.138.787,1.6.68a2.053,2.053,0,0,0,1.141-1.306,1.249,1.249,0,0,0-.943-1.472,3.219,3.219,0,0,0-.843-.134,4.687,4.687,0,0,1-4.1-3.262,4.345,4.345,0,0,1,1.521-4.893c.95-.669,1.715-1.254,1.306-2.592h3.184c-.376,1.325.368,1.964,1.369,2.62a4.124,4.124,0,0,1,1.69,3.41Z" transform="translate(-31.139 -84.895)"/>
    </g>
  </g>
</svg>
