<svg xmlns="http://www.w3.org/2000/svg" width="104.249" height="105.045" viewBox="0 0 104.249 105.045">
  <g id="Grupo_118210" data-name="Grupo 118210" transform="translate(-1256.517 -2416.914)">
    <g id="Grupo_118196" data-name="Grupo 118196" transform="translate(1256.517 2416.914)">
      <g id="Grupo_118173" data-name="Grupo 118173" transform="translate(0 0)">
        <ellipse id="Elipse_6071" data-name="Elipse 6071" cx="52.124" cy="52.522" rx="52.124" ry="52.522" fill="#fff"/>
      </g>
    </g>
    <g id="agotado_1_" data-name="agotado (1)" transform="translate(1151.796 2221.832)">
      <path id="Trazado_175728" data-name="Trazado 175728" d="M114.1,244.531a1.652,1.652,0,0,1,1.454-.5c.727.042,1.454,0,2.181.021.332,0,.457-.1.436-.436-.021-.353,0-.727,0-1.08,0-1.973,1.039-2.991,3.033-2.991h13.087a.954.954,0,0,0,.893-.312,26.45,26.45,0,0,1,17.241-10.594c11.009-1.932,20.814.582,28.832,8.641a25.007,25.007,0,0,1,7.167,15.725,32.6,32.6,0,0,1-.062,6.523,1.584,1.584,0,0,0,.249,1.1,69.847,69.847,0,0,0,4.134,6.294,8.375,8.375,0,0,1,1.08,2.1v1.08a3.323,3.323,0,0,1-3.1,1.953,16.274,16.274,0,0,0-2.43.5c-.415.083-.457.249-.436.623a58.368,58.368,0,0,1,.5,7.374,11.211,11.211,0,0,1-.374,2.763c-.831,3.012-3.157,4.736-6.73,5.027-1.911.166-3.843.1-5.754.083-.623,0-.831.125-.831.789.042,2.472.021,4.923.021,7.4,0,1.039-.249,1.288-1.288,1.288H139.692c-1.122,0-1.413-.395-1.246-1.5a42.753,42.753,0,0,0-.976-18.488,20.432,20.432,0,0,0-3.074-5.982c-.789-1.122-1.62-2.223-2.368-3.365a15.216,15.216,0,0,1-2.493-6.938c-.062-.561-.27-.665-.769-.665q-3.739.031-7.478,0c-2.14,0-3.116-1-3.116-3.157,0-1.371,0-1.371-1.371-1.371-.415,0-.831-.021-1.246,0a1.666,1.666,0,0,1-1.454-.519C114.1,252.113,114.1,248.332,114.1,244.531Z" transform="translate(-0.128 -15.353)"/>
      <path id="Trazado_175729" data-name="Trazado 175729" d="M202.966,246.392A22.709,22.709,0,0,1,209.3,240.8a27.977,27.977,0,0,1,13.087-4.071,29.564,29.564,0,0,1,20.606,6.169,23.7,23.7,0,0,1,9.161,15.5,27.877,27.877,0,0,1,.145,7.665,3.712,3.712,0,0,0,.457,2.306,60.483,60.483,0,0,0,4.362,6.606c.353.478.872.976.519,1.579-.312.561-1.018.519-1.62.54a17.486,17.486,0,0,0-3.739.872.845.845,0,0,0-.6.976c.166,1.641.374,3.282.54,4.944a19.2,19.2,0,0,1,.062,4.882,5.21,5.21,0,0,1-5.048,4.528c-2.43.249-4.882.083-7.312.145-1,.021-1.226.229-1.226,1.246,0,2.513-.021,5.027,0,7.54,0,.519-.125.706-.685.706q-15.611-.031-31.221,0c-.561,0-.665-.208-.582-.685a46.693,46.693,0,0,0,.291-10.075c-.415-5.858-2.056-11.28-5.858-15.933a15.046,15.046,0,0,1-3.386-7.208c-.021-.083-.042-.145-.062-.228-.166-1.059-.166-1.059.893-1.059h15.1c2.015,0,2.97-1,2.97-3.012V249.487c0-2.16-.956-3.1-3.137-3.1Z" transform="translate(-65.895 -22.199)" fill="#ffd4a2"/>
      <path id="Trazado_175730" data-name="Trazado 175730" d="M156.833,292.142h12.921c1.163,0,1.267.1,1.267,1.309v15.019c0,1.267-.145,1.433-1.413,1.433h-7.935c-5.92,0-11.82.021-17.74.021-1.226,0-1.433-.187-1.433-1.433V293.471c0-1.184.187-1.371,1.413-1.371h12.921Z" transform="translate(-22.628 -66.121)" fill="#dce736"/>
      <path id="Trazado_175731" data-name="Trazado 175731" d="M125.143,318.245c0,1.267-.021,2.534,0,3.8,0,.395-.083.54-.519.54-1.7.062-1.7.083-1.7-1.6,0-2.181.021-4.342-.021-6.523,0-.478.1-.665.623-.665,1.579.021,1.6-.021,1.6,1.558C125.143,316.334,125.143,317.29,125.143,318.245Z" transform="translate(-7.1 -83.313)" fill="#3d46c2"/>
      <path id="Trazado_175732" data-name="Trazado 175732" d="M243,307.229v-5.837c0-1.142.249-1.392,1.413-1.392h3.344c.81,0,1.142.312,1.142,1.1v12.277c0,.789-.332,1.1-1.142,1.1H244.1c-.789,0-1.1-.332-1.1-1.142C243,311.321,243,309.265,243,307.229Z" transform="translate(-102.252 -72.38)"/>
      <path id="Trazado_175733" data-name="Trazado 175733" d="M212.179,307.35v5.92c0,1.059-.27,1.329-1.329,1.329h-3.427c-.831,0-1.122-.291-1.122-1.1V301.2c0-.81.312-1.08,1.142-1.1h3.511c.956,0,1.226.291,1.246,1.267C212.2,303.341,212.179,305.335,212.179,307.35Z" transform="translate(-73.175 -72.459)"/>
      <path id="Trazado_175734" data-name="Trazado 175734" d="M254.043,314.06c0,1.6-.021,3.22,0,4.819,0,.478-.145.6-.623.6-1.6.021-1.6.021-1.6-1.558,0-2.908.021-5.8-.021-8.7,0-.6.166-.748.748-.727,1.475.021,1.5,0,1.5,1.454Z" transform="translate(-109.224 -79.107)" fill="#f93c48"/>
      <path id="Trazado_175735" data-name="Trazado 175735" d="M214.8,319.368c-.208-.187-.1-.436-.1-.665,0-3.137,0-6.253-.021-9.389,0-.582.125-.893.769-.789a7.83,7.83,0,0,1,1.392.083c.125.187.062.395.062.6,0,3.178-.021,6.356.021,9.535,0,.582-.145.81-.727.727A10.2,10.2,0,0,1,214.8,319.368Z" transform="translate(-79.811 -79.118)" fill="#3d46c2"/>
      <path id="Trazado_175736" data-name="Trazado 175736" d="M215.3,319.76c2.015.021,2.015.021,2.015-1.994V309c.27.166.145.415.145.623,0,3.2,0,6.377.021,9.576,0,.54-.125.789-.685.686C216.3,319.8,215.778,320.03,215.3,319.76Z" transform="translate(-80.306 -79.51)" fill="#f5525c"/>
    </g>
  </g>
</svg>
