<svg xmlns="http://www.w3.org/2000/svg" width="131" height="132" viewBox="0 0 131 132">
  <g id="Grupo_118201" data-name="Grupo 118201" transform="translate(-1102 -762.912)">
    <g id="Grupo_118186" data-name="Grupo 118186" transform="translate(1102 762.913)">
      <g id="Grupo_118173" data-name="Grupo 118173" transform="translate(0 -0.001)">
        <ellipse id="Elipse_6071" data-name="Elipse 6071" cx="65.5" cy="66" rx="65.5" ry="66" fill="#fff"/>
      </g>
    </g>
    <g id="mapa_1_" data-name="mapa (1)" transform="translate(1022.597 588.341)">
      <path id="Trazado_175533" data-name="Trazado 175533" d="M183.209,261.9a1.546,1.546,0,0,1,1.606,1.476c1.3,7.227,2.626,14.455,3.928,21.682.369,2.062.738,4.145,1.129,6.207a1.48,1.48,0,0,1-.434,1.649,1.438,1.438,0,0,1-1.628.022c-6.641-3-13.283-5.947-19.9-8.942a1.7,1.7,0,0,0-1.519-.022c-6.533,2.952-13.066,5.86-19.577,8.812a2.666,2.666,0,0,1-2.366.022c-6.511-2.952-13.066-5.882-19.577-8.812a1.635,1.635,0,0,0-1.519,0c-6.554,2.973-13.109,5.9-19.663,8.855-1.237.543-1.563.478-2.387-.456v-1.215a50.971,50.971,0,0,0,1.042-5.122c.217-1.085.5-1.367,1.563-1.5.846.13,1.215.5,1.259,1.324a10.258,10.258,0,0,1-.3,2.149,3.585,3.585,0,0,0-.087,1.107,20.023,20.023,0,0,0,3.277-1.367c4.428-2,8.833-3.993,13.283-5.925a2,2,0,0,0,1.432-1.953c.3-4.449.695-8.9,1-13.369.022-.456.152-.912.152-1.367,0-.738-.065-.781-.716-.456-1.736.846-3.429,1.8-5.144,2.691-2.973,1.563-5.9,3.169-8.9,4.666a3.121,3.121,0,0,0-1.932,2.6c-.282,2.062-.673,4.1-1.107,6.142-.26,1.15-.933,1.563-1.91,1.215a1.581,1.581,0,0,1-.825-1.953q2.409-13.185,4.8-26.37a2,2,0,0,1,1.107-1.541q8.432-4.655,16.82-9.376a1.774,1.774,0,0,1,1.953,0c.846.477,1.715.89,2.8,1.454a35.129,35.129,0,0,1-2.322-5.491c-1.693-5.665-1.454-11.134,1.8-16.213a17.6,17.6,0,0,1,14.042-8.443,18.152,18.152,0,0,1,19.164,14.52,21.509,21.509,0,0,1-1.693,12.914c-.347.8-.738,1.584-1.215,2.6,1-.521,1.823-.912,2.6-1.346a1.712,1.712,0,0,1,1.867.022c5.6,3.147,11.221,6.251,16.82,9.376a2,2,0,0,1,1.129,1.606c.174,1.259.412,2.5.673,3.733a1.573,1.573,0,0,1-.912,1.975c-.673.456-1.063-.022-1.432-.456a2.589,2.589,0,0,1-.456-1.194c-.174-.846-.282-1.715-.477-2.561a1.882,1.882,0,0,0-2.192-1.476c-3.277.673-6.533,1.454-9.81,2.149-.673.152-.347.434-.109.694,1.541,1.78,3.1,3.581,4.645,5.361,3.017,3.516,6.077,7.032,9.072,10.57.586.695,1.194,1.389,1.932,2.192-.412-2.6-.89-5.013-1.324-7.444-.217-1.215-.477-2.431-.651-3.668C181.842,262.6,182.232,262.076,183.209,261.9Z" transform="translate(-0.218 -16.319)"/>
      <path id="Trazado_175534" data-name="Trazado 175534" d="M113.447,462.311c1.172-.022,1.519-.3,1.736-1.454.412-2.3.825-4.6,1.259-6.88.087-.434.109-.868.629-1.129,5.317-2.778,10.591-5.578,15.887-8.378.13-.065.239-.174.456-.087q-.228,3.06-.456,6.186c-.26,3.451-.543,6.9-.8,10.353-.043.456-.065.8-.564,1.02-5.925,2.626-11.828,5.3-17.732,7.943a1.268,1.268,0,0,1-.3.043c.174-1.02.347-2,.543-2.952.217-1.194.043-1.584-1-2.083C113.1,464,113.512,463.2,113.447,462.311Z" transform="translate(-9.457 -196.651)" fill="#3d46c2"/>
      <path id="Trazado_175535" data-name="Trazado 175535" d="M421.778,404.065c-1.02.564-1.15.868-.955,2.018.651,3.538,1.28,7.075,1.932,10.635a1.073,1.073,0,0,1-.109.695c-5.534-6.424-11.069-12.848-16.647-19.338,3.755-.846,7.379-1.649,11-2.453a2.319,2.319,0,0,1,2.192,1.5c.174,1,.347,1.975.543,2.973.217,1.107.521,1.367,1.649,1.5Z" transform="translate(-238.788 -158.481)" fill="#3d46c2"/>
      <path id="Trazado_175536" data-name="Trazado 175536" d="M248.231,265.714a55.881,55.881,0,0,1-7.444-7.922,34.12,34.12,0,0,1-6.164-11.59,15.734,15.734,0,0,1,9.962-19.642,13.74,13.74,0,0,1,7.661-.521,9.856,9.856,0,0,1,3.407,2.018,16.9,16.9,0,0,1,6.316,14.411,25.058,25.058,0,0,1-3.668,11.177,47.079,47.079,0,0,1-7.64,9.9C249.859,264.281,249.295,265.28,248.231,265.714Z" transform="translate(-104.068 -25.469)" fill="#f85316"/>
      <path id="Trazado_175537" data-name="Trazado 175537" d="M330.2,445.9c.2.564-.152.846-.738,1.107-3.668,1.606-7.314,3.256-10.96,4.9a.9.9,0,0,1-1.237-.239q-2.637-2.8-5.339-5.534a1.75,1.75,0,0,1-.521-1.3q.033-7.227,0-14.454a1.018,1.018,0,0,1,.716-1.085q4.688-1.986,9.333-4.08a1.251,1.251,0,0,1,1.476.174c1.823,1.5,3.711,2.93,5.578,4.362a1.067,1.067,0,0,1,.477.846C329.392,435.678,329.8,440.734,330.2,445.9Z" transform="translate(-164.719 -181.543)" fill="#75b62f"/>
      <path id="Trazado_175538" data-name="Trazado 175538" d="M236.984,437.944c-2.084-3.169-4.189-6.337-6.272-9.506q-5.144-7.846-10.331-15.67a2.5,2.5,0,0,1-.434-1.693c.13-1.324.26-2.648.326-3.972.022-.521.2-.629.673-.564,3.364.5,6.728.977,10.092,1.454a6.483,6.483,0,0,0,1.28.174,5.622,5.622,0,0,1,4.362,2.084,3.185,3.185,0,0,1,.5,2.322c-.13.3-.391.174-.586.152-3.038-.369-6.077-.738-9.094-1.085a3.482,3.482,0,0,0-.955-.065,1.268,1.268,0,0,0-1.085,1.823,5.053,5.053,0,0,0,.434.738q5.437,8.562,10.9,17.146a2.656,2.656,0,0,1,.434,1.454c-.022,1.715,0,3.451,0,5.165C237.114,437.922,237.049,437.922,236.984,437.944Z" transform="translate(-93.103 -167.032)" fill="#dce736"/>
      <path id="Trazado_175539" data-name="Trazado 175539" d="M229.006,474.914c-2.3-1.042-4.6-2.062-6.9-3.1-2.93-1.324-5.882-2.626-8.812-3.95-.347-.152-.651-.26-.608-.781.412-4.97.781-9.94,1.172-14.91a1.467,1.467,0,0,1,.109-.369c5.079,7.726,10.114,15.344,15.127,22.984A.455.455,0,0,1,229.006,474.914Z" transform="translate(-87.426 -202.483)" fill="#3d46c2"/>
      <path id="Trazado_175540" data-name="Trazado 175540" d="M299.8,266.8l2.539-2.67a45.17,45.17,0,0,0,8.616-12.089,21.557,21.557,0,0,0,2.322-10.765,16.38,16.38,0,0,0-4.3-10.114,21.457,21.457,0,0,0-5.209-4.059,12.985,12.985,0,0,1,5.968,2.344,15.2,15.2,0,0,1,6.945,12.935,21.822,21.822,0,0,1-3.147,10.917,55.077,55.077,0,0,1-11.98,14.324c-.347.3-.586.391-.933.022A10.079,10.079,0,0,0,299.8,266.8Z" transform="translate(-155.637 -26.551)" fill="#f85316"/>
      <path id="Trazado_175541" data-name="Trazado 175541" d="M154.769,362c-.2,2.366-.369,4.645-.543,6.945a.669.669,0,0,1-.412.586l-14.975,7.878a2.262,2.262,0,0,1-.239.022c.412-2.344.825-4.645,1.237-6.967.043-.3.282-.412.5-.543,4.71-2.626,9.419-5.23,14.107-7.857C154.509,362.043,154.552,362.043,154.769,362Z" transform="translate(-29.423 -132.173)" fill="#75b62f"/>
      <path id="Trazado_175542" data-name="Trazado 175542" d="M422.178,483.777a.774.774,0,0,1-.89-.087c-4.579-2.04-9.137-4.1-13.717-6.164-.369-.174-.716-.282-.738-.825-.282-3.907-.586-7.813-.868-11.72-.022-.174,0-.347,0-.781C411.435,470.82,416.774,477.266,422.178,483.777Z" transform="translate(-238.753 -212.192)" fill="#75b62f"/>
      <path id="Trazado_175543" data-name="Trazado 175543" d="M402.621,422.5q8.855,10.287,17.732,20.6a3.311,3.311,0,0,1,.825,1.758c.282,1.78.629,3.559,1,5.578-.651-.781-1.194-1.389-1.715-2.018q-8.66-10.45-17.341-20.922a2.019,2.019,0,0,1-.5-1.237c-.043-1.063-.152-2.127-.217-3.19C402.4,422.826,402.187,422.543,402.621,422.5Z" transform="translate(-235.93 -179.542)" fill="#dce736"/>
      <path id="Trazado_175544" data-name="Trazado 175544" d="M311.534,394.053a1.67,1.67,0,0,1,.738-2.084,5.923,5.923,0,0,0,1.237-1.085,15.163,15.163,0,0,1,6.251-4.124c2.539-1,5.014-2.17,7.509-3.277.3-.13.629-.412.695.26.217,3.169.477,6.316.716,9.484.022.2,0,.391,0,.673-1.715-1.324-3.342-2.561-4.948-3.885a1.935,1.935,0,0,0-2.279-.282c-3,1.346-5.99,2.626-9.007,3.95C312.141,393.814,311.859,393.923,311.534,394.053Z" transform="translate(-164.744 -148.86)" fill="#dce736"/>
      <path id="Trazado_175545" data-name="Trazado 175545" d="M132,423.218c.26-1.432.5-2.8.738-4.189.043-.282.282-.347.477-.456q7.585-4,15.214-8.009a.864.864,0,0,1,.347-.065c-.087,1.324-.2,2.6-.282,3.885-.022.3-.239.369-.434.478-5.252,2.778-10.483,5.534-15.735,8.312A1.176,1.176,0,0,0,132,423.218Z" transform="translate(-24.255 -170.147)" fill="#dce736"/>
      <path id="Trazado_175546" data-name="Trazado 175546" d="M233.771,369.7c-3.581-.521-7.01-1.02-10.461-1.5-.456-.065-.543-.217-.521-.673.174-2.018.326-4.015.434-6.034.043-.738.282-.781.8-.412.022.022.043.022.087.043,3.95,1.28,6.294,4.449,8.747,7.488C233.12,368.96,233.4,369.286,233.771,369.7Z" transform="translate(-95.338 -131.276)" fill="#75b62f"/>
      <path id="Trazado_175547" data-name="Trazado 175547" d="M262.5,443.2l5.209.608c.738.087,1.476.217,2.235.26.434.022.629.2.586.629-.022.239,0,.456,0,.694,0,3.364,0,6.728-.174,10.179C267.774,451.512,265.191,447.432,262.5,443.2Z" transform="translate(-126.432 -195.75)" fill="#75b62f"/>
      <path id="Trazado_175548" data-name="Trazado 175548" d="M408.466,376.637c-3.06.673-5.882,1.3-8.725,1.953-.391.087-.5-.022-.521-.391-.065-.955-.13-1.888-.239-2.843-.043-.412.2-.478.477-.564,1.194-.282,2.409-.564,3.6-.846a.763.763,0,0,1,.651.065C405.254,374.857,406.751,375.682,408.466,376.637Z" transform="translate(-233.288 -141.493)" fill="#dce736"/>
      <path id="Trazado_175549" data-name="Trazado 175549" d="M353.5,365.874c.955-1.346,1.823-2.713,3.473-3.342a22.706,22.706,0,0,0,2.973-1.541c.412-.217.521-.13.586.326.2,1.519.217,1.519-1.215,2.149-1.649.716-3.321,1.454-4.97,2.17C354.086,365.744,353.847,365.961,353.5,365.874Z" transform="translate(-197.682 -131.294)" fill="#75b62f"/>
      <path id="Trazado_175550" data-name="Trazado 175550" d="M311.5,538.9c1.259,1.128,2.561,2.322,3.928,3.559-1.237.564-2.366,1.063-3.473,1.563-.391.174-.456.022-.456-.326Z" transform="translate(-164.798 -270.68)" fill="#fdda55"/>
      <path id="Trazado_175551" data-name="Trazado 175551" d="M397.982,362.8a1.554,1.554,0,0,1,.043-1c.347.2.695.391,1.085.608C398.785,362.777,398.373,362.668,397.982,362.8Z" transform="translate(-232.462 -132.016)" fill="#3fba61"/>
      <path id="Trazado_175552" data-name="Trazado 175552" d="M402.3,421.764c-.26.109-.109.369-.2.543-.152-.239-.282-.5,0-.738C402.144,421.526,402.274,421.656,402.3,421.764Z" transform="translate(-235.604 -178.807)" fill="#705210"/>
      <path id="Trazado_175553" data-name="Trazado 175553" d="M275.631,261.941c.217-1.15.651-1.476,1.78-1.389a8.032,8.032,0,1,1-8.378,9.181,8.024,8.024,0,0,1,1.932-6.489c.716-.846,1.324-.89,2.214-.174.586.586.586,1.064.022,1.888a6.8,6.8,0,0,0-1.324,2.583,5.193,5.193,0,1,0,5.578-4.167,2.749,2.749,0,0,1-.846-.108C276.022,263,275.457,262.744,275.631,261.941Z" transform="translate(-131.489 -52.732)"/>
      <path id="Trazado_175554" data-name="Trazado 175554" d="M284.9,267c.217.912.89,1.15,1.758,1.215a5.415,5.415,0,0,1,4.992,5.079,5.439,5.439,0,0,1-9.94,3.342,5.38,5.38,0,0,1,.217-6.294c.521-.673,1.107-1.3.521-2.235A7.174,7.174,0,0,1,284.9,267Z" transform="translate(-140.76 -57.791)" fill="#fefefe"/>
    </g>
  </g>
</svg>
