<svg xmlns="http://www.w3.org/2000/svg" width="150" height="150" viewBox="0 0 150 150">
  <g id="Grupo_118231" data-name="Grupo 118231" transform="translate(-727.629 -669.818)">
    <circle id="Elipse_6044" data-name="Elipse 6044" cx="75" cy="75" r="75" transform="translate(727.629 669.818)" fill="#fff"/>
    <g id="Grupo_116362" data-name="Grupo 116362" transform="translate(694.771 543.042)">
      <path id="Trazado_172809" data-name="Trazado 172809" d="M226.76,148a2.391,2.391,0,0,1,1.106,2.706c-.1.846.266,1.141,1.006,1.5,1.66.806,3.057,1.157,4.354-.645a1.33,1.33,0,0,1,2.046.079q2.4,2.322,4.722,4.723a1.371,1.371,0,0,1-.038,2.192c-1.526,1.13-1.51,2.258-.661,3.821.712,1.309.55,1.4,2.065,1.4,1.828.009,2.249.426,2.253,2.248,0,1.717.009,3.435,0,5.152-.01,1.5-.52,2.015-1.991,2.034-1.746.023-1.606.1-2.4,1.595-.763,1.445-.765,2.44.617,3.495.935.713.851,1.63.022,2.484q-2.194,2.258-4.453,4.453a1.506,1.506,0,0,1-2.489-.057c-1.028-1.3-1.98-1.4-3.421-.616-1.5.814-1.585.662-1.62,2.383-.03,1.442-.6,2.04-2.028,2.055q-2.72.029-5.44,0c-1.428-.015-2-.613-2.028-2.055-.035-1.72-.117-1.569-1.62-2.383-1.441-.781-2.389-.683-3.421.616-.762.958-1.659.873-2.559-.007q-2.184-2.134-4.317-4.319c-.911-.932-.986-1.812.021-2.627,1.211-.979,1.245-1.81.672-3.258s-1.237-1.924-2.71-1.789c-1.186.108-1.772-.536-1.789-1.717q-.042-2.957,0-5.916c.016-1.194.578-1.855,1.764-1.731,1.563.162,2.172-.439,2.758-1.877.561-1.376.536-2.16-.611-3.105-1.1-.908-1.034-1.749-.042-2.757q2.076-2.108,4.18-4.186c.99-.975,1.882-1.043,2.77.039.953,1.162,1.748,1.147,3.119.6,1.421-.568,2.039-1.176,1.807-2.686A1.859,1.859,0,0,1,219.5,148Zm9.66,31.506c-.241-.258-.448-.491-.666-.711-1.3-1.313-1.3-1.674-.464-3.33a24.325,24.325,0,0,0,1.477-3.6c.492-1.549.866-1.916,2.458-1.964.308-.009.865-.052.88-.146a8.918,8.918,0,0,0,.119-2.237c-.018-.179-.634-.4-.989-.427-1.526-.135-1.971-.433-2.368-1.49-.577-1.537-1.173-3.072-1.858-4.563a1.945,1.945,0,0,1,.335-2.432c.352-.359.693-.728,1.019-1.071l-2.283-2.279c-.215.2-.446.417-.669.638-1.246,1.243-1.707,1.268-3.262.473a20.017,20.017,0,0,0-3.325-1.4c-1.979-.594-2.213-.768-2.227-2.8,0-.679-.24-.932-.893-.861a6.277,6.277,0,0,1-.668,0c-1.341,0-1.341,0-1.357,1.333-.015,1.28-.4,1.7-1.6,2.137-1.484.543-2.943,1.161-4.382,1.813a1.949,1.949,0,0,1-2.506-.366c-.358-.34-.708-.688-1.015-.986l-2.332,2.214c.25.275.453.513.672.736,1.3,1.326,1.3,1.71.46,3.34a23.591,23.591,0,0,0-1.475,3.6c-.488,1.53-.763,1.829-2.377,1.937-1.2.08-1.146.082-1.2,1.773-.028.957.4,1.093,1.2,1.079a1.945,1.945,0,0,1,2.225,1.388c.63,1.62,1.284,3.232,1.973,4.827a1.736,1.736,0,0,1-.363,2.169,12.406,12.406,0,0,1-1.214.894l2.416,2.524c.39-.37.773-.748,1.172-1.107a1.841,1.841,0,0,1,2.189-.315c1.585.712,3.2,1.359,4.82,1.989a1.811,1.811,0,0,1,1.328,1.768c.006.318.022.638,0,.954-.037.543.212.754.737.716.285-.021.573,0,.859,0,1.3,0,1.3,0,1.309-1.283.011-1.388.4-1.818,1.689-2.275,1.428-.507,2.833-1.093,4.206-1.733a1.9,1.9,0,0,1,2.652.374c.338.318.685.626,1,.911Z" transform="translate(-115.288)"/>
      <path id="Trazado_172810" data-name="Trazado 172810" d="M444.234,256.156a11.722,11.722,0,0,1-2.012,4.57,9.415,9.415,0,0,1-14.077.978,2.491,2.491,0,0,0-1.211-.606c-2.952-.466-5.912-.878-8.869-1.309-.246-.036-.489-.089-.838-.153l.424-3.077,8.035,1.13A9.633,9.633,0,0,1,431.3,246.14l-13.466-13.463,2.574-2.487a4.152,4.152,0,0,0,.541.818q6.9,6.935,13.839,13.839a2.334,2.334,0,0,0,1.082.695,9.544,9.544,0,0,1,8.257,7.982c.012.055.072.1.109.151Zm-9.459,4.927a6.08,6.08,0,0,0,6.148-6.157,6.146,6.146,0,1,0-12.291.006A6.059,6.059,0,0,0,434.776,261.083Z" transform="translate(-287.508 -65.962)"/>
      <path id="Trazado_172811" data-name="Trazado 172811" d="M334.487,367.179a8.1,8.1,0,0,1,4.264,10.957,6.421,6.421,0,0,1-.043,11.841,7.964,7.964,0,0,1-4.24,10.9,6.333,6.333,0,0,1-1.182,6.139,6.116,6.116,0,0,1-6.273,2.047c-.413-.085-.708-.217-1.03.281a6.2,6.2,0,0,1-7.078,2.821,6.343,6.343,0,0,1-4.609-6.387c-.031-3.563-.008-7.127-.008-10.691q0-16.228,0-32.456c0-2.639.892-4.8,3.281-6.138a6.2,6.2,0,0,1,8.354,2.141.8.8,0,0,0,1.062.4,6.262,6.262,0,0,1,7.578,7.715C334.53,366.879,334.517,367,334.487,367.179ZM323.7,393.557a17.426,17.426,0,0,1,.281-1.935,7.841,7.841,0,0,1,11.71-4.871,2.049,2.049,0,0,0,2.215-.018,3.093,3.093,0,0,0,1.455-3.518,2.589,2.589,0,0,0-3.882-1.717,7.826,7.826,0,0,1-9.339-1.244,7.4,7.4,0,0,1-2.348-5.694c.809,0,1.536.034,2.259-.01.648-.04.939.121,1.042.85a4.518,4.518,0,0,0,4.442,3.83,4.636,4.636,0,0,0,1.86-8.936,1.93,1.93,0,0,0-1.375.141,5.8,5.8,0,0,1-3.587.926c0-.751.035-1.447-.01-2.139s.157-.992.89-1.146a2.984,2.984,0,0,0,2.277-3.118,3.13,3.13,0,0,0-2.7-2.9,3.089,3.089,0,0,0-3.33,2.127c-.094.3-.168.6-.253.908h-3.357a15.694,15.694,0,0,1,1.156-3.193,1.461,1.461,0,0,0-.337-2.128,2.9,2.9,0,0,0-2.524-.849,3.057,3.057,0,0,0-2.72,3.336q-.007,21.755,0,43.511c0,.223,0,.446.017.668a3.083,3.083,0,0,0,5.722,1.261.954.954,0,0,0,0-1.194,4.908,4.908,0,0,1-.99-3.57h2.981c.841,2.368,1.912,3.308,3.52,3.121a3.149,3.149,0,0,0,2.813-2.8c.176-1.676-.782-2.775-3.049-3.506v-3.081a6.356,6.356,0,0,1,3.591,1.076,1.263,1.263,0,0,0,.838.2,4.627,4.627,0,0,0,3.329-4.845,4.658,4.658,0,0,0-9.264-.213.935.935,0,0,1-.593.63C325.591,393.6,324.734,393.557,323.7,393.557Z" transform="translate(-204.887 -166.678)"/>
      <path id="Trazado_172812" data-name="Trazado 172812" d="M162.978,400.878a8.078,8.078,0,0,1-4.254-10.932,6.424,6.424,0,0,1,.045-11.844,7.965,7.965,0,0,1,4.239-10.909,6.343,6.343,0,0,1,1.125-6.068,6.217,6.217,0,0,1,6.428-2.134,1.061,1.061,0,0,0,.894-.3,6.33,6.33,0,0,1,11.727,3.586c.032,3.245.008,6.491.008,9.737q0,16.705,0,33.41c0,2.641-.9,4.8-3.275,6.143a6.226,6.226,0,0,1-8.363-2.138c-.257-.4-.459-.566-.967-.445a6.24,6.24,0,0,1-7.642-7.768A2.543,2.543,0,0,0,162.978,400.878Zm10.781-26.347a16.249,16.249,0,0,1-.236,1.795,7.828,7.828,0,0,1-11.713,5,2.082,2.082,0,0,0-2.38.1,3.1,3.1,0,0,0-1.351,3.316,2.623,2.623,0,0,0,3.9,1.845,7.868,7.868,0,0,1,6.625-.515,7.7,7.7,0,0,1,5.024,7.458c-.706,0-1.431-.036-2.151.01-.684.045-.99-.127-1.094-.9a4.629,4.629,0,0,0-4.559-3.847,4.686,4.686,0,0,0-4.581,3.948,4.565,4.565,0,0,0,3.042,5.1,1.544,1.544,0,0,0,1.1-.159,6.437,6.437,0,0,1,3.58-1.034v3.1c-.378.1-.721.172-1.047.288a3.078,3.078,0,0,0-1.937,3.6,3.08,3.08,0,0,0,5.989.081c.091-.3.285-.79.466-.806.929-.082,1.87-.038,3.154-.038a19.757,19.757,0,0,1-1.265,3.374,1.238,1.238,0,0,0,.214,1.814,4.368,4.368,0,0,0,1.955,1.029,2.945,2.945,0,0,0,3.459-3.111q.017-21.994,0-43.988a3.777,3.777,0,0,0-.014-.381,3.1,3.1,0,0,0-5.731-1.247.948.948,0,0,0,.017,1.194,5.17,5.17,0,0,1,1,3.566h-3.04c-.082-.28-.139-.461-.189-.644a3.067,3.067,0,0,0-3.359-2.459,3.088,3.088,0,0,0-.257,6.1c.247.072.606.335.621.532.068.878.029,1.765.029,2.682a5.972,5.972,0,0,1-3.61-.963,1.805,1.805,0,0,0-1.289-.135,4.64,4.64,0,1,0,6.3,5.089c.055-.292.346-.743.563-.765C171.865,374.479,172.751,374.531,173.759,374.531Z" transform="translate(-76.904 -166.645)"/>
      <path id="Trazado_172813" data-name="Trazado 172813" d="M82.909,229.659l2.313,2.333L71.665,245.555c4.892,2.435,6.947,6.212,5.884,11.694l7.963-1.12.468,3.1c-1.611.239-3.134.471-4.658.69q-2.312.331-4.627.64a3.247,3.247,0,0,0-1.838.832,9.318,9.318,0,0,1-13.894-1.1,9.44,9.44,0,0,1,4.22-14.611c.57-.189,1.178-.27,1.739-.48a4.113,4.113,0,0,0,1.459-.761q6.984-6.914,13.907-13.889A6.289,6.289,0,0,0,82.909,229.659Zm-14.491,31a6.059,6.059,0,0,0,6.143-6.151A6.146,6.146,0,1,0,62.27,254.5,6.08,6.08,0,0,0,68.418,260.657Z" transform="translate(0 -65.536)"/>
      <path id="Trazado_172814" data-name="Trazado 172814" d="M249.791,192.91l-2.293,2.213c-.312-.285-.659-.593-1-.911a1.9,1.9,0,0,0-2.652-.374c-1.374.64-2.778,1.227-4.206,1.733-1.288.457-1.678.887-1.689,2.275-.01,1.282-.01,1.282-1.309,1.283-.286,0-.574-.018-.859,0-.525.038-.774-.173-.737-.716.022-.316.006-.636,0-.954a1.811,1.811,0,0,0-1.328-1.768c-1.62-.63-3.235-1.277-4.82-1.989a1.841,1.841,0,0,0-2.189.315c-.4.359-.781.737-1.172,1.107l-2.416-2.524a12.405,12.405,0,0,0,1.214-.894,1.736,1.736,0,0,0,.363-2.169c-.689-1.6-1.343-3.207-1.973-4.827a1.945,1.945,0,0,0-2.225-1.388c-.8.014-1.229-.123-1.2-1.079.05-1.691,0-1.693,1.2-1.773,1.613-.108,1.889-.407,2.377-1.937a23.588,23.588,0,0,1,1.475-3.6c.837-1.629.838-2.014-.46-3.34-.218-.223-.421-.461-.672-.736l2.332-2.214c.306.3.657.646,1.015.986a1.949,1.949,0,0,0,2.506.366c1.44-.652,2.9-1.27,4.382-1.813,1.2-.44,1.584-.857,1.6-2.137.016-1.332.016-1.332,1.357-1.333a6.269,6.269,0,0,0,.668,0c.653-.071.888.183.893.861.014,2.029.249,2.2,2.227,2.8a20.017,20.017,0,0,1,3.325,1.4c1.554.8,2.015.77,3.262-.473.222-.222.454-.433.669-.638l2.283,2.279c-.325.342-.667.711-1.019,1.071a1.945,1.945,0,0,0-.335,2.432c.685,1.491,1.281,3.025,1.858,4.563.4,1.057.842,1.355,2.368,1.49.356.031.971.248.989.427a8.917,8.917,0,0,1-.119,2.237c-.015.094-.572.137-.88.146-1.592.048-1.967.416-2.458,1.964a24.329,24.329,0,0,1-1.477,3.6c-.838,1.656-.836,2.018.464,3.33C249.343,192.419,249.55,192.652,249.791,192.91Zm-2.136-10.963a11.152,11.152,0,1,0-11.2,11.108A11.235,11.235,0,0,0,247.654,181.947Z" transform="translate(-128.659 -13.404)" fill="#dbe636"/>
      <path id="Trazado_172815" data-name="Trazado 172815" d="M481.137,336.654a6.059,6.059,0,0,1-6.143-6.151,6.146,6.146,0,1,1,12.291-.006A6.08,6.08,0,0,1,481.137,336.654Z" transform="translate(-333.869 -141.534)" fill="#75b62f"/>
      <path id="Trazado_172816" data-name="Trazado 172816" d="M336.888,406.618c1.033,0,1.89.044,2.736-.03a.935.935,0,0,0,.593-.63,4.658,4.658,0,0,1,9.264.213,4.627,4.627,0,0,1-3.329,4.845,1.263,1.263,0,0,1-.838-.2,6.356,6.356,0,0,0-3.591-1.076v3.081c2.267.73,3.224,1.83,3.049,3.506a3.149,3.149,0,0,1-2.813,2.8c-1.608.186-2.679-.753-3.52-3.121H335.46a4.908,4.908,0,0,0,.99,3.57.954.954,0,0,1,0,1.194,3.083,3.083,0,0,1-5.722-1.261c-.021-.221-.017-.445-.017-.668q0-21.755,0-43.511a3.057,3.057,0,0,1,2.72-3.336,2.9,2.9,0,0,1,2.524.849,1.461,1.461,0,0,1,.337,2.128,15.694,15.694,0,0,0-1.156,3.193H338.5c.085-.307.16-.611.253-.908a3.089,3.089,0,0,1,3.33-2.127,3.13,3.13,0,0,1,2.7,2.9,2.984,2.984,0,0,1-2.277,3.118c-.734.154-.935.465-.89,1.146s.01,1.388.01,2.139a5.8,5.8,0,0,0,3.587-.926,1.93,1.93,0,0,1,1.375-.141,4.636,4.636,0,0,1-1.86,8.936,4.518,4.518,0,0,1-4.442-3.83c-.1-.729-.394-.89-1.042-.85-.722.044-1.449.01-2.259.01a7.4,7.4,0,0,0,2.348,5.694,7.826,7.826,0,0,0,9.339,1.244,2.589,2.589,0,0,1,3.882,1.717,3.093,3.093,0,0,1-1.455,3.518,2.049,2.049,0,0,1-2.215.018,7.841,7.841,0,0,0-11.71,4.871A17.41,17.41,0,0,0,336.888,406.618Z" transform="translate(-218.074 -179.738)" fill="#ffd4a2"/>
      <path id="Trazado_172817" data-name="Trazado 172817" d="M186.718,387.652c-1.008,0-1.894-.052-2.765.036-.218.022-.508.473-.563.765a4.625,4.625,0,0,1-4.162,3.839,4.632,4.632,0,0,1-2.137-8.928,1.806,1.806,0,0,1,1.289.135,5.973,5.973,0,0,0,3.61.963c0-.917.038-1.8-.029-2.682-.015-.2-.374-.46-.621-.532a3.088,3.088,0,0,1,.257-6.1,3.066,3.066,0,0,1,3.359,2.459c.05.183.106.364.189.644h3.04a5.17,5.17,0,0,0-1-3.566.948.948,0,0,1-.017-1.194,3.1,3.1,0,0,1,5.731,1.247,3.778,3.778,0,0,1,.014.381q0,21.994,0,43.988a2.945,2.945,0,0,1-3.459,3.111,4.367,4.367,0,0,1-1.955-1.029,1.238,1.238,0,0,1-.214-1.814A19.757,19.757,0,0,0,188.541,416c-1.284,0-2.224-.044-3.154.038-.181.016-.376.505-.466.806a3.08,3.08,0,0,1-5.989-.081,3.078,3.078,0,0,1,1.937-3.6c.326-.116.669-.185,1.047-.288v-3.1a6.438,6.438,0,0,0-3.58,1.034,1.544,1.544,0,0,1-1.1.159,4.565,4.565,0,0,1-3.042-5.1,4.686,4.686,0,0,1,4.581-3.948,4.629,4.629,0,0,1,4.559,3.847c.1.77.41.941,1.094.9.72-.047,1.445-.01,2.151-.01a7.7,7.7,0,0,0-5.024-7.458,7.868,7.868,0,0,0-6.625.515,2.623,2.623,0,0,1-3.9-1.845,3.1,3.1,0,0,1,1.351-3.316,2.082,2.082,0,0,1,2.38-.1,7.828,7.828,0,0,0,11.713-5A16.249,16.249,0,0,0,186.718,387.652Z" transform="translate(-89.863 -179.765)" fill="#f85316"/>
      <path id="Trazado_172818" data-name="Trazado 172818" d="M81.758,336.654A6.08,6.08,0,0,1,75.61,330.5,6.146,6.146,0,1,1,87.9,330.5,6.059,6.059,0,0,1,81.758,336.654Z" transform="translate(-13.34 -141.534)" fill="#75b62f"/>
      <path id="Trazado_172819" data-name="Trazado 172819" d="M272.249,206.355a11.152,11.152,0,1,1-11.1-11.241A11.154,11.154,0,0,1,272.249,206.355Zm-3.3-.014a7.847,7.847,0,1,0-7.832,7.837A7.913,7.913,0,0,0,268.945,206.341Z" transform="translate(-153.254 -37.812)"/>
      <path id="Trazado_172820" data-name="Trazado 172820" d="M282.382,219.838a7.847,7.847,0,1,1-7.864-7.907A7.9,7.9,0,0,1,282.382,219.838Z" transform="translate(-166.691 -51.309)" fill="#dce736"/>
    </g>
  </g>
</svg>
