<svg xmlns="http://www.w3.org/2000/svg" width="150" height="150" viewBox="0 0 150 150">
  <g id="Grupo_118164" data-name="Grupo 118164" transform="translate(-1092.701 -3243.628)">
    <g id="Grupo_118165" data-name="Grupo 118165">
      <circle id="Elipse_5678" data-name="Elipse 5678" cx="75" cy="75" r="75" transform="translate(1092.701 3243.628)" fill="#fff"/>
      <g id="Grupo_116360" data-name="Grupo 116360" transform="translate(1001.785 3065.898)">
        <path id="Trazado_172751" data-name="Trazado 172751" d="M131.882,463.434c0-8.273-.009-16.545.016-24.817,0-.681-.122-.932-.857-.881-1.064.074-2.137.019-3.194.019-.185-.233.031-.364.115-.5q4.759-7.631,9.527-15.256c.265-.424.4-.781.827-.084,3.205,5.178,6.442,10.336,9.668,15.5a2.832,2.832,0,0,1,.141.337c-1.151,0-2.24.054-3.321-.019-.735-.05-.859.2-.857.881.025,8.272.016,16.544.016,24.817Z" transform="translate(-6.03 -161.417)"/>
        <path id="Trazado_172752" data-name="Trazado 172752" d="M195.329,232.156c0-3.235-.009-6.471.01-9.706,0-.452-.188-.5-.559-.5-1.181.017-2.362.006-3.68.006l.408-.653c3.128-5.007,6.268-10.007,9.369-15.03.43-.7.581-.66.992.005,3.1,5.022,6.241,10.023,9.369,15.031l.4.647c-1.133,0-2.132.063-3.119-.019-.874-.072-1.142.136-1.136,1.084.047,7.9.018,15.8.041,23.7,0,.694-.112.958-.893.94-2.516-.059-5.034-.007-7.551-.034-.543-.006-.782.107-.815.7a20.587,20.587,0,0,1-.949,5.082c-.2.634.051.766.575.8a4.524,4.524,0,0,0,3.3-1.14c.518-.432.845-.457,1.362.078q3.38,3.494,6.87,6.88c.568.553.7.928.148,1.578a4.306,4.306,0,0,0,2.778,7.173c.947.125,1.263.421,1.233,1.434-.087,3.018-.031,6.041-.031,9.062,0,1.365,0,1.365-1.324,1.587a4.321,4.321,0,0,0-3.721,3.617,4.435,4.435,0,0,0,1.126,3.667c.442.531.435.853-.088,1.36q-3.522,3.418-6.943,6.94c-.512.527-.839.632-1.432.13a4.307,4.307,0,0,0-3.758-1.089,4.207,4.207,0,0,0-3.492,3.815c-.122.948-.416,1.264-1.431,1.234-3.018-.087-6.04-.031-9.061-.031-1.364,0-1.364,0-1.589-1.323a4.3,4.3,0,0,0-3.431-3.68,1.51,1.51,0,0,0-1.644.519,13.442,13.442,0,0,1-14.987,3.544,13.618,13.618,0,0,1-8.64-12.776c0-.409,0-.818,0-1.227a2.975,2.975,0,0,1,2.46-3.115c.5-.107.6-.284.564-.716a4,4,0,0,1,0-.848c.118-.935.008-1.525-1.159-1.817a2.613,2.613,0,0,1-1.86-2.678c-.027-.975-.043-1.953.007-2.926a.969.969,0,0,0-.665-1.071,29.768,29.768,0,0,1-7.354-4.706,29.213,29.213,0,0,1-10.095-21.168c-.008-.157-.01-.315-.02-.472a1.4,1.4,0,0,0-.917-1.3,1.339,1.339,0,0,0-1.555.323c-.609.592-1.216,1.187-1.8,1.807-.275.294-.447.3-.739.006q-3.888-3.921-7.81-7.808c-.338-.334-.279-.519.029-.805.576-.535,1.117-1.107,1.674-1.662a1.388,1.388,0,0,0,.424-1.616,1.412,1.412,0,0,0-1.475-.945c-.094,0-.189.006-.283,0-.868-.055-2.06.38-2.517-.172-.437-.528-.138-1.676-.14-2.551-.006-2.864.014-5.728-.016-8.591-.006-.592.112-.839.758-.783.718.062,1.446,0,2.17.017a1.429,1.429,0,0,0,1.491-.92,1.379,1.379,0,0,0-.395-1.622c-.581-.576-1.141-1.174-1.74-1.729-.3-.281-.284-.457,0-.74q3.919-3.89,7.808-7.81c.338-.342.524-.267.807.034.56.6,1.146,1.167,1.73,1.74a1.335,1.335,0,0,0,1.548.355,1.394,1.394,0,0,0,.939-1.384c0-.818.024-1.637-.008-2.454-.017-.441.1-.591.567-.588q5.475.028,10.95,0c.442,0,.607.1.585.57-.037.816-.01,1.636-.01,2.454a1.384,1.384,0,0,0,.921,1.392,1.344,1.344,0,0,0,1.554-.333c.566-.547,1.151-1.078,1.664-1.672.386-.447.611-.407,1.011,0,2.092,2.135,4.246,4.21,6.313,6.368a2.088,2.088,0,0,0,1.984.617c5.592-.542,11.194-.773,16.657.866a29.288,29.288,0,0,1,17.408,13.848c.234.4.446.818.668,1.227Z"/>
        <path id="Trazado_172753" data-name="Trazado 172753" d="M149.028,451.581c1.547-2.481,3.029-4.844,4.495-7.216.287-.466.438-.262.636.057q2.186,3.517,4.375,7.016c-.065.078-.1.155-.136.158-1.552.094-1.552.094-1.552,1.695,0,7.677-.011,15.354.017,23.031,0,.746-.116,1.045-.948,1-1.411-.079-2.832-.062-4.245,0-.7.028-.886-.154-.883-.871.029-7.708.018-15.417.018-23.126C150.8,451.668,150.8,451.668,149.028,451.581Z" transform="translate(-21.931 -178.302)" fill="#75b62f"/>
        <path id="Trazado_172754" data-name="Trazado 172754" d="M240.348,303.777v-.921c0-5.758-.017-11.516.02-17.274.005-.769-.229-.914-.936-.9-2.422.042-4.846.054-7.267-.006-.786-.019-.9.254-.894.945.021,9.44.005,18.879.032,28.319,0,.748-.116,1.038-.945.991-1.411-.08-2.832-.06-4.246-.006-.681.026-.895-.123-.888-.857.04-4.468,0-8.936.037-13.4.005-.691-.141-.9-.864-.881-2.485.051-4.971.041-7.456,0-.616-.009-.778.156-.775.774.027,4.5,0,9,.033,13.5.006.717-.181.893-.879.866-1.477-.058-2.958-.053-4.435,0-.643.023-.762-.2-.76-.789.022-5.475-.008-10.95.035-16.425.006-.82-.235-.965-.99-.948-2.327.051-4.657.062-6.984,0-.872-.024-1.181.137-1.138,1.092.089,1.966.027,3.939.027,6.079a25.583,25.583,0,0,1-5.384-6.439c-9.625-16.244.532-37.308,19.275-39.7,5.55-.709,11.215-.834,16.6,1.206,10.334,3.917,16.388,11.39,17.648,22.389.951,8.3-1.811,15.466-7.653,21.436-.308.314-.639.605-.965.9C240.56,303.754,240.488,303.747,240.348,303.777Z" transform="translate(-54.08 -38.569)" fill="#dce736"/>
        <path id="Trazado_172755" data-name="Trazado 172755" d="M380.9,425.832c-.305-6.573-3.165-11.56-8.967-14.73-.671-.367-.655-.6-.394-1.248.522-1.306,1.09-2.146,2.751-1.676a4.606,4.606,0,0,0,3.021-.511.793.793,0,0,1,1.055.194q1.867,1.936,3.8,3.8a.815.815,0,0,1,.2,1.054,7.238,7.238,0,0,0,3.914,9.484.868.868,0,0,1,.63.961c-.033,1.761-.038,3.524,0,5.285.013.543-.2.738-.662.939a7.248,7.248,0,0,0-3.906,9.415.867.867,0,0,1-.193,1.139c-1.3,1.236-2.557,2.514-3.81,3.8a.758.758,0,0,1-.97.2,7.212,7.212,0,0,0-9.587,4.007.765.765,0,0,1-.851.507c-1.793-.014-3.587-.026-5.379.007a.8.8,0,0,1-.883-.6,6.917,6.917,0,0,0-4.588-4.147c-.538-.162-.611-.354-.373-.848a5.739,5.739,0,0,0,.529-1.6c.109-.724.326-.731.952-.448a15.947,15.947,0,0,0,14.79-.359C377.749,437.343,380.587,432.323,380.9,425.832Z" transform="translate(-176.46 -150.963)" fill="#f85316"/>
        <path id="Trazado_172756" data-name="Trazado 172756" d="M165.038,229.359a31.544,31.544,0,0,0-5.628,2.44c-.495.283-.667-.183-.923-.406-3.921-3.419-8.346-4.339-13.13-2.26a11.385,11.385,0,0,0-7.193,10.152,11.563,11.563,0,0,0,5.9,11.227c.689.427.89.787.656,1.531-.187.593-.06,1.378-.408,1.8-.363.443-1.069-.137-1.658-.093a4.574,4.574,0,0,0-2.767,1.043c-.314.272-.485.232-.756-.045q-1.748-1.789-3.537-3.537c-.292-.284-.254-.441-.029-.759,2.173-3.055.707-6.585-3.009-7.231-.411-.072-.506-.195-.5-.576q.025-2.454,0-4.908c-.005-.416.08-.558.545-.634a4.41,4.41,0,0,0,3-7.186c-.252-.346-.3-.515.025-.832,1.177-1.136,2.33-2.3,3.471-3.469.292-.3.456-.332.83-.06a4.409,4.409,0,0,0,7.2-2.958c.07-.436.163-.577.612-.57q2.453.04,4.908,0c.463-.008.533.158.6.58a4.424,4.424,0,0,0,7.213,2.953c.293-.21.453-.321.76-.006C162.449,226.813,163.708,228.039,165.038,229.359Z" transform="translate(-9.232 -12.166)" fill="#f85316"/>
        <path id="Trazado_172757" data-name="Trazado 172757" d="M274.6,521.895c3.208,0,6.416.032,9.623-.022.82-.014.957.241.953.994-.031,5.347-3.1,9.51-8,10.767a10.565,10.565,0,0,1-13.156-9.948c-.047-1.791-.047-1.791,1.712-1.791Z" transform="translate(-107.953 -236.494)" fill="#a9b1bc"/>
        <path id="Trazado_172758" data-name="Trazado 172758" d="M424.894,235.663c1.547-2.48,3.029-4.843,4.494-7.216.285-.462.435-.269.636.055q2.185,3.518,4.375,7.017c-.064.078-.1.155-.134.158-1.554.1-1.554.1-1.554,1.694,0,7.614-.023,15.228.027,22.842.007,1.023-.3,1.247-1.24,1.187a33.075,33.075,0,0,0-3.867,0c-.778.042-.985-.167-.982-.965.034-7.677.02-15.354.02-23.031C426.67,235.749,426.67,235.749,424.894,235.663Z" transform="translate(-228.32 -16.763)" fill="#75b62f"/>
        <path id="Trazado_172759" data-name="Trazado 172759" d="M359.655,457.321c-.41-1.129.394-1.648,1.467-2.138a25.125,25.125,0,0,0,6.285-4.107,1.55,1.55,0,0,1,1.536-.375,7.532,7.532,0,0,1-.148,14.7C363.84,466.408,359.663,462.815,359.655,457.321Z" transform="translate(-179.43 -183.202)" fill="#fefefe"/>
        <path id="Trazado_172760" data-name="Trazado 172760" d="M361.918,433.231a19.789,19.789,0,0,0,1.369-1.788c.387-.64.763-.6,1.361-.3a13.588,13.588,0,0,1-2.265,25.169,13.409,13.409,0,0,1-10.813-1.348,1.05,1.05,0,0,1-.622-1.026,2.911,2.911,0,0,0-2.437-3.028c-.493-.108-.6-.283-.572-.72.029-.533-.01-1.07.013-1.6.014-.326-.184-.712.437-.835.546-.108.635.179.824.508a10.306,10.306,0,0,0,9.492,5.58,10.559,10.559,0,0,0,4.058-20.235Z" transform="translate(-170.743 -168.457)" fill="#dce736"/>
        <path id="Trazado_172761" data-name="Trazado 172761" d="M177.525,258.065a9.074,9.074,0,0,1,5.394,2.1c.439.35.388.5-.018.874-1.087,1-1.945,1.448-3.558.559-2.52-1.391-5.751-.16-7.309,2.3a5.9,5.9,0,0,0,1.053,7.627c.606.531.79.944.346,1.624a4.493,4.493,0,0,0-.354.87c-.4,1.052-.4,1.052-1.341.362a9.076,9.076,0,0,1-3.211-10.093A9.26,9.26,0,0,1,177.525,258.065Z" transform="translate(-36.183 -39.127)" fill="#dce736"/>
        <path id="Trazado_172762" data-name="Trazado 172762" d="M359.939,398.206V382.483c0-1.289.027-2.579-.013-3.866-.017-.543.158-.666.681-.672,2.353-.028,2.353-.046,2.353,2.289,0,5.156-.01,10.312.014,15.467a1.121,1.121,0,0,1-.674,1.18C361.547,397.255,360.83,397.7,359.939,398.206Z" transform="translate(-179.714 -128.81)" fill="#e5e8ec"/>
        <path id="Trazado_172763" data-name="Trazado 172763" d="M283.612,497.935c2.263,0,4.526.017,6.789-.012.534-.007.671.149.679.678.032,2.355.051,2.355-2.29,2.355-3.991,0-7.983-.02-11.974.018-.707.007-.886-.168-.872-.873.041-2.165.007-2.166,2.2-2.166Z" transform="translate(-116.881 -218.576)" fill="#cbd0d8"/>
        <path id="Trazado_172764" data-name="Trazado 172764" d="M299.97,443.975c0-1.792.02-3.585-.012-5.377-.01-.533.143-.672.675-.678,2.359-.029,2.358-.048,2.358,2.284,0,3.019-.018,6.038.015,9.056.007.615-.155.778-.772.775-2.263-.013-2.264.012-2.264-2.286Z" transform="translate(-134.848 -173.68)" fill="#e5e8ec"/>
        <path id="Trazado_172765" data-name="Trazado 172765" d="M243.014,434a2.175,2.175,0,0,1-.229-.054c-2.791-1.337-2.791-1.337-2.791-4.432,0-.973.032-1.948-.013-2.919-.026-.55.169-.66.685-.666,2.349-.027,2.349-.044,2.349,2.286Z" transform="translate(-89.975 -164.71)" fill="#e5e8ec"/>
        <path id="Trazado_172766" data-name="Trazado 172766" d="M195.041,281.968c.237.036.457.053.668.105,1.1.274,1.139.4.42,1.241a22.1,22.1,0,0,0-2.5,3.413c-.4.707-.665.546-1.018.011a2.875,2.875,0,0,1-.217-3.109A3.056,3.056,0,0,1,195.041,281.968Z" transform="translate(-54.109 -57.01)" fill="#fdfdfd"/>
        <path id="Trazado_172767" data-name="Trazado 172767" d="M255.228,316.784a7.533,7.533,0,0,1-14.689,2.3c-.222-.7-.493-1-1.211-.87a2.458,2.458,0,0,1-.659,0,2.29,2.29,0,0,0-2.573,1.2A4.172,4.172,0,0,1,231,320.949a4.522,4.522,0,0,1,.646-8.673,4.4,4.4,0,0,1,4.8,2.184,1.294,1.294,0,0,0,1.288.758c1.569.113,2.546-.087,3.309-1.911,1.6-3.838,6.369-5.234,10.073-3.293a.92.92,0,0,0,1.339-.207q1.683-1.784,3.47-3.469a.878.878,0,0,0,.178-1.269,7.428,7.428,0,0,1,1.191-8.647,7.541,7.541,0,1,1,2.111,11.9,1.028,1.028,0,0,0-1.488.261c-1.074,1.148-2.193,2.257-3.335,3.338a.9.9,0,0,0-.228,1.339A6.669,6.669,0,0,1,255.228,316.784Z" transform="translate(-81.045 -66.048)"/>
        <path id="Trazado_172768" data-name="Trazado 172768" d="M352.5,306.055a4.529,4.529,0,1,1-4.508,4.5A4.545,4.545,0,0,1,352.5,306.055Z" transform="translate(-170.789 -75.03)" fill="#fe816e"/>
        <path id="Trazado_172769" data-name="Trazado 172769" d="M297.082,370.536a4.528,4.528,0,1,1-4.506-4.5A4.552,4.552,0,0,1,297.082,370.536Z" transform="translate(-125.922 -119.903)" fill="#fe816e"/>
        <path id="Trazado_172770" data-name="Trazado 172770" d="M241.589,381.047a1.506,1.506,0,1,1,1.476-1.511A1.518,1.518,0,0,1,241.589,381.047Z" transform="translate(-90.033 -128.883)" fill="#fb806c"/>
        <path id="Trazado_172771" data-name="Trazado 172771" d="M363.007,319.58a1.505,1.505,0,1,1-1.465-1.522A1.517,1.517,0,0,1,363.007,319.58Z" transform="translate(-179.767 -84.01)" fill="#030101"/>
        <path id="Trazado_172772" data-name="Trazado 172772" d="M301.55,378.037a1.506,1.506,0,1,1-1.52,1.464A1.514,1.514,0,0,1,301.55,378.037Z" transform="translate(-134.902 -128.883)" fill="#030101"/>
      </g>
    </g>
  </g>
</svg>
