<svg xmlns="http://www.w3.org/2000/svg" width="131" height="132" viewBox="0 0 131 132">
  <g id="Grupo_118204" data-name="Grupo 118204" transform="translate(-1102 -1103.912)">
    <g id="Grupo_118187" data-name="Grupo 118187" transform="translate(1102 1103.913)">
      <g id="Grupo_118173" data-name="Grupo 118173" transform="translate(0 -0.001)">
        <ellipse id="Elipse_6071" data-name="Elipse 6071" cx="65.5" cy="66" rx="65.5" ry="66" fill="#fff"/>
      </g>
    </g>
    <g id="calidad-de-vida_1_" data-name="calidad-de-vida (1)" transform="translate(1001.977 910.203)">
      <path id="Trazado_175594" data-name="Trazado 175594" d="M246.218,453.135H226.482a2.043,2.043,0,0,1-.246-1.394c0-4.1-.027-8.2,0-12.3a4.166,4.166,0,0,0-.738-2.488c-2.734-3.882-5.385-7.818-8.119-11.7a42.176,42.176,0,0,1-7.135-16.729c-.246-1.312-.082-1.531,1.23-1.558,2.57-.055,2.57-.055,3.28,2.406a39.14,39.14,0,0,0,5.987,11.809c1.066,1.5,2.1,3.034,3.2,4.51a6.168,6.168,0,0,0,5,2.57q7.381.082,14.761,0a5.7,5.7,0,0,0,4.647-2.214c3.827-5,7.517-10.087,9.4-16.21.191-.629.355-1.257.547-1.859a1.329,1.329,0,0,1,1.367-1.011H261.5c.82,0,1.093.355.957,1.175a45.75,45.75,0,0,1-1.8,6.834c-1.749,5.03-4.7,9.376-7.736,13.7-2.023,2.843-3.936,5.741-5.959,8.583a3.25,3.25,0,0,0-.519,1.941v12.492A1.961,1.961,0,0,1,246.218,453.135Z" transform="translate(-69.865 -147.546)" fill="#3d46c2"/>
      <path id="Trazado_175595" data-name="Trazado 175595" d="M237.434,445.174c0-4.838,0-9.7-.027-14.543a2.618,2.618,0,0,1,.629-1.586q4.305-6.192,8.556-12.383a41.745,41.745,0,0,0,6.971-17.386c-1.039,0-2.023.027-3.007,0-.437,0-.6.164-.683.574-1.585,6.779-5.522,12.328-9.513,17.823A6.623,6.623,0,0,1,234.7,420.6H220.349a5.947,5.947,0,0,1-4.975-2.214c-3.5-4.62-6.971-9.294-8.966-14.816-.437-1.175-.765-2.406-1.148-3.608-.082-.246-.055-.629-.383-.629-1.011-.027-2.05-.055-3.062,0-.437.027-.191.437-.164.656a40.547,40.547,0,0,0,6.424,16.019c2.952,4.346,5.959,8.665,8.966,12.957a3.524,3.524,0,0,1,.683,2.187c-.027,4.674-.027,9.349-.027,14.023-1.066,0-2.406.383-3.062-.137-.656-.492-.191-1.914-.191-2.925-.027-3.39-.027-6.752,0-10.142a3.051,3.051,0,0,0-.547-1.8c-2.679-3.827-5.33-7.681-7.982-11.508a45.368,45.368,0,0,1-7.791-20.01c-.273-2.023.273-2.652,2.269-2.652,1.8,0,3.608.027,5.44,0a1.908,1.908,0,0,1,2.1,1.531c.355,1.2.711,2.406,1.121,3.608a33.615,33.615,0,0,0,4.046,8.337c1.421,2.132,2.9,4.21,4.374,6.315a3.135,3.135,0,0,0,2.652,1.5c-4.182-5.385-2.269-11.262,1.148-14.078a9.882,9.882,0,0,1,12.93.3c3.226,2.925,4.838,8.583.765,13.777a2.748,2.748,0,0,0,2.351-1.039c3.663-4.948,7.381-9.923,9.1-15.991.273-.984.6-1.941.9-2.925A1.755,1.755,0,0,1,249.161,396H255.2c1.449,0,2.1.765,1.914,2.214a45.5,45.5,0,0,1-7.654,20.146q-4.059,5.9-8.146,11.782a2.873,2.873,0,0,0-.547,1.8c.027,4.128,0,8.255.027,12.41,0,.629-.109.929-.82.847C239.074,445.12,238.254,445.174,237.434,445.174Z" transform="translate(-61.081 -139.585)"/>
      <path id="Trazado_175596" data-name="Trazado 175596" d="M278.849,273.53c-.109,3.308-1.859,6.506-4.155,9.458a50.006,50.006,0,0,1-11.1,10.087,1.765,1.765,0,0,1-2.187.055,48.421,48.421,0,0,1-11.864-11.016,15.9,15.9,0,0,1-3.472-8.693c-.164-3.991,1.667-7.162,4.866-8.611a9.925,9.925,0,0,1,10.743,1.832c.6.574.847.6,1.476.027a9.7,9.7,0,0,1,9.786-2.242C276.634,265.521,278.849,268.856,278.849,273.53Z" transform="translate(-95.962 -43.634)"/>
      <path id="Trazado_175597" data-name="Trazado 175597" d="M237.034,241.518a4.755,4.755,0,0,1-.328.383c-1.777,2.132-1.777,2.132-3.745.164-.82-.82-1.64-1.64-2.46-2.433-.3-.3-.3-.465,0-.793,1.831-2.023,1.831-2.023,3.772-.082.765.765,1.531,1.531,2.3,2.324A6.027,6.027,0,0,1,237.034,241.518Z" transform="translate(-84.49 -24.278)" fill="#010101"/>
      <path id="Trazado_175598" data-name="Trazado 175598" d="M359.43,243.047a2.365,2.365,0,0,0-.3-.465c-.519-.629-1.558-1.093-1.531-1.777.027-.574.957-1.148,1.5-1.695.793-.793,1.613-1.558,2.378-2.406.41-.437.683-.547,1.121-.027.519.629,1.531,1.148,1.585,1.777.055.656-.984,1.175-1.558,1.777-.793.847-1.64,1.64-2.46,2.46A.818.818,0,0,1,359.43,243.047Z" transform="translate(-177.009 -23.566)" fill="#010101"/>
      <path id="Trazado_175599" data-name="Trazado 175599" d="M303.274,219.252c0,.875-.027,1.777,0,2.652.027.465-.164.547-.574.574-2.706.137-2.706.164-2.706-2.542,0-1.121.027-2.242,0-3.39-.027-.547.164-.656.683-.683,2.6-.055,2.6-.082,2.6,2.542Z" transform="translate(-135.149 -8.682)"/>
      <path id="Trazado_175600" data-name="Trazado 175600" d="M207.2,303.28c-.875,0-1.777-.027-2.652,0-.437.027-.547-.137-.574-.574-.137-2.706-.164-2.706,2.515-2.706,1.148,0,2.324.027,3.472,0,.437,0,.547.137.574.574.137,2.706.164,2.706-2.515,2.706Z" transform="translate(-65.342 -69.83)"/>
      <path id="Trazado_175601" data-name="Trazado 175601" d="M387.18,303.2c-.82,0-1.64-.027-2.46,0-.6.027-.82-.082-.82-.765,0-2.542-.027-2.542,2.515-2.542,1.093,0,2.187.027,3.28,0,.6-.027.82.082.82.765,0,2.542.027,2.542-2.515,2.542Z" transform="translate(-196.121 -69.748)"/>
      <path id="Trazado_175602" data-name="Trazado 175602" d="M288.405,426a6.561,6.561,0,1,1-6.506,6.643A6.6,6.6,0,0,1,288.405,426Z" transform="translate(-122.003 -161.387)" fill="#ffd4a2"/>
      <path id="Trazado_175603" data-name="Trazado 175603" d="M258,281.7c.055-2.242.82-4.1,2.98-5.057a6.491,6.491,0,0,1,6.834.929,5.323,5.323,0,0,1,1.667,2.05,1.76,1.76,0,0,0,1.613,1.2,1.839,1.839,0,0,0,1.64-1.175,6.631,6.631,0,0,1,7.135-3.417c3.171.656,4.838,3.308,4.264,6.725a16.741,16.741,0,0,1-4.292,8.009,47.821,47.821,0,0,1-8.2,7.381.691.691,0,0,1-.984.055c-4.21-3.144-8.173-6.506-10.934-11.071A11.6,11.6,0,0,1,258,281.7Z" transform="translate(-104.636 -52.434)" fill="#f85316"/>
    </g>
  </g>
</svg>
