<svg xmlns="http://www.w3.org/2000/svg" width="131" height="132" viewBox="0 0 131 132">
  <g id="Grupo_118197" data-name="Grupo 118197" transform="translate(-367 -762.912)">
    <g id="Grupo_118176" data-name="Grupo 118176" transform="translate(367 762.913)">
      <g id="Grupo_118173" data-name="Grupo 118173" transform="translate(0 -0.001)">
        <ellipse id="Elipse_6071" data-name="Elipse 6071" cx="65.5" cy="66" rx="65.5" ry="66" fill="#fff"/>
      </g>
    </g>
    <g id="informe-medico" transform="translate(274.181 576.185)">
      <path id="Trazado_175465" data-name="Trazado 175465" d="M162.041,294.413H134.017c-2.2,0-3.25-1.023-3.25-3.2V264.367a1.543,1.543,0,0,0-.523-1.25c-2.136-2.091-4.25-4.2-6.341-6.318a13.727,13.727,0,0,1-1.227-18.16,10.118,10.118,0,0,1,7.432-4.114c.591-.068.636-.273.636-.773q-.034-4.943,0-9.887a2.762,2.762,0,0,1,3.068-3.046c5.932,0,11.864-.023,17.8.023.75,0,.977-.159.955-.955a9.53,9.53,0,1,1,19.046-.727c.045,1.659.045,1.591,1.682,1.682.909.045,1.114-.227,1.068-1.114-.068-1.682,0-3.341-.023-5.023,0-.5.045-.75.659-.727a23.357,23.357,0,0,0,13.523-3.818,1.265,1.265,0,0,1,1.591-.045,23.3,23.3,0,0,0,13.614,3.864c.568-.023.636.182.636.659-.023,3.773.091,7.546-.045,11.318a19.924,19.924,0,0,1-10.273,17.41,1.175,1.175,0,0,0-.614,1.227v46.5c0,2.318-1,3.3-3.318,3.3Q176.132,294.425,162.041,294.413Z" transform="translate(-3.281 -3.303)"/>
      <path id="Trazado_175466" data-name="Trazado 175466" d="M225.219,315.651a13.674,13.674,0,0,0-.568-9.068c-1.932-4.7-5.932-7.409-10.7-7.182a10.321,10.321,0,0,0-6.727,2.909c-.386.364-.75.773-1.159,1.136-.3.25-.545.864-.864.636-.545-.386-1.273-.773-1.273-1.568-.023-2.7,0-5.387-.023-8.091,0-.523.25-.5.636-.5h8.341q12.955,0,25.887-.023c.682,0,.886.182,1.023.841a19.93,19.93,0,0,0,9.955,13.659.9.9,0,0,1,.523.932c-.023,5.386-.023,10.8,0,16.182a1.309,1.309,0,0,1-.386,1.068c-.045.045-.068.091-.114.114-.8.886-1.455,2.091-2.455,2.546s-2.341.136-3.523.136c-3.955,0-7.887.023-11.841-.023-.659,0-.773.182-.773.8.023,4.932.023,9.887,0,14.819,0,.682.2.773.818.773q7.364-.034,14.728,0c.636,0,.864-.114.841-.818-.045-3.636,0-7.273-.023-10.909a1.8,1.8,0,0,1,.477-1.3c.727-.75,1.409-1.546,2.114-2.341.25.227.136.5.136.727,0,6.409,0,12.841.023,19.25,0,.7-.227.818-.841.818q-22.364-.034-44.728,0c-.591,0-.818-.068-.818-.75.045-4.477.023-8.978.023-13.5.091.023.182.023.227.068,1.182,1.068,1.182,1.068,2.3-.045l14.637-14.637a15.343,15.343,0,0,0,2.75-3.432.72.72,0,0,1,.727-.409c3.909.023,7.841.023,11.75,0,.523,0,.636.3.841.636a4.037,4.037,0,0,0,4.977,1.841,4.086,4.086,0,0,0-1.636-7.909,3.986,3.986,0,0,0-3.409,2.2c-.136.273-.227.523-.659.523-3.682-.023-7.387-.023-11.068-.023A.56.56,0,0,0,225.219,315.651Z" transform="translate(-68.254 -68.246)" fill="#dee4f0"/>
      <path id="Trazado_175467" data-name="Trazado 175467" d="M151.268,349.634c-1.432-4.273-2.8-8.387-4.227-12.659-1.2,3.023-2.364,5.864-3.5,8.75-.2.5-.432.75-.977.659a2.734,2.734,0,0,0-.432,0c-2.114,0-2.114,0-2.046,2.136,0,.432.091.591.545.591,1.3-.023,2.614-.045,3.909,0,.455.023.636-.182.8-.568.455-1.159.909-2.3,1.455-3.636,1.341,4.023,2.614,7.841,3.886,11.682.341-.182.386-.5.523-.75,1.455-2.909,2.932-5.818,4.364-8.75a1.032,1.032,0,0,1,1.068-.7c2.8.045,5.591.023,8.5.023a6.954,6.954,0,0,1-1.25,1.5q-6.852,6.887-13.728,13.75c-.455.455-.659.455-1.114,0-4.614-4.659-9.273-9.273-13.887-13.932a11.015,11.015,0,0,1-.591-15.046,7.731,7.731,0,0,1,10.978-.636c1.25,1.159,2.432,2.386,3.636,3.591.341.341.523.364.864,0,.909-.977,1.932-1.841,2.818-2.841,3.682-4.182,10.591-3.8,13.409,2.341a11,11,0,0,1,.614,7.8.846.846,0,0,1-.977.75c-3.659-.045-7.318,0-10.978-.023a1.012,1.012,0,0,0-1.045.636C153.086,346.043,152.2,347.771,151.268,349.634Z" transform="translate(-12.6 -96.162)" fill="#f85316"/>
      <path id="Trazado_175468" data-name="Trazado 175468" d="M234.547,364a2.478,2.478,0,0,0,2.727.023V365q0,22.432.023,44.888c0,.727-.159.932-.909.932q-27.717-.034-55.456,0c-.727,0-.932-.136-.932-.909.023-7.818.023-15.614.023-23.432v-1.045c.955.955,1.75,1.773,2.568,2.568.273.273.159.591.159.886,0,6.114.023,12.2-.023,18.319,0,.7.159.864.864.864q25.057-.034,50.092,0c.7,0,.864-.159.864-.864q-.034-21.035-.023-42.069C234.547,364.841,234.547,364.523,234.547,364Z" transform="translate(-49.786 -122.414)" fill="#3d46c2"/>
      <path id="Trazado_175469" data-name="Trazado 175469" d="M371.966,232.618c0-1.591.023-3.182,0-4.773,0-.477.136-.636.591-.682a25.325,25.325,0,0,0,11.25-3.523.815.815,0,0,1,1,.091,25.9,25.9,0,0,0,8.409,3.114c.909.159,1.864.25,2.773.364.318.045.523.091.5.5-.091,3.591.318,7.227-.182,10.8-.977,7.046-4.932,11.818-11.546,14.432a1.446,1.446,0,0,1-1.068,0A17.744,17.744,0,0,1,371.966,236.8c-.023-1.386,0-2.8,0-4.182Z" transform="translate(-198.115 -13.851)" fill="#dce736"/>
      <path id="Trazado_175470" data-name="Trazado 175470" d="M182.726,282.15a12.586,12.586,0,0,0-2.386-.932c-.364-.091-.341-.3-.341-.545V270.445c0-.409.114-.568.523-.523a1.706,1.706,0,0,0,.341,0q19.6,0,39.183-.023c.7,0,.886.182.864.886-.045,1.864-.023,1.864-1.886,1.864q-17.728,0-35.433-.023c-.7,0-.886.159-.864.886C182.772,276.355,182.726,279.2,182.726,282.15Z" transform="translate(-49.785 -49.701)" fill="#3d46c2"/>
      <path id="Trazado_175471" data-name="Trazado 175471" d="M347.046,461.923c-1.455,1.636-2.773,3.114-4.068,4.591-.3.341-.432.023-.591-.136-.773-.75-1.545-1.5-2.3-2.3-.3-.318-.477-.341-.818-.023-1.591,1.5-1.591,1.477-.045,3.023,1.023,1.023,2.068,2.023,3.068,3.091.432.455.659.523,1.091,0,1.091-1.3,2.25-2.546,3.523-3.977v6.273c0,.341-.182.341-.432.341H336.432c-.341,0-.432-.114-.432-.432,0-3.341.023-6.7,0-10.046,0-.432.227-.432.523-.432C339.955,461.923,343.386,461.923,347.046,461.923Z" transform="translate(-170.331 -198.063)" fill="#75b62f"/>
      <path id="Trazado_175472" data-name="Trazado 175472" d="M288.234,230.282c-1.318,0-1.318,0-1.341-1.318a4.091,4.091,0,1,0-8.182,0c-.023,1.318-.023,1.318-1.341,1.318-1.409,0-1.409,0-1.386-1.432a6.819,6.819,0,0,1,13.637,0C289.643,230.282,289.643,230.282,288.234,230.282Z" transform="translate(-123.951 -12.765)" fill="#dce736"/>
      <path id="Trazado_175473" data-name="Trazado 175473" d="M301.253,248.85c-.591-.136-1.5.409-1.386-.909.114-1.2.5-1.841,1.386-1.841.909,0,1.3.636,1.386,1.932C302.731,249.418,301.685,248.577,301.253,248.85Z" transform="translate(-142.403 -31.31)" fill="#fdfdfd"/>
      <path id="Trazado_175474" data-name="Trazado 175474" d="M361.318,390a1.359,1.359,0,0,1,1.386,1.3,1.378,1.378,0,0,1-1.364,1.409A1.358,1.358,0,0,1,360,391.362,1.374,1.374,0,0,1,361.318,390Z" transform="translate(-188.876 -142.503)" fill="#e3e6ea"/>
      <path id="Trazado_175475" data-name="Trazado 175475" d="M316.075,308.727c-1.159,0-2.318-.023-3.477,0-.477.023-.614-.136-.614-.614-.023-2.114-.045-2.114,2.068-2.114,1.841,0,3.682.023,5.523,0,.477,0,.614.136.614.614.023,2.114.045,2.114-2.068,2.114Z" transform="translate(-151.77 -77.596)"/>
      <path id="Trazado_175476" data-name="Trazado 175476" d="M316,329.993c1.159,0,2.318.023,3.477,0,.5-.023.591.136.614.614.023,2.114.045,2.114-2.068,2.114-1.841,0-3.682-.023-5.523,0-.5,0-.591-.136-.614-.614-.023-2.114-.045-2.114,2.068-2.114Z" transform="translate(-151.692 -96.134)"/>
      <path id="Trazado_175477" data-name="Trazado 175477" d="M316.075,356.727c-1.159,0-2.318-.023-3.477,0-.477.023-.614-.136-.614-.614-.023-2.114-.045-2.114,2.068-2.114,1.841,0,3.682.023,5.523,0,.477,0,.614.136.614.614.023,2.114.045,2.114-2.068,2.114Z" transform="translate(-151.77 -114.687)"/>
      <path id="Trazado_175478" data-name="Trazado 175478" d="M254.727,511.332c0,1.3,0,1.3-1.341,1.3-1.386,0-1.386,0-1.386-1.341,0-1.386,0-1.386,1.341-1.386C254.727,509.9,254.727,509.9,254.727,511.332Z" transform="translate(-105.422 -235.154)"/>
      <path id="Trazado_175479" data-name="Trazado 175479" d="M278.727,511.347c0,1.364,0,1.364-1.364,1.364s-1.364,0-1.364-1.364,0-1.364,1.364-1.364C278.727,509.961,278.727,509.961,278.727,511.347Z" transform="translate(-123.968 -235.215)"/>
      <path id="Trazado_175480" data-name="Trazado 175480" d="M301.432,512.627c-1.432,0-1.432,0-1.432-1.386,0-1.341,0-1.341,1.3-1.341,1.432,0,1.432,0,1.432,1.386C302.727,512.627,302.727,512.627,301.432,512.627Z" transform="translate(-142.513 -235.154)"/>
      <path id="Trazado_175481" data-name="Trazado 175481" d="M402.682,255.446c.25,3.114-.955,4.341-4.136,4.136-1.318-.091-1.409,0-1.318,1.318.2,3.159-1.023,4.182-4.136,4.182-3.023,0-4.3-1.023-4.091-4.136.091-1.364,0-1.432-1.364-1.341-3.068.2-4.136-1-4.136-4.091,0-3.114,1.023-4.318,4.182-4.114,1.318.091,1.386,0,1.318-1.318-.2-3.182,1.023-4.182,4.114-4.182,3.068,0,4.3,1.046,4.091,4.136-.091,1.364,0,1.455,1.364,1.364C401.728,251.173,402.932,252.423,402.682,255.446Z" transform="translate(-207.035 -31.156)"/>
      <path id="Trazado_175482" data-name="Trazado 175482" d="M406.463,266.182c-.727.091-1.886-.386-2.386.182-.432.5-.114,1.614-.136,2.477,0,.773-.023,1.523,0,2.3.023.409-.136.5-.523.523-2.2.091-2.2.091-2.2-2.068,0-.886-.045-1.773.023-2.636.045-.682-.2-.8-.818-.773-1.364.045-2.727,0-4.091.023-.432,0-.568-.091-.591-.545-.068-2.182-.068-2.182,2.091-2.182.932,0,1.864-.023,2.818,0,.455.023.568-.114.568-.568-.023-1.409.023-2.841-.023-4.25-.023-.546.159-.659.659-.659,2.068,0,2.068-.023,2.068,2.045,0,.886.045,1.773-.023,2.636-.068.7.227.818.864.818,1.341-.045,2.659,0,4-.023.455,0,.614.091.636.591.045,2.136.045,2.136-2.046,2.136C407.1,266.182,406.849,266.182,406.463,266.182Z" transform="translate(-216.475 -40.505)" fill="#75b62f"/>
    </g>
  </g>
</svg>
