<svg xmlns="http://www.w3.org/2000/svg" width="104.249" height="105.045" viewBox="0 0 104.249 105.045">
  <g id="Grupo_118207" data-name="Grupo 118207" transform="translate(-498.07 -2416.914)">
    <g id="Grupo_118206" data-name="Grupo 118206">
      <g id="Grupo_118193" data-name="Grupo 118193" transform="translate(498.071 2416.914)">
        <g id="Grupo_118173" data-name="Grupo 118173" transform="translate(0 0)">
          <ellipse id="Elipse_6071" data-name="Elipse 6071" cx="52.124" cy="52.522" rx="52.124" ry="52.522" fill="#fff"/>
        </g>
      </g>
      <g id="ocupado_1_" data-name="ocupado (1)" transform="translate(400.046 2228.317)">
        <path id="Trazado_175631" data-name="Trazado 175631" d="M122.526,276.3a5.976,5.976,0,0,1-1.655-1,3.592,3.592,0,0,1-.941-2.634c.019-5,0-10.008.019-15.012,0-.489-.075-.771-.6-.978a2.16,2.16,0,0,1-1.449-2.126c-.038-.978-.019-1.975-.019-2.953a2.432,2.432,0,0,1,2.634-2.634h12.961c1.336,0,2.671-.019,4.026.019.47.019.564-.15.564-.583-.019-2.013-.019-4.045-.019-6.057a10.515,10.515,0,0,1,5.249-9.444c.075-.056.15-.113.263-.188a19.054,19.054,0,0,1-2.822-2.822,15.978,15.978,0,0,1,9.707-25.547c.376-.075.79,0,1.129-.245h3.236c1,.263,2.051.357,3.048.677a15.821,15.821,0,0,1,11.024,12.059c.263,1.072.094,1.392-.809,1.806-.357.245-.621.056-.884-.169a2.124,2.124,0,0,1-.583-1.242,13.628,13.628,0,0,0-26.845,1.016,13.67,13.67,0,0,0,8.089,14.3,13.019,13.019,0,0,0,7.788.922A13.542,13.542,0,0,0,166.6,222.893a2.725,2.725,0,0,1,.282-.941c.282-.433.6-.809,1.2-.527.884.4,1.035.715.809,1.806a16.029,16.029,0,0,1-5.587,9.2c-.094.075-.188.15-.32.263a12.091,12.091,0,0,1,2.935,2.408,10.479,10.479,0,0,1,2.6,6.885c.019,2.107.019,4.233,0,6.34,0,.527.132.658.658.64,5.55-.019,11.08-.019,16.63-.019,2.013,0,2.9.9,2.9,2.935,0,.865.019,1.731,0,2.615a2.261,2.261,0,0,1-1.524,2.22c-.489.169-.546.433-.546.865.019,4.91,0,9.82,0,14.73,0,2.314-.621,3.217-2.728,3.988H155.428a1.072,1.072,0,0,1-.865-1.2,1.346,1.346,0,0,1,1.411-1.129c.32-.019.658-.019.978-.019H182.33c1.75,0,1.9-.151,1.9-1.862V258.41c0-1.2,0-1.2-1.223-1.2H128.433a7.614,7.614,0,0,1-.922-.019c-1.43.038-2.859,0-4.289.019-.809,0-.865.056-.865.884v14.429c0,1.148.282,1.43,1.411,1.43,1.336.019,2.671,0,4.007.019q11.315-.028,22.631,0c1,0,1.336.263,1.637,1.129a1.072,1.072,0,0,1-.865,1.2Z" transform="translate(-3.146 -0.081)"/>
        <path id="Trazado_175632" data-name="Trazado 175632" d="M298.318,581.534a1.442,1.442,0,0,0,.715,1H294.8a1.442,1.442,0,0,0,.715-1A4.1,4.1,0,0,1,298.318,581.534Z" transform="translate(-146.788 -306.312)" fill="#fdfdfd"/>
        <path id="Trazado_175633" data-name="Trazado 175633" d="M318.752,231.656c-.809.019-1.11.527-1.26,1.242-1.279,5.756-4.835,9.331-10.516,10.855a3.5,3.5,0,0,1-.621.075,4.9,4.9,0,0,1-2.822-1.5c-.075-.056-.056-.169,0-.263a4.2,4.2,0,0,1,1.449-.263,11.558,11.558,0,0,0,10.064-8.2,11.282,11.282,0,0,0-2.784-11.4,10.681,10.681,0,0,0-7.2-3.461,5.289,5.289,0,0,1-1.524-.263.193.193,0,0,1,.019-.3,4.909,4.909,0,0,1,2.8-1.467,13.157,13.157,0,0,1,8.672,5.324,12.741,12.741,0,0,1,2.446,5.606c.132.734.452,1.223,1.26,1.242C318.752,229.793,318.752,230.734,318.752,231.656Z" transform="translate(-153.828 -10.311)" fill="#75b62f"/>
        <path id="Trazado_175634" data-name="Trazado 175634" d="M195.011,503.442a23.215,23.215,0,0,0-2.8,0c-.169-.884-.451-1.11-1.392-1.11h-21.9c-.282,0-.564-.019-.847-.019a.878.878,0,0,1-.489-.79,9.847,9.847,0,0,1-.019-1.053V486.342a1.759,1.759,0,0,1,.226-1.223c.226,0,.47-.019.7-.019h55.4c.922,0,.922,0,.922.9v14.655c0,1.373-.32,1.693-1.693,1.693H196.478C195.462,502.332,195.18,502.558,195.011,503.442Z" transform="translate(-43.481 -228.219)" fill="#f85316"/>
        <path id="Trazado_175635" data-name="Trazado 175635" d="M264.409,364.9a16.149,16.149,0,0,0,11.043-.263,2.6,2.6,0,0,0,.771-.339,1.813,1.813,0,0,1,2.257.113,8.55,8.55,0,0,1,4.27,7.261c.019.64-.019,1.279.019,1.9.019.376-.132.47-.489.47-1.072-.019-2.163-.019-3.236,0-.376,0-.489-.132-.489-.489.019-.771.019-1.543,0-2.333,0-.847-.376-1.3-1.053-1.279-.677,0-1.053.47-1.053,1.317,0,2.257-.019,4.515.019,6.772,0,.564-.15.7-.7.7-4.082-.019-8.183-.019-12.265,0-.527,0-.677-.132-.658-.658.038-2.239.019-4.458.019-6.7,0-1.129-.414-1.486-1.5-1.373a.633.633,0,0,1-.113-.715,9.124,9.124,0,0,1,2.352-4.139A.612.612,0,0,1,264.409,364.9Z" transform="translate(-119.501 -129.858)" fill="#3d46c2"/>
        <path id="Trazado_175636" data-name="Trazado 175636" d="M217.688,454.04a14.578,14.578,0,0,1,.094,3.386c0,.056-.132.113-.207.15a2.112,2.112,0,0,1-.771.056H157.433c-1,0-1.035-.038-1.053-1.016,0-.677-.019-1.354.019-2.051.019-.414.207-.658.658-.6a3.036,3.036,0,0,0,.414,0h59.371A2.587,2.587,0,0,1,217.688,454.04Z" transform="translate(-34.403 -202.935)" fill="#f85316"/>
        <path id="Trazado_175637" data-name="Trazado 175637" d="M145.418,485.01V501a2.044,2.044,0,0,0,.282,1.2c-1.486,0-2.953.019-4.44.019A1.133,1.133,0,0,1,140.019,501c-.019-5.173,0-10.328-.019-15.5,0-.414.15-.527.546-.508C142.182,485.01,143.8,485.01,145.418,485.01Z" transform="translate(-21.109 -228.13)" fill="#f85316"/>
        <path id="Trazado_175638" data-name="Trazado 175638" d="M248.887,215.5a8.387,8.387,0,0,0-2.859,1.731c-.132.3-.414.282-.658.3a10.9,10.9,0,0,0-5.945,2.333,11.588,11.588,0,0,0,6.039,20.731c.226.019.47.038.6.3a8.57,8.57,0,0,0,2.859,1.731,12.932,12.932,0,0,1-9.632-1.806,13.8,13.8,0,0,1,4.985-25.4A11.209,11.209,0,0,1,248.887,215.5Z" transform="translate(-96.341 -9.112)" fill="#75b62f"/>
        <path id="Trazado_175639" data-name="Trazado 175639" d="M244.095,364.883c-.47-.038-.715.339-.959.621a7.71,7.71,0,0,0-2.145,4.5,1.327,1.327,0,0,0-.6,1.26c.038.752,0,1.5.019,2.257.019.376-.075.546-.508.546-1.072-.019-2.163-.019-3.236,0-.245,0-.451.019-.47-.339-.113-2.521.113-4.929,1.731-7.017a8.572,8.572,0,0,1,3.311-2.652.935.935,0,0,1,.809-.056C242.722,364.3,243.4,364.582,244.095,364.883Z" transform="translate(-99.187 -129.843)" fill="#3d46c2"/>
        <path id="Trazado_175640" data-name="Trazado 175640" d="M195.447,453.74H135.512c-1.317,0-1.129-.169-1.148,1.166,0,.583.019,1.185,0,1.768-.019.47.169.64.621.583a5.642,5.642,0,0,1,.564,0h58.806c.32,0,.658.019.978.019a1.3,1.3,0,0,1-.752.075H130.018c-1.016,0-1.016,0-1.016-1,0-.677.038-1.373-.019-2.051-.038-.583.207-.715.734-.715,1.768.019,3.518,0,5.286,0h59.559C194.863,453.627,195.183,453.5,195.447,453.74Z" transform="translate(-12.162 -202.634)" fill="#f85316"/>
        <path id="Trazado_175641" data-name="Trazado 175641" d="M238.2,431.458h-.263c-.621-.038-1.561.282-1.787-.132-.32-.546-.094-1.392-.113-2.126,0-.263.132-.3.339-.3H239.9c.226,0,.357.075.339.32v.132c-.038.677.282,1.561-.113,1.956C239.672,431.759,238.788,431.4,238.2,431.458Z" transform="translate(-99.034 -182.592)" fill="#feb09f"/>
        <path id="Trazado_175642" data-name="Trazado 175642" d="M355.518,431.539h-.433c-.6-.038-1.524.263-1.731-.113a5.24,5.24,0,0,1-.132-2.126c-.019-.32.207-.3.433-.3h3.367c.3,0,.451.075.4.4v.075c-.019.677.226,1.561-.113,1.956C356.948,431.84,356.026,431.463,355.518,431.539Z" transform="translate(-194.187 -182.672)" fill="#fecdbd"/>
        <path id="Trazado_175643" data-name="Trazado 175643" d="M254.738,249.647a13.036,13.036,0,0,1-5.474-1.637,11.781,11.781,0,0,1,4.214-21.86c.414-.056.828-.094,1.26-.15a12.138,12.138,0,0,1,8.221,2.972,11.768,11.768,0,0,1-6.735,20.58C255.716,249.59,255.227,249.609,254.738,249.647Z" transform="translate(-105.052 -17.861)"/>
        <path id="Trazado_175644" data-name="Trazado 175644" d="M273.993,238.53a5.763,5.763,0,0,1,1.467-.451c.47-.132.865-.245,1.016.47a.847.847,0,0,0,.959.546.9.9,0,0,0,.884-.677c.094-.47.32-.451.7-.4A9.724,9.724,0,0,1,286.9,245.9c.075.357.075.583-.4.7a1.018,1.018,0,0,0,0,1.919c.451.113.47.3.4.7a9.724,9.724,0,0,1-7.882,7.882c-.357.075-.583.075-.7-.4a1.019,1.019,0,0,0-1.938.056c-.094.4-.282.433-.583.339a7.638,7.638,0,0,1-1.806-.527,5.978,5.978,0,0,1-1.693-2.389,14.867,14.867,0,0,1,.922-14.843A2.128,2.128,0,0,1,273.993,238.53Z" transform="translate(-127.26 -27.589)" fill="#dce736"/>
        <path id="Trazado_175645" data-name="Trazado 175645" d="M261.216,240.9a14.781,14.781,0,0,0-.376,17.458c.132.188.263.4.376.583a9.458,9.458,0,0,1-6.17-7.506c-.056-.32.019-.451.357-.527a1.028,1.028,0,0,0-.019-1.975c-.339-.075-.414-.207-.357-.527A9.546,9.546,0,0,1,261.216,240.9Z" transform="translate(-114.483 -29.958)" fill="#dce736"/>
        <path id="Trazado_175646" data-name="Trazado 175646" d="M291.194,253.2c0-.47-.019-.941,0-1.411a1.046,1.046,0,1,1,2.088.019c.038.865.019,1.731,0,2.6a.62.62,0,0,0,.376.658,2.612,2.612,0,0,1,1.354,1.373.6.6,0,0,0,.658.376c.508-.019,1.035-.019,1.543,0a1.057,1.057,0,0,1,1.053,1.016.973.973,0,0,1-1.016,1.035,3.245,3.245,0,0,0-3.048,1.317c-1.129,1.317-3.311,1-4.421-.357a3.036,3.036,0,0,1,.508-4.421,1.7,1.7,0,0,0,.865-1.881,1.493,1.493,0,0,0,.038-.32Z" transform="translate(-142.128 -37.915)"/>
        <path id="Trazado_175647" data-name="Trazado 175647" d="M302.71,284.376a1.007,1.007,0,1,1-1.035-.978A.974.974,0,0,1,302.71,284.376Z" transform="translate(-151.575 -64.461)" fill="#fd5494"/>
      </g>
    </g>
  </g>
</svg>
