<svg xmlns="http://www.w3.org/2000/svg" width="131" height="132" viewBox="0 0 131 132">
  <g id="Grupo_118200" data-name="Grupo 118200" transform="translate(-734.5 -762.912)">
    <g id="Grupo_118199" data-name="Grupo 118199">
      <g id="Grupo_118198" data-name="Grupo 118198">
        <g id="Grupo_118185" data-name="Grupo 118185" transform="translate(734.5 762.913)">
          <g id="Grupo_118173" data-name="Grupo 118173" transform="translate(0 -0.001)">
            <ellipse id="Elipse_6071" data-name="Elipse 6071" cx="65.5" cy="66" rx="65.5" ry="66" fill="#fff"/>
          </g>
        </g>
      </g>
      <g id="medicina_1_" data-name="medicina (1)" transform="translate(642.481 582.028)">
        <path id="Trazado_175484" data-name="Trazado 175484" d="M224.917,226.769v2.486c-.316.337-.737.232-1.116.232h-9.543c-1.475,0-1.727.274-1.748,1.748a7.43,7.43,0,0,0,4.3,7.225,1.283,1.283,0,0,1,.779,1.243c0,1.411.021,2.844,0,4.255a8.051,8.051,0,0,0,1.348,4.7c.147.232.442.484.295.779-.147.337-.548.253-.843.253-2.949,0-5.9,0-8.847.021a2.1,2.1,0,0,1-1.538-.653c-1.748-1.748-3.539-3.455-5.224-5.266a3.661,3.661,0,0,0-5.266.211,3.528,3.528,0,0,0,.021,4.508c2.423,2.507,4.929,4.971,7.415,7.436a3.459,3.459,0,0,0,2.528.927c2.612,0,5.2-.021,7.815,0,.358,0,.8-.042.948.4.126.421.211.885-.253,1.2a2.763,2.763,0,0,1-1.011.105H199.6a2.34,2.34,0,0,1-1.074-.147c-.442-.379-.295-.927-.316-1.39-.021-2.191-.105-2.275-2.254-2.275-1.159,0-2.317-.021-3.476,0-1.032.021-1.327.358-1.39,1.39a5.456,5.456,0,0,1-.147,1.938.544.544,0,0,1-.569.19,16.043,16.043,0,0,1-3.834-.99.521.521,0,0,1-.316-.316,3.822,3.822,0,0,0,.611-2.528c-.042-1.138,0-2.254-.021-3.391-.021-.99-.358-1.327-1.327-1.369-.927-.042-1.833-.021-2.76-.021-.653,0-.948-.316-.948-.969,0-.864.021-1.727,0-2.591-.021-1.138-.358-1.475-1.454-1.5-1.39-.021-2.781.021-4.171-.021a3.54,3.54,0,0,0-1.664.611.7.7,0,0,1-.379-.463,19.021,19.021,0,0,1-1.138-6.13,1.2,1.2,0,0,1,.084-.463c.169-.295.484-.274.758-.295a7.35,7.35,0,0,1,1.18,0,1.84,1.84,0,0,0,2-1.074c.19-.337.379-.822.822-.758.463.042.463.569.59.927.4,1.159.779,2.338,1.18,3.518.169.506.358,1.011.99,1.116s.969-.295,1.285-.716c.716-.969,1.453-1.938,2.191-2.907.569-.737.779-.758,1.432-.105,1.138,1.116,2.275,2.275,3.413,3.391.948.927,1.517.948,2.486.021.822-.779,1.6-1.6,2.4-2.4.59-.569.8-.569,1.39-.021.337.316.653.674,1.011.99a1.211,1.211,0,0,0,1.98-.021c1.264-1.222,2.507-2.465,3.729-3.75a2.3,2.3,0,0,1,1.9-.779,17.923,17.923,0,0,0,2.128,0,1.045,1.045,0,1,0,.021-2.085c-1.243-.042-2.465-.042-3.707,0a1.726,1.726,0,0,0-1.138.632c-1.1,1.1-2.191,2.212-3.307,3.286-.527.506-.843.463-1.327-.063a.7.7,0,0,1-.042-1.032,3.783,3.783,0,0,0-.527-5.2,3.823,3.823,0,0,0-4.866-.337c-.927.674-.927.674-1.833.021a3.906,3.906,0,0,0-6.109,3.96,1.733,1.733,0,0,1-.337,1.622c-.358.421-.653.906-1.011,1.306-.463.548-.737.506-.99-.169-.442-1.243-.843-2.486-1.264-3.75a7.578,7.578,0,0,0-.253-.737,1.077,1.077,0,0,0-1.98-.274c-.632.843-1.159,1.748-1.769,2.612a1.743,1.743,0,0,1-2.528.19c-.169-1.6-.042-3.2-.084-4.782-.021-.948,0-1.9,0-2.823a1.563,1.563,0,0,1,.232-1.053,1.814,1.814,0,0,1,1.138-.211h49.5C224.137,226.5,224.58,226.411,224.917,226.769Z" transform="translate(-44.038 -15.252)" fill="#dee4f0"/>
        <path id="Trazado_175485" data-name="Trazado 175485" d="M304.376,269.228c.063-1.264.063-1.264-1.18-1.264-2.444,0-4.887-.021-7.331,0a4.2,4.2,0,0,1-3.181-1.306c-2.191-2.233-4.424-4.424-6.636-6.635a3.784,3.784,0,1,1,5.329-5.351l5.308,5.308a1.233,1.233,0,0,0,.948.442c3.16-.021,6.32,0,9.458-.021.126,0,.232-.021.506-.021a8.665,8.665,0,0,1-1.938-6.551c.042-1.138,0-2.254.021-3.391a.683.683,0,0,0-.484-.758c-3.181-1.411-4.908-4.36-4.571-8.3.063-.779.59-1.159,1.5-1.159h10.259c.295,0,.569-.021.864-.021a24.128,24.128,0,0,1,2.444.147,6.337,6.337,0,0,1,5.14,6.046c.021.779.021,1.58,0,2.359,0,1.011-.253,1.327-1.264,1.6a1.878,1.878,0,0,1-1.222.211h-8.805c-1.074,0-1.116.042-1.116,1.1,0,.442,0,.885-.021,1.39a1.612,1.612,0,0,1,1.791-.211,1.433,1.433,0,0,1,.653,1.643,1.412,1.412,0,0,1-1.285,1.1,1.192,1.192,0,0,1-1.2-.632c.042,2.254.885,4,3.1,4.908a4.812,4.812,0,0,0,6.635-4.4,11.824,11.824,0,0,1,.042-1.5,1.169,1.169,0,0,1,1.432-1.116c.99.274,1.243.59,1.264,1.6a8.177,8.177,0,0,1-1.917,6c1.053,0,2,.021,2.949,0a6.124,6.124,0,0,1,3.054.674,6,6,0,0,1,3.476,5.414c.084,5.077.021,10.153.021,15.23a1.32,1.32,0,0,1-1.264,1.432,1.367,1.367,0,0,1-.906.232H297.235c-.105,0-.211-.021-.316-.021a22.668,22.668,0,0,1-2.675-.021c-.948-.084-1.411-.653-1.243-1.475.253-.99.59-1.264,1.6-1.264,3.054,0,6.109-.021,9.142,0,.506,0,.674-.105.653-.632-.042-1.053-.021-2.107-.042-3.16a5.279,5.279,0,0,1-.063-3.076,1.3,1.3,0,0,1,1.39-.927,1.529,1.529,0,0,1,1.453,1.727c.042,1.58,0,3.16.021,4.74,0,1.032.042,1.074,1.074,1.074H319.5c.99,0,1.053-.063,1.053-1.1v-9.458a1.938,1.938,0,0,1,.653-1.769c1.327-.59,2.338,0,2.359,1.453.042,2.844.042,5.688,0,8.51.021.569,0,1.138,0,1.727,0,.463.211.674.674.653.232,0,.463-.021.7,0,.506.021.7-.253.7-.716,0-.527-.021-1.053,0-1.559-.021-3.623,0-7.246,0-10.87,0-2.612-1.432-4.045-4.044-4.066h-3.391c-.843,0-.927.063-.927.885a4.327,4.327,0,0,1-.716,2.38,2.019,2.019,0,0,0-.211,1.517c.295,2.3.569,4.592.864,6.867a2.183,2.183,0,0,1-.316,1.727q-1.169,1.232-2.4,2.4a1.6,1.6,0,0,1-2.507,0c-.737-.674-1.411-1.411-2.128-2.107a2.028,2.028,0,0,1-.59-1.791c.316-2.422.59-4.866.927-7.289a1.857,1.857,0,0,0-.295-1.411,3.775,3.775,0,0,1-.674-2.233c-.021-.927-.063-.969-1.011-.969-3.6,0-7.2-.021-10.806.021a2.977,2.977,0,0,1-2.38-.99c-.674-.737-1.432-1.411-2.107-2.128-.442-.484-.822-.484-1.222.021a2.549,2.549,0,0,1-.337.337c-.442.379-.4.737.021,1.116,1.053,1.032,2.085,2.064,3.118,3.118a2.153,2.153,0,0,0,1.643.59c2.949-.021,5.9,0,8.847,0,1.706,0,2.149.442,2.149,2.17,0,.548.021,1.1,0,1.664a1.478,1.478,0,0,1-1.453,1.643C304.608,270.513,304.229,270.091,304.376,269.228Z" transform="translate(-132.365 -26.154)"/>
        <path id="Trazado_175486" data-name="Trazado 175486" d="M188.952,262.482c-.99.253-1.243.59-1.264,1.559,0,.758-.021,1.5-.021,2.254h-2.486a2.608,2.608,0,0,0-2.528-1.032q-21.866.032-43.71.021c-2.043,0-2.043,0-2.043-2.064V228.736c0-1.833.042-1.854,1.833-1.854h4.887a1.351,1.351,0,0,1,1.116.274v8.784c-1.432.906-1.432,1.664,0,2.57a20.47,20.47,0,0,0,1.285,7.12,1.246,1.246,0,0,1,.211.906c.021.716,0,1.411,0,2.128,0,1.306-.126,1.411-1.475,1.432-.716,0-1.411-.021-2.128,0-1.074.042-1.432.358-1.453,1.432-.021,1.411-.021,2.844,0,4.255.021,1.032.379,1.369,1.39,1.39.885.021,1.791,0,2.675.021a.851.851,0,0,1,.969.969c0,.885-.021,1.791.021,2.675.021,1.032.379,1.369,1.39,1.39,1.411.021,2.844.021,4.255,0,1.053-.021,1.39-.358,1.432-1.453.021-.843-.021-1.685.021-2.528.021-.843.211-1.032,1.032-1.053.885-.021,1.791-.021,2.675,0a1.047,1.047,0,0,1,.737.211,22.881,22.881,0,0,0,4.592,1.138c.421.442.253.99.253,1.5.021,2.107.105,2.212,2.233,2.212,1.159,0,2.3.021,3.455,0,1.074-.021,1.369-.358,1.432-1.432.042-.716-.232-1.475.253-2.128h17.632a1.365,1.365,0,0,0,1.285,1.285A2.769,2.769,0,0,1,188.952,262.482Z" transform="translate(-15.656 -15.639)" fill="#d2e1f1"/>
        <path id="Trazado_175487" data-name="Trazado 175487" d="M136.211,218.649c-2.359,0-4.74,0-7.1-.042-.379,0-.527.126-.484.506a2.534,2.534,0,0,1,0,.4q0,18.074-.021,36.148c0,.758.253.885.927.885q22.687-.032,45.374-.021c1.18,0,1.475.232,1.748,1.264-.274.99-.59,1.264-1.6,1.264H127.7c-1.18,0-1.6-.442-1.6-1.622V217.722c0-1.2.421-1.622,1.6-1.622h59.994a1.371,1.371,0,0,1,1.432.737,1.181,1.181,0,0,1-.169,1.327,1.394,1.394,0,0,1-.969.485c-.211,0-.421-.021-.632-.021H136.822C136.633,218.628,136.422,218.628,136.211,218.649Z" transform="translate(-7.131 -7.131)"/>
        <path id="Trazado_175488" data-name="Trazado 175488" d="M341.591,444.021c.316,0,.632-.021.948-.021h28.5c.295,0,.569.021.864.021,0,4.634-.021,9.269-.021,13.882a1.329,1.329,0,0,1-.969.211c-4.95,0-9.88.105-14.83-.021a14.413,14.413,0,0,1-9.753-4.066,19.726,19.726,0,0,1-2.254-2.528,5.3,5.3,0,0,1-.948-1.5,18.81,18.81,0,0,1-1.517-4.613C341.527,444.948,341.317,444.484,341.591,444.021Z" transform="translate(-177.121 -187.024)" fill="#afafaf"/>
        <path id="Trazado_175489" data-name="Trazado 175489" d="M272.7,453.63c.253.421.506.822.779,1.243a9.1,9.1,0,0,1,1.5,5.14q.032,1.3,0,2.591c-.042,1.053-.59,1.727-1.6,1.6-1.685-.211-2.654.358-3.033,2.043a5.483,5.483,0,0,1-.885,1.5c1.9-.484,4.023.253,4.424,1.369,1.285,1.6.906,3.5.843,5.287a1.079,1.079,0,0,1-1.222.99,1.3,1.3,0,0,1-1.285-1.243,5.852,5.852,0,0,1-.211-2.486c-.295-.885-.527-1.032-1.58-1.053-2.781-.021-5.54,0-8.321,0-1.116,0-2.254.021-3.37-.021-.8.021-1.622,0-2.422,0-1.159.021-1.454.337-1.517,1.5a4.291,4.291,0,0,1-.211,2.064c-.253.906-.737,1.348-1.432,1.243-.716-.084-1.1-.632-1.116-1.559,0-.758-.021-1.517,0-2.3a3.791,3.791,0,0,1,3.729-3.729c.611-.021,1.2,0,1.938,0a8.825,8.825,0,0,1-1.748-3.6c-.063-.316-.337-.19-.527-.19-.716-.021-1.411.021-2.128-.021a1.158,1.158,0,0,1-1.264-1.159c-.063-2.233-.19-4.487.7-6.614a11.333,11.333,0,0,1,10.638-7.415c.716-.421,1.453-.105,2.149.021a11.273,11.273,0,0,1,6.551,3.75C272.317,452.935,272.465,453.314,272.7,453.63Z" transform="translate(-106.499 -190.65)"/>
        <path id="Trazado_175490" data-name="Trazado 175490" d="M127.4,458.514c-.906-.253-1.327-.737-1.243-1.432.084-.716.632-1.116,1.559-1.116,4.95,0,9.88-.021,14.83,0a6.316,6.316,0,0,1,6.362,6.362,7.454,7.454,0,0,1-.4,3.181,5.155,5.155,0,0,1-2.886,2.76c-.232.105-.463.126-.506.484a8.6,8.6,0,0,1-1.833,4.908c.674,0,1.285-.021,1.9,0a3.791,3.791,0,0,1,3.729,3.729c.021.758,0,1.517,0,2.3,0,.927-.4,1.475-1.116,1.559-.7.084-1.2-.337-1.432-1.243a5.851,5.851,0,0,1-.211-2.486c-.295-.885-.527-1.032-1.58-1.053-2.781-.021-5.54,0-8.321,0-1.116,0-2.254.021-3.37-.021-.8.021-1.622,0-2.423,0-1.159.021-1.453.337-1.517,1.5A4.291,4.291,0,0,1,128.73,480c-.253.906-.737,1.348-1.432,1.243-.716-.084-1.1-.632-1.116-1.559,0-.758-.021-1.517,0-2.3a3.791,3.791,0,0,1,3.729-3.729c.611-.021,1.243,0,1.98,0a7.779,7.779,0,0,1-1.917-5.245c0-.4-.253-.463-.506-.611a6.206,6.206,0,0,1-3.286-5.161c-.084-1.032.232-1.39,1.243-1.664.843-.147,1.369.274,1.475,1.264a3.938,3.938,0,0,0,1.074,2.465,3.412,3.412,0,0,0,2.528,1.1q5.561.032,11.122,0a2.3,2.3,0,0,0,2.528-2.338c-.021-.337,0-.674,0-1.032a3.584,3.584,0,0,0-3.729-3.729c-3.391-.021-6.783,0-10.153,0h-.948c-.99.042-2,.021-2.991.021A1.357,1.357,0,0,1,127.4,458.514Z" transform="translate(-7.171 -196.461)"/>
        <path id="Trazado_175491" data-name="Trazado 175491" d="M337.7,492.719c-1.285-1.39-2.97-1.369-4.8-1.264A8.616,8.616,0,0,0,334.627,488c.084-.379.337-.337.59-.337h1.959a1.286,1.286,0,0,0,1.411-1.411A15.57,15.57,0,0,0,337.3,478.5c.779.822,1.432,1.727,2.254,2.507a15.088,15.088,0,0,0,8.447,4,18.817,18.817,0,0,0,2.675.126q7.2.032,14.43.021c0,2.085.021,4.192.021,6.277-.379.379-.885.274-1.348.274-7.141,0-14.282.021-21.423,0a2.591,2.591,0,0,0-2.528,1.032C339.135,492.719,338.419,492.719,337.7,492.719Z" transform="translate(-170.368 -214.256)" fill="#636363"/>
        <path id="Trazado_175492" data-name="Trazado 175492" d="M365.9,541.185c.253-1.011.569-1.264,1.664-1.264h22.687c.316,0,.632-.021.948-.021.906.232,1.327.737,1.243,1.432-.084.716-.632,1.117-1.559,1.117h-23.4C366.49,542.428,366.153,542.175,365.9,541.185Z" transform="translate(-196.417 -262.722)"/>
        <path id="Trazado_175493" data-name="Trazado 175493" d="M132.1,468.1h3.96a2.029,2.029,0,0,1,.484.885,6.033,6.033,0,0,0,5.94,3.9c2.465.021,4.95,0,7.415,0a1.554,1.554,0,0,1,1.138.211,2.482,2.482,0,0,1-2.465,2.528c-3.834.021-7.689.021-11.523,0a3.714,3.714,0,0,1-3.644-3.56,1.4,1.4,0,0,0-1.285-1.517C132.1,469.743,132.1,468.922,132.1,468.1Z" transform="translate(-11.867 -206.047)" fill="#b0c0d2"/>
        <path id="Trazado_175494" data-name="Trazado 175494" d="M411.378,294.134c-.99.253-1.264.59-1.264,1.58a9.51,9.51,0,0,1-.147,2.191,4.986,4.986,0,0,1-6.8,3.392,5.623,5.623,0,0,1-2.043-3.729.9.9,0,0,1,.147-.885c1.348-.358,1.622-1.222.758-2.359a2.887,2.887,0,0,1,2.591-1.643c2.043-.147,4.108-.063,6.151-.042a.8.8,0,0,1,.569.211C411.357,293.313,411.357,293.734,411.378,294.134Z" transform="translate(-224.179 -67.513)" fill="#ffd4a2"/>
        <path id="Trazado_175495" data-name="Trazado 175495" d="M155.73,553.142v2.528H138.1c0-.8-.042-1.622-.021-2.422a1.252,1.252,0,0,1,1.369-1.369c.906-.021,1.833.021,2.738.021,1.264,1.053,2.781,1.032,4.318,1.011,2.7-.042,5.393-.021,8.11,0A1.513,1.513,0,0,1,155.73,553.142Z" transform="translate(-16.581 -272.172)" fill="#f85316"/>
        <path id="Trazado_175496" data-name="Trazado 175496" d="M281.63,553.142v2.528H264c0-.8-.042-1.622-.021-2.422a1.252,1.252,0,0,1,1.369-1.369c.906-.021,1.833.021,2.738.021,1.264,1.053,2.781,1.032,4.318,1.011,2.7-.042,5.393-.021,8.11,0A1.494,1.494,0,0,1,281.63,553.142Z" transform="translate(-115.96 -272.172)" fill="#f85316"/>
        <path id="Trazado_175497" data-name="Trazado 175497" d="M315.325,445.11a15.381,15.381,0,0,0-3.349-3.054,11.96,11.96,0,0,0-5.982-1.727c0-.653.042-1.306,0-1.959-.021-.463.147-.569.569-.569,1.074.021,2.128,0,3.2,0,.232.99.569,1.264,1.559,1.264.758,0,1.517.021,2.275.021A20.232,20.232,0,0,0,315.325,445.11Z" transform="translate(-149.128 -182.13)" fill="#afafaf"/>
        <path id="Trazado_175498" data-name="Trazado 175498" d="M407.248,289.264c-1.727,0-3.476.063-5.2-.021a4.861,4.861,0,0,0-4.129,1.475,1.5,1.5,0,0,0-2.022.611c0-1.074.021-1.959,0-2.865-.021-.4.169-.463.527-.463,3.623.021,7.246.021,10.849.021C407.269,288.442,407.269,288.864,407.248,289.264Z" transform="translate(-220.091 -63.885)" fill="#ffd4a2"/>
        <path id="Trazado_175499" data-name="Trazado 175499" d="M169.44,250.315c-.758-.126-1.264-.506-1.243-1.327.021-.779.527-1.138,1.243-1.243a2.223,2.223,0,0,0,2.823-1.411,13.747,13.747,0,0,1,1.074-1.643,1.283,1.283,0,0,1,2.4.316c.548,1.643,1.1,3.286,1.706,5.14.674-.906,1.285-1.706,1.875-2.528.147-.211-.042-.4-.084-.59a4.185,4.185,0,0,1,1.812-4.592,4.043,4.043,0,0,1,4.908.442c.358.316.548.295.906,0a4.1,4.1,0,0,1,6,5.54c-.421.569.021.7.253.99.337.442.569.126.8-.105,1.159-1.159,2.317-2.3,3.455-3.476a1.855,1.855,0,0,1,1.475-.611c1.1.021,2.212,0,3.307.021a1.283,1.283,0,0,1,1.411,1.264c0,.737-.548,1.222-1.432,1.264h-.147a4.83,4.83,0,0,0-5.077,2.107,28.678,28.678,0,0,1-2.38,2.423,1.311,1.311,0,0,1-2.128,0c-.042-.042-.063-.084-.105-.105-.527-.463-.948-1.369-1.559-1.327-.527.021-.99.843-1.475,1.327-.548.527-1.074,1.074-1.622,1.622-.927.906-1.5.927-2.4.021-1.369-1.369-2.76-2.76-4.171-4.192-.948,1.264-1.875,2.465-2.781,3.686a1.388,1.388,0,0,1-1.432.758c-.653-.126-.927-.611-1.116-1.2-.506-1.538-1.032-3.076-1.58-4.74-.337.484-.632.864-.864,1.264a1.688,1.688,0,0,1-1.685.927A15,15,0,0,0,169.44,250.315Z" transform="translate(-40.36 -27.422)" fill="#2f2f31"/>
        <path id="Trazado_175500" data-name="Trazado 175500" d="M173.031,324.692c-.316,0-.632.021-.948.021a23.139,23.139,0,0,0-3.2.084,31.219,31.219,0,0,0-.063,3.139v.4a1.283,1.283,0,0,1-1.411,1.432q-2.37.032-4.74,0c-.969,0-1.411-.484-1.432-1.475s-.021-2,0-2.991c.021-.442-.126-.59-.569-.569-.99.021-2,.021-2.991,0-1.032-.021-1.475-.463-1.475-1.517v-4.571c0-1.032.463-1.475,1.5-1.5.885,0,1.791-.042,2.675.021.653.042.927-.105.885-.843-.063-1.116,0-2.254,0-3.391a1.559,1.559,0,0,1,1.559-.843c1.5.042,2.991,0,4.487.021,1.032,0,1.5.463,1.5,1.5.021,1.032.021,2.043,0,3.076,0,.379.105.506.484.484,1.032-.021,2.043-.021,3.076,0s1.475.463,1.5,1.5c0,1.475-.021,2.949.021,4.424A1.623,1.623,0,0,1,173.031,324.692Z" transform="translate(-30.891 -82.904)" fill="#2f2f31"/>
        <path id="Trazado_175501" data-name="Trazado 175501" d="M265.526,363.733c0,.758-.021,1.517-.021,2.275-.021,1.032-.463,1.5-1.475,1.517-1.538.021-3.1.021-4.634,0-1.011,0-1.454-.463-1.475-1.517-.021-.822-.021-1.622-.021-2.444,0-.737.021-1.475.021-2.191a1.287,1.287,0,0,1,1.39-1.432c1.6-.021,3.2-.021,4.782,0,.906,0,1.369.484,1.39,1.432C265.526,362.153,265.526,362.953,265.526,363.733Z" transform="translate(-111.167 -120.659)" fill="#2f2f31"/>
        <path id="Trazado_175502" data-name="Trazado 175502" d="M327.751,344.507v-2.486c.99-.274,1.264-.59,1.264-1.6v-1.812c0-1.243-.4-1.664-1.643-1.664-3.1,0-6.214-.021-9.311,0a2.054,2.054,0,0,1-1.6-.653c-1.138-1.18-2.3-2.317-3.455-3.455-.295-.295-.4-.484-.021-.8.506-.421.927-1.18,1.453-1.243.4-.042.969.716,1.348,1.222,1.475,2.022,3.391,2.612,5.856,2.444,3.054-.211,6.151-.042,9.227-.063.548,0,.758.105.716.7a3.9,3.9,0,0,0,.885,3.012.68.68,0,0,1,.126.653c-.337,2.612-.653,5.2-1.011,7.815a1.649,1.649,0,0,0,.485,1.517c.758.737,1.475,1.5,2.233,2.233a1.311,1.311,0,0,0,2.128-.021c.8-.758,1.58-1.538,2.359-2.317.7-.021,1.18.484,1.812.674.737.232.843.211.843-.548.021-1.959,0-3.918,0-5.9a2.868,2.868,0,0,1,1.1-2.4c.253-.19.548-.442.906-.168a1.961,1.961,0,0,0-.527,1.5c.021,3.391,0,6.783.021,10.174,0,.632-.169.779-.779.779q-6.193-.032-12.386,0c-.59,0-.758-.126-.758-.737.042-1.77.021-3.518.021-5.287C328.994,345.076,328.741,344.76,327.751,344.507Z" transform="translate(-154.455 -97.663)" fill="#3d46c2"/>
        <path id="Trazado_175503" data-name="Trazado 175503" d="M438.184,353.24a2.313,2.313,0,0,0-1.791,2.359c-.021,2.191-.021,4.361,0,6.551,0,.611-.169.737-.716.506a12.416,12.416,0,0,1-2.191-1.074c.653-.864.232-1.791.147-2.675-.232-2.191-.527-4.382-.822-6.572a.726.726,0,0,1,.126-.653,3.9,3.9,0,0,0,.885-3.012c-.042-.484.063-.7.632-.674,1.517.042,3.054-.021,4.571.021a3.7,3.7,0,0,1,3.623,3.56c.042,3.855,0,7.731,0,11.586a2.812,2.812,0,0,1-2.465,0c0-2.844-.021-5.667-.021-8.51C440.185,353.3,439.49,352.819,438.184,353.24Z" transform="translate(-249.216 -111.241)" fill="#3d46c2"/>
        <path id="Trazado_175504" data-name="Trazado 175504" d="M380.618,252.13c3.223,0,6.467-.042,9.69,0a3.7,3.7,0,0,1,3.56,3.771,1.119,1.119,0,0,1-.885.232c-2.275,0-4.571.063-6.846-.021a6.315,6.315,0,0,1-5.224-2.886C380.681,252.888,380.407,252.551,380.618,252.13Z" transform="translate(-207.975 -35.556)" fill="#b0c0d2"/>
        <path id="Trazado_175505" data-name="Trazado 175505" d="M373.88,252.065a6.074,6.074,0,0,0,5.519,3.771c2.57.021,5.161,0,7.731,0,0,.042.021.105.021.147.042,1.116.042,1.116-1.032,1.116-2.991,0-6,.021-8.995,0a5.115,5.115,0,0,1-5.077-4.213c-.126-.653.021-.927.716-.843C373.142,252.065,373.5,252.044,373.88,252.065Z" transform="translate(-201.237 -35.492)" fill="#b0c0d2"/>
        <path id="Trazado_175506" data-name="Trazado 175506" d="M417.118,377.756c.211,1.664.4,3.328.653,4.971a1.339,1.339,0,0,1-.611,1.538c-.864-.274-.927-1.116-1.18-1.77a2.746,2.746,0,0,1-.126-1.6,13.88,13.88,0,0,1,.358-2.654C416.4,377.882,416.612,377.545,417.118,377.756Z" transform="translate(-235.796 -134.683)" fill="#75b62f"/>
        <path id="Trazado_175507" data-name="Trazado 175507" d="M297.643,314.4a3.518,3.518,0,0,1,1.917,1.369c.084.211-.063.274-.147.379a3.947,3.947,0,0,1-.674.653c-.337.232-.569.969-.969.7-.632-.442-1.369-.948-1.369-1.9A1.332,1.332,0,0,1,297.643,314.4Z" transform="translate(-141.557 -84.723)" fill="#ffd4a2"/>
        <path id="Trazado_175508" data-name="Trazado 175508" d="M467.934,420H470.4c0,.211.021.421.021.632,0,2.043,0,2.043-2.043,1.917-.379-.021-.506-.147-.484-.506C467.913,421.348,467.913,420.674,467.934,420Z" transform="translate(-276.922 -168.079)" fill="#34b1e3"/>
        <path id="Trazado_175509" data-name="Trazado 175509" d="M397.318,309.258a6.5,6.5,0,0,0,1.58,4.171l.316.442c-2.085-.758-3.244-2.7-3.139-5.372A1.837,1.837,0,0,0,397.318,309.258Z" transform="translate(-220.231 -80.067)" fill="#ffd4a2"/>
        <path id="Trazado_175510" data-name="Trazado 175510" d="M415.564,350.478a1.112,1.112,0,0,1-1.453-.337c-.463-.548-.295-1.243-.253-1.875,0-.19.232-.169.379-.169.379,0,.779.021,1.159.021C415.417,348.9,415.143,349.719,415.564,350.478Z" transform="translate(-234.222 -111.323)" fill="#3ab87f"/>
        <path id="Trazado_175511" data-name="Trazado 175511" d="M420.273,350.276c-.843-.737-.463-1.559-.169-2.38.316.021.822-.211.885.147a2.284,2.284,0,0,1-.19,1.812A.77.77,0,0,1,420.273,350.276Z" transform="translate(-238.93 -111.121)" fill="#75b62f"/>
        <path id="Trazado_175512" data-name="Trazado 175512" d="M414.914,392.9a5.824,5.824,0,0,0,1.306,3.37c-.168.169-.337.569-.59.358-.421-.358-1.053-.632-1.032-1.264A19.721,19.721,0,0,1,414.914,392.9Z" transform="translate(-234.856 -146.688)" fill="#3bb97f"/>
        <path id="Trazado_175513" data-name="Trazado 175513" d="M418.634,373.264c-.379.021-.611.295-.906.484a4.344,4.344,0,0,1,.147-1.475c.042-.19.126-.274.316-.274.168,0,.295.063.316.253Z" transform="translate(-237.313 -130.191)" fill="#3ab77e"/>
        <path id="Trazado_175514" data-name="Trazado 175514" d="M392.845,470.528H385.6c-1.011,0-1.58-.442-1.6-1.243-.021-.822.569-1.285,1.622-1.285h14.493c1.011,0,1.622.527,1.559,1.348-.063.737-.59,1.18-1.5,1.18Z" transform="translate(-210.702 -205.968)"/>
        <path id="Trazado_175515" data-name="Trazado 175515" d="M407.664,491.965h4.171c.948,0,1.5.463,1.517,1.243.021.8-.569,1.285-1.538,1.285h-8.279c-.99,0-1.559-.484-1.538-1.285,0-.8.569-1.243,1.58-1.243C404.947,491.944,406.3,491.965,407.664,491.965Z" transform="translate(-224.91 -224.877)"/>
        <path id="Trazado_175516" data-name="Trazado 175516" d="M281.713,463.442a8.806,8.806,0,0,1,13.861,7.2.831.831,0,0,1-.569.211c-4.023.253-7.668-.653-10.68-3.476a12.018,12.018,0,0,1-2.528-3.286C281.692,463.884,281.545,463.673,281.713,463.442Z" transform="translate(-129.904 -201.052)" fill="#b0c0d2"/>
        <path id="Trazado_175517" data-name="Trazado 175517" d="M267.776,469.7a12.182,12.182,0,0,0,4.8,5.351,12.51,12.51,0,0,0,7.015,1.875c.674-.021,1.369,0,2.043,0,0,.021.021.042.021.084.042,1.18.042,1.18-1.1,1.18H265.038c-1.053,0-1.074,0-1.053-1.1A8.673,8.673,0,0,1,267.776,469.7Z" transform="translate(-115.967 -207.31)" fill="#b0c0d2"/>
        <path id="Trazado_175518" data-name="Trazado 175518" d="M291.577,522.1h6.994c-.421,2.823-3.96,4.592-6.678,3.328a3.363,3.363,0,0,1-1.159-1.327A1.292,1.292,0,0,1,291.577,522.1Z" transform="translate(-136.924 -248.672)" fill="#fec469"/>
        <path id="Trazado_175519" data-name="Trazado 175519" d="M297.045,553.243c-3.665,0-7.31-.021-10.975.021a2.908,2.908,0,0,1-2.57-1.243c4.087,0,8.152-.021,12.218-.021C296.56,552,296.918,552.379,297.045,553.243Z" transform="translate(-131.375 -272.273)" fill="#f85316"/>
        <path id="Trazado_175520" data-name="Trazado 175520" d="M285.554,522.1c-1.053.758-1.138,1.264-.421,2.338.232.337.484.674.737.99a4.779,4.779,0,0,1-2.97-3.328Z" transform="translate(-130.901 -248.672)" fill="#f85316"/>
        <path id="Trazado_175521" data-name="Trazado 175521" d="M165.777,473.143c-3.012,0-6.025.021-9.037,0a6.306,6.306,0,0,1-5.94-5.014c3.813,0,7.6-.042,11.417,0a3.711,3.711,0,0,1,3.56,3.539C165.819,472.132,165.777,472.638,165.777,473.143Z" transform="translate(-26.628 -206.056)" fill="#b0c0d2"/>
        <path id="Trazado_175522" data-name="Trazado 175522" d="M172.628,521a4.924,4.924,0,0,1-6.762,3.349c-.337-.358-.779-.59-1.053-1.053a1.55,1.55,0,0,1,1.348-2.528c1.706-.063,3.391-.021,5.1-.021C171.743,520.77,172.228,520.643,172.628,521Z" transform="translate(-37.439 -247.594)" fill="#fec469"/>
        <path id="Trazado_175523" data-name="Trazado 175523" d="M165.943,517.185c-2.149,0-4.318-.021-6.467,0a1.3,1.3,0,0,0-1.159,2.149c.253.421.59.8.864,1.2a4.867,4.867,0,0,1-3.139-4.087c-.063-.4.063-.548.484-.548,3.012.021,6.025.021,9.058,0,.484,0,.611.169.527.59C166.07,516.722,166.006,516.953,165.943,517.185Z" transform="translate(-30.754 -243.778)" fill="#f85316"/>
        <path id="Trazado_175524" data-name="Trazado 175524" d="M171.145,553.243c-3.665,0-7.31-.021-10.975.021a2.908,2.908,0,0,1-2.57-1.243c4.087,0,8.152-.021,12.218-.021C170.66,552,171,552.379,171.145,553.243Z" transform="translate(-31.996 -272.273)" fill="#f85316"/>
        <path id="Trazado_175525" data-name="Trazado 175525" d="M421.222,302.6A1.274,1.274,0,0,1,420,301.335a1.254,1.254,0,1,1,1.222,1.264Z" transform="translate(-239.121 -73.428)" fill="#313031"/>
        <path id="Trazado_175526" data-name="Trazado 175526" d="M239.754,253.982a2.055,2.055,0,0,1,1.475,1.769c.147.927.569,1.306,1.306,1.285.8-.021,1.159-.506,1.243-1.264a2.082,2.082,0,0,1,.716-1.348,1.64,1.64,0,0,1,2.338-.021,1.584,1.584,0,0,1-.042,2.275c-.948.99-1.938,1.917-2.928,2.886a.543.543,0,0,1-.59-.021,6.388,6.388,0,0,1-3.918-4.887C239.311,254.362,239.1,253.877,239.754,253.982Z" transform="translate(-96.476 -36.988)" fill="#f85316"/>
        <path id="Trazado_175527" data-name="Trazado 175527" d="M233.766,254.024c-.337.063-.274.274-.232.527a6.277,6.277,0,0,0,4.339,5.035c-1.264,1.5-1.264,1.5-2.654.126-1.011-1.011-2.022-2-3.012-3.012a1.553,1.553,0,0,1-.274-1.959A1.686,1.686,0,0,1,233.766,254.024Z" transform="translate(-90.488 -37.029)" fill="#f85316"/>
        <path id="Trazado_175528" data-name="Trazado 175528" d="M177.577,342.747c-.211,0-.421.021-.632.021a1.277,1.277,0,0,0-1.411,1.411c-.021,1.032-.021,2.043,0,3.076.021.442-.147.569-.59.569-1.959.042-1.959.063-1.959-1.875,0-.611.021-1.2,0-1.812a1.252,1.252,0,0,0-1.369-1.369q-1.58-.032-3.16,0c-.421,0-.527-.126-.527-.548-.063-2-.084-2,1.917-2h1.5c1.243,0,1.622-.4,1.664-1.643,0-.126.021-.253.021-.4.232-.042.337.126.442.274a28.669,28.669,0,0,0,3.834,3.834C177.429,342.409,177.619,342.515,177.577,342.747Z" transform="translate(-40.134 -103.486)" fill="#75b62f"/>
        <path id="Trazado_175529" data-name="Trazado 175529" d="M196.663,331.422a25.84,25.84,0,0,1-4.55-4.55c0-.843,0-1.685-.021-2.507-.021-.358.105-.484.484-.506,2.043-.105,2.043-.126,2.043,1.917,0,.611-.021,1.2,0,1.812a1.228,1.228,0,0,0,1.327,1.327c1.053.021,2.107.021,3.139,0,.442-.021.569.105.59.569.042,1.98.063,1.98-1.917,1.98C197.379,331.444,197.021,331.422,196.663,331.422Z" transform="translate(-59.22 -92.162)" fill="#75b62f"/>
        <path id="Trazado_175530" data-name="Trazado 175530" d="M272.585,376.934c.063,1.264.063,1.264-1.159,1.264h-.147c-1.222,0-1.222,0-1.159-1.264A2.812,2.812,0,0,1,272.585,376.934Z" transform="translate(-120.797 -133.861)" fill="#f85316"/>
        <path id="Trazado_175531" data-name="Trazado 175531" d="M272.506,373.264H270.02c-.063-1.264-.063-1.264,1.159-1.264h.147C272.569,372,272.569,372,272.506,373.264Z" transform="translate(-120.718 -130.191)" fill="#f85316"/>
      </g>
    </g>
  </g>
</svg>
