<svg xmlns="http://www.w3.org/2000/svg" width="154.107" height="154.106" viewBox="0 0 154.107 154.106">
  <g id="Grupo_118213" data-name="Grupo 118213" transform="translate(-550.152 -2964.408)">
    <circle id="Elipse_6109" data-name="Elipse 6109" cx="75.053" cy="75.053" r="75.053" transform="translate(552.152 2966.408)" fill="#f6f6f6" stroke="#75b62f" stroke-width="4"/>
    <g id="Grupo_118140" data-name="Grupo 118140" transform="translate(464.946 2790.66)">
      <path id="Trazado_175082" data-name="Trazado 175082" d="M171.177,299.626h-.56c-.164-.162-.372-.072-.56-.1-.188.024-.4-.066-.56.1h-.747a1.011,1.011,0,0,0-.933,0H155.685a1.9,1.9,0,0,1-1.542-2.295,12.26,12.26,0,0,1,5.558-9.843c-1.312-.129-2.583-.238-3.841-.454a35.865,35.865,0,0,1-29.48-30.9,34.632,34.632,0,0,1,0-8.642c.1-.874.058-.916-.825-.763a48.546,48.546,0,0,1-9.383.507,1.887,1.887,0,0,1-2.109-1.548V226.833a1.857,1.857,0,0,1,1.366-1.477,28.34,28.34,0,0,0,8.977-5.72c1.019-.914,1.948-1.9,2.9-2.877,3.44-3.509,7.051-6.817,11.479-9.1a29.831,29.831,0,0,1,13.007-3.5.457.457,0,0,0,.344-.1h.747c.115.126.269.088.411.1.176-.019.37.055.522-.1h.747a1.427,1.427,0,0,0,1.12,0H168a1.9,1.9,0,0,1,1.542,2.294,12.245,12.245,0,0,1-5.581,9.86,35.1,35.1,0,0,1,12.341,2.989,35.742,35.742,0,0,1,21,28.359,35.075,35.075,0,0,1,0,8.64c-.1.866-.051.915.829.756a47.407,47.407,0,0,1,9.473-.5A1.844,1.844,0,0,1,209.626,258v18.852a2.123,2.123,0,0,1-1.4,1.482,26.8,26.8,0,0,0-6.8,3.918,2.443,2.443,0,0,1-3.156.093,2.119,2.119,0,0,1,.4-3.319,29.959,29.959,0,0,1,6.075-3.8,1.368,1.368,0,0,0,.9-1.438c-.019-4.011-.006-8.023-.011-12.034,0-1.013-.06-1.083-1.041-1.077a31.734,31.734,0,0,0-22.832,9.194c-1.667,1.628-3.209,3.386-5.024,4.862a23.519,23.519,0,0,1-2,1.375,3.431,3.431,0,0,0-1.293,4.7,3.383,3.383,0,0,0,4.678,1.329,10.812,10.812,0,0,0,1.819-1.131,30.184,30.184,0,0,0,5.157-4.694,4.871,4.871,0,0,1,1.476-1.27,2,2,0,0,1,2.479.37,1.929,1.929,0,0,1,.25,2.556,16.354,16.354,0,0,1-2.79,3,28.931,28.931,0,0,1-7.236,5.365,25.74,25.74,0,0,1-7.6,2.143,60.822,60.822,0,0,0-7.126,1.448,8.009,8.009,0,0,0-5.588,4.8c-.341.805-.282.913.589.915,3.3.005,6.6.123,9.887-.025a30.793,30.793,0,0,0,16.376-4.992,2.128,2.128,0,0,1,3.211.365,2.212,2.212,0,0,1-.873,3.135,30.991,30.991,0,0,1-15.074,5.334A7.628,7.628,0,0,0,171.177,299.626Z" transform="translate(0 -0.038)"/>
      <path id="Trazado_175087" data-name="Trazado 175087" d="M114.063,519.111c.3-.341.282-.8.454-1.189a6.835,6.835,0,0,1,6.318-4.185,56.211,56.211,0,0,1,9.477.662,1.568,1.568,0,0,1,1.5,1.431c.354,3.487,1.055,6.962.56,10.49a6.488,6.488,0,0,1-5.309,5.733c-.048.012-.082.081-.123.123h-2.053a5.934,5.934,0,0,1-5.031-4.912.994.994,0,0,0-.884-.881,6.221,6.221,0,0,1-4.48-3.442,9.861,9.861,0,0,1-.431-1.59Z" transform="translate(0 -232.588)"/>
      <path id="Trazado_175088" data-name="Trazado 175088" d="M442.164,217.127c-.3.339-.284.8-.456,1.187-1.247,2.831-3.568,4.033-6.5,4.2a60.015,60.015,0,0,1-9.2-.652,1.582,1.582,0,0,1-1.568-1.363c-.381-3.484-1.077-6.962-.594-10.488a6.444,6.444,0,0,1,5.318-5.827c.049-.012.084-.079.126-.12h1.867a5.883,5.883,0,0,1,5.22,4.91.984.984,0,0,0,.883.882,6.273,6.273,0,0,1,4.444,3.358,7.8,7.8,0,0,1,.466,1.863Z" transform="translate(-232.537 -0.038)"/>
      <path id="Trazado_175089" data-name="Trazado 175089" d="M464.714,215.037a8.409,8.409,0,0,0-1.269-2.717A6.032,6.032,0,0,0,459.464,210c-.414-.054-.64-.132-.722-.626a5.919,5.919,0,0,0-4.919-5.223c-.047-.01-.081-.081-.121-.123,3.484,0,6.968.01,10.452-.012.467,0,.576.106.573.572C464.7,208.068,464.714,211.552,464.714,215.037Z" transform="translate(-255.088 0)" fill="#fefefe"/>
      <path id="Trazado_175091" data-name="Trazado 175091" d="M277.88,204.062a.843.843,0,0,1-1.12,0Z" transform="translate(-122.194 -0.038)" fill="#111"/>
      <path id="Trazado_175092" data-name="Trazado 175092" d="M329.992,587.31a.627.627,0,0,1,.933,0Z" transform="translate(-162.175 -287.722)" fill="#111"/>
      <path id="Trazado_175093" data-name="Trazado 175093" d="M271.867,204.062c-.135.248-.359.181-.57.16-.053-.039-.07-.076-.049-.11s.04-.05.059-.05Z" transform="translate(-118.048 -0.038)" fill="#5c5c5c"/>
      <path id="Trazado_175094" data-name="Trazado 175094" d="M336.74,587.386c.139-.239.359-.185.571-.158.052.039.068.075.047.109s-.039.049-.059.049Z" transform="translate(-167.243 -287.797)" fill="#4e4e4e"/>
      <path id="Trazado_175095" data-name="Trazado 175095" d="M338.989,587.366a1.25,1.25,0,0,1,.011-.158c.2.005.437-.141.548.158Z" transform="translate(-168.932 -287.778)" fill="#707070"/>
      <path id="Trazado_175096" data-name="Trazado 175096" d="M270.385,204.062a.889.889,0,0,1-.01.161c-.153.019-.32.069-.363-.161Z" transform="translate(-117.126 -0.038)" fill="#818181"/>
      <path id="Trazado_175097" data-name="Trazado 175097" d="M269.954,269.573c10.472-2.376,19.832-.263,28.413,6.466-2.04.1-3.834-.045-5.616.212a20.186,20.186,0,0,0-8.341,2.7,5.343,5.343,0,0,0-2.685,5.514c.422,2.137,1.9,3.185,3.85,3.717a46.986,46.986,0,0,0,4.687.758c.092.015.186.016.278.031,2.735.456,3.408,1.52,2.678,4.218a24.39,24.39,0,0,0-.972,3.97,6.508,6.508,0,0,0,4.147,6.883,27.737,27.737,0,0,0,4.208,1.168,6.517,6.517,0,0,1,4.315,2.5c.348.521.366.77-.285,1.078a36.227,36.227,0,0,0-10.957,8.082,29.2,29.2,0,0,1-5.412,4.676,7.2,7.2,0,0,0-2.672,8.729c.279.716.112.867-.541,1a46.117,46.117,0,0,1-4.883.718c-.431.039-.625-.04-.662-.5a31.615,31.615,0,0,1-.067-7.35,2.232,2.232,0,0,1,1.18-1.693c.786-.438,1.59-.847,2.346-1.331a4.891,4.891,0,0,0,1.013-7.688,9.433,9.433,0,0,0-2.035-1.621,81.386,81.386,0,0,0-11.6-6.29c-.252-.108-.488-.255-.755-.4a42.077,42.077,0,0,0,3.788-6.663,7.375,7.375,0,0,0,.776-4.065,4.843,4.843,0,0,0-2.578-3.469c-.776-.453-1.581-.856-2.362-1.3-.681-.388-.814-.886-.26-1.507,1.034-1.16,2.073-2.315,3.082-3.5a8.813,8.813,0,0,0,2.357-4.465,4.845,4.845,0,0,0-3.125-5.513c-.509-.207-.638-.406-.554-.941A7.964,7.964,0,0,0,269.954,269.573Z" transform="translate(-116.067 -48.533)" fill="#777ed6"/>
      <path id="Trazado_175098" data-name="Trazado 175098" d="M332.081,452.259a11.593,11.593,0,0,0-3.419,3.073,1.714,1.714,0,0,1-.875-.253,1.6,1.6,0,0,0-2.065,2.067,1.693,1.693,0,0,1,.252.876l-3.449,3.057c-1.077-.951-1.729-1.057-2.822-.313a31.04,31.04,0,0,1-17.25,5.109c-3.449.076-6.9.014-10.458.014a8.206,8.206,0,0,1,2.69-4.442c1.555-1.381,3.5-1.8,5.439-2.254,2.512-.583,5.077-.877,7.606-1.365a21.355,21.355,0,0,0,10.187-5.134c1.565-1.378,3.044-2.846,4.475-4.36a1.877,1.877,0,1,0-2.677-2.593,39.892,39.892,0,0,1-6.58,5.9,5.4,5.4,0,0,1-2.969,1.209,3.768,3.768,0,0,1-3.616-2.572,3.547,3.547,0,0,1,1.435-4.181,29.87,29.87,0,0,0,6.239-5.426,32.353,32.353,0,0,1,17.124-9.566,35.557,35.557,0,0,1,7.6-.685c.535,0,.592.209.591.651q-.018,6.67.006,13.341c0,.51-.219.686-.628.866a30.329,30.329,0,0,0-6.342,3.872C331.328,450.115,331.2,450.948,332.081,452.259Z" transform="translate(-133.636 -170.046)" fill="#ffd4a2"/>
      <path id="Trazado_175099" data-name="Trazado 175099" d="M176.594,218.964a8.379,8.379,0,0,1-5.989,6.17,54.229,54.229,0,0,1-8.12,1.626,22.424,22.424,0,0,0-12.885,6.346c-1.143,1.1-2.264,2.222-3.37,3.358-.975,1-1.037,2.056-.218,2.87s1.94.723,2.934-.312a38.658,38.658,0,0,1,6.443-5.779,5.387,5.387,0,0,1,2.965-1.221,3.751,3.751,0,0,1,3.628,2.553,3.54,3.54,0,0,1-1.409,4.189,30.64,30.64,0,0,0-6.243,5.423A32.474,32.474,0,0,1,129.8,254.459c-.669,0-.806-.185-.8-.824.03-4.354.019-8.709.01-13.063,0-.427.031-.718.519-.935a34.893,34.893,0,0,0,10.537-7.563,71.781,71.781,0,0,1,7.758-7.256,29.244,29.244,0,0,1,14.794-5.6C167.232,218.744,171.866,219.07,176.594,218.964Z" transform="translate(-11.215 -11.222)" fill="#ffd4a2"/>
      <path id="Trazado_175100" data-name="Trazado 175100" d="M206.2,397.871a29.893,29.893,0,0,1-11.125-3.6,31.4,31.4,0,0,1-16.351-23.916,30.976,30.976,0,0,1,.321-10.025,1.021,1.021,0,0,1,.823-.856,30.991,30.991,0,0,0,5.823-2.672.933.933,0,0,1,1.292.133,29.8,29.8,0,0,1,5.452,6.821,87.115,87.115,0,0,1,4.31,7.824,2.232,2.232,0,0,1,.237,1.333,31.609,31.609,0,0,0-.063,9.565,18.31,18.31,0,0,0,2.92,6.289c1.716,2.776,3.633,5.417,5.583,8.032C205.642,397.1,205.855,397.394,206.2,397.871Z" transform="translate(-48.361 -114.605)" fill="#989cd8"/>
      <path id="Trazado_175101" data-name="Trazado 175101" d="M359.466,340.834c-1.691-3.906-4.968-5.15-8.583-5.888a11.165,11.165,0,0,1-2.493-.732A2.77,2.77,0,0,1,346.608,331a23.8,23.8,0,0,1,.8-3.055c1.384-5.157-.746-8.355-6.046-9.064-1.322-.177-2.647-.351-3.958-.6-.548-.1-1.249-.164-1.378-.9a1.563,1.563,0,0,1,.871-1.534,14.374,14.374,0,0,1,5.652-2.008c3.233-.647,6.507-.273,9.761-.38a.87.87,0,0,1,.762.42,31.412,31.412,0,0,1,7.072,22.623A21.289,21.289,0,0,1,359.466,340.834Z" transform="translate(-166.694 -82.193)" fill="#75b62f"/>
      <path id="Trazado_175102" data-name="Trazado 175102" d="M233.312,330.3a75.967,75.967,0,0,0-5.7-9.5,28.188,28.188,0,0,0-3.515-4.1c-.246-.232-.58-.406-.092-.764a60.57,60.57,0,0,0,6.433-6.076,14.068,14.068,0,0,1,3-2.348,5.348,5.348,0,0,0,1.454-1.154.851.851,0,0,1,1.065-.282c.471.18.927.343,1.028.947a2.824,2.824,0,0,1-.593,2.091,33.6,33.6,0,0,1-3.038,3.529,12.124,12.124,0,0,0-1.518,2,4.258,4.258,0,0,0,1.056,5.747,15.246,15.246,0,0,0,2.638,1.56c1.374.738,1.5,1.04.953,2.523A29.275,29.275,0,0,1,233.312,330.3Z" transform="translate(-82.383 -76.596)" fill="#75b62f"/>
      <path id="Trazado_175103" data-name="Trazado 175103" d="M273.628,449.121c-1.9-2.6-3.572-5.138-5.279-7.657-2.028-2.993-2.365-6.27-2.06-9.713.136-1.535.15-1.505,1.585-.883a79.841,79.841,0,0,1,10.571,5.852,4.4,4.4,0,0,1,.868.7,1.245,1.245,0,0,1-.294,2.19c-.614.362-1.251.686-1.877,1.029a6.078,6.078,0,0,0-3.276,5.1C273.774,446.8,273.715,447.88,273.628,449.121Z" transform="translate(-114.257 -170.082)" fill="#75b62f"/>
      <path id="Trazado_175104" data-name="Trazado 175104" d="M426.718,531.273c-.987-1.373-.7-2.746.661-3.219a2.021,2.021,0,0,1,2.027.529c.574,1.143.534,1.874-.139,2.547S427.871,531.845,426.718,531.273Z" transform="translate(-234.381 -243.298)" fill="#010101"/>
      <path id="Trazado_175105" data-name="Trazado 175105" d="M133.726,528.513c1.762.156,3.523.318,5.285.464a.6.6,0,0,1,.64.632,55.458,55.458,0,0,1,.406,6.407,5.145,5.145,0,0,1-.431,1.988,2.613,2.613,0,0,1-2.911,1.491,2.5,2.5,0,0,1-1.751-2.738,8.668,8.668,0,0,1,.2-1,1.87,1.87,0,0,0-2.286-2.295c-.3.063-.6.155-.908.188a2.507,2.507,0,0,1-2.861-1.819,2.642,2.642,0,0,1,1.68-2.9,6.62,6.62,0,0,1,.893-.248A12.885,12.885,0,0,1,133.726,528.513Z" transform="translate(-11.261 -243.718)" fill="#f85316"/>
      <path id="Trazado_175106" data-name="Trazado 175106" d="M438.5,223.656a13.459,13.459,0,0,1,.22-2.227,2.759,2.759,0,0,1,3.07-2.338c1.4.3,2.155,1.722,1.776,3.388a2.889,2.889,0,0,0-.133,1.279,1.892,1.892,0,0,0,2.193,1.421c.335-.059.662-.172,1-.208a2.511,2.511,0,0,1,2.88,1.793,2.658,2.658,0,0,1-1.826,2.974,8.837,8.837,0,0,1-3.594.289c-1.455-.087-2.905-.259-4.359-.369-.476-.036-.728-.2-.767-.716C438.82,227.178,438.654,225.418,438.5,223.656Z" transform="translate(-243.669 -11.289)" fill="#f85316"/>
    </g>
  </g>
</svg>
