<svg xmlns="http://www.w3.org/2000/svg" width="150" height="150" viewBox="0 0 150 150">
  <g id="Grupo_118245" data-name="Grupo 118245" transform="translate(-727.701 -3243.628)">
    <g id="Grupo_118163" data-name="Grupo 118163">
      <circle id="Elipse_5677" data-name="Elipse 5677" cx="75" cy="75" r="75" transform="translate(727.701 3243.628)" fill="#fff"/>
      <g id="Grupo_116359" data-name="Grupo 116359" transform="translate(646.855 3080.214)">
        <path id="Trazado_172745" data-name="Trazado 172745" d="M253.441,293.108H222.829V273.949c-.433-.02-.784-.049-1.135-.05-3.151,0-6.3.025-9.452-.014a3.921,3.921,0,0,1-4.191-3.713c-.428-3.6-.825-7.209-1.216-10.816-.161-1.484-.14-1.484-1.533-1.934q-4.183-1.35-8.379-2.709a2.471,2.471,0,0,1,.127-.3c3.387-5.555,6.767-11.114,10.189-16.647a1.474,1.474,0,0,1,1.1-.51c3.179-.016,6.359.022,9.538.054,1.708.018,1.568-.263,1.575,1.6.007,1.9,0,3.8,0,5.7l.3.118,9.567-6.891a10.508,10.508,0,0,0,14.836-.065,10.377,10.377,0,0,0,.71-13.852,10.091,10.091,0,0,0-6.275-3.737,10.423,10.423,0,0,0-9.255,2.88l-9.713-7c-.041.4-.074.6-.078.8-.033,1.949-.083,3.9-.078,5.847,0,.656-.2.887-.878.885-2.759-.009-5.518.039-8.278.059-.307,0-.615-.035-1.011-.059,2.521-7.594,7.145-13.3,14.184-16.825a28.355,28.355,0,0,1,39.12,14.541,27.778,27.778,0,0,1-.011,21.379c-.917,2.311-1.9,4.594-2.779,6.921a92.437,92.437,0,0,0-5.753,24.976C253.551,280.737,253.626,286.933,253.441,293.108Z" transform="translate(-74.29 -9.38)" fill="#ffbd86"/>
        <path id="Trazado_172746" data-name="Trazado 172746" d="M215.436,283.728c.184-6.175.11-12.371.616-18.52a92.438,92.438,0,0,1,5.753-24.976c.874-2.327,1.862-4.61,2.779-6.921a27.778,27.778,0,0,0,.011-21.379,28.355,28.355,0,0,0-39.12-14.541c-7.039,3.527-11.663,9.23-14.184,16.825.4.024.7.061,1.011.059,2.759-.02,5.519-.068,8.278-.059.679,0,.879-.228.878-.885-.005-1.949.045-3.9.078-5.847,0-.2.037-.394.078-.8l9.713,7a10.423,10.423,0,0,1,9.255-2.88,10.091,10.091,0,0,1,6.275,3.737,10.377,10.377,0,0,1-.71,13.852,10.508,10.508,0,0,1-14.836.065l-9.567,6.891-.3-.118c0-1.9.006-3.8,0-5.7-.007-1.863.133-1.582-1.575-1.6-3.179-.032-6.359-.07-9.538-.054a1.474,1.474,0,0,0-1.1.51c-3.422,5.533-6.8,11.092-10.189,16.647a2.477,2.477,0,0,0-.127.3q4.2,1.36,8.379,2.709c1.393.45,1.372.449,1.533,1.934.391,3.607.788,7.213,1.216,10.816a3.921,3.921,0,0,0,4.191,3.713c3.15.039,6.3.009,9.452.014.351,0,.7.03,1.135.05v19.158h-2.7q-.015-7.651-.03-15.3c0-.353,0-.705,0-1.173-.785,0-1.466,0-2.147,0-2.1-.015-4.205.057-6.3-.073a6.54,6.54,0,0,1-6.293-5.941c-.407-3.243-.748-6.494-1.073-9.746a1.23,1.23,0,0,0-.98-1.257c-3.486-1.081-6.955-2.218-10.568-3.38l11.627-19.037H156.2c-.081-.155-.128-.2-.131-.256-.157-2.548-.157-2.548,2.416-2.548H183.15c1.169,0,1.17,0,1.171,1.191s0,2.373,0,3.774l12.341-8.916-12.341-8.919c0,1.209.011,2.23,0,3.251-.025,1.936.292,1.712-1.724,1.713q-16.744.01-33.489,0c-1.285,0-1.32-.041-1.219-1.312.035-.446.065-.893.108-1.49h1.044c6.152,0,12.3-.015,18.455.019a1.1,1.1,0,0,0,1.249-.921c3.149-9.641,9.443-16.426,18.935-19.936a29.782,29.782,0,0,1,26.088,2.216A30.9,30.9,0,0,1,228.15,231.3a44.934,44.934,0,0,1-1.842,4.965,99.384,99.384,0,0,0-6.986,24.475,112.393,112.393,0,0,0-1.173,16.14c-.016,2.281-.008,4.561-.012,6.842Z" transform="translate(-36.285 0)"/>
        <path id="Trazado_172747" data-name="Trazado 172747" d="M101,292.817l2.421-.111a1.507,1.507,0,0,1,.116.28c.229,2.581.228,2.581-2.537,2.532Z" transform="translate(0 -78.417)"/>
        <path id="Trazado_172748" data-name="Trazado 172748" d="M147.305,342.972h-7.028c-.053-.1-.1-.152-.1-.2-.154-2.546-.154-2.546,2.4-2.546,1.346,0,2.693.025,4.038-.01.623-.016.887.2.831.823S147.355,342.28,147.305,342.972Z" transform="translate(-30.298 -115.209)"/>
        <path id="Trazado_172749" data-name="Trazado 172749" d="M124.157,293h2.609c.047.741.1,1.492.143,2.244a.147.147,0,0,1-.013.087c-.62.872-1.514.278-2.273.382-.157.022-.523-.415-.542-.659A16.8,16.8,0,0,1,124.157,293Z" transform="translate(-17.865 -78.646)"/>
      </g>
    </g>
  </g>
</svg>
