<svg xmlns="http://www.w3.org/2000/svg" width="131" height="132" viewBox="0 0 131 132">
  <g id="Grupo_118177" data-name="Grupo 118177" transform="translate(-1102 -12878.812)">
    <g id="Grupo_118174" data-name="Grupo 118174">
      <ellipse id="Elipse_6066" data-name="Elipse 6066" cx="65.5" cy="66" rx="65.5" ry="66" transform="translate(1102 12878.812)" fill="#fff"/>
    </g>
    <g id="Grupo_116839" data-name="Grupo 116839" transform="translate(1014.552 12696.433)">
      <path id="Trazado_173863" data-name="Trazado 173863" d="M200.689,242.643v.846c-.589.689-.283,1.414-.087,2.135,0,.247,0,.492,0,.739,0,.65-.435.936-.961,1.138a1.283,1.283,0,0,1-.666.087,3.6,3.6,0,0,0-3.571,1.561c-.591.714-.644.7-.029,1.47a24.606,24.606,0,0,1,3.847,6.623,22.8,22.8,0,0,1,1.469,6.547v.508a.219.219,0,0,0,0,.338v.846a2.2,2.2,0,0,0,0,1.354v.676a.219.219,0,0,0,0,.339v.846a23.315,23.315,0,0,1-1.6,6.693,24.368,24.368,0,0,1-7.7,10.2c-.63.5-.624.863-.218,1.451a6.44,6.44,0,0,1,.934,1.7,1.369,1.369,0,0,1-1.117,1.863c-.3,0-.606,0-.909,0-.63-.019-.895-.483-1.183-.943-.326-.519-.489-1.272-1.022-1.5-.574-.243-1.11.388-1.666.619a19.486,19.486,0,0,1-7.708,1.832.224.224,0,0,0-.143.078H173.62a33.294,33.294,0,0,1-3.8-.6,23.765,23.765,0,0,1-4.637-1.778c-.576-.3-.889-.193-1.226.354-.46.745-.715,1.683-1.67,2.029H161.1a1.427,1.427,0,0,1-.91-2.076,13.047,13.047,0,0,1,.886-1.633c.418-.757.357-.976-.368-1.446a2.023,2.023,0,0,0-1.034-.327c-.366-.016-.733-.012-1.1-.012q-19.109,0-38.218,0a6.425,6.425,0,0,1-4.994-2.056,4.9,4.9,0,0,1-1.295-2.941V217.436a5.847,5.847,0,0,1,5.976-4.966c2.138-.032,4.276-.016,6.414,0a3.211,3.211,0,0,0,1.836-.494,5.357,5.357,0,0,1,3.121-.872c.984.031,1.971-.033,2.953.019.755.041,1.089-.2,1.228-.987a7.511,7.511,0,0,1,4.271-5.619,13.293,13.293,0,0,1,1.947-.445h2.2c3.656.628,5.626,2.584,6.32,6.326a.739.739,0,0,0,.852.706c1.043,0,2.087.033,3.128-.008a5.616,5.616,0,0,1,3.366.928,2.766,2.766,0,0,0,1.6.44c2.142-.013,4.284,0,6.426-.005a6.157,6.157,0,0,1,6.334,6.341c-.1,7.157-.033,14.316-.032,21.474,0,.254,0,.507,0,.761,0,.473.219.635.693.588a32.561,32.561,0,0,1,3.453-.243,24.262,24.262,0,0,1,15.269,5.314c.957.752.988.752,1.873-.127.28-.278.55-.566.838-.836a1.7,1.7,0,0,0,.566-1.356,12.018,12.018,0,0,1,.014-1.352,1.587,1.587,0,0,1,2.486-1.338.925.925,0,0,0,1.071.025A1.5,1.5,0,0,1,200.689,242.643Z"/>
      <path id="Trazado_173868" data-name="Trazado 173868" d="M477.112,408.746a19.383,19.383,0,0,1-.63-3.076,24.1,24.1,0,0,0-5.107-10.227c-.41-.483-.489-.811.062-1.186a1.531,1.531,0,0,0,.36-.355,3.551,3.551,0,0,1,3.684-1.585,1.283,1.283,0,0,0,1.489-.962c.026-.1.072-.115.142-.035Z" transform="translate(-276.423 -144.956)" fill="#fefefe"/>
      <path id="Trazado_173871" data-name="Trazado 173871" d="M495.535,380.75c-.006-.027,0-.067-.018-.081-.857-.717-.466-1.327.161-1.918v2.03C495.61,380.863,495.564,380.848,495.535,380.75Z" transform="translate(-294.99 -135.263)" fill="#ededed"/>
      <path id="Trazado_173872" data-name="Trazado 173872" d="M497.268,477.566a1.286,1.286,0,0,1,0-1.354Z" transform="translate(-296.579 -210.731)" fill="#1e1e1e"/>
      <path id="Trazado_173873" data-name="Trazado 173873" d="M450.666,587.365l-.009-.162,1.041.008a.2.2,0,0,0-.017.154Z" transform="translate(-260.635 -296.676)" fill="#646464"/>
      <path id="Trazado_173874" data-name="Trazado 173874" d="M497.295,387.577a.13.13,0,0,1,.143.032v.846l-.064.046-.078-.011Z" transform="translate(-296.749 -142.09)" fill="#4f4f4f"/>
      <path id="Trazado_173875" data-name="Trazado 173875" d="M497.381,485.547c-.237-.113-.187-.226,0-.338Z" transform="translate(-296.692 -217.697)" fill="#575757"/>
      <path id="Trazado_173876" data-name="Trazado 173876" d="M497.334,471.3c-.21-.113-.251-.226,0-.339Z" transform="translate(-296.645 -206.668)" fill="#787878"/>
      <path id="Trazado_173877" data-name="Trazado 173877" d="M189.875,306.681a25.191,25.191,0,0,0-6.268,8.184,24.188,24.188,0,0,0-.583,19.747c.37.941.382.937-.585.937-9.724,0-19.449-.011-29.173.02-.8,0-.954-.233-.953-.982q.031-26.467,0-52.933c0-.823.2-1.124,1.017-1a4.059,4.059,0,0,0,1.013,0,1.939,1.939,0,0,1,1.912.719,2.348,2.348,0,0,0,1.911.744q14.375,0,28.751.005a3.345,3.345,0,0,0,2.585-1.365c.4-.16.5.124.577.4a3,3,0,0,1,.068.839q0,11.686,0,23.372A2.492,2.492,0,0,1,189.875,306.681Z" transform="translate(-29.612 -59.282)" fill="#fff"/>
      <path id="Trazado_173878" data-name="Trazado 173878" d="M167.216,321.425a1.527,1.527,0,0,1-.883.106q-18.017.007-36.034,0c-2.346,0-3.464-1.119-3.464-3.467q0-29.774,0-59.547c0-2.295,1.131-3.43,3.416-3.433,1.494,0,2.99.037,4.482-.016.75-.027,1.065.154.828.935a2.65,2.65,0,0,0-.078.669c-.045,1.295-.043,1.283-1.307,1.3a9.883,9.883,0,0,0-2.106.09,2.887,2.887,0,0,0-2.35,2.727c-.016.253-.006.507-.006.761q0,26.771,0,53.541c0,2.466,1.09,3.559,3.553,3.559q15.522,0,31.043-.012a1.39,1.39,0,0,1,1.436.737A21.59,21.59,0,0,0,167.216,321.425Z" transform="translate(-9.886 -39.491)" fill="#3d46c2"/>
      <path id="Trazado_173879" data-name="Trazado 173879" d="M327.544,389.672c-.808.942-.808.942-1.8.2a18.811,18.811,0,1,0,5.819,22.812c.059-.127.129-.249.193-.374.16-.033.224.067.271.193a10.174,10.174,0,0,1-1.413,3.5,23.372,23.372,0,0,1-8.5,8.853c-.7.42-1.482.647-2.2,1.026a20.181,20.181,0,0,1-15.766-1.84c-7.9-4.415-11.8-11.325-11.413-20.345A21.517,21.517,0,0,1,312,383.346a19.343,19.343,0,0,1,8.743.867,20.1,20.1,0,0,1,6.459,4.743C327.392,389.151,327.641,389.334,327.544,389.672Z" transform="translate(-138.33 -138.703)" fill="#f85316"/>
      <path id="Trazado_173880" data-name="Trazado 173880" d="M338.226,440.011a14.832,14.832,0,0,1-10.662-1.07,15.91,15.91,0,0,1,4.4-30.027,13.862,13.862,0,0,1,6.266.308,11.409,11.409,0,0,1,5.29,4.236.267.267,0,0,1-.033.077c-.811.918-.811.918-1.809.252a13.017,13.017,0,1,0,4.389,16.749c.09-.174.194-.341.291-.51.159-.04.226.058.275.183a6.917,6.917,0,0,1-1.25,3.008A15.632,15.632,0,0,1,338.226,440.011Z" transform="translate(-158.346 -158.452)" fill="#f4f4f4"/>
      <path id="Trazado_173881" data-name="Trazado 173881" d="M178.206,226.719a2.687,2.687,0,0,1,2.562-2.352c1.35-.047,2.7,0,4.053-.03.42-.009.542.146.509.536a5.955,5.955,0,0,0,0,.928,1.472,1.472,0,0,0,1.4,1.421,1.443,1.443,0,0,0,1.462-1.437c.031-1.463-.009-2.928.019-4.391a4.2,4.2,0,0,1,3.494-4.145.63.63,0,0,1,.411-.05c1.01.228,2.147,2.5,1.761,3.506-.322.079-.515-.176-.754-.3a1.114,1.114,0,0,0-1.505.3,1.046,1.046,0,0,0-.06,1.394,1.186,1.186,0,0,0,1.491.43c.31-.1.512-.47.905-.364a1.571,1.571,0,0,0,1.269.459c.536.009,1.109-.152,1.594.231.013.872.023,1.745.04,2.617.021,1.061.572,1.733,1.43,1.752s1.432-.646,1.455-1.7c.026-1.174.026-1.178,1.233-1.172.7,0,1.407.024,2.11.037a2.67,2.67,0,0,1,1.216,2.2,13.752,13.752,0,0,1,.05,2.7c-.016.551-.272.768-.854.767q-12.339-.023-24.678,0c-.579,0-.732-.193-.693-.727C178.195,228.46,178.058,227.585,178.206,226.719Z" transform="translate(-49.603 -10.155)" fill="#dce736"/>
      <path id="Trazado_173882" data-name="Trazado 173882" d="M355.77,454.463a9.424,9.424,0,0,1-7.3-1.6,10.142,10.142,0,0,1,5.962-18.5c.448.012.893.1,1.34.157a7.5,7.5,0,0,1,3.138,2.445.54.54,0,0,1,.109.623c-.431.692-.869.825-1.693.408a7.148,7.148,0,0,0-9.53,3.158,7.237,7.237,0,0,0,12.66,7c.166-.282.212-.653.553-.818.251.359.059.712-.056,1.038A11.724,11.724,0,0,1,356.745,454,6.638,6.638,0,0,1,355.77,454.463Z" transform="translate(-178.091 -178.321)" fill="#f85316"/>
      <path id="Trazado_173883" data-name="Trazado 173883" d="M413.268,452.314c.136-.286.437-.337.68-.459a22.727,22.727,0,0,0,10.389-10.608,10.909,10.909,0,0,0,.935-2.335c0-.589.473-1.072.374-1.682a18.6,18.6,0,0,0,.313-10.638,1.8,1.8,0,0,1-.026-.336c-.156-.264.021-.6-.2-.854a7.168,7.168,0,0,0-.382-1.186,30.132,30.132,0,0,0-2.777-5.6c1.534-1.719,1.534-1.719,2.861.111a21.764,21.764,0,0,1-11.511,33.465C413.713,452.25,413.488,452.273,413.268,452.314Z" transform="translate(-231.683 -165.14)" fill="#f85316"/>
      <path id="Trazado_173884" data-name="Trazado 173884" d="M318.14,255.144c.193-.321.509-.168.763-.17q2.45-.016,4.9.009a2.894,2.894,0,0,1,3.115,3.107c0,7.744-.007,15.488.019,23.232a.921.921,0,0,1-.784,1.056c-.693.2-1.36.492-2.116.773v-1.006q0-10.433,0-20.867a5.574,5.574,0,0,0-.173-1.583c-.079-.78-.053-1.566-.115-2.345-.116-1.465-.683-1.965-2.132-1.968-.842,0-1.683.006-2.525,0A1.3,1.3,0,0,1,318.14,255.144Z" transform="translate(-158.022 -39.389)" fill="#3d46c2"/>
      <path id="Trazado_173885" data-name="Trazado 173885" d="M317.486,306.739q0-12.469-.018-24.939c0-.345.231-.83-.36-.98a16.653,16.653,0,0,1,2.92-.1c.259-.017.342.137.337.37,0,.169,0,.338,0,.507,0,7.432-.008,14.863.015,22.295a1.3,1.3,0,0,1-.7,1.278C318.915,305.644,318.214,306.213,317.486,306.739Z" transform="translate(-157.223 -59.341)" fill="#fff"/>
      <path id="Trazado_173886" data-name="Trazado 173886" d="M405.712,460.784a24.339,24.339,0,0,0,4.725-3.772,16.9,16.9,0,0,0,3.576-6.051c-.062-.413.323-.75.2-1.173a13.346,13.346,0,0,0-.006-8.813,12.4,12.4,0,0,0-1.127-3.046,2.962,2.962,0,0,1-.433-1.172c1.62-1.687,1.62-1.687,2.844.29a15.931,15.931,0,0,1-9.284,23.676A3.332,3.332,0,0,1,405.712,460.784Z" transform="translate(-225.832 -179.225)" fill="#ced7db"/>
      <path id="Trazado_173887" data-name="Trazado 173887" d="M395.961,468.992a13.2,13.2,0,0,0,4.032-4.1,9.687,9.687,0,0,0,1.209-3.025,11.413,11.413,0,0,0,.362-3.708c-.116-.6-.248-1.194-.373-1.792-.068-.556-.451-1.017-.477-1.585.349-.365.693-.735,1.048-1.093.787-.792.79-.789,1.371.211a10.154,10.154,0,0,1-6.423,15.009A5.729,5.729,0,0,1,395.961,468.992Z" transform="translate(-218.282 -192.85)" fill="#f85316"/>
      <path id="Trazado_173888" data-name="Trazado 173888" d="M373.895,468.817a4.2,4.2,0,0,1-4.014-4.017,4.347,4.347,0,0,1,3.659-4.471c.8.082,1.207.487,1.4,1.4-.5.526-1,1.055-1.507,1.577-.813.841-.9,1.623-.255,2.288.595.61,1.367.554,2.236-.163.307-.031.328.208.291.385A4.311,4.311,0,0,1,373.895,468.817Z" transform="translate(-198.077 -198.432)" fill="#fff"/>
      <path id="Trazado_173889" data-name="Trazado 173889" d="M177.969,251.352c.006.788.06,1.578,0,2.362-.05.714.208.9.9.892,5.29-.027,10.581-.015,15.871-.015,2.758,0,5.516-.019,8.273.014.658.008.873-.17.864-.85-.021-1.658.133-3.336-1.032-4.739,2.172-.157,3.451.552,3.8,2.2a17.707,17.707,0,0,1,.084,3.2c.013.408-.293.33-.531.332-.929.006-1.857.007-2.786.007-8.218,0-16.435-.009-24.653.017-.717,0-1.035-.131-.933-.909A14.678,14.678,0,0,1,177.969,251.352Z" transform="translate(-49.366 -34.787)" fill="#dce736"/>
      <path id="Trazado_173890" data-name="Trazado 173890" d="M318.14,255.778c1.454,0,2.909.009,4.363-.02a.923.923,0,0,1,.891.479,5.2,5.2,0,0,1,.474,4.092,3.077,3.077,0,0,0-2.887-1.822c-.812-.02-1.77.251-2.4-.091-.736-.4-.116-1.482-.371-2.227A2.467,2.467,0,0,1,318.14,255.778Z" transform="translate(-158.022 -40.024)" fill="#3d46c2"/>
      <path id="Trazado_173891" data-name="Trazado 173891" d="M240.405,220.466c.123-1.388-.966-3.168-2.083-3.405a4.229,4.229,0,0,1,5.116,3.676c.055.638,0,1.286,0,1.929a19.284,19.284,0,0,0-2.009.015.808.808,0,0,1-1-.694A2.86,2.86,0,0,1,240.405,220.466Z" transform="translate(-96.215 -9.965)" fill="#dce736"/>
      <path id="Trazado_173892" data-name="Trazado 173892" d="M387.712,477.461a6.912,6.912,0,0,0,1.577-2.79c.044-.21.2-.416-.054-.593q1.15-1.176,2.3-2.353c.233-.239.439-.4.58.073a4.208,4.208,0,0,1-.718,4.125A3.857,3.857,0,0,1,387.712,477.461Z" transform="translate(-211.894 -207.076)" fill="#fff"/>
      <path id="Trazado_173893" data-name="Trazado 173893" d="M423.741,393.169a21.837,21.837,0,0,0-5.769-4.765,3.988,3.988,0,0,1-1.031-.693,19.9,19.9,0,0,1,7.706,4.127c.214.174.185.308.01.47C424.351,392.594,424.047,392.882,423.741,393.169Z" transform="translate(-234.528 -142.2)" fill="#f85316"/>
      <path id="Trazado_173894" data-name="Trazado 173894" d="M411,415.254a20.2,20.2,0,0,0-3.066-2.78c-.732-.5-1.482-.972-2.223-1.457a14.542,14.542,0,0,1,6.031,2.867c.282.213.382.38.067.641C411.53,414.756,411.27,415.011,411,415.254Z" transform="translate(-225.832 -160.248)" fill="#cdd6da"/>
      <path id="Trazado_173895" data-name="Trazado 173895" d="M399.22,438.137a8.73,8.73,0,0,0-2.906-2.831c-.114-.078-.227-.158-.341-.237a9.877,9.877,0,0,1,3.881,1.429c.522.3.6.571.1.959A9.91,9.91,0,0,0,399.22,438.137Z" transform="translate(-218.291 -178.872)" fill="#f85316"/>
      <path id="Trazado_173896" data-name="Trazado 173896" d="M453.151,422.99c.661.28.819.967,1.126,1.5a16.541,16.541,0,0,1,1.739,4.082c.07.173-.014.2-.159.167a19.511,19.511,0,0,0-2.929-4.889C452.55,423.405,452.851,423.216,453.151,422.99Z" transform="translate(-262.257 -169.518)" fill="#ee4134"/>
      <path id="Trazado_173897" data-name="Trazado 173897" d="M435.058,440.981a14.471,14.471,0,0,1,1.648,3.669.482.482,0,0,1-.088.549,12.328,12.328,0,0,0-1.72-3.178C434.523,441.554,434.571,441.261,435.058,440.981Z" transform="translate(-248.24 -183.45)" fill="#ebebeb"/>
      <path id="Trazado_173898" data-name="Trazado 173898" d="M387.54,461.288c-.422-.513-.666-1.206-1.4-1.4a3.075,3.075,0,0,1,2.1.187c.339.092.295.28.1.476C388.071,460.8,387.8,461.042,387.54,461.288Z" transform="translate(-210.674 -197.987)" fill="#fff"/>
      <path id="Trazado_173899" data-name="Trazado 173899" d="M416.583,460.488a2.15,2.15,0,0,1,.477,1.585C416.919,461.54,416.155,461.193,416.583,460.488Z" transform="translate(-234.151 -198.555)" fill="#e03b2f"/>
      <path id="Trazado_173900" data-name="Trazado 173900" d="M466.287,505.5c.28.651-.144,1.145-.374,1.682l-.161-.165Z" transform="translate(-272.324 -233.408)" fill="#d4352b"/>
      <path id="Trazado_173901" data-name="Trazado 173901" d="M466.516,447.88l.159-.167a1.76,1.76,0,0,1,.332,1.186q-.068.1-.137,0Z" transform="translate(-272.916 -188.662)" fill="#d8372c"/>
      <path id="Trazado_173902" data-name="Trazado 173902" d="M442.107,498.729c.282.452-.01.8-.2,1.174l-.174-.162Z" transform="translate(-253.724 -228.166)" fill="#d6d7d7"/>
      <path id="Trazado_173903" data-name="Trazado 173903" d="M468.085,452.97h.137c.287.25.13.582.159.879C468.138,453.6,468.212,453.254,468.085,452.97Z" transform="translate(-274.131 -192.733)" fill="#d6352b"/>
      <path id="Trazado_173904" data-name="Trazado 173904" d="M227.323,370.443q4.521,0,9.041,0c1.138,0,1.8.538,1.789,1.442s-.667,1.438-1.806,1.438q-9.041,0-18.082,0c-1.191,0-1.854-.658-1.716-1.665.108-.79.663-1.212,1.649-1.214Q222.76,370.436,227.323,370.443Z" transform="translate(-79.341 -128.828)"/>
      <path id="Trazado_173905" data-name="Trazado 173905" d="M227.305,319.261q4.393,0,8.786,0a5.825,5.825,0,0,1,.843.032,1.414,1.414,0,0,1,.253,2.733,3.2,3.2,0,0,1-1,.119q-8.87.01-17.74,0a3.951,3.951,0,0,1-.673-.033,1.407,1.407,0,0,1-1.244-1.541,1.353,1.353,0,0,1,1.4-1.3c1.266-.035,2.534-.015,3.8-.016Q224.518,319.26,227.305,319.261Z" transform="translate(-79.34 -89.194)"/>
      <path id="Trazado_173906" data-name="Trazado 173906" d="M223.443,424.418c-1.746,0-3.492.006-5.238,0-1.074-.005-1.7-.55-1.691-1.445s.639-1.432,1.717-1.434q5.238-.01,10.475,0c1.072,0,1.723.547,1.74,1.42.018.916-.626,1.456-1.767,1.46C226.935,424.423,225.189,424.418,223.443,424.418Z" transform="translate(-79.329 -168.389)"/>
      <path id="Trazado_173907" data-name="Trazado 173907" d="M222.329,472.7c1.323,0,2.646-.01,3.969,0,1.077.011,1.735.552,1.763,1.411.029.89-.645,1.471-1.768,1.476q-4.011.016-8.022,0c-1.108,0-1.72-.513-1.741-1.4-.022-.924.612-1.479,1.747-1.49C219.627,472.689,220.978,472.7,222.329,472.7Z" transform="translate(-79.34 -208.007)" fill="#010100"/>
      <path id="Trazado_173908" data-name="Trazado 173908" d="M174.411,412.211c.581-.867,1.152-1.734,1.738-2.592a1.454,1.454,0,1,1,2.415,1.561q-1.291,1.98-2.617,3.937a1.471,1.471,0,0,1-2.532.271q-.579-.557-1.134-1.137a1.435,1.435,0,0,1-.216-2.038,1.408,1.408,0,0,1,2.091-.148C174.223,412.111,174.3,412.146,174.411,412.211Z" transform="translate(-44.652 -158.495)"/>
      <path id="Trazado_173909" data-name="Trazado 173909" d="M173.248,309.413c.106.026.354.012.474.129.658.642.9.083,1.2-.375.429-.66.852-1.325,1.312-1.963a1.441,1.441,0,0,1,1.99-.479,1.424,1.424,0,0,1,.4,2.068q-1.368,2.128-2.809,4.208a1.4,1.4,0,0,1-2.247.268,19.559,19.559,0,0,1-1.536-1.565,1.269,1.269,0,0,1-.155-1.5A1.41,1.41,0,0,1,173.248,309.413Z" transform="translate(-44.626 -79.318)"/>
      <path id="Trazado_173910" data-name="Trazado 173910" d="M178.906,358.979a1.894,1.894,0,0,1-.374,1.133c-.862,1.282-1.7,2.579-2.572,3.857a1.5,1.5,0,0,1-2.6.25c-.405-.391-.815-.778-1.192-1.195a1.408,1.408,0,0,1-.131-1.917,1.34,1.34,0,0,1,1.944-.272c.366.248.491.178.7-.145.529-.829,1.073-1.649,1.645-2.449a1.34,1.34,0,0,1,1.647-.5A1.305,1.305,0,0,1,178.906,358.979Z" transform="translate(-44.646 -118.913)"/>
      <path id="Trazado_173911" data-name="Trazado 173911" d="M178.895,461.428a1.677,1.677,0,0,1-.33.941c-.894,1.332-1.765,2.679-2.67,4a1.457,1.457,0,0,1-2.48.233c-.445-.431-.894-.861-1.3-1.324a1.376,1.376,0,0,1-.023-1.914,1.32,1.32,0,0,1,1.829-.244c.412.279.565.222.805-.168q.754-1.221,1.6-2.386a1.323,1.323,0,0,1,1.643-.5A1.358,1.358,0,0,1,178.895,461.428Z" transform="translate(-44.636 -198.148)"/>
      <path id="Trazado_173912" data-name="Trazado 173912" d="M238.318,230.279a1.869,1.869,0,0,1,.024,1.521,1.481,1.481,0,0,1-1.768.61,1.427,1.427,0,0,1-.272-2.554C236.942,229.428,237.544,229.564,238.318,230.279Z" transform="translate(-94.128 -19.778)" fill="#020200"/>
    </g>
  </g>
</svg>
