<svg xmlns="http://www.w3.org/2000/svg" width="104.249" height="105.045" viewBox="0 0 104.249 105.045">
  <g id="Grupo_118208" data-name="Grupo 118208" transform="translate(-750.886 -2416.914)">
    <g id="Grupo_118194" data-name="Grupo 118194" transform="translate(750.886 2416.914)">
      <g id="Grupo_118173" data-name="Grupo 118173" transform="translate(0 0)">
        <ellipse id="Elipse_6071" data-name="Elipse 6071" cx="52.124" cy="52.522" rx="52.124" ry="52.522" fill="#fff"/>
      </g>
    </g>
    <g id="insatisfecho_1_" data-name="insatisfecho (1)" transform="translate(650.46 2227.653)">
      <path id="Trazado_175650" data-name="Trazado 175650" d="M128.609,281.567a1.516,1.516,0,0,1-.505-1.839c1.192-4.344,2.324-8.708,3.5-13.052a1.205,1.205,0,0,0-.283-1.273,36.369,36.369,0,0,1-8.809-21.417,37.217,37.217,0,0,1,26.772-38.551,36.478,36.478,0,0,1,6.748-1.273c.162-.02.364.081.445-.162h.606c.1.1.222.061.343.081h.283c.141-.02.3.061.445-.081h2.728c.121.121.283.061.445.081h.283c.121,0,.242.02.343-.081h.445a11.647,11.647,0,0,0,2.627.4,37.18,37.18,0,0,1,31.116,30.772c3.253,20.144-9.557,37.339-27.661,41.966a36.225,36.225,0,0,1-25.741-2.788.854.854,0,0,0-.95.04q-5.577,3.243-11.194,6.466c-.4.242-.808.465-1.212.687C129.114,281.567,128.851,281.567,128.609,281.567Z" transform="translate(-5.973 0)" fill="#12263f"/>
      <path id="Trazado_175651" data-name="Trazado 175651" d="M313.165,204.241c-.162.02-.343.04-.465-.141h.444a.108.108,0,0,1,.061.081C313.205,204.221,313.185,204.241,313.165,204.241Z" transform="translate(-157.817 -0.08)" fill="#7a4046"/>
      <path id="Trazado_175652" data-name="Trazado 175652" d="M297.274,204.1c-.121.182-.283.141-.465.141-.04-.04-.061-.061-.04-.1l.04-.04Z" transform="translate(-145.098 -0.08)" fill="#7a4046"/>
      <path id="Trazado_175653" data-name="Trazado 175653" d="M294.3,204.221c-.121.02-.242.04-.3-.121h.3c.061.04.061.061.04.081C294.323,204.221,294.323,204.221,294.3,204.221Z" transform="translate(-142.895 -0.08)" fill="#a37a7e"/>
      <path id="Trazado_175654" data-name="Trazado 175654" d="M316.534,204.1c-.04.162-.182.141-.3.121-.061-.02-.081-.061-.061-.081.02-.04.04-.04.04-.04Z" transform="translate(-160.58 -0.08)" fill="#a37a7e"/>
      <path id="Trazado_175655" data-name="Trazado 175655" d="M295.5,204.221V204.1h.3v.141A1.529,1.529,0,0,0,295.5,204.221Z" transform="translate(-144.092 -0.08)" fill="#8e5c61"/>
      <path id="Trazado_175656" data-name="Trazado 175656" d="M315.3,204.02v.121H315V204A1.53,1.53,0,0,0,315.3,204.02Z" transform="translate(-159.652 0)" fill="#8e5c61"/>
      <path id="Trazado_175657" data-name="Trazado 175657" d="M162.258,284.57a29.173,29.173,0,0,1-7.84-2.182,27.826,27.826,0,0,1-2.707-1.313,2.207,2.207,0,0,0-2.283,0c-1.293.748-2.586,1.515-3.9,2.263-1.576.889-3.172,1.778-4.748,2.647a7.18,7.18,0,0,1-1.616.849,14.852,14.852,0,0,1,.606-2.526c.828-3.152,1.717-6.3,2.586-9.456a.946.946,0,0,0-.242-1.03,35.349,35.349,0,0,1-6.365-9.82,30.32,30.32,0,0,1-2.566-9.577c-.162-.283.02-.626-.121-.929-.02-.182-.02-.384-.04-.566a2.609,2.609,0,0,1-.061-.889v-.748a2.268,2.268,0,0,0-.061-.828v-1.233a5.131,5.131,0,0,0,.061-1.111,2.645,2.645,0,0,1,.061-.889c.02-.2.02-.384.04-.586.141-.242-.02-.546.121-.788.02-.141.02-.283.04-.424.141-.242-.04-.525.121-.768A27.551,27.551,0,0,1,135,238.058a33.445,33.445,0,0,1,5.637-9.9,35.644,35.644,0,0,1,10.082-8.547,34.952,34.952,0,0,1,7.678-3.172c1.313-.364,2.667-.566,4.021-.849.242-.141.525.02.768-.121.141,0,.283-.02.424-.02.242-.141.546.02.788-.121.2-.02.4-.02.606-.04a1.115,1.115,0,0,1,.768,0,16.229,16.229,0,0,1,4.081,0,1.617,1.617,0,0,1,.929,0c.2.02.4.02.606.04.242.141.546-.02.788.121.141,0,.283.02.424.02.242.162.525-.02.768.121,1.071.263,2.182.384,3.273.687,1.091.323,2.182.667,3.253,1.01a26.57,26.57,0,0,1,5.637,2.647,36.842,36.842,0,0,1,4.3,2.95,35.662,35.662,0,0,1,3.253,3.051A39.006,39.006,0,0,1,196,229.33a35.7,35.7,0,0,1,2.93,4.627,33.585,33.585,0,0,1,2.142,4.95,28.171,28.171,0,0,1,1.394,5.758c.141.242-.02.525.121.768,0,.141.02.283.02.424.141.242-.02.546.121.788.02.2.02.384.04.586.141.3-.02.647.121.929v.465a2.307,2.307,0,0,0,0,1.051v.768a1.183,1.183,0,0,0,0,.748v.465c-.162.445.061.929-.121,1.374,0,.2-.02.384-.02.586-.141.242.02.525-.121.768-.02.1-.02.2-.04.3-.121.242.02.546-.121.788a32.976,32.976,0,0,1-2.223,7.981,33.555,33.555,0,0,1-4.4,7.6,32.006,32.006,0,0,1-4.2,4.566,43.821,43.821,0,0,1-4.748,3.677,34.348,34.348,0,0,1-13.133,5.213,2.32,2.32,0,0,1-.384.02c-.242.141-.525-.02-.768.121-.141,0-.283.02-.424.02-.3.162-.626-.02-.929.121-.141.02-.3.02-.445.04-.4.162-.828-.04-1.232.121h-.465a1.183,1.183,0,0,0-.748,0h-.768a1.66,1.66,0,0,0-.889,0h-.323a2.732,2.732,0,0,0-.808-.061c-.242-.02-.485.061-.707-.061a5.575,5.575,0,0,1-1.818-.182C162.783,284.55,162.5,284.732,162.258,284.57Z" transform="translate(-14.345 -8.903)" fill="#dce736"/>
      <path id="Trazado_175658" data-name="Trazado 175658" d="M478.4,397.374c.04-.465-.141-.929.121-1.374A2.861,2.861,0,0,1,478.4,397.374Z" transform="translate(-290.022 -153.206)" fill="#e3663d"/>
      <path id="Trazado_175659" data-name="Trazado 175659" d="M314.3,560.226c.384-.263.828-.081,1.232-.121A2,2,0,0,1,314.3,560.226Z" transform="translate(-159.094 -284.135)" fill="#db6540"/>
      <path id="Trazado_175660" data-name="Trazado 175660" d="M133.021,378.52c-.04.344.121.727-.121,1.051V378.52Q132.961,378.43,133.021,378.52Z" transform="translate(-14.345 -139.222)" fill="#f4612c"/>
      <path id="Trazado_175661" data-name="Trazado 175661" d="M478.531,382.051a1.031,1.031,0,0,1,0-1.051Z" transform="translate(-290.027 -141.237)" fill="#fc5416"/>
      <path id="Trazado_175662" data-name="Trazado 175662" d="M133.578,405.1c.242.283.1.606.121.929A1.262,1.262,0,0,1,133.578,405.1Z" transform="translate(-14.862 -160.468)" fill="#f2612e"/>
      <path id="Trazado_175663" data-name="Trazado 175663" d="M133.058,397.32v.95a1.543,1.543,0,0,1-.121-.95Q132.967,397.23,133.058,397.32Z" transform="translate(-14.362 -154.224)" fill="#e1663f"/>
      <path id="Trazado_175664" data-name="Trazado 175664" d="M316.629,215.4H315.7A.788.788,0,0,1,316.629,215.4Z" transform="translate(-160.211 -8.971)" fill="#cc6043"/>
      <path id="Trazado_175665" data-name="Trazado 175665" d="M132.9,375.029a.257.257,0,0,0-.121.02,1.3,1.3,0,0,1,.121-.95Z" transform="translate(-14.223 -135.731)" fill="#d36241"/>
      <path id="Trazado_175666" data-name="Trazado 175666" d="M478.531,375.029c-.242-.283-.1-.626-.121-.929A1.481,1.481,0,0,1,478.531,375.029Z" transform="translate(-290.027 -135.731)" fill="#d16241"/>
      <path id="Trazado_175667" data-name="Trazado 175667" d="M322.6,559.531c.283-.242.626-.1.929-.121A1.5,1.5,0,0,1,322.6,559.531Z" transform="translate(-165.717 -283.581)" fill="#f55f29"/>
      <path id="Trazado_175668" data-name="Trazado 175668" d="M300,560.2a.728.728,0,0,1,.889,0Z" transform="translate(-147.683 -284.11)" fill="#fd5010"/>
      <path id="Trazado_175669" data-name="Trazado 175669" d="M279.668,216.8c-.222.222-.505.121-.768.121A.946.946,0,0,1,279.668,216.8Z" transform="translate(-130.846 -10.197)" fill="#d55d39"/>
      <path id="Trazado_175670" data-name="Trazado 175670" d="M330.068,216.9c-.263,0-.546.1-.768-.121C329.563,216.757,329.825,216.677,330.068,216.9Z" transform="translate(-171.063 -10.171)" fill="#cc5c3e"/>
      <path id="Trazado_175671" data-name="Trazado 175671" d="M134.425,361.4c-.02.263.1.546-.121.768A.934.934,0,0,1,134.425,361.4Z" transform="translate(-15.446 -125.597)" fill="#eb6435"/>
      <path id="Trazado_175672" data-name="Trazado 175672" d="M477.031,362.168c-.222-.222-.121-.505-.121-.768C477.132,361.622,477.051,361.905,477.031,362.168Z" transform="translate(-288.83 -125.597)" fill="#cc5d3e"/>
      <path id="Trazado_175673" data-name="Trazado 175673" d="M133.725,367.3c-.02.263.1.566-.121.788A.993.993,0,0,1,133.725,367.3Z" transform="translate(-14.888 -130.305)" fill="#e7663b"/>
      <path id="Trazado_175674" data-name="Trazado 175674" d="M132.9,390c.222.222.1.505.121.748q-.061.091-.121,0Z" transform="translate(-14.345 -148.419)" fill="#fc561a"/>
      <path id="Trazado_175675" data-name="Trazado 175675" d="M478.561,390.748a.58.58,0,0,1,0-.748Z" transform="translate(-290.057 -148.419)" fill="#fd4e0d"/>
      <path id="Trazado_175676" data-name="Trazado 175676" d="M132.82,393.8h.121v.768H132.8C132.82,394.285,132.82,394.042,132.82,393.8Z" transform="translate(-14.266 -151.451)" fill="#f6602b"/>
      <path id="Trazado_175677" data-name="Trazado 175677" d="M477.761,368.088c-.222-.242-.1-.525-.121-.788A.993.993,0,0,1,477.761,368.088Z" transform="translate(-289.419 -130.305)" fill="#e7673c"/>
      <path id="Trazado_175678" data-name="Trazado 175678" d="M477.64,406.568c.02-.263-.1-.546.121-.768A.946.946,0,0,1,477.64,406.568Z" transform="translate(-289.419 -161.026)" fill="#e0663f"/>
      <path id="Trazado_175679" data-name="Trazado 175679" d="M476.94,411.888c.02-.263-.1-.566.121-.788A.992.992,0,0,1,476.94,411.888Z" transform="translate(-288.86 -165.256)" fill="#f0602e"/>
      <path id="Trazado_175680" data-name="Trazado 175680" d="M292.468,215.455H291.7C291.963,215.313,292.225,215.233,292.468,215.455Z" transform="translate(-141.06 -9.03)" fill="#cc6042"/>
      <path id="Trazado_175681" data-name="Trazado 175681" d="M278.2,558.609c.263,0,.546-.1.768.121C278.705,558.751,278.422,558.832,278.2,558.609Z" transform="translate(-130.288 -282.943)" fill="#d15b39"/>
      <path id="Trazado_175682" data-name="Trazado 175682" d="M329.2,558.831c.222-.222.505-.121.768-.121C329.746,558.912,329.463,558.831,329.2,558.831Z" transform="translate(-170.983 -283.022)" fill="#c65a3e"/>
      <path id="Trazado_175683" data-name="Trazado 175683" d="M285.588,216.1c-.242.222-.525.1-.788.121A.993.993,0,0,1,285.588,216.1Z" transform="translate(-135.554 -9.639)" fill="#e6673d"/>
      <path id="Trazado_175684" data-name="Trazado 175684" d="M290.9,560.3h.768c.04.02.061.04.061.081-.02.02-.02.04-.04.04A1.193,1.193,0,0,1,290.9,560.3Z" transform="translate(-140.422 -284.31)" fill="#cc6042"/>
      <path id="Trazado_175685" data-name="Trazado 175685" d="M294.8,560.261v-.121c.263.02.525-.1.748.121Z" transform="translate(-143.534 -284.17)" fill="#ea663a"/>
      <path id="Trazado_175686" data-name="Trazado 175686" d="M324.088,216.225c-.263-.02-.546.1-.788-.121A.993.993,0,0,1,324.088,216.225Z" transform="translate(-166.275 -9.639)" fill="#e6673d"/>
      <path id="Trazado_175687" data-name="Trazado 175687" d="M308.3,560.261a.58.58,0,0,1,.748,0Z" transform="translate(-154.306 -284.17)" fill="#fd5112"/>
      <path id="Trazado_175688" data-name="Trazado 175688" d="M237.846,318.31a4.292,4.292,0,0,1-4.485,3.657c-3.192-.081-6.385-.02-9.6-.02-.263,0-.546-.1-.808.1-.162.465.02.95-.121,1.414a68.113,68.113,0,0,0,1.394,7.557c.182.808.283,1.616.424,2.445.121.242-.04.525.121.788v1.172c-.162.242.02.525-.121.768a5.24,5.24,0,0,1-1.253,2.526c-1.96,1.677-3.6,1.414-5.233-.485-1.394-1.637-1.98-3.738-3.031-5.556a45.36,45.36,0,0,0-3.576-5.395,13.5,13.5,0,0,0-3.314-3.293,7.961,7.961,0,0,0-1.455-.687,6.793,6.793,0,0,1-1.778-.929,1.134,1.134,0,0,0-1.435-.222,1.4,1.4,0,0,1-.808.121h-9.456c-1.172,0-1.414-.242-1.414-1.414V297.378c0-1.273.364-1.616,1.6-1.616,2.95,0,5.9.02,8.85-.02a3.476,3.476,0,0,1,2.142.586c.242.182.525.283.748.1a5.268,5.268,0,0,1,1.8-.687c.242-.141.525.04.768-.121,7.516,0,15.012,0,22.529-.02,2.263,0,4.021.687,4.748,3.051.141.242-.04.525.121.768v.546c-.162.242.02.546-.121.788-.02.04-.04.1-.061.141a1.722,1.722,0,0,0,.343,2.586c1.111.97,1.233,2.707.162,4.324-.283.424-.222.647.162.95a3.813,3.813,0,0,1,.768,5.253c-.263.384-.323.626.121.95a3.575,3.575,0,0,1,1.232,2.021A2.7,2.7,0,0,1,237.846,318.31Z" transform="translate(-61.425 -73.092)" fill="#12263f"/>
      <path id="Trazado_175689" data-name="Trazado 175689" d="M329.92,386.223c.02-.141.02-.3.04-.445a2.269,2.269,0,0,0,.061-.828v-.727a2.88,2.88,0,0,1,.04-.727c.061-.586.162-1.132.788-1.394a.96.96,0,0,1,.748,0c.929.465.748,1.313.748,2.122-.162.344.02.727-.121,1.091,0,.4-.02.788-.02,1.192-.162.242.02.525-.121.768a32.575,32.575,0,0,1-2.728,9.092,30.891,30.891,0,0,1-14.386,14.588,27.939,27.939,0,0,1-7.718,2.546,8.084,8.084,0,0,1-1.7.3c-.242.141-.546-.04-.768.121a3.806,3.806,0,0,0-1.172.141,2,2,0,0,0-1.091,0c-.626-.04-1.293.162-1.839-.344-.121-.121-.263-.222-.283-.4a.96.96,0,0,1,0-.748c.343-.748,1.01-.748,1.677-.788a1.871,1.871,0,0,1,.748-.04,4.226,4.226,0,0,0,1.233-.081c.141,0,.3-.02.445-.02.3-.141.626.061.909-.121a25.175,25.175,0,0,0,8.931-2.788,31.027,31.027,0,0,0,4.89-3.233,25.725,25.725,0,0,0,5.092-5.172,28.578,28.578,0,0,0,5.455-13.315C329.94,386.768,329.8,386.485,329.92,386.223Z" transform="translate(-147.942 -142.055)" fill="#12263f"/>
      <path id="Trazado_175690" data-name="Trazado 175690" d="M419.3,402.654V401.3A1.458,1.458,0,0,1,419.3,402.654Z" transform="translate(-242.879 -157.436)" fill="#db633d"/>
      <path id="Trazado_175691" data-name="Trazado 175691" d="M344.918,427.914c0-.465-.162-.95.121-1.414C345,426.965,345.181,427.45,344.918,427.914Z" transform="translate(-183.489 -177.544)" fill="#e7653a"/>
      <path id="Trazado_175692" data-name="Trazado 175692" d="M313.742,528.7a2.131,2.131,0,0,1-1.232.121c-.04-.02-.061-.061-.04-.081s.04-.04.061-.04Z" transform="translate(-157.626 -259.094)" fill="#e7663a"/>
      <path id="Trazado_175693" data-name="Trazado 175693" d="M458.237,393.971a1.945,1.945,0,0,1,.121-1.071C458.338,393.264,458.5,393.648,458.237,393.971Z" transform="translate(-273.936 -150.733)" fill="#c45c42"/>
      <path id="Trazado_175694" data-name="Trazado 175694" d="M311.1,540.022a1.106,1.106,0,0,1,1.091,0Z" transform="translate(-156.54 -268.012)" fill="#cc6043"/>
      <path id="Trazado_175695" data-name="Trazado 175695" d="M322.009,527.91a1.2,1.2,0,0,1-.909.121C321.363,527.788,321.706,527.93,322.009,527.91Z" transform="translate(-164.52 -258.446)" fill="#f3612c"/>
      <path id="Trazado_175696" data-name="Trazado 175696" d="M405.848,311.368a1.031,1.031,0,0,1-.121-.768C405.949,310.822,405.828,311.105,405.848,311.368Z" transform="translate(-232.033 -85.062)" fill="#ee6333"/>
      <path id="Trazado_175697" data-name="Trazado 175697" d="M405.747,317.888a1.193,1.193,0,0,1,.121-.788C405.848,317.363,405.969,317.646,405.747,317.888Z" transform="translate(-232.053 -90.248)" fill="#e86234"/>
      <path id="Trazado_175698" data-name="Trazado 175698" d="M447.121,392.82v.748q-.061.121-.121,0v-.748Q447.061,392.73,447.121,392.82Z" transform="translate(-264.982 -150.633)" fill="#f06332"/>
      <path id="Trazado_175699" data-name="Trazado 175699" d="M447,396.8h.121a.993.993,0,0,1-.121.788Z" transform="translate(-264.982 -153.845)" fill="#d26342"/>
      <path id="Trazado_175700" data-name="Trazado 175700" d="M446.261,402.8a1.028,1.028,0,0,1-.121.808C446.16,403.325,446.039,403.042,446.261,402.8Z" transform="translate(-264.284 -158.633)" fill="#f06230"/>
      <path id="Trazado_175701" data-name="Trazado 175701" d="M457.4,404.968a.934.934,0,0,1,.121-.768C457.525,404.442,457.626,404.725,457.4,404.968Z" transform="translate(-273.264 -159.75)" fill="#e0663f"/>
      <path id="Trazado_175702" data-name="Trazado 175702" d="M452.248,381.8H451.5A.537.537,0,0,1,452.248,381.8Z" transform="translate(-268.573 -141.756)" fill="#e76439"/>
      <path id="Trazado_175703" data-name="Trazado 175703" d="M447.061,390.048h-.121c.02-.263-.1-.525.121-.748Z" transform="translate(-264.922 -147.86)" fill="#fb581d"/>
      <path id="Trazado_175704" data-name="Trazado 175704" d="M354.027,493.368a1.017,1.017,0,0,1,.121-.768C354.128,492.863,354.249,493.146,354.027,493.368Z" transform="translate(-190.779 -230.289)" fill="#d85f3b"/>
      <path id="Trazado_175705" data-name="Trazado 175705" d="M309.848,528.669v.121H309.1C309.3,528.588,309.585,528.689,309.848,528.669Z" transform="translate(-154.944 -259.064)" fill="#f95c24"/>
      <path id="Trazado_175706" data-name="Trazado 175706" d="M300.1,533.2v.748A.537.537,0,0,1,300.1,533.2Z" transform="translate(-147.643 -262.685)" fill="#e66439"/>
      <path id="Trazado_175707" data-name="Trazado 175707" d="M322.4,539.325a.946.946,0,0,1,.768-.121C322.946,539.426,322.663,539.3,322.4,539.325Z" transform="translate(-165.557 -267.457)" fill="#e1673f"/>
      <path id="Trazado_175708" data-name="Trazado 175708" d="M267.768,295.54a1.031,1.031,0,0,1-.768.121C267.222,295.439,267.505,295.56,267.768,295.54Z" transform="translate(-121.351 -73.032)" fill="#da623d"/>
      <path id="Trazado_175709" data-name="Trazado 175709" d="M354.148,483.688a1.068,1.068,0,0,1-.121-.788C354.249,483.142,354.128,483.425,354.148,483.688Z" transform="translate(-190.779 -222.548)" fill="#d86542"/>
      <path id="Trazado_175710" data-name="Trazado 175710" d="M285.612,319.164a3.7,3.7,0,0,1,1.414.081,1.875,1.875,0,0,1,1.435,1.96,1.968,1.968,0,0,1-1.96,1.738H276.439c-.889,0-1.333.3-1.435.909-.121.828.343,1.334,1.293,1.354,1.455.02,2.93,0,4.384,0H286.8a2.5,2.5,0,0,1,1.435.364,1.742,1.742,0,0,1,.828,2.1,2.037,2.037,0,0,1-1.96,1.475c-3.415,0-6.809.04-10.224,0-2.061-.02-2.97,1.051-2.93,3.031a35.475,35.475,0,0,0,1.091,6.991,16.291,16.291,0,0,1,.566,3.415c.162.525-.04,1.051.121,1.576a3.029,3.029,0,0,1-.4,2.162.788.788,0,0,1-1.051.3,3.717,3.717,0,0,1-1.556-1.394,29.952,29.952,0,0,1-1.839-3.475,38.611,38.611,0,0,0-5.213-8.122,10.571,10.571,0,0,0-4.162-3.051c-.061-.02-.141-.061-.222-.081a3.317,3.317,0,0,1-2.465-3.637c.162-5.172,0-10.345-.02-15.517,0-.647.04-1.313.1-1.96a2.442,2.442,0,0,1,2.728-2.485h22.71a1.737,1.737,0,0,1,1.96,1.879,1.761,1.761,0,0,1-2,1.919h-9.921c-.647,0-1.232.121-1.414.849-.2.808.3,1.394,1.212,1.414,1.091.02,2.162,0,3.253,0H284.7a3.82,3.82,0,0,1,1.051.121c1.131.323,1.717,1.03,1.576,1.96a2.393,2.393,0,0,1-2.122,1.879c-3.213-.081-6.4-.02-9.618-.02a6.056,6.056,0,0,0-.606,0,1.086,1.086,0,0,0-1.132,1.152c0,.727.445,1.03,1.091,1.111.2.02.4.02.606.04a17.336,17.336,0,0,0,2.041.061h7.193A3.444,3.444,0,0,0,285.612,319.164Z" transform="translate(-114.807 -82.109)" fill="#ffd4a2"/>
      <path id="Trazado_175711" data-name="Trazado 175711" d="M202.42,318.485c0-3.435.02-6.849-.02-10.284,0-.566.141-.727.707-.707,2.606.04,5.193.02,7.8,0,.546,0,.768.141.768.727-.02,6.89-.02,13.76,0,20.649,0,.546-.222.606-.667.606q-3.97-.03-7.941,0c-.566,0-.647-.2-.647-.707C202.44,325.355,202.42,321.92,202.42,318.485Z" transform="translate(-69.803 -82.581)" fill="#f85316"/>
      <path id="Trazado_175712" data-name="Trazado 175712" d="M359.582,367.6c-.242.2-.525.121-.788.121h-7.233a.108.108,0,0,1-.061-.081l.04-.04Z" transform="translate(-188.777 -130.545)" fill="#f4cf2e"/>
      <path id="Trazado_175713" data-name="Trazado 175713" d="M343.96,367.6v.121A6.372,6.372,0,0,1,342,367.6Z" transform="translate(-181.197 -130.545)" fill="#fcd416"/>
      <path id="Trazado_175714" data-name="Trazado 175714" d="M342.026,484.976c-.263-.505-.081-1.051-.121-1.576A3.469,3.469,0,0,1,342.026,484.976Z" transform="translate(-181.102 -222.947)" fill="#fcd415"/>
      <path id="Trazado_175715" data-name="Trazado 175715" d="M208.6,376.954a3.511,3.511,0,0,1,3.415-3.455,3.466,3.466,0,1,1,.02,6.93A3.266,3.266,0,0,1,208.6,376.954Z" transform="translate(-74.75 -135.252)" fill="#52050d"/>
      <path id="Trazado_175716" data-name="Trazado 175716" d="M220.161,385.264a1.07,1.07,0,0,1,1.374-.586,1.212,1.212,0,0,1,.04,2.344,1.106,1.106,0,0,1-1.435-.687A1.934,1.934,0,0,1,220.161,385.264Z" transform="translate(-83.907 -144.127)" fill="#3d46c2"/>
      <path id="Trazado_175717" data-name="Trazado 175717" d="M219.782,387.8v1.091A.909.909,0,0,1,219.782,387.8Z" transform="translate(-83.528 -146.663)" fill="#df5c32"/>
    </g>
  </g>
</svg>
