<svg xmlns="http://www.w3.org/2000/svg" xmlns:xlink="http://www.w3.org/1999/xlink" width="83.262" height="87.223" viewBox="0 0 83.262 87.223">
  <defs>
    <linearGradient id="linear-gradient" x1="1.056" y1="1.696" x2="0.086" y2="2.323" gradientUnits="objectBoundingBox">
      <stop offset="0.004" stop-color="#26264f"/>
      <stop offset="1" stop-color="#444b8c"/>
    </linearGradient>
    <linearGradient id="linear-gradient-2" x1="0.019" y1="0.501" x2="1.126" y2="0.479" gradientUnits="objectBoundingBox">
      <stop offset="0" stop-color="#444b8c"/>
      <stop offset="0.996" stop-color="#26264f"/>
    </linearGradient>
    <linearGradient id="linear-gradient-3" x1="0.286" y1="2.308" x2="0.859" y2="1.814" xlink:href="#linear-gradient-2"/>
    <linearGradient id="linear-gradient-4" x1="0.541" y1="-1.092" x2="0.458" y2="2.151" xlink:href="#linear-gradient-2"/>
    <linearGradient id="linear-gradient-5" x1="0.252" y1="0.202" x2="0.8" y2="0.86" gradientUnits="objectBoundingBox">
      <stop offset="0" stop-color="#ff9085"/>
      <stop offset="1" stop-color="#fb6fbb"/>
    </linearGradient>
    <linearGradient id="linear-gradient-6" x1="0" y1="0.5" x2="1" y2="0.5" xlink:href="#linear-gradient-5"/>
  </defs>
  <g id="Customer_service_guide" data-name="Customer service guide" transform="translate(-509.289 -624.313)">
    <g id="Grupo_115956" data-name="Grupo 115956" transform="translate(521.342 626.698)">
      <g id="Grupo_115954" data-name="Grupo 115954" transform="translate(0 0)">
        <path id="Trazado_170445" data-name="Trazado 170445" d="M922.045,769.122a2.835,2.835,0,0,1-2.445,2.941l-52.084,3.04a2.724,2.724,0,0,1-2.81-2.846V697.543a2.782,2.782,0,0,1,2.81-2.9l52.084,2.111a2.774,2.774,0,0,1,2.445,2.9Z" transform="translate(-864.706 -694.645)" fill="url(#linear-gradient)"/>
        <path id="Trazado_170446" data-name="Trazado 170446" d="M967.139,769.122a2.836,2.836,0,0,1-2.445,2.941L912.61,775.1a2.724,2.724,0,0,1-2.81-2.846V697.543a2.782,2.782,0,0,1,2.81-2.9l52.084,2.111a2.775,2.775,0,0,1,2.445,2.9Z" transform="translate(-908.271 -694.645)" fill="url(#linear-gradient-2)"/>
        <path id="Trazado_170447" data-name="Trazado 170447" d="M948.44,737.407V812a1.454,1.454,0,0,0,1.5,1.521l41.193-2.334,10.891-.617a1.513,1.513,0,0,0,1.309-1.572V739.429a1.481,1.481,0,0,0-1.309-1.549l-11.284-.438-40.8-1.583A1.485,1.485,0,0,0,948.44,737.407Z" transform="translate(-945.6 -734.46)" fill="url(#linear-gradient-3)"/>
        <path id="Trazado_170448" data-name="Trazado 170448" d="M1026.2,833.6a.59.59,0,0,1-.55.586l-52.163,2.667a.578.578,0,0,1-.629-.565V765.228a.588.588,0,0,1,.629-.574l52.163,1.962a.581.581,0,0,1,.55.579Z" transform="translate(-969.194 -762.28)" fill="#d8dee8"/>
        <path id="Trazado_170449" data-name="Trazado 170449" d="M1610.124,2880.672l-10.592.583a.921.921,0,0,1-1.026-.877v-.039a1.048,1.048,0,0,1,1.026-.987l10.592-.557a.9.9,0,0,1,1,.866v.038A1.026,1.026,0,0,1,1610.124,2880.672Z" transform="translate(-1573.621 -2804.725)" fill="url(#linear-gradient-4)"/>
        <path id="Trazado_170450" data-name="Trazado 170450" d="M1771.059,752.528a.5.5,0,0,1-.542.476.546.546,0,0,1-.543-.518.5.5,0,0,1,.543-.476A.546.546,0,0,1,1771.059,752.528Z" transform="translate(-1739.275 -750.064)" fill="url(#linear-gradient-5)"/>
      </g>
      <g id="Grupo_115955" data-name="Grupo 115955" transform="translate(1.529 0)" opacity="0.3" style="mix-blend-mode: screen;isolation: isolate">
        <path id="Trazado_170451" data-name="Trazado 170451" d="M953.353,764.234c-.212-4.553,4.85-7.223,4.363-13.645a13.623,13.623,0,0,0-4.5-8.918c-3.592-3.025-6.611-1.887-13.259-4.3-4.659-1.691-9.9-3.592-12.016-7.407-4.207-7.575,7.815-15.141,5.354-24.948-.705-2.81-2.7-6.255-7.954-9.852l-12.735-.516a2.782,2.782,0,0,0-2.81,2.9v74.714a2.724,2.724,0,0,0,2.81,2.846l47.456-2.77C955.011,769.413,953.464,766.606,953.353,764.234Z" transform="translate(-909.8 -694.646)" fill="#fff"/>
      </g>
    </g>
    <g id="Grupo_115958" data-name="Grupo 115958" transform="translate(527.757 624.313)">
      <g id="Grupo_115957" data-name="Grupo 115957" transform="translate(0 3.927)">
        <path id="Trazado_170452" data-name="Trazado 170452" d="M1100.76,807.464l-46.869,3.457.252-70.8,46.617,1.114Z" transform="translate(-1053.891 -740.118)" fill="#75b62f"/>
        <path id="Trazado_170453" data-name="Trazado 170453" d="M1167.758,858.589l-21.224-.22.019-5.9,21.214.393Z" transform="translate(-1143.392 -848.659)" fill="#fff"/>
        <path id="Trazado_170454" data-name="Trazado 170454" d="M1315.134,1263.672l-6.812.073.02-7.441h6.808Z" transform="translate(-1299.694 -1238.8)" fill="#fff"/>
        <path id="Trazado_170455" data-name="Trazado 170455" d="M1597.516,1258.962l-23.954.146.008-3.673,23.948-.021Z" transform="translate(-1555.939 -1237.939)" fill="#fff"/>
        <path id="Trazado_170456" data-name="Trazado 170456" d="M1313.934,1701.722l-6.819.223.02-7.457,6.816-.148Z" transform="translate(-1298.528 -1661.98)" fill="#fff"/>
        <path id="Trazado_170457" data-name="Trazado 170457" d="M1596.634,1680.978l-23.98.651.008-3.681,23.974-.525Z" transform="translate(-1555.062 -1645.637)" fill="#fff"/>
        <path id="Trazado_170458" data-name="Trazado 170458" d="M1312.732,2140.69l-6.827.373.02-7.473,6.823-.3Z" transform="translate(-1297.359 -2086.046)" fill="#fff"/>
        <path id="Trazado_170459" data-name="Trazado 170459" d="M1595.75,2103.868l-24.006,1.157.008-3.689,24-1.031Z" transform="translate(-1554.183 -2054.179)" fill="#fff"/>
      </g>
      <path id="Trazado_170460" data-name="Trazado 170460" d="M1082.783,805.305l-28.13,2.075.239-70.8,17.376.415c-3.4,5.844-7.544,17.517,4.313,28.458C1088.631,776.569,1093.461,793.568,1082.783,805.305Z" transform="translate(-1054.066 -732.768)" fill="none" opacity="0.3" style="mix-blend-mode: soft-light;isolation: isolate"/>
      <path id="Trazado_170461" data-name="Trazado 170461" d="M1149.32,625.426V691.66l-18.713,1.381-28.13,2.075.239-70.8,17.376.415Z" transform="translate(-1100.83 -624.313)" fill="#3d46c2"/>
      <path id="Trazado_170462" data-name="Trazado 170462" d="M1130.607,693.041l-28.13,2.075.239-70.8,17.376.415c-3.4,5.844-7.544,17.517,4.313,28.458C1136.455,664.3,1141.286,681.3,1130.607,693.041Z" transform="translate(-1100.829 -624.313)" fill="none" opacity="0.5" style="mix-blend-mode: soft-light;isolation: isolate"/>
      <path id="Trazado_170463" data-name="Trazado 170463" d="M1217.091,742.781l-21.224-.22.019-5.9,21.214.393Z" transform="translate(-1191.053 -732.851)" opacity="0.6" fill="url(#linear-gradient-6)" style="mix-blend-mode: multiply;isolation: isolate"/>
      <path id="Trazado_170464" data-name="Trazado 170464" d="M1378.563,1162.341l-6.812.073.02-7.441h6.808Z" transform="translate(-1360.972 -1136.977)" opacity="0.6" fill="url(#linear-gradient-6)" style="mix-blend-mode: multiply;isolation: isolate"/>
      <path id="Trazado_170465" data-name="Trazado 170465" d="M1660.945,1157.63l-23.954.146.007-3.673,23.948-.021Z" transform="translate(-1617.217 -1136.116)" fill="#fff" opacity="0.5"/>
      <path id="Trazado_170466" data-name="Trazado 170466" d="M1377.363,1600.391l-6.819.223.02-7.457,6.815-.148Z" transform="translate(-1359.805 -1560.158)" opacity="0.6" fill="url(#linear-gradient-6)" style="mix-blend-mode: multiply;isolation: isolate"/>
      <path id="Trazado_170467" data-name="Trazado 170467" d="M1660.063,1579.646l-23.98.651.008-3.681,23.974-.525Z" transform="translate(-1616.34 -1543.814)" fill="#fff" opacity="0.5"/>
      <path id="Trazado_170468" data-name="Trazado 170468" d="M1376.161,2039.358l-6.827.373.02-7.473,6.823-.3Z" transform="translate(-1358.636 -1984.224)" opacity="0.6" fill="url(#linear-gradient-6)" style="mix-blend-mode: multiply;isolation: isolate"/>
      <path id="Trazado_170469" data-name="Trazado 170469" d="M1659.179,2002.536l-24.006,1.157.008-3.689,24-1.031Z" transform="translate(-1615.461 -1952.357)" fill="#fff" opacity="0.5"/>
    </g>
    <g id="Grupo_115959" data-name="Grupo 115959" transform="translate(512.471 678.463)">
      <path id="Trazado_170470" data-name="Trazado 170470" d="M628.792,2245.157a2.555,2.555,0,0,0,2.306-4.542c-.06-.031-.121-.056-.183-.081a14.69,14.69,0,0,0,.486-2.094c.066,0,.133,0,.2-.007a2.665,2.665,0,0,0,2.343-2.713,2.257,2.257,0,0,0-2.443-2.286c-.069.006-.137.017-.2.029a13.479,13.479,0,0,0-.566-2c.061-.036.121-.072.18-.114a2.665,2.665,0,0,0,.808-3.492,2.257,2.257,0,0,0-3.287-.624c-.058.041-.113.084-.166.129a11.938,11.938,0,0,0-1.466-1.369c.037-.061.074-.123.107-.188.637-1.254,1.469-2.625.3-3.195-2.7-1.319-3.86-.19-4.5,1.064-.033.065-.061.131-.089.2a11.956,11.956,0,0,0-1.971-.376c0-.07.007-.14.006-.21-.028-1.381.382-2.128-.945-2.154-2.893-.056-3.869,1.2-3.842,2.58,0,.072.007.143.015.213a13.467,13.467,0,0,0-1.948.723c-.03-.062-.061-.123-.1-.182a2.257,2.257,0,0,0-3.288-.623,2.665,2.665,0,0,0-.808,3.492c.035.058.073.113.113.167a14.7,14.7,0,0,0-1.4,1.628c-.056-.035-.113-.07-.173-.1a2.555,2.555,0,0,0-2.306,4.543c.06.031.121.056.183.08a14.7,14.7,0,0,0-.486,2.094c-.066,0-.133,0-.2.007a2.666,2.666,0,0,0-2.343,2.713,2.257,2.257,0,0,0,2.443,2.286c.069-.006.137-.017.2-.029a13.464,13.464,0,0,0,.566,2c-.061.036-.121.073-.18.114a2.665,2.665,0,0,0-.807,3.492,3.307,3.307,0,0,0,4.083.872c.058-.041-.683-.333-.629-.378a11.927,11.927,0,0,0,1.466,1.369c-.037.061-.074.123-.107.188a2.36,2.36,0,1,0,4.2,2.13c.033-.065.061-.131.089-.2a11.96,11.96,0,0,0,1.971.376c0,.07-.007.139-.006.21a2.257,2.257,0,0,0,2.443,2.286,2.665,2.665,0,0,0,2.343-2.713c0-.072-.008-.143-.015-.213a13.407,13.407,0,0,0,1.948-.723c.03.062.061.123.1.182a2.257,2.257,0,0,0,3.287.624,2.665,2.665,0,0,0,.808-3.492c-.035-.058-.074-.113-.113-.166a14.7,14.7,0,0,0,1.4-1.628C628.675,2245.092,628.732,2245.126,628.792,2245.157Zm-14.442.183c-4.206-2.135-5.742-7.559-3.429-12.113s7.6-6.515,11.8-4.38,5.741,7.559,3.429,12.114S618.557,2247.476,614.35,2245.34Z" transform="translate(-603.128 -2221.131)" fill="#f85316"/>
      <path id="Trazado_170471" data-name="Trazado 170471" d="M982.895,2312.482a2.665,2.665,0,0,0,2.343-2.713,2.258,2.258,0,0,0-2.443-2.286c-.069.006-.137.017-.2.029a13.475,13.475,0,0,0-.566-2c.061-.035.121-.073.18-.114,1.131-.792,2.53-2.706,1.732-3.767-1.514-2.012-3.081-1.142-4.212-.349-.058.041-.113.084-.166.129a11.957,11.957,0,0,0-1.467-1.369c.037-.061.074-.123.107-.188a2.632,2.632,0,0,0,.148-2.075q-1.638,2.883-3.228,5.794a9.054,9.054,0,0,1,2.326,11.436,9.262,9.262,0,0,1-8.76,5.22c-.154.4-.3.8-.47,1.2-.447,1.073-.955,2.123-1.464,3.172q.48.09.964.141c0,.07-.007.14-.006.21.028,1.38.866,2.553,3.261,2.426,1.325-.07,1.553-1.472,1.525-2.853,0-.072-.007-.143-.015-.212a13.44,13.44,0,0,0,1.948-.723c.03.062.061.123.1.182a3.446,3.446,0,0,0,4.191.827c1.131-.792.588-2.56-.1-3.7-.035-.058-.074-.113-.112-.167a14.684,14.684,0,0,0,1.4-1.628c.056.035.113.07.173.1a2.555,2.555,0,0,0,2.306-4.543c-.06-.031-.121-.056-.183-.081a14.69,14.69,0,0,0,.486-2.094C982.76,2312.489,982.827,2312.488,982.895,2312.482Z" transform="translate(-954.42 -2295.181)" fill="#f85316"/>
      <path id="Trazado_170472" data-name="Trazado 170472" d="M665.536,2245.338a2.555,2.555,0,0,0,2.306-4.543c-.06-.031-.121-.056-.183-.081a14.69,14.69,0,0,0,.486-2.094c.066,0,.133,0,.2-.007a2.665,2.665,0,0,0,2.343-2.713,2.257,2.257,0,0,0-2.443-2.286c-.069.006-.137.017-.2.029a13.469,13.469,0,0,0-.566-2c.061-.036.121-.072.18-.114a2.665,2.665,0,0,0,.808-3.492,2.257,2.257,0,0,0-3.288-.624c-.058.041-.112.084-.166.129a11.942,11.942,0,0,0-1.466-1.369c.037-.061.074-.123.107-.188a2.36,2.36,0,1,0-4.2-2.13c-.033.065-.062.131-.089.2a11.908,11.908,0,0,0-1.971-.376c0-.07.007-.14.006-.21a2.257,2.257,0,0,0-2.443-2.286,2.665,2.665,0,0,0-2.343,2.713c0,.073.008.143.015.213a13.5,13.5,0,0,0-1.948.723c-.03-.062-.061-.123-.1-.182a2.257,2.257,0,0,0-3.288-.624,2.666,2.666,0,0,0-.807,3.493c.035.058.074.113.113.166a14.7,14.7,0,0,0-1.4,1.628c-.056-.035-.113-.07-.173-.1a2.555,2.555,0,0,0-2.306,4.542c.06.031.121.056.183.081a14.682,14.682,0,0,0-.486,2.094c-.066,0-.133,0-.2.007a2.665,2.665,0,0,0-2.343,2.713,2.257,2.257,0,0,0,2.443,2.286c.069-.006.137-.017.2-.029a13.468,13.468,0,0,0,.566,2c-.061.036-.121.072-.18.114a2.666,2.666,0,0,0-.808,3.493,2.257,2.257,0,0,0,3.288.624c.058-.041.112-.084.166-.129a11.963,11.963,0,0,0,1.466,1.369c-.037.061-.074.123-.107.188a2.36,2.36,0,1,0,4.2,2.13c.033-.065.061-.131.089-.2a11.958,11.958,0,0,0,1.971.376c0,.07-.007.139-.006.21a2.257,2.257,0,0,0,2.443,2.286,2.665,2.665,0,0,0,2.343-2.713c0-.072-.008-.143-.015-.213a13.5,13.5,0,0,0,1.948-.723c.03.061.061.123.1.182a2.257,2.257,0,0,0,3.287.624,2.665,2.665,0,0,0,.808-3.492c-.035-.058-.074-.113-.113-.167a14.66,14.66,0,0,0,1.4-1.628C665.419,2245.273,665.476,2245.307,665.536,2245.338Zm-14.442.183c-4.206-2.135-5.742-7.559-3.429-12.114s7.6-6.515,11.8-4.38,5.742,7.559,3.429,12.114S655.3,2247.656,651.094,2245.521Z" transform="translate(-638.626 -2221.17)" fill="#f85316"/>
    </g>
    <g id="Grupo_115960" data-name="Grupo 115960" transform="translate(509.289 657.338)">
      <path id="Trazado_170473" data-name="Trazado 170473" d="M525.374,1613.25a1.6,1.6,0,0,0,1.446-2.847c-.038-.019-.076-.035-.115-.05a9.207,9.207,0,0,0,.3-1.312c.042,0,.083,0,.126,0a1.67,1.67,0,0,0,1.469-1.7,1.415,1.415,0,0,0-1.531-1.433c-.043,0-.086.011-.128.018a8.451,8.451,0,0,0-.355-1.253c.038-.022.076-.045.113-.071a1.671,1.671,0,0,0,.506-2.189,1.415,1.415,0,0,0-2.06-.391c-.036.026-.071.053-.1.081a7.489,7.489,0,0,0-.919-.858c.023-.038.046-.077.067-.118.4-.786.921-1.645.189-2-1.693-.826-2.419-.119-2.819.667-.021.041-.038.082-.056.124a7.5,7.5,0,0,0-1.235-.236c0-.044,0-.087,0-.132-.017-.865.239-1.333-.592-1.35-1.813-.035-2.425.752-2.408,1.617,0,.045,0,.089.009.133a8.449,8.449,0,0,0-1.221.453c-.019-.039-.038-.077-.061-.114a1.415,1.415,0,0,0-2.061-.391,1.67,1.67,0,0,0-.506,2.189c.022.036.046.071.071.1a9.188,9.188,0,0,0-.879,1.02c-.035-.022-.071-.043-.108-.063a1.6,1.6,0,0,0-1.446,2.847c.038.019.076.035.115.051a9.206,9.206,0,0,0-.3,1.312c-.042,0-.083,0-.126,0a1.671,1.671,0,0,0-1.469,1.7,1.415,1.415,0,0,0,1.531,1.433c.043,0,.086-.01.128-.018a8.446,8.446,0,0,0,.355,1.253c-.038.022-.076.045-.113.071a1.671,1.671,0,0,0-.506,2.189,2.073,2.073,0,0,0,2.559.547c.036-.026-.428-.209-.394-.237a7.5,7.5,0,0,0,.919.858c-.023.038-.046.077-.067.118a1.479,1.479,0,1,0,2.63,1.335c.021-.041.038-.082.056-.124a7.489,7.489,0,0,0,1.235.236c0,.044,0,.088,0,.132a1.415,1.415,0,0,0,1.531,1.433,1.671,1.671,0,0,0,1.469-1.7c0-.045,0-.089-.009-.133a8.464,8.464,0,0,0,1.221-.453c.019.039.038.077.061.114a1.415,1.415,0,0,0,2.061.391,1.67,1.67,0,0,0,.506-2.189c-.022-.036-.046-.071-.07-.1a9.2,9.2,0,0,0,.879-1.021C525.3,1613.209,525.337,1613.23,525.374,1613.25Zm-9.052.115a5.815,5.815,0,1,1,7.4-2.745A5.588,5.588,0,0,1,516.323,1613.365Z" transform="translate(-509.289 -1598.191)" fill="#3d46c2"/>
      <path id="Trazado_170474" data-name="Trazado 170474" d="M747.314,1655.447a1.671,1.671,0,0,0,1.469-1.7,1.415,1.415,0,0,0-1.531-1.433c-.043,0-.086.011-.128.018a8.446,8.446,0,0,0-.355-1.253c.038-.022.076-.045.113-.071.709-.5,1.586-1.7,1.085-2.361-.949-1.261-1.931-.715-2.64-.219-.036.026-.071.053-.1.081a7.5,7.5,0,0,0-.919-.858c.023-.038.046-.077.067-.118a1.649,1.649,0,0,0,.093-1.3q-1.027,1.807-2.023,3.631a5.675,5.675,0,0,1,1.458,7.168,5.805,5.805,0,0,1-5.491,3.272c-.1.25-.191.5-.294.75-.28.672-.6,1.331-.918,1.988q.3.057.6.089c0,.044,0,.088,0,.132.017.865.543,1.6,2.044,1.521.83-.044.973-.923.956-1.788,0-.045,0-.089-.009-.133a8.446,8.446,0,0,0,1.221-.453c.019.039.038.077.061.114a2.159,2.159,0,0,0,2.627.519c.709-.5.369-1.6-.06-2.317-.022-.036-.046-.071-.071-.1a9.205,9.205,0,0,0,.879-1.02c.035.022.071.043.108.063a1.6,1.6,0,0,0,1.446-2.847c-.038-.019-.076-.035-.115-.05a9.2,9.2,0,0,0,.3-1.312C747.23,1655.451,747.272,1655.451,747.314,1655.447Z" transform="translate(-729.467 -1644.603)" fill="#3d46c2"/>
      <path id="Trazado_170475" data-name="Trazado 170475" d="M548.4,1613.364a1.6,1.6,0,0,0,1.446-2.847c-.038-.019-.076-.035-.115-.05a9.215,9.215,0,0,0,.3-1.312c.042,0,.083,0,.126,0a1.671,1.671,0,0,0,1.469-1.7,1.415,1.415,0,0,0-1.531-1.433c-.043,0-.086.011-.128.018a8.436,8.436,0,0,0-.355-1.253c.038-.022.076-.045.113-.071a1.671,1.671,0,0,0,.506-2.189,1.415,1.415,0,0,0-2.061-.391c-.036.026-.07.053-.1.081a7.488,7.488,0,0,0-.919-.858c.023-.038.046-.077.067-.118a1.479,1.479,0,1,0-2.63-1.335c-.021.041-.038.082-.056.123a7.485,7.485,0,0,0-1.235-.236c0-.044,0-.088,0-.132a1.415,1.415,0,0,0-1.531-1.433,1.671,1.671,0,0,0-1.469,1.7c0,.045,0,.089.009.133a8.443,8.443,0,0,0-1.221.453c-.019-.039-.039-.077-.061-.114a1.415,1.415,0,0,0-2.061-.391,1.671,1.671,0,0,0-.506,2.189c.022.036.046.071.071.1a9.212,9.212,0,0,0-.879,1.02c-.035-.022-.071-.044-.108-.063a1.6,1.6,0,0,0-1.446,2.847c.038.019.076.035.115.051a9.209,9.209,0,0,0-.3,1.312c-.042,0-.083,0-.126,0a1.671,1.671,0,0,0-1.469,1.7,1.415,1.415,0,0,0,1.531,1.433c.043,0,.086-.011.128-.018a8.448,8.448,0,0,0,.355,1.253c-.038.022-.076.045-.113.071a1.67,1.67,0,0,0-.506,2.189,1.415,1.415,0,0,0,2.06.391c.036-.026.07-.053.1-.081a7.489,7.489,0,0,0,.919.858c-.023.038-.046.077-.067.118a1.479,1.479,0,1,0,2.629,1.335c.021-.041.039-.082.056-.123a7.487,7.487,0,0,0,1.235.236c0,.044,0,.088,0,.132a1.415,1.415,0,0,0,1.531,1.433,1.671,1.671,0,0,0,1.469-1.7c0-.045,0-.089-.009-.133a8.449,8.449,0,0,0,1.221-.453c.019.038.038.077.061.114a1.415,1.415,0,0,0,2.06.391,1.671,1.671,0,0,0,.506-2.189c-.022-.036-.046-.071-.071-.1a9.219,9.219,0,0,0,.88-1.02C548.33,1613.323,548.366,1613.345,548.4,1613.364Zm-9.052.115a5.815,5.815,0,1,1,7.4-2.745A5.589,5.589,0,0,1,539.352,1613.479Z" transform="translate(-531.537 -1598.217)" fill="#3d46c2"/>
    </g>
    <g id="Grupo_115963" data-name="Grupo 115963" transform="translate(561.66 670.652)">
      <path id="Trazado_170476" data-name="Trazado 170476" d="M2101.788,2009.633v37.329l26.247-1.7a1.043,1.043,0,0,0,1.058-.954v-33.316a1.053,1.053,0,0,0-1.105-.956Z" transform="translate(-2100.155 -2008.994)" fill="#f59c7a"/>
      <path id="Trazado_170477" data-name="Trazado 170477" d="M2062.473,2042.185v35.122l26.366-1.611a.982.982,0,0,0,1-.9v-31.346a.99.99,0,0,0-1.04-.9Z" transform="translate(-2062.173 -2040.442)" fill="none" opacity="0.67"/>
      <path id="Rectángulo_42645" data-name="Rectángulo 42645" d="M0,0H0A3,3,0,0,1,3,3V4.061a3,3,0,0,1-3,3H0a0,0,0,0,1,0,0V0A0,0,0,0,1,0,0Z" transform="translate(27.888 3.089)" fill="#dce736"/>
      <path id="Trazado_170478" data-name="Trazado 170478" d="M2053.617,1992.473v35.332a1.174,1.174,0,0,0,1.1,1.082l21.2,2.764a1.061,1.061,0,0,0,1.254-.927v-39.015a1.04,1.04,0,0,0-1.141-.934l-21.159.6A1.2,1.2,0,0,0,2053.617,1992.473Z" transform="translate(-2053.617 -1990.775)" fill="#f85316"/>
      <g id="Grupo_115962" data-name="Grupo 115962" transform="translate(6.219 6.766)">
        <g id="Grupo_115961" data-name="Grupo 115961">
          <path id="Trazado_170479" data-name="Trazado 170479" d="M2237.016,2198.439l8.194.293v15.159l1.956.2v.6l-10.021-1.028v-.575l1.792.179v-14.176l-1.921-.073Zm4.981-2.074a3.232,3.232,0,0,1-2.518-.938,3.274,3.274,0,0,1-.74-2.173,2.927,2.927,0,0,1,.806-2.122,3.31,3.31,0,0,1,2.486-.84,3.846,3.846,0,0,1,2.591.776,2.79,2.79,0,0,1,.9,2.224,3.043,3.043,0,0,1-.865,2.284A3.552,3.552,0,0,1,2242,2196.365Z" transform="translate(-2237.016 -2190.292)" fill="#fff"/>
        </g>
      </g>
      <path id="Trazado_170480" data-name="Trazado 170480" d="M2063.469,2033.222c-.306-4.126,2.733-5.111,2.221-9.925-.742-6.972-7.582-9.3-7.014-15.035a8.762,8.762,0,0,1,2.027-4.588l-5.828.166a1.2,1.2,0,0,0-1.259,1.095v35.332a1.174,1.174,0,0,0,1.1,1.082l16.333,2.129C2065.355,2039.52,2063.675,2036.007,2063.469,2033.222Z" transform="translate(-2053.617 -2003.237)" fill="none" opacity="0.3" style="mix-blend-mode: multiply;isolation: isolate"/>
    </g>
  </g>
</svg>
