<svg xmlns="http://www.w3.org/2000/svg" xmlns:xlink="http://www.w3.org/1999/xlink" width="79.312" height="82.112" viewBox="0 0 79.312 82.112">
  <defs>
    <linearGradient id="linear-gradient" x1="2.015" y1="-2.194" x2="-1.187" y2="3.39" gradientUnits="objectBoundingBox">
      <stop offset="0" stop-color="#444b8c"/>
      <stop offset="0.996" stop-color="#3e4177"/>
    </linearGradient>
    <linearGradient id="linear-gradient-2" x1="0.523" y1="0.432" x2="-0.412" y2="1.64" xlink:href="#linear-gradient"/>
    <linearGradient id="linear-gradient-3" x1="3.051" y1="-2.38" x2="-2.107" y2="3.403" gradientUnits="objectBoundingBox">
      <stop offset="0" stop-color="#ffc444"/>
      <stop offset="0.996" stop-color="#f36f56"/>
    </linearGradient>
    <linearGradient id="linear-gradient-4" x1="1.304" y1="-0.501" x2="0.331" y2="0.536" xlink:href="#linear-gradient"/>
  </defs>
  <g id="Grupo_116043" data-name="Grupo 116043" transform="translate(-617.156 -757.624)">
    <g id="Grupo_116042" data-name="Grupo 116042" transform="translate(617.156 757.624)">
      <g id="Grupo_116019" data-name="Grupo 116019" transform="translate(0 11.264)">
        <path id="Trazado_171193" data-name="Trazado 171193" d="M1724.061,2078.845l-10.494.3a1.583,1.583,0,0,0-1.184,2.441c3.348,5.1-.51,10.083-3.624,10.4-3.615.37-7.257-1.583-6.909-6.035a13.494,13.494,0,0,1,1.188-4.625,1.512,1.512,0,0,0-1.315-2.2l-12.471.352v11.105a1.05,1.05,0,0,0,1.567.965,8.18,8.18,0,0,1,4.684-1.042c4.211.25,6.6,3.833,5.079,6.882-2.938,5.88-6.81,4.531-9,3.052a1.13,1.13,0,0,0-1.7,1.032v12.8l32.582-2.063a2.053,2.053,0,0,0,1.924-2.071l.415-30.99Z" transform="translate(-1653.415 -2045.944)" fill="url(#linear-gradient)"/>
        <path id="Trazado_171194" data-name="Trazado 171194" d="M655.322,1761.685c2.191,1.479,6.063,2.828,9-3.052,1.524-3.05-.868-6.632-5.079-6.882a8.181,8.181,0,0,0-4.684,1.042,1.05,1.05,0,0,1-1.567-.965v-11.105l-11.805.333a1.562,1.562,0,0,1-1.333-2.364c4.1-7.45-2.529-10.464-4.2-10.309-1.851.171-7.632,1.319-7.632,5.736a10.816,10.816,0,0,0,1.208,4.916,1.663,1.663,0,0,1-1.392,2.422l-10.68.3v33.931a2.053,2.053,0,0,0,2.186,2.049l34.285-2.224v-12.8A1.13,1.13,0,0,1,655.322,1761.685Z" transform="translate(-617.156 -1707.192)" fill="url(#linear-gradient-2)"/>
        <path id="Trazado_171195" data-name="Trazado 171195" d="M617.156,1129.165l10.68-.3a1.663,1.663,0,0,0,1.392-2.422,10.817,10.817,0,0,1-1.208-4.916c0-4.417,5.781-5.565,7.632-5.736,1.673-.155,8.3,2.859,4.2,10.309a1.562,1.562,0,0,0,1.333,2.364l11.805-.333v-11.306a1.1,1.1,0,0,1,1.74-.941c3.414,2.557,8.218.186,9.028-1.778.959-2.328,1.221-7.05-3.681-8.41a6.628,6.628,0,0,0-5.687.788,1.081,1.081,0,0,1-1.668-.958l.745-10.452-.745-.3-32.355-.175a3.144,3.144,0,0,0-3.161,3.138Z" transform="translate(-617.156 -1094.599)" fill="#3d46c2"/>
        <path id="Trazado_171196" data-name="Trazado 171196" d="M1746.351,2087.761l-10.494.3a1.583,1.583,0,0,0-1.184,2.441c3.348,5.1-.51,10.083-3.624,10.4-3.615.37-7.257-1.583-6.909-6.035a13.494,13.494,0,0,1,1.188-4.625,1.512,1.512,0,0,0-1.315-2.2l-12.471.352V2099.5a1.05,1.05,0,0,0,1.567.965,8.182,8.182,0,0,1,4.684-1.042c4.211.25,6.6,3.833,5.079,6.882-2.938,5.88-6.81,4.531-9,3.052a1.13,1.13,0,0,0-1.7,1.032v12.8l32.582-2.063a2.053,2.053,0,0,0,1.924-2.071Z" transform="translate(-1674.96 -2054.563)" fill="#3d46c2"/>
        <path id="Trazado_171197" data-name="Trazado 171197" d="M1790.623,2137.114l-8.87.268a8.644,8.644,0,0,1,.735,8.27,7.513,7.513,0,0,1-5.6,4.58c-.2.021-.4.035-.6.044a7.868,7.868,0,0,1-6.278-2.378,7.055,7.055,0,0,1-1.663-5.408,15.249,15.249,0,0,1,1.289-5.1l-10.762.322v8.62a9.614,9.614,0,0,1,3.718-.873c.359-.014.729-.009,1.1.013a7.362,7.362,0,0,1,6.274,3.806,5.979,5.979,0,0,1,.018,5.448c-2.078,4.165-4.676,5.155-6.5,5.25a7.336,7.336,0,0,1-3.979-1.026v10.176l29.81-1.837a1.747,1.747,0,0,0,1.64-1.765Z" transform="translate(-1720.709 -2102.266)" fill="none" opacity="0.3" style="mix-blend-mode: soft-light;isolation: isolate"/>
        <path id="Trazado_171198" data-name="Trazado 171198" d="M677.613,1770.6c2.191,1.479,6.063,2.828,9-3.052,1.524-3.05-.868-6.632-5.079-6.882a8.181,8.181,0,0,0-4.684,1.042,1.05,1.05,0,0,1-1.567-.965v-11.105l-11.805.333a1.562,1.562,0,0,1-1.333-2.364c4.1-7.45-2.529-10.464-4.2-10.309-1.851.171-7.632,1.319-7.632,5.736a10.816,10.816,0,0,0,1.208,4.916,1.663,1.663,0,0,1-1.392,2.422l-10.68.3V1784.6a2.053,2.053,0,0,0,2.186,2.049l34.285-2.224v-12.8A1.129,1.129,0,0,1,677.613,1770.6Z" transform="translate(-638.702 -1715.81)" fill="#75b62f"/>
        <path id="Trazado_171199" data-name="Trazado 171199" d="M729.1,1813.422a4.5,4.5,0,0,0-3.832-2.167c-.272-.016-.543-.018-.805-.007a6.41,6.41,0,0,0-3.008.842,2.616,2.616,0,0,1-1.206.36,2.487,2.487,0,0,1-1.863-.723,2.752,2.752,0,0,1-.81-1.984v-9.457l-10.218.305a3.013,3.013,0,0,1-2.745-1.563,3.353,3.353,0,0,1,0-3.292c1.225-2.224,1.434-4.081.621-5.523a4.883,4.883,0,0,0-3.3-2.291c-.3.031-6.08.683-6.08,4.014a9.047,9.047,0,0,0,1.019,4.133,3.409,3.409,0,0,1-.108,3.28,3.3,3.3,0,0,1-2.758,1.666l-8.981.269-.181,31.111a1.807,1.807,0,0,0,1.945,1.813l31.423-2.405v-11.153a2.917,2.917,0,0,1,2.676-2.943,2.445,2.445,0,0,1,1.5.422,5.176,5.176,0,0,0,2.971,1.023c1.415-.07,2.684-1.211,3.774-3.387A2.505,2.505,0,0,0,729.1,1813.422Z" transform="translate(-682.584 -1764.745)" fill="none" opacity="0.3" style="mix-blend-mode: soft-light;isolation: isolate"/>
        <path id="Trazado_171200" data-name="Trazado 171200" d="M639.447,1138.081l10.68-.3a1.663,1.663,0,0,0,1.392-2.422,10.816,10.816,0,0,1-1.208-4.916c0-4.417,5.781-5.565,7.632-5.736,1.673-.155,8.3,2.859,4.2,10.309a1.562,1.562,0,0,0,1.333,2.364l11.805-.333v-11.306a1.1,1.1,0,0,1,1.74-.941c3.414,2.557,8.218.186,9.028-1.778.959-2.328,1.221-7.05-3.681-8.41a6.628,6.628,0,0,0-5.687.788,1.081,1.081,0,0,1-1.668-.958v-10.75l-32.355-.176a3.144,3.144,0,0,0-3.161,3.138Z" transform="translate(-638.702 -1103.216)" fill="none"/>
        <path id="Trazado_171201" data-name="Trazado 171201" d="M684.159,1149.746a1.656,1.656,0,0,1,1.653-1.651l30.882.167v9.268a2.634,2.634,0,0,0,.764,1.872,2.572,2.572,0,0,0,1.81.759,2.532,2.532,0,0,0,1.416-.436,4.847,4.847,0,0,1,2.753-.835,6.4,6.4,0,0,1,1.7.246,3.981,3.981,0,0,1,2.724,2.044,5.7,5.7,0,0,1-.023,4.362c-.287.7-2.1,1.972-4.21,1.972a4.15,4.15,0,0,1-2.547-.819,2.531,2.531,0,0,0-1.527-.513,2.625,2.625,0,0,0-2.6,2.647v9.858l-10.348.292a.144.144,0,0,1,.006-.156c2.278-4.143,1.544-7.064.527-8.784a7.844,7.844,0,0,0-5.9-3.739c-.092,0-.182,0-.268.012-3.337.309-8.985,2.177-8.985,7.22a12.213,12.213,0,0,0,1.37,5.593.191.191,0,0,1-.011.187c-.039.066-.079.068-.1.068l-9.145.258Z" transform="translate(-681.87 -1146.307)" fill="none" opacity="0.3" style="mix-blend-mode: soft-light;isolation: isolate"/>
        <g id="Grupo_116017" data-name="Grupo 116017" transform="translate(0.745 0.297)" opacity="0.3" style="mix-blend-mode: multiply;isolation: isolate">
          <path id="Trazado_171202" data-name="Trazado 171202" d="M665.217,1121.518c-1.357-7.349.8-12.5,2.847-17.882l-25.5-.138a3.044,3.044,0,0,0-3.061,3.039l-.054,31.528,10.679-.3a1.663,1.663,0,0,0,1.392-2.422,10.816,10.816,0,0,1-1.208-4.916c0-4.417,5.781-5.565,7.632-5.736,1.673-.155,8.3,2.859,4.2,10.309a1.562,1.562,0,0,0,1.333,2.364l11.58-.327C670.407,1133.048,666.564,1128.811,665.217,1121.518Z" transform="translate(-639.447 -1103.498)" fill="#3d46c2"/>
        </g>
        <g id="Grupo_116018" data-name="Grupo 116018" transform="translate(36.582 34.028)" opacity="0.3" style="mix-blend-mode: multiply;isolation: isolate">
          <path id="Trazado_171203" data-name="Trazado 171203" d="M1711.541,2112.567v10.906a1.05,1.05,0,0,0,1.567.965,8.18,8.18,0,0,1,4.684-1.042c4.211.25,6.6,3.833,5.079,6.882-2.938,5.88-6.81,4.531-9,3.051a1.13,1.13,0,0,0-1.7,1.032v12.8l21.687-1.374a46.882,46.882,0,0,0-4.714-14.308C1724.153,2121.992,1717.273,2117.444,1711.541,2112.567Z" transform="translate(-1711.541 -2112.567)" fill="url(#linear-gradient-3)"/>
        </g>
      </g>
      <g id="Grupo_116020" data-name="Grupo 116020" transform="translate(43.639 0)">
        <path id="Trazado_171204" data-name="Trazado 171204" d="M1924.326,769.755a6.628,6.628,0,0,1,5.687-.788c4.9,1.36,4.64,6.083,3.681,8.41-.81,1.964-5.614,4.334-9.028,1.778a1.1,1.1,0,0,0-1.74.942V791.4l12.471-.352a1.512,1.512,0,0,1,1.315,2.2,13.5,13.5,0,0,0-1.188,4.625c-.348,4.453,3.294,6.4,6.909,6.035,3.114-.318,6.971-5.3,3.624-10.4a1.583,1.583,0,0,1,1.184-2.441l10.494-.3-.257-30.631a2.053,2.053,0,0,0-2.05-2.036l-32.771-.058V768.8A1.081,1.081,0,0,0,1924.326,769.755Z" transform="translate(-1922.658 -758.033)" fill="url(#linear-gradient-4)"/>
        <path id="Trazado_171205" data-name="Trazado 171205" d="M1942.159,769.332a6.628,6.628,0,0,1,5.687-.788c4.9,1.36,4.64,6.082,3.681,8.41-.81,1.964-5.614,4.334-9.028,1.778a1.1,1.1,0,0,0-1.74.941v11.306l12.471-.352a1.512,1.512,0,0,1,1.315,2.2,13.5,13.5,0,0,0-1.188,4.625c-.348,4.453,3.294,6.4,6.909,6.035,3.114-.318,6.971-5.3,3.624-10.4a1.583,1.583,0,0,1,1.184-2.441l10.494-.3-.257-30.631a2.053,2.053,0,0,0-2.05-2.036l-32.771-.058v10.75A1.081,1.081,0,0,0,1942.159,769.332Z" transform="translate(-1939.895 -757.624)" fill="#f85316"/>
      </g>
      <g id="Grupo_116029" data-name="Grupo 116029" transform="translate(10.245 53.942)">
        <g id="Grupo_116025" data-name="Grupo 116025" transform="translate(0 5.556)">
          <g id="Grupo_116021" data-name="Grupo 116021" transform="translate(0.835 5.182)">
            <path id="Trazado_171207" data-name="Trazado 171207" d="M949.636,2698.14l1.839-.131a1.035,1.035,0,0,0,.976-.979v-3.6a.866.866,0,0,0-.961-.848l-1.857.117a1.048,1.048,0,0,0-1,.977v3.623A.894.894,0,0,0,949.636,2698.14Z" transform="translate(-948.634 -2692.576)" fill="#fff"/>
          </g>
          <g id="Grupo_116022" data-name="Grupo 116022" transform="translate(6.203 2.391)">
            <path id="Trazado_171208" data-name="Trazado 171208" d="M1110.156,2617.076l1.808-.129a1.019,1.019,0,0,0,.958-.97v-6.032a.881.881,0,0,0-.97-.845l-1.785.108a.991.991,0,0,0-.942.965v6.065A.836.836,0,0,0,1110.156,2617.076Z" transform="translate(-1109.224 -2609.098)" fill="#fff"/>
          </g>
          <g id="Grupo_116023" data-name="Grupo 116023" transform="translate(11.213)">
            <path id="Trazado_171209" data-name="Trazado 171209" d="M1260.047,2547.571l1.739-.127a.968.968,0,0,0,.9-.962v-8.075a.829.829,0,0,0-.9-.843l-1.753.1a.971.971,0,0,0-.923.953v8.122A.845.845,0,0,0,1260.047,2547.571Z" transform="translate(-1259.107 -2537.562)" fill="#fff"/>
          </g>
          <g id="Grupo_116024" data-name="Grupo 116024" transform="translate(0 10.729)">
            <path id="Trazado_171210" data-name="Trazado 171210" d="M938.715,2858.536l-14.6,1.064a.486.486,0,0,0-.46.448v.237a.4.4,0,0,0,.448.383l14.611-1.088a.479.479,0,0,0,.449-.437v-.232A.4.4,0,0,0,938.715,2858.536Z" transform="translate(-923.654 -2858.535)" fill="#fff"/>
          </g>
        </g>
        <g id="Grupo_116028" data-name="Grupo 116028" transform="translate(0.454)">
          <g id="Grupo_116026" data-name="Grupo 116026" transform="translate(0 0.552)">
            <path id="Trazado_171211" data-name="Trazado 171211" d="M937.792,2395.773a.518.518,0,0,1-.284-.979l11.456-6.866a.547.547,0,0,1,.749.156.528.528,0,0,1-.2.726l-11.437,6.875A.621.621,0,0,1,937.792,2395.773Z" transform="translate(-937.224 -2387.844)" fill="#fff"/>
          </g>
          <g id="Grupo_116027" data-name="Grupo 116027" transform="translate(9.2)">
            <path id="Trazado_171212" data-name="Trazado 171212" d="M1214.751,2374.989a.574.574,0,0,1-.129-.008.5.5,0,0,1-.406-.612l.388-1.562-1.77-.429a.5.5,0,0,1-.367-.639.586.586,0,0,1,.69-.382l2.261.551a.5.5,0,0,1,.372.605l-.507,2.044A.583.583,0,0,1,1214.751,2374.989Z" transform="translate(-1212.443 -2371.342)" fill="#fff"/>
          </g>
        </g>
      </g>
      <g id="Grupo_116032" data-name="Grupo 116032" transform="translate(59.758 4.765)">
        <g id="Grupo_116030" data-name="Grupo 116030">
          <path id="Trazado_171213" data-name="Trazado 171213" d="M2412.96,916.36a8.1,8.1,0,1,1,8.1-8.1A8.1,8.1,0,0,1,2412.96,916.36Zm0-15.079a6.983,6.983,0,1,0,6.983,6.983A6.991,6.991,0,0,0,2412.96,901.281Z" transform="translate(-2404.864 -900.169)" fill="#fff"/>
        </g>
        <g id="Grupo_116031" data-name="Grupo 116031" transform="translate(3.152 7.173)">
          <path id="Trazado_171214" data-name="Trazado 171214" d="M2509.04,1115.709c0,.5-.277.954-.618.954h-8.652c-.341,0-.618-.451-.618-.954h0c0-.5.277-.954.618-.954h8.652c.341,0,.618.451.618.954Z" transform="translate(-2499.152 -1114.755)" fill="#fff"/>
        </g>
      </g>
      <g id="Grupo_116037" data-name="Grupo 116037" transform="translate(50.975 59.916)">
        <g id="Grupo_116033" data-name="Grupo 116033">
          <path id="Trazado_171215" data-name="Trazado 171215" d="M2156.482,2563.6l-12.725.7a1.572,1.572,0,0,1-1.431-.713,1.528,1.528,0,0,1,0-1.586l6.537-11.138a1.645,1.645,0,0,1,1.384-.8,1.562,1.562,0,0,1,1.372.753l6.191,10.435a1.522,1.522,0,0,1,0,1.519A1.642,1.642,0,0,1,2156.482,2563.6Zm-6.237-12.449a.493.493,0,0,0-.414.242l-6.5,11.116a.458.458,0,0,0,0,.474.472.472,0,0,0,.428.215l12.727-.664a.493.493,0,0,0,.4-.249.455.455,0,0,0,0-.457l-6.225-10.452A.468.468,0,0,0,2150.246,2551.152Z" transform="translate(-2142.104 -2550.063)" fill="#fff"/>
        </g>
        <g id="Grupo_116036" data-name="Grupo 116036" transform="translate(7.199 3.962)">
          <g id="Grupo_116034" data-name="Grupo 116034" transform="translate(0 5.959)">
            <path id="Trazado_171216" data-name="Trazado 171216" d="M2359.082,2847.045a.919.919,0,0,0-.682-.2,1.028,1.028,0,0,0-.7.255.9.9,0,0,0-.241.672.815.815,0,0,0,.245.641.93.93,0,0,0,.692.2.98.98,0,0,0,.679-.269.9.9,0,0,0,.244-.656A.82.82,0,0,0,2359.082,2847.045Z" transform="translate(-2357.461 -2846.845)" fill="#fff"/>
          </g>
          <g id="Grupo_116035" data-name="Grupo 116035" transform="translate(0.044)">
            <path id="Trazado_171217" data-name="Trazado 171217" d="M2359.312,2673.69l.719-.03a.33.33,0,0,0,.3-.308l.243-4.488a.263.263,0,0,0-.083-.207.29.29,0,0,0-.22-.076l-1.2.033a.3.3,0,0,0-.222.085.286.286,0,0,0-.084.217l.236,4.494A.3.3,0,0,0,2359.312,2673.69Z" transform="translate(-2358.77 -2668.582)" fill="#fff"/>
          </g>
        </g>
      </g>
      <g id="Grupo_116041" data-name="Grupo 116041" transform="translate(9.172 18.38)">
        <g id="Grupo_116040" data-name="Grupo 116040">
          <g id="Grupo_116038" data-name="Grupo 116038">
            <path id="Trazado_171218" data-name="Trazado 171218" d="M997.89,1315.583a1.458,1.458,0,0,1-1.406,1.466l-.047,0a1.381,1.381,0,0,1-1.409-1.409v-6.734a1.418,1.418,0,0,1,1.4-1.446h.063a1.411,1.411,0,0,1,1.4,1.436Z" transform="translate(-991.568 -1307.462)" fill="#fff"/>
            <path id="Trazado_171219" data-name="Trazado 171219" d="M894.28,1369.017a1.527,1.527,0,0,1-1.407,1.39h-.005a1.329,1.329,0,0,1-1.331-1.347v-3.1a1.364,1.364,0,0,1,1.326-1.393h.01a1.42,1.42,0,0,1,1.407,1.371Z" transform="translate(-891.536 -1362.652)" fill="#fff"/>
          </g>
          <g id="Grupo_116039" data-name="Grupo 116039" transform="translate(12.048)">
            <path id="Trazado_171220" data-name="Trazado 171220" d="M1254.833,1308.867a1.368,1.368,0,0,0-1.34-1.4h-.06a1.477,1.477,0,0,0-1.463,1.415v6.589a1.392,1.392,0,0,0,1.414,1.379h.077a1.433,1.433,0,0,0,1.372-1.434Z" transform="translate(-1251.97 -1307.462)" fill="#fff"/>
            <path id="Trazado_171221" data-name="Trazado 171221" d="M1361.534,1362.357a1.325,1.325,0,0,0-1.234-1.365h.012a1.379,1.379,0,0,0-1.282,1.385v2.985a1.246,1.246,0,0,0,1.282,1.236h-.006a1.238,1.238,0,0,0,1.229-1.275Z" transform="translate(-1355.45 -1359.203)" fill="#fff"/>
          </g>
        </g>
        <path id="Trazado_171222" data-name="Trazado 171222" d="M1113.28,1418.8l-4.056.06v-2.16l4.056-.038Z" transform="translate(-1101.947 -1413.014)" fill="#fff"/>
      </g>
    </g>
  </g>
</svg>
