<svg xmlns="http://www.w3.org/2000/svg" xmlns:xlink="http://www.w3.org/1999/xlink" width="400" height="265.817" viewBox="0 0 400 265.817">
  <defs>
    <clipPath id="clip-path">
      <path id="Trazado_175743" data-name="Trazado 175743" d="M1575.527,210.54h104.1V372.373h-104.1V210.54Z" transform="translate(-1575.527 -210.54)" fill="#d8f2ff" clip-rule="evenodd"/>
    </clipPath>
    <clipPath id="clip-path-2">
      <path id="Trazado_175754" data-name="Trazado 175754" d="M1575.527,210.54h104.1V372.373h-104.1V210.54Z" transform="translate(-1575.527 -210.54)" fill="none" clip-rule="evenodd"/>
    </clipPath>
  </defs>
  <g id="Grupo_118226" data-name="Grupo 118226" transform="translate(-340.617 -208.277)">
    <path id="Trazado_175737" data-name="Trazado 175737" d="M375.667,500.08l325.7.687c6.748-19.389,21.468-45.2,29.645-71.888,19.365-63.2,13.818-119.429-57.815-109.611,2.4-73.525-82.211-85.363-144.536-11.732-20.467-51.959-83.032-40.118-98.913,4.883-46.69,16.6-109.353,51.791-82.811,124.86,7.766,21.38,27.523,22.145,21.152,37.267-3.8,9.021,5.985,20.66,7.574,25.534Z" transform="translate(0 -40.902)" fill="#f5f1f1" fill-rule="evenodd"/>
    <path id="Trazado_175738" data-name="Trazado 175738" d="M763.725,210.54h104.1V372.373h-104.1V210.54Z" transform="translate(-348.986 -1.867)" fill="#dddffb" fill-rule="evenodd"/>
    <path id="Trazado_175739" data-name="Trazado 175739" d="M811.851,426.36v-18.8h56.717v3.173H815.023v15.63h21.489v47.493H815.023v58.7h-3.172v-58.7h-15.11V426.36Zm-26.627,29.127v17.359H773.489V455.487Zm-3.172,3.173h-5.39v11.014h5.39V458.66Zm-17.42-13.152h27.887v89.209h-3.172V448.68H764.631v-3.172Zm75.583,31.217h10.4v14.552H838.628V476.724Zm7.227,3.173H841.8V488.1h5.641V479.9Zm15.176-16.1V478.35H850.632V463.8Zm-3.173,3.173H853.8v8.207h5.641V466.97Zm-3.207-26.676v20.3H839.8v-20.3Zm-3.173,3.172h-10.09v13.952h10.09V443.466Zm9.469-27.312v20.3H846.1v-20.3Zm-3.173,3.173h-10.09v13.952h10.09V419.327Zm-44.338,41.767v9.586H833.34v-9.586Zm-3.172,9.586v-9.586H799.914v9.586Zm3.172-25.367V454.9H833.34v-9.586Zm-3.172,9.586v-9.586H799.914V454.9Zm3.172-25.367v9.586H833.34v-9.586Zm-3.172,9.586v-9.586H799.914v9.586Z" transform="translate(-349.734 -164.369)" fill="#fff"/>
    <path id="Trazado_175740" data-name="Trazado 175740" d="M761.858,208.277H866.35V370.9q-52.444.021-104.889,0V208.277Zm103.7.793h-103.3V370.11h103.3V209.07Z" transform="translate(-347.119 0)" fill="#00ccda"/>
    <g id="Grupo_118223" data-name="Grupo 118223" transform="translate(556.954 208.674)">
      <path id="Trazado_175741" data-name="Trazado 175741" d="M1575.527,210.54h104.1V372.373h-104.1V210.54Z" transform="translate(-1575.527 -210.54)" fill="#dddffb" fill-rule="evenodd"/>
      <g id="Grupo_118222" data-name="Grupo 118222" transform="translate(0 0)" clip-path="url(#clip-path)">
        <path id="Trazado_175742" data-name="Trazado 175742" d="M1576.432,573.643h53.545V695.468h3.173v-125h-56.718v3.173Z" transform="translate(-1576.274 -507.416)" fill="#fff"/>
      </g>
    </g>
    <path id="Trazado_175744" data-name="Trazado 175744" d="M1797.6,677.8h-38.185v15.932h39.771V677.8Zm-35.012,3.173h33.426v9.586h-33.426v-9.586Z" transform="translate(-1170.247 -391.962)" fill="#fff"/>
    <path id="Trazado_175745" data-name="Trazado 175745" d="M1762.588,771.056h33.426v9.586h-33.426v-9.586Zm35.012-3.173h-38.185v15.932h39.771V767.883Z" transform="translate(-1170.247 -467.164)" fill="#fff"/>
    <path id="Trazado_175746" data-name="Trazado 175746" d="M1797.6,857.964h-38.185V873.9h39.771V857.964Zm-35.012,3.173h33.426v9.586h-33.426v-9.586Z" transform="translate(-1170.247 -542.364)" fill="#fff"/>
    <path id="Trazado_175747" data-name="Trazado 175747" d="M1610.876,619.547v20.3h16.436v-20.3Zm3.173,3.172h10.09v13.951h-10.09V622.719Z" transform="translate(-1047.729 -343.4)" fill="#fff"/>
    <path id="Trazado_175748" data-name="Trazado 175748" d="M1661.662,757.34h-14.849v20.3h16.436v-20.3Zm-11.676,3.173h10.09v13.951h-10.09V760.513Z" transform="translate(-1077.371 -458.454)" fill="#fff"/>
    <path id="Trazado_175749" data-name="Trazado 175749" d="M1610.4,891.505v14.552h11.986V891.505Zm3.173,3.172h5.641v8.207h-5.641v-8.207Z" transform="translate(-1047.334 -570.329)" fill="#fff"/>
    <g id="Grupo_118225" data-name="Grupo 118225" transform="translate(556.954 208.674)">
      <g id="Grupo_118224" data-name="Grupo 118224" transform="translate(0 0)" clip-path="url(#clip-path-2)">
        <path id="Trazado_175750" data-name="Trazado 175750" d="M1689.317,965.3h-10.4v14.552H1690.9V965.3Zm-7.227,3.173h5.641v8.207h-5.641v-8.207Z" transform="translate(-1660.805 -833.073)" fill="#fff"/>
        <path id="Trazado_175751" data-name="Trazado 175751" d="M2038.432,787.1h-27.887V876.31h3.173V790.274h24.715V787.1Z" transform="translate(-1934.337 -686.096)" fill="#fff"/>
        <path id="Trazado_175752" data-name="Trazado 175752" d="M2062.331,844.066h-10.148v17.359h11.734V844.066Zm-6.976,3.173h5.39v11.014h-5.39V847.239Z" transform="translate(-1968.68 -733.082)" fill="#fff"/>
        <path id="Trazado_175753" data-name="Trazado 175753" d="M1682.07,355.929H1642.3V308.436h15.109v-18.8h56.717v3.173h-53.545v15.63h21.489Zm-51.288-18.366v17.359h-11.735V337.563Zm-3.173,3.172h-5.389v11.014h5.389V340.736Zm-72.318-13.152h82.785v89.209H1634.9V330.756h-79.612v-3.173ZM1696.173,358.8v14.552h-11.986V358.8ZM1693,361.973h-5.641v8.207H1693v-8.207Zm15.176-16.1v14.552h-11.986V345.873ZM1705,349.046h-5.641v8.207H1705v-8.207ZM1701.8,322.37v20.3h-16.436v-20.3Zm-3.173,3.173h-10.09v13.952h10.09V325.542Zm9.468-27.312v20.3h-16.435v-20.3Zm-3.173,3.173h-10.09v13.952h10.09V301.4Zm-44.338,41.767v9.586H1678.9V343.17Zm-3.173,9.586V343.17h-11.937v9.586Zm3.173-25.367v9.587H1678.9v-9.587Zm-3.173,9.587v-9.587h-11.937v9.587Zm3.173-25.367v9.586H1678.9v-9.586Zm-3.173,9.586v-9.586h-11.937v9.586Z" transform="translate(-1558.836 -275.777)" fill="#fff"/>
      </g>
    </g>
    <path id="Trazado_175755" data-name="Trazado 175755" d="M1573.661,208.277h104.492V370.9q-52.445.021-104.889,0V208.277Zm103.7.793h-103.3V370.11h103.3V209.07Z" transform="translate(-1016.706 0)" fill="#00ccda"/>
    <path id="Trazado_175756" data-name="Trazado 175756" d="M386.887,1671.928H761.119v1.787H386.887v-1.787Z" transform="translate(-38.164 -1222.357)" fill="#003254" fill-rule="evenodd"/>
    <path id="Trazado_175757" data-name="Trazado 175757" d="M386.887,1682.129h374.1v22.737h-374.1v-22.737Z" transform="translate(-38.164 -1230.772)" fill="#dee4f0" fill-rule="evenodd"/>
    <path id="Trazado_175758" data-name="Trazado 175758" d="M568.308,1108.92H899.257v4.178H568.308v-4.178Z" transform="translate(-187.803 -751.482)" fill="#003254" fill-rule="evenodd"/>
    <path id="Trazado_175759" data-name="Trazado 175759" d="M639,1132.768h306.18v4.177H639v-4.177Z" transform="translate(-246.112 -771.38)" fill="#0089b0" fill-rule="evenodd"/>
    <path id="Trazado_175760" data-name="Trazado 175760" d="M705.247,1156.613H980.862v4.178H944.3l16.32,87.495H956.9l-21.119-87.495H725.621L704.5,1248.286h-3.713l16.32-87.495H705.247v-4.178Z" transform="translate(-297.075 -797.318)" fill="#003254" fill-rule="evenodd"/>
    <path id="Trazado_175761" data-name="Trazado 175761" d="M814.058,1177.329h219.607v1.1H814.058v-1.1Z" transform="translate(-390.502 -808.459)" fill="#0089b0"/>
    <path id="Trazado_175762" data-name="Trazado 175762" d="M1058.816,1549.188l.208-.559.6-2.241,5.352.377-.914,2.945-5.251-.523Z" transform="translate(-592.382 -1118.811)" fill="#ffa38f" fill-rule="evenodd"/>
    <path id="Trazado_175763" data-name="Trazado 175763" d="M1202.06,1474.265l.208-.559.6-2.241,5.352.377-.914,2.944-5.251-.522Z" transform="translate(-710.531 -1053.947)" fill="#ffa38f" fill-rule="evenodd"/>
    <path id="Trazado_175764" data-name="Trazado 175764" d="M1058.08,1559.754c-1.193,0-4.466.085-5.476-.631-.307-.217-4.209,2.52,1.569,5.841a95.216,95.216,0,0,1,8.469,5.105,19.7,19.7,0,0,0,2.734,1.692c.659.322,3.27,1.4,3.421.177.247-2-7.543-12.184-10.717-12.184Z" transform="translate(-585.961 -1129.304)" fill="#003254" fill-rule="evenodd"/>
    <path id="Trazado_175765" data-name="Trazado 175765" d="M1201.324,1484.83c-1.193,0-4.466.085-5.476-.631-.307-.218-4.209,2.52,1.569,5.841a95.317,95.317,0,0,1,8.469,5.1,19.72,19.72,0,0,0,2.734,1.693c.659.322,3.27,1.4,3.421.177.247-2-7.543-12.184-10.717-12.184Z" transform="translate(-704.111 -1065.019)" fill="#003254" fill-rule="evenodd"/>
    <path id="Trazado_175766" data-name="Trazado 175766" d="M926.856,996.571c1.094,3.512-8.865,13.117,3.405,27.513,5.308,6.228,26.765,7.664,26.765,9.39,0,19.859-6.188,37.829-9.539,57,.372.166.64.286.712.32a37.514,37.514,0,0,0,5.477,1.527c7.152-6.26,15.443-25.013,17.554-31.11,3-8.663,11.362-21.532,10.037-31.492-.49-3.69-3.657-7-7.352-9.467v-.193c4.977,2.572,10.025,6.034,10.025,9.409,0,9.065-2.876,19.36-5.707,28.358-2.423,7.7-4.812,14.452-5.338,18.67a28.147,28.147,0,0,0,5.345,2.942c1.184-.419,2.557-1.811,4.436-5.164,6.168-11.007,31.334-59.832,14.244-67.686-11.533-5.3-39.545-18.244-50.118-12.552-4.2,2.264-14.778,2.536-19.947,2.536Z" transform="translate(-481.245 -658.397)" fill="#f85316" fill-rule="evenodd"/>
    <path id="Trazado_175767" data-name="Trazado 175767" d="M1130.455,1086.309a.548.548,0,0,1-.672.865l-16.852-13.114a.548.548,0,0,1,.672-.866l16.853,13.114Z" transform="translate(-636.841 -721.889)" fill="#970e08"/>
    <path id="Trazado_175768" data-name="Trazado 175768" d="M1092.363,563.373c1.446.177,3.628,5.238,3.927,6.733s.36,5.6,2.518,5.6c-.216-.01-5.455,5.475-8.378,3.038-.14-.116.232-.208.43-.636a13.681,13.681,0,0,0,1.552-4.389,6.458,6.458,0,0,0,.416-2.214,14.627,14.627,0,0,0-.967-6.624c-.075-.2-.177-1.594.5-1.511Z" transform="translate(-618.433 -296.435)" fill="#003254" fill-rule="evenodd"/>
    <path id="Trazado_175769" data-name="Trazado 175769" d="M983.658,552.21a13.542,13.542,0,0,1,5.744.932,5.8,5.8,0,0,1,3.479,4.4c1.289,6.313,1.134,12.179-4.785,14.218,0,1.521-.327,2.555.95,3.831,1.749,1.747,14.083,4.186,12.176,4.34-4.394.355-31.06,1.894-33.228-1.232.877-1.062,12.591-2.991,12.55-9.632-.009-1.457-.931-1.81-2.081-2.857a3.156,3.156,0,0,1-.725-3.49c1.057-1.977,2.905-1.94,4.365-.2.965,1.148.262,2.183,1.835.163,3.455-4.433.528-10.473-.282-10.473Z" transform="translate(-517.472 -287.288)" fill="#ffa38f" fill-rule="evenodd"/>
    <path id="Trazado_175770" data-name="Trazado 175770" d="M1010.534,543.693c3.073,5.337-2.935,9.517-7.1,9.3-.659-.034-1.717,1.37-2.3,1.739.091.164-.934-3.935-3.461-3.148a2.3,2.3,0,0,0-1.39,3.159c2.692,5.685,7.155.831,5.293,4.653-.874,1.793-4.742,2.974-6.425,2.22-6.548-2.935-5.735-11.931-2.056-16.993,3.957-5.444,14.482-6.065,17.438-.932Z" transform="translate(-535.848 -277.141)" fill="#003254" fill-rule="evenodd"/>
    <path id="Trazado_175771" data-name="Trazado 175771" d="M1063.09,653.484a7.03,7.03,0,0,1-3.716-1.255c-.424-.424-1.047-1.379-.712-.35a5.375,5.375,0,0,0,1.128,1.787,13.755,13.755,0,0,0,3,1.853c-.062-.585.013-1.2.013-1.93q.146-.051.288-.1Z" transform="translate(-592.177 -369.748)" fill="#f68053" fill-rule="evenodd"/>
    <path id="Trazado_175772" data-name="Trazado 175772" d="M1149.962,734.431c-.035-.073,2.4,1.11,2.71.679,4.507.356,11.147-5.256,14.892-7.955,1.774-1.279,4.443-3.62,4.874-5.781.676-3.392,3.908-4.99,5.534-7.737.9-1.52.963-1.817,1.356.058.326,1.56-2.471,3.476,3.557,2.044.777-.185,6.536-.985,3.008.866-.345.181-3.511,1.122-4.191,1.574a4.115,4.115,0,0,0,.057,3.544,1.174,1.174,0,0,0-.644,1.792,1.174,1.174,0,0,1-1.425.65c-1.174.45-3,1-3.513,2.758-6.394,22.051-38.772,37.659-44.216,10.4-.61-3.055,2.605-4.1,5.633-4.571,2.055-.319,10.051.166,11.6.915.714.346.259-.306.774.767Z" transform="translate(-652.649 -421.33)" fill="#ffa38f" fill-rule="evenodd"/>
    <path id="Trazado_175773" data-name="Trazado 175773" d="M1389.38,765.35a.4.4,0,1,1-.323.739,5.96,5.96,0,0,0-1.647-.2,4.849,4.849,0,0,0-1.5.131.955.955,0,0,0-.293.172.144.144,0,0,0-.045.064.141.141,0,0,0,.016.075.945.945,0,0,0,.2.271c.029.03.021-.007.078.021a1.711,1.711,0,0,1,.4.23.4.4,0,1,1-.547.59s-.105-.052-.193-.094a1.09,1.09,0,0,1-.311-.188,1.724,1.724,0,0,1-.363-.522.886.886,0,0,1,.213-1.024,1.724,1.724,0,0,1,.544-.337,5.461,5.461,0,0,1,1.826-.191,6.6,6.6,0,0,1,1.953.264Z" transform="translate(-861.23 -464.558)" fill="#f68053"/>
    <path id="Trazado_175774" data-name="Trazado 175774" d="M1387.362,754.223a.4.4,0,1,1-.323.739c-.014-.006-.368,0-.745,0s-.715-.013-.73,0l-.163.1-.18-.06a4.956,4.956,0,0,0-.867.207,4.145,4.145,0,0,0-.955.36,1.517,1.517,0,0,1-.3.209c-.017.008-.026.016-.144.209a.88.88,0,0,0-.055.106.4.4,0,0,0-.04.242.225.225,0,0,0,.111.134l.067.033a.4.4,0,0,1-.323.739,1.347,1.347,0,0,1-.161-.084,1.008,1.008,0,0,1-.477-.635,1.181,1.181,0,0,1,.085-.753,1.7,1.7,0,0,1,.106-.2c.235-.384.3-.419.454-.5a.885.885,0,0,0,.163-.114,6.012,6.012,0,0,1,2.489-.734,7.711,7.711,0,0,1,.914-.06,4.577,4.577,0,0,1,1.077.065Z" transform="translate(-858.986 -455.453)" fill="#f68053"/>
    <path id="Trazado_175775" data-name="Trazado 175775" d="M1387.571,743.293a.4.4,0,1,1-.114.8,6.955,6.955,0,0,0-1.307.33,15.517,15.517,0,0,0-1.92.7,4.754,4.754,0,0,0-.958.69,1.024,1.024,0,0,0-.395.765.88.88,0,0,1-.005.241.4.4,0,0,1-.492.568c-.38-.136-.347-.383-.31-.651l.009-.061a1.754,1.754,0,0,1,.629-1.436,5.559,5.559,0,0,1,1.127-.817,15.856,15.856,0,0,1,2.078-.765,6.017,6.017,0,0,1,1.66-.357Z" transform="translate(-858.988 -446.403)" fill="#f68053"/>
    <path id="Trazado_175776" data-name="Trazado 175776" d="M905.159,683.716c2.15,2.114-11.89,4.96-13.439-.892-2.944.022-14.966,5.76-17.033,7.8-3.662,3.621-8,8.954-9.047,23.259-.016.216-.007.423-.022.643.1.29,11.635,3.978,17.523,1.755,2.893-1.092-6.788,24.516-6.788,24.97,4.93,3.159,38.089,5.489,45.244-.817,1.255-3.783-1.649-19.87-.977-23.029,1.464.869,12.786-6.815,11.81-9.48-.022-.06-4.807-10.692-6-12.99-3.345-6.421-8.167-7.351-14.045-9.518-1.393-.513-7.731-2.208-7.22-1.705Z" transform="translate(-433.029 -397.143)" fill="#75b62f" fill-rule="evenodd"/>
    <path id="Trazado_175777" data-name="Trazado 175777" d="M1172.021,790.978a.4.4,0,0,1,.8-.041l.853,15.645a.4.4,0,1,1-.8.041l-.853-15.645Z" transform="translate(-685.754 -486.102)" fill="#0089b0"/>
    <path id="Trazado_175778" data-name="Trazado 175778" d="M1087.991,614.275a.4.4,0,0,1,.807,0c0,.2.055.683.123,1.187.078.568.172,1.152.227,1.38a2.985,2.985,0,0,1,.07.785.921.921,0,0,1-.265.658,1.642,1.642,0,0,1-.915.439,2.136,2.136,0,0,1-.982-.169.4.4,0,0,1,.277-.756,1.44,1.44,0,0,0,.62.125.9.9,0,0,0,.477-.25c.017-.014-.02-.029-.016-.094a2.1,2.1,0,0,0-.048-.549c-.062-.255-.162-.872-.243-1.462-.074-.543-.133-1.071-.133-1.294Z" transform="translate(-615.457 -338.431)" fill="#f68053"/>
    <path id="Trazado_175779" data-name="Trazado 175779" d="M1076.216,639.325a.4.4,0,1,1,0,.806,3.987,3.987,0,0,1-1.593-.352,3.515,3.515,0,0,1-1.261-.919.447.447,0,0,1-.135-.221.4.4,0,0,1,.743-.306h0a2.687,2.687,0,0,0,.978.712,3.17,3.17,0,0,0,1.265.279Z" transform="translate(-604.251 -358.611)" fill="#f68053"/>
    <path id="Trazado_175780" data-name="Trazado 175780" d="M1079.465,613.892c.268,0,.485.328.485.733s-.217.733-.485.733-.485-.328-.485-.733.218-.733.485-.733Z" transform="translate(-609.013 -338.401)" fill="#003254" fill-rule="evenodd"/>
    <path id="Trazado_175781" data-name="Trazado 175781" d="M1104.861,617.15c.268,0,.486.328.486.733s-.217.733-.486.733-.485-.328-.485-.733.217-.733.485-.733Z" transform="translate(-629.96 -341.119)" fill="#003254" fill-rule="evenodd"/>
    <path id="Trazado_175782" data-name="Trazado 175782" d="M1083.708,800.825l-1.544,12.968H1076.4l-1.544-12.968h-1.6v-2.419h1.291v-1.555h9.488v1.555h1.291v2.419Zm.758-1.555h-10.34v.691h10.34v-.691Zm-1.291-1.555h-7.759v.691h7.759v-.691Z" transform="translate(-604.296 -491.369)" fill="#003254" fill-rule="evenodd"/>
    <path id="Trazado_175783" data-name="Trazado 175783" d="M865.384,838.622c-.273,3.639.1,12.594,2.6,17.169a10.888,10.888,0,0,0,7.435,5.97c12.349,3.61,29.048-20.463,30.087-20.422,1.848.072,4.656,2.259,6.2-.139.258-.4-.379-.049,1.018-.284.895-.151.527-1.476.658-1.476,1.22,0,.56-1.658,1.368-1.827,1.349-1.437-1.948-2.993-3.057-3.2-2.378-.443-1.918-.518-4.351,0a69.287,69.287,0,0,0-11.5,3.65c-2.651,1.067-5.524,2.25-8.088,3.521-.086.043-4.388,1.932-4.443,1.932.269.524.159-3.05-.139-3.469-2.624,1.534-17.779-1.512-17.786-1.425Z" transform="translate(-432.773 -522.702)" fill="#ffa38f" fill-rule="evenodd"/>
    <path id="Trazado_175784" data-name="Trazado 175784" d="M931.37,885.482a.4.4,0,0,1,.353.721c-1.875.917-6.785,5.244-7.387,5.774l-.062.053a.4.4,0,1,1-.529-.6l.06-.053c.609-.538,5.584-4.922,7.565-5.891Z" transform="translate(-480.859 -565.074)" fill="#f68053"/>
    <path id="Trazado_175785" data-name="Trazado 175785" d="M1113.268,867.2a.4.4,0,1,1-.252.766l-2.7-.895a.4.4,0,1,1,.252-.766l2.7.9Z" transform="translate(-634.627 -548.971)" fill="#f68053"/>
    <path id="Trazado_175786" data-name="Trazado 175786" d="M1120.213,857.306a.4.4,0,0,1-.264.76l-3.182-1.11a.4.4,0,0,1,.265-.759l3.182,1.11Z" transform="translate(-639.957 -540.544)" fill="#f68053"/>
    <path id="Trazado_175787" data-name="Trazado 175787" d="M1129.447,847.433a.4.4,0,1,1-.29.75l-2.708-1.045a.4.4,0,1,1,.29-.75l2.708,1.045Z" transform="translate(-647.954 -532.356)" fill="#f68053"/>
    <path id="Trazado_175788" data-name="Trazado 175788" d="M965.773,811.03a.4.4,0,1,1-.8-.057l.842-11.762a.4.4,0,1,1,.8.057l-.842,11.762Z" transform="translate(-514.976 -492.93)" fill="#0089b0"/>
    <path id="Trazado_175789" data-name="Trazado 175789" d="M1725.9,1502.791l-.181-1.392-.341-8.124,8.065.117-.986,9.979-6.557-.58Z" transform="translate(-1142.172 -1075.002)" fill="#ffa38f" fill-rule="evenodd"/>
    <path id="Trazado_175790" data-name="Trazado 175790" d="M1878.979,1504.116l.181-1.392.341-8.124-8.065.116.986,9.98,6.557-.58Z" transform="translate(-1262.644 -1076.095)" fill="#ffa38f" fill-rule="evenodd"/>
    <path id="Trazado_175791" data-name="Trazado 175791" d="M1733.823,487.009c-1.451,7.107-1.276,13.71,5.386,16.005,0,1.712.368,2.876-1.069,4.312-1.969,1.966-14.75,6.337-12.6,6.51,4.947.4,33.861.508,36.3-3.011-.988-1.195-14.174-3.367-14.126-10.842.01-1.641,1.616-1.623,2.342-3.216l1.731-3.8-3-6.559c-2.125-4.647-12.959-9.2-14.96.6Z" transform="translate(-1142.103 -228.02)" fill="#ffa38f" fill-rule="evenodd"/>
    <path id="Trazado_175792" data-name="Trazado 175792" d="M1802.874,594.122a7.913,7.913,0,0,0,4.183-1.413c.478-.477,1.178-1.553.8-.394a6.045,6.045,0,0,1-1.27,2.012,15.5,15.5,0,0,1-3.375,2.085c.07-.659-.014-1.353-.014-2.172q-.166-.057-.325-.117Z" transform="translate(-1206.092 -320.008)" fill="#f68053" fill-rule="evenodd"/>
    <path id="Trazado_175793" data-name="Trazado 175793" d="M1794.629,538.6a.454.454,0,0,0-.908,0c0,.221-.062.768-.139,1.336-.087.64-.193,1.3-.255,1.554a3.33,3.33,0,0,0-.079.884,1.037,1.037,0,0,0,.3.741,1.848,1.848,0,0,0,1.03.494,2.4,2.4,0,0,0,1.105-.19.453.453,0,0,0-.312-.851,1.617,1.617,0,0,1-.7.141,1.017,1.017,0,0,1-.537-.281c-.019-.016.022-.032.018-.106a2.367,2.367,0,0,1,.054-.618c.07-.288.183-.982.273-1.646.083-.611.15-1.206.15-1.457Z" transform="translate(-1198.148 -275.251)" fill="#f68053"/>
    <path id="Trazado_175794" data-name="Trazado 175794" d="M1812.036,530.615c-.3,0-.546.369-.546.825s.245.825.546.825.546-.37.546-.825-.245-.825-.546-.825Z" transform="translate(-1213.198 -268.926)" fill="#003254" fill-rule="evenodd"/>
    <path id="Trazado_175795" data-name="Trazado 175795" d="M1783.45,534.281c-.3,0-.546.37-.546.825s.244.825.546.825.546-.369.546-.825-.244-.825-.546-.825Z" transform="translate(-1189.621 -271.984)" fill="#003254" fill-rule="evenodd"/>
    <path id="Trazado_175796" data-name="Trazado 175796" d="M1753.557,428.693c-1.3-.922-5.508-6.513-2.266-9.645.414-.4-.318-.276.958.749a12.657,12.657,0,0,0,4.1,1.993c.019,0-3.485-4.686-1.993-3.113.571.6,5.8,2.43,6.46,3.4.411-.212-3.2-2.914-3.655-3.292-.011-.009-4.83-4.781-4.008-4.172,7.237,5.367,13.172.271,17.479,12.735.12.025-.965-4.989-.643-4.874,10,3.588,1.977,18.306,1.271,17.353-.854-1.154.121-3.4-1.987-1.814a9.3,9.3,0,0,0-1.552,2.248c0-1.453-2.257-.3-1.393-.908,2.176-1.531,2.333-7.779-.434-10.153-1.633-1.4-4.55-1.417-5.943.136-3.615,4.031-5.258-2.468-6.416,8.756-.055.534-.609-.237-.646-.312a8.761,8.761,0,0,1,.663-9.089Z" transform="translate(-1162.556 -170.146)" fill="#003254" fill-rule="evenodd"/>
    <path id="Trazado_175797" data-name="Trazado 175797" d="M1710.394,984.908h-22.147c-4.332,7.237-4.375,15.082,0,23.556h44.295c4.375-8.474,4.332-16.32,0-23.556Z" transform="translate(-1108.853 -648.568)" fill="#f85316" fill-rule="evenodd"/>
    <path id="Trazado_175798" data-name="Trazado 175798" d="M1814.544,825.365a21.52,21.52,0,0,1,1.972,6.415,10.885,10.885,0,0,1-2.784,9.12c-8.174,9.936-35.527-.558-36.363.061-1.487,1.1-2.576,4.489-5.2,3.376-.438-.186.286-.254-1,.338-.825.379-1.267-.923-1.375-.85-1.009.687-1.4-1.056-2.159-.74-1.924-.429-.075-3.57.726-4.366,1.715-1.7,1.294-1.508,3.595-2.449a69.3,69.3,0,0,1,11.56-3.458c2.792-.611,5.833-1.25,8.667-1.644.094-.013,4.714-.874,4.759-.9.063.5-1.357-1.669-1.743-2.606q1.224.053,2.478.062a54.238,54.238,0,0,0,16.869-2.354Z" transform="translate(-1176.326 -515.242)" fill="#ffa38f" fill-rule="evenodd"/>
    <path id="Trazado_175799" data-name="Trazado 175799" d="M1623.239,823.557a21.545,21.545,0,0,0-2.011,6.4,10.888,10.888,0,0,0,2.727,9.136c8.113,9.987,35.53-.339,36.362.284,1.48,1.11,2.548,4.5,5.181,3.408.44-.183-.285-.255,1,.344.822.384,1.272-.916,1.38-.841,1,.693,1.4-1.047,2.163-.727,1.927-.417.1-3.57-.7-4.37-1.705-1.715-1.285-1.516-3.58-2.471a69.269,69.269,0,0,0-11.538-3.53c-2.788-.628-5.825-1.286-8.657-1.7-.095-.014-4.708-.9-4.754-.934-.066.5,1.368-1.66,1.759-2.6q-1.224.046-2.479.047a54.239,54.239,0,0,1-16.854-2.458Z" transform="translate(-1056.182 -513.734)" fill="#ffa38f" fill-rule="evenodd"/>
    <path id="Trazado_175800" data-name="Trazado 175800" d="M1657.6,633.22c-3.072.023-15.779,5.559-17.936,7.691-3.878,3.834-8.482,9.475-9.483,24.915.108.3,12.161,4.173,18.3,1.853,3.019-1.14-7.082,25.578-7.082,26.052,2.784,1.783,14.188,3.312,25.253,3.3h0c11.065.013,22.469-1.516,25.252-3.3,0-.474-10.1-27.192-7.082-26.052,6.143,2.319,18.2-1.551,18.3-1.853-1-15.44-5.6-21.081-9.483-24.915-2.157-2.132-14.776-8.43-17.848-8.453-1.316,4.969-16.882,5.732-18.2.763Z" transform="translate(-1063.654 -355.062)" fill="#dce736" fill-rule="evenodd"/>
    <path id="Trazado_175801" data-name="Trazado 175801" d="M1857.147,1029.945h0c-5.265,0-9.754,5.206-9.573,11.561l2.087,73.5h12.355c.018-.314.039-.663.063-1.05l4.642-72.447c.406-6.339-4.308-11.561-9.573-11.561Z" transform="translate(-1242.956 -688.833)" fill="#f85316" fill-rule="evenodd"/>
    <path id="Trazado_175802" data-name="Trazado 175802" d="M1854.565,1026.816l-.241.005a9.556,9.556,0,0,0-6.978,3.555,12.679,12.679,0,0,0-2.907,8.179l.008.384.485,17.085h1.093l-.486-17.115,0-.355a11.576,11.576,0,0,1,2.646-7.472,8.472,8.472,0,0,1,6.173-3.17h.212q.256,0,.477.014a8.741,8.741,0,0,1,5.98,3.149,10.853,10.853,0,0,1,2.592,7.088c0,.252-.007.5-.022.728l-.012.193h1.1l.008-.124q.026-.418.027-.8a11.953,11.953,0,0,0-2.862-7.8,9.831,9.831,0,0,0-6.739-3.525c-.192-.013-.374-.019-.545-.019Z" transform="translate(-1240.375 -683.754)" fill="#00ccda"/>
    <path id="Trazado_175803" data-name="Trazado 175803" d="M1712.632,1029.945h0c-5.266,0-9.754,5.206-9.573,11.561l2.087,73.5H1717.5c.018-.314.038-.663.063-1.05l4.642-72.447c.406-6.339-4.308-11.561-9.574-11.561Z" transform="translate(-1123.758 -688.833)" fill="#f85316" fill-rule="evenodd"/>
    <path id="Trazado_175804" data-name="Trazado 175804" d="M1705.228,1024.9l.241.006a9.555,9.555,0,0,1,6.978,3.555,12.68,12.68,0,0,1,2.907,8.179l-.007.385-.485,17.086h-1.093l.486-17.116,0-.354a11.579,11.579,0,0,0-2.646-7.472,8.473,8.473,0,0,0-6.173-3.17h-.211c-.171,0-.33,0-.477.014a8.741,8.741,0,0,0-5.98,3.149,10.854,10.854,0,0,0-2.592,7.088c0,.252.007.5.022.727l.012.193h-1.1l-.008-.124c-.018-.279-.026-.544-.026-.8a11.953,11.953,0,0,1,2.862-7.8,9.831,9.831,0,0,1,6.739-3.525c.192-.012.374-.019.545-.019Z" transform="translate(-1117.184 -682.155)" fill="#00ccda"/>
    <path id="Trazado_175805" data-name="Trazado 175805" d="M1719.347,1538.248c-.1.332-3.4,23.862,2.132,16.942,3.262-4.078,6.455-8.949,6.455-14.442,0-1.435-.13-4.881-2.364-3.529-1.689,1.022-2.79,1.562-4.758.492-.777-.422-1.093-.659-1.466.537Z" transform="translate(-1136.315 -1110.993)" fill="#003254" fill-rule="evenodd"/>
    <path id="Trazado_175806" data-name="Trazado 175806" d="M1878.035,1539.572c.1.332,3.4,23.862-2.132,16.942-3.263-4.078-6.456-8.949-6.456-14.442,0-1.435.13-4.881,2.364-3.529,1.69,1.022,2.791,1.562,4.758.493.777-.423,1.093-.659,1.465.537Z" transform="translate(-1261.003 -1112.085)" fill="#003254" fill-rule="evenodd"/>
    <path id="Trazado_175807" data-name="Trazado 175807" d="M1687.636,849.7a.4.4,0,0,1-.12.794c-2.064-.311-8.563.461-9.359.556l-.082.008a.4.4,0,0,1-.092-.8l.08-.01c.807-.1,7.392-.879,9.573-.551Z" transform="translate(-1102.787 -535.068)" fill="#f68053"/>
    <path id="Trazado_175808" data-name="Trazado 175808" d="M1863.462,918.181a.4.4,0,0,1-.642.487l-1.718-2.273a.4.4,0,0,1,.643-.487l1.718,2.273Z" transform="translate(-1254.052 -590.276)" fill="#f68053"/>
    <path id="Trazado_175809" data-name="Trazado 175809" d="M1874.8,913.984a.4.4,0,0,1-.65.475l-1.988-2.721a.4.4,0,1,1,.649-.475l1.989,2.721Z" transform="translate(-1263.176 -586.407)" fill="#f68053"/>
    <path id="Trazado_175810" data-name="Trazado 175810" d="M1888.007,911.1a.4.4,0,1,1-.665.452l-1.635-2.4a.4.4,0,1,1,.664-.453l1.635,2.4Z" transform="translate(-1274.356 -584.255)" fill="#f68053"/>
    <path id="Trazado_175811" data-name="Trazado 175811" d="M1936.053,850.925a.4.4,0,0,0,.115.795c2.066-.3,8.56.514,9.356.614l.082.009a.4.4,0,0,0,.1-.8l-.08-.01c-.807-.1-7.387-.925-9.57-.61Z" transform="translate(-1315.656 -536.097)" fill="#f68053"/>
    <path id="Trazado_175812" data-name="Trazado 175812" d="M1796.6,918.559a.4.4,0,0,0,.639.491l1.732-2.263a.4.4,0,0,0-.64-.491l-1.731,2.263Z" transform="translate(-1200.845 -590.601)" fill="#f68053"/>
    <path id="Trazado_175813" data-name="Trazado 175813" d="M1784.005,914.293a.4.4,0,0,0,.646.479l2.005-2.709a.4.4,0,0,0-.646-.479l-2,2.709Z" transform="translate(-1190.463 -586.676)" fill="#f68053"/>
    <path id="Trazado_175814" data-name="Trazado 175814" d="M1772.488,911.331a.4.4,0,0,0,.662.456l1.65-2.389a.4.4,0,1,0-.662-.456l-1.65,2.389Z" transform="translate(-1180.97 -584.455)" fill="#f68053"/>
    <path id="Trazado_175815" data-name="Trazado 175815" d="M1740.716,786.823h-42.538a3.953,3.953,0,0,0-3.942,3.942v30.874a3.953,3.953,0,0,0,3.942,3.942h42.538a3.953,3.953,0,0,0,3.942-3.942V790.765a3.953,3.953,0,0,0-3.942-3.942Z" transform="translate(-1116.486 -483.52)" fill="#3d46c2" fill-rule="evenodd"/>
  </g>
</svg>
