<svg xmlns="http://www.w3.org/2000/svg" width="107.946" height="107.662" viewBox="0 0 107.946 107.662">
  <g id="Grupo_117189" data-name="Grupo 117189" transform="translate(-114.067 -204.7)">
    <path id="Trazado_174257" data-name="Trazado 174257" d="M222.013,277.053v5.9a46.411,46.411,0,0,1-.726,5.074,32.2,32.2,0,0,1-8.428,14.847,30.444,30.444,0,0,1-17.67,9.1c-8.8,1.241-16.989-.483-24.18-5.942a5.973,5.973,0,0,0-3.858-1.3q-24.019.062-48.038.026c-.386,0-.773,0-1.159,0-2.222-.024-3.372-.924-3.888-3.042V207.689c.551-2.21,1.5-2.95,3.781-2.95q38.094,0,76.187-.039a3.949,3.949,0,0,1,4.1,4.036c-.1,4.564-.015,9.132-.037,13.7-.007,1.469-.322,1.867-1.587,2.207a1.925,1.925,0,0,1-2.143-1.838,8.7,8.7,0,0,1-.1-1.68q0-5.479,0-10.957c0-1.693-.019-1.713-1.69-1.713q-16.751,0-33.5,0-17.8,0-35.609,0c-.386,0-.772,0-1.157-.029-1.193.065-2.389.028-3.582.027-.8,0-1.166.338-1.143,1.136.011.386-.005.773-.005,1.159q0,43.953,0,87.906c0,2.3,0,2.3,2.3,2.307.772,0,1.546-.038,2.316.029,13.984-.031,27.968-.005,41.952-.02a1.773,1.773,0,0,0,1.192-.169,37.414,37.414,0,0,1-3.663-5.518,32.662,32.662,0,0,1-3.79-17.8c.089-1.289.068-1.364-1.272-1.364q-13.018-.009-26.036,0c-.457,0-.914.015-1.37-.017a2.576,2.576,0,0,1-2.565-2.564q-.124-4.478,0-8.958A2.55,2.55,0,0,1,129.29,262c3.021-.067,6.043-.049,9.065-.008,1.377.019,1.842.534,1.933,1.943-.071,1.127-.832,1.559-1.8,1.735a18.981,18.981,0,0,1-3.364.1c-1.223.044-2.447.032-3.67.012-.773-.013-1.057.312-1.043,1.065q.039,2.2,0,4.405c-.012.76.294,1.07,1.055,1.062,1.223-.014,2.447-.031,3.671.012,7.26-.036,14.521-.006,21.781-.017,1.69,0,1.7,0,2.183-1.6a37.9,37.9,0,0,1,1.379-3.862c.415-.976.364-1.054-.717-1.056-4.068-.009-8.137,0-12.205,0a7.229,7.229,0,0,1-1.881-.166,1.8,1.8,0,0,1-1.541-1.633c.083-1.526.569-2,2.2-2.007,4.919-.023,9.838-.046,14.756.017a3.2,3.2,0,0,0,3.066-1.547,29.894,29.894,0,0,1,4.672-5.172,8.936,8.936,0,0,0-1.26-.025q-18.234,0-36.468,0c-.386,0-.773.006-1.159-.023-2.3-.172-3.334-1.272-3.341-3.577-.008-2.565-.019-5.13,0-7.694a2.781,2.781,0,0,1,2.986-3.059c.351-.017.7-.01,1.054-.01q25.4,0,50.8,0a7.319,7.319,0,0,1,1.784.1,3.048,3.048,0,0,1,2.177,2.693c.083.875.02,1.756.04,2.634.025,1.1.138,1.22,1.252,1.082a26.913,26.913,0,0,1,6.305-.027c1.1.123,1.261-.037,1.264-1.218.011-4.286,0-8.573.009-12.859a14.138,14.138,0,0,1,.137-3.152c.256-1.122.675-1.484,1.858-1.652,1.388.21,1.771.631,1.775,2.1.017,5.3.005,10.6.007,15.9,0,1.72.007,1.706,1.656,2.275,11.45,3.953,18.59,11.89,21.726,23.525A42.927,42.927,0,0,1,222.013,277.053Z" transform="translate(0 0)"/>
    <path id="Trazado_174260" data-name="Trazado 174260" d="M215.868,233.082q0,2.062,0,4.124c-1.333.4-1.592.736-1.594,2.193-.007,5.2,0,10.4-.008,15.6,0,1.727.192,1.46-1.471,1.291a30.93,30.93,0,0,0-7.458.145c-.538.076-.674-.026-.659-.55.031-1.053.017-2.107.007-3.161a2.64,2.64,0,0,0-2.9-2.958q-26.241-.009-52.481,0a2.582,2.582,0,0,0-2.89,2.852c-.032,2.564-.02,5.129-.005,7.693.012,2.16.99,3.12,3.189,3.122q14.016.009,28.032,0h11.686a43.161,43.161,0,0,0-4.074,4.17,13.156,13.156,0,0,0-1.468,1.92,2.427,2.427,0,0,1-2.563,1.3c-5.093-.067-10.187-.033-15.28-.025-1.382,0-1.7.262-2.071,1.588a6.673,6.673,0,0,1-4.146,0c-.368-1.324-.69-1.584-2.071-1.589-2.74-.01-5.479-.015-8.219,0-2.026.012-2.993.954-3.012,2.954-.024,2.529-.017,5.058,0,7.587.012,2.188.951,3.118,3.176,3.12q13.645.013,27.291-.011c.777,0,1.1.1,1.012,1.013a31.848,31.848,0,0,0,7.169,23.529c.21.264.423.526.642.8-.3.26-.59.16-.85.16q-21.127.009-42.253,0c-.244,0-.488-.035-.732-.053a2.166,2.166,0,0,1-.515-1.352,14.554,14.554,0,0,1-.039-1.474q0-43.776.006-87.553c0-.967-.166-1.987.549-2.824.385-.017.769-.049,1.154-.049q34.873,0,69.745,0c1.509,0,1.51,0,1.51,1.5q0,6.374,0,12.748C214.276,232.343,214.536,232.68,215.868,233.082Z" transform="translate(-19.57 -8.586)" fill="#3d46c2"/>
    <path id="Trazado_174261" data-name="Trazado 174261" d="M310.747,426.506a29.117,29.117,0,0,1,.064-58.23c15.828-.013,28.744,13.092,28.748,29.168A28.922,28.922,0,0,1,310.747,426.506Z" transform="translate(-120.71 -117.576)" fill="#f85316"/>
    <path id="Trazado_174262" data-name="Trazado 174262" d="M130.35,216.7a41.1,41.1,0,0,0-.2,6.821q-.019,39.569,0,79.137a45.253,45.253,0,0,0,.2,7.243c-1.4.018-2.805.025-4.208.058-.634.015-.906-.263-.854-.889.017-.209,0-.421,0-.632q0-45.137,0-90.274c0-1.512,0-1.52,1.483-1.513C127.966,216.657,129.158,216.682,130.35,216.7Z" transform="translate(-8.061 -8.59)" fill="#3d46c2"/>
    <path id="Trazado_174263" data-name="Trazado 174263" d="M188.129,345.635c.315-.015.63-.043.945-.043q22.4,0,44.8-.023c.869,0,1.165.188,1.084,1.08-.092,1.011.3,2.223-.138,3s-1.806.683-2.721,1.086c-1.568.689-3.127,1.4-4.689,2.1a2.767,2.767,0,0,1-.94.061q-18.628,0-37.255,0c-1.278,0-1.391-.091-1.415-1.341-.03-1.578-.018-3.157,0-4.736A1.642,1.642,0,0,1,188.129,345.635Z" transform="translate(-52.984 -101.254)" fill="#c6edfc"/>
    <path id="Trazado_174264" data-name="Trazado 174264" d="M192.959,414.855h4.147c.394,1.282.744,1.56,2.112,1.562q6.9.013,13.8,0H214.3a34.918,34.918,0,0,0-2.473,6.922c-.152.658-.65.418-1.012.42q-7.9.023-15.8.008c-2.35,0-4.7-.038-7.05-.058a16.116,16.116,0,0,1,0-7.231c.971-.021,1.942-.073,2.913-.053A1.791,1.791,0,0,0,192.959,414.855Z" transform="translate(-52.82 -151.056)" fill="#fefefe"/>
    <path id="Trazado_174265" data-name="Trazado 174265" d="M175.779,345.652c0,2,.051,4-.022,6-.035.945.261,1.17,1.181,1.167q14.955-.049,29.91-.018c2.737,0,5.474.032,8.211.049a1.71,1.71,0,0,1-1.025.109q-21.116,0-42.231.018c-.994,0-1.238-.285-1.2-1.23.073-1.787.042-3.58.009-5.37-.011-.577.125-.808.749-.785C172.833,345.649,174.307,345.637,175.779,345.652Z" transform="translate(-40.635 -101.271)" fill="#98e4fa"/>
    <path id="Trazado_174266" data-name="Trazado 174266" d="M175.823,420.463v7.231c-1.505.02-3.012.023-4.516.069-.529.016-.648-.211-.644-.685q.024-3,0-6c0-.474.115-.7.644-.685C172.812,420.439,174.317,420.443,175.823,420.463Z" transform="translate(-40.68 -155.037)" fill="#d7e5ea"/>
    <path id="Trazado_174267" data-name="Trazado 174267" d="M188.558,259.5q12.9,0,25.809,0c2.449,0,3.347.907,3.348,3.37,0,2.423.007,4.846,0,7.269a2.73,2.73,0,0,1-3.059,3.051q-26.072.009-52.144,0c-2.036,0-3.058-1.006-3.074-3.026q-.031-3.845,0-7.69a2.647,2.647,0,0,1,3-2.971Q175.5,259.495,188.558,259.5Z" transform="translate(-32.598 -39.39)"/>
    <path id="Trazado_174268" data-name="Trazado 174268" d="M170.035,487.065c-2.84,0-5.679,0-8.519,0-1.29,0-1.956-.519-1.984-1.5-.029-1.034.677-1.649,1.978-1.651q8.625-.014,17.249,0c1.244,0,1.931.6,1.934,1.591s-.664,1.559-1.928,1.563C175.855,487.071,172.945,487.065,170.035,487.065Z" transform="translate(-32.679 -200.684)" fill="#000001"/>
    <path id="Trazado_174269" data-name="Trazado 174269" d="M364.311,414.275c.188.17.515.181.5.575-.049,1.008-.064,2.018-.07,3.027,0,.443-.334.544-.631.7a5.113,5.113,0,0,0-1.239,2.6A21.518,21.518,0,0,1,344.3,437.6a12.187,12.187,0,0,1-5.1-.175c-.736-.552-1.623-.831-2.4-1.316a23.217,23.217,0,0,1-11.271-17.616,23.473,23.473,0,0,1,13.78-24.07,13.8,13.8,0,0,1,6.451.043,21.7,21.7,0,0,1,17.36,17.442A4.579,4.579,0,0,0,364.311,414.275Z" transform="translate(-151.877 -136.101)" fill="#dce736"/>
    <path id="Trazado_174270" data-name="Trazado 174270" d="M319.159,429.984a18.833,18.833,0,0,0,10.686-1.361,21.017,21.017,0,0,0,12.762-15.483c.182-.812.393-1.583,1.356-1.8,1.562.082,2.057.693,1.792,2.213a24.619,24.619,0,1,1,.158-9c.282,1.753-.165,2.391-1.745,2.489-.9-.185-1.214-.844-1.356-1.659-1.646-9.447-8.194-16.184-17.477-17.916a15.8,15.8,0,0,0-6.162-.075c-3.637.888-7.171,2.018-10.128,4.444a21.519,21.519,0,0,0-2.347,31.616,19.914,19.914,0,0,0,10.56,5.991A8.938,8.938,0,0,1,319.159,429.984Z" transform="translate(-131.735 -128.864)" fill="#dce736"/>
    <path id="Trazado_174271" data-name="Trazado 174271" d="M188.143,270.786c.385-.012.77-.035,1.155-.035q22.151,0,44.3,0c1.345,0,1.35,0,1.344,1.4-.009,1.928-.027,3.856-.04,5.784a2.178,2.178,0,0,1-1.136.1q-22.214.009-44.429.005c-1.454,0-1.521-.059-1.538-1.541-.016-1.439-.012-2.878,0-4.316A1.86,1.86,0,0,1,188.143,270.786Z" transform="translate(-52.99 -47.475)" fill="#fefefe"/>
    <path id="Trazado_174272" data-name="Trazado 174272" d="M175.8,270.75c0,2,.048,4-.031,6-.038.961.288,1.158,1.192,1.157q22.8-.038,45.6-.015c-.229.426-.622.19-.923.191q-25,.014-49.992.019c-.863,0-1.048-.267-1.025-1.063.053-1.858.041-3.719,0-5.577-.012-.6.161-.783.761-.762C172.854,270.752,174.327,270.738,175.8,270.75Z" transform="translate(-40.647 -47.439)" fill="#d7e5ea"/>
    <path id="Trazado_174273" data-name="Trazado 174273" d="M327.185,438.659a19.2,19.2,0,0,1-11.845-5.574c-6.081-5.942-8.185-13.211-5.979-21.382,2.184-8.091,7.608-13.213,15.773-15.326a6.066,6.066,0,0,1,2.066-.314,29.026,29.026,0,0,0-6.83,4.8,23.094,23.094,0,0,0-6.694,14.094,22.787,22.787,0,0,0,3.78,15.329,21.712,21.712,0,0,0,8.775,7.759C326.568,438.211,326.971,438.293,327.185,438.659Z" transform="translate(-139.761 -137.539)" fill="#dce736"/>
    <path id="Trazado_174274" data-name="Trazado 174274" d="M378.708,423.578c0-2.284,0-4.568,0-6.851,0-1.324.571-2.031,1.6-2.016s1.558.711,1.559,2.062c0,3.83.027,7.66-.02,11.489-.01.8.207.994.989.976,2.318-.055,4.637-.027,6.956-.016,1.174.006,1.869.573,1.9,1.507.032.969-.708,1.639-1.9,1.645q-4.585.024-9.17,0c-1.352-.008-1.908-.592-1.913-1.944C378.7,428.145,378.709,425.862,378.708,423.578Z" transform="translate(-190.218 -150.952)"/>
  </g>
</svg>
