<svg xmlns="http://www.w3.org/2000/svg" width="99.791" height="99.793" viewBox="0 0 99.791 99.793">
  <g id="Grupo_117190" data-name="Grupo 117190" transform="translate(-120.035 -210.022)">
    <path id="Trazado_174276" data-name="Trazado 174276" d="M178.045,210.037h32.987c3.756,0,5.583,1.843,5.583,5.632q0,28.559-.008,57.118a3.312,3.312,0,0,0,.385,1.62,24.091,24.091,0,1,1-45.25,13.693c-.083-.866-.509-.819-1.107-.819q-22.527.01-45.055.005c-3.677,0-5.537-1.874-5.538-5.578q0-22.827-.009-45.654a2,2,0,0,1,.551-1.515q11.142-11.883,22.232-23.814a2,2,0,0,1,1.637-.7Q161.25,210.055,178.045,210.037Z" transform="translate(0 0)"/>
    <path id="Trazado_174277" data-name="Trazado 174277" d="M344.944,455.834a20.921,20.921,0,1,1,20.9-20.924A20.963,20.963,0,0,1,344.944,455.834Z" transform="translate(-149.228 -149.234)" fill="#dce736"/>
    <path id="Trazado_174278" data-name="Trazado 174278" d="M270.409,277.958c-1.047-.922-1.947-1.769-2.908-2.538-.451-.36-.3-.784-.3-1.187q-.015-17.5.012-35c0-.877-.168-1.151-1.114-1.149q-33.495.046-66.99.024H197.96c1.45-5.246,2.878-10.4,4.293-15.551.116-.424.319-.632.773-.547a2.224,2.224,0,0,0,.4,0H268.1c1.843,0,2.3.464,2.305,2.317q0,26.251,0,52.5Z" transform="translate(-57.014 -8.757)" fill="#e5e8ec"/>
    <path id="Trazado_174279" data-name="Trazado 174279" d="M135.281,301.651v1.1q0,22.07-.021,44.139c0,.842.2,1.028,1.033,1.026,14.479-.028,28.959-.013,43.438-.04.874,0,1.253.152.926,1.066a1.534,1.534,0,0,0-.06.3c-.274,1.877-.273,1.877-2.212,1.877H134.343c-1.795,0-2.281-.476-2.281-2.238q0-21.265,0-42.53A4.542,4.542,0,0,1,135.281,301.651Z" transform="translate(-8.799 -67.04)" fill="#e5e8ec"/>
    <path id="Trazado_174280" data-name="Trazado 174280" d="M335.952,360.419c0-1.91.021-3.82-.013-5.729-.01-.567.149-.726.72-.723q5.73.037,11.46,0c.566,0,.726.149.722.719q-.037,5.729,0,11.459c0,.566-.149.726-.719.722q-5.73-.037-11.46,0c-.566,0-.733-.149-.723-.719C335.974,364.239,335.952,362.329,335.952,360.419Z" transform="translate(-157.966 -105.317)" fill="#ffd4a2"/>
    <path id="Trazado_174281" data-name="Trazado 174281" d="M222.434,413.951c1.91,0,3.82.021,5.73-.013.567-.01.726.15.723.72q-.037,5.729,0,11.459c0,.566-.149.726-.719.722q-5.73-.037-11.46,0c-.566,0-.726-.149-.722-.719q.037-5.729,0-11.459c0-.566.149-.733.72-.723C218.614,413.973,220.524,413.951,222.434,413.951Z" transform="translate(-70.202 -149.195)" fill="#ffd4a2"/>
    <path id="Trazado_174282" data-name="Trazado 174282" d="M282.314,306.882c-1.877,0-3.753-.021-5.629.013-.568.01-.726-.151-.722-.72q.037-5.729,0-11.459c0-.567.151-.725.72-.722q5.73.037,11.46,0c.567,0,.725.151.722.72q-.037,5.729,0,11.459c0,.567-.15.732-.72.722C286.2,306.86,284.257,306.882,282.314,306.882Z" transform="translate(-114.085 -61.438)" fill="#ffd4a2"/>
    <path id="Trazado_174283" data-name="Trazado 174283" d="M348.83,300.444c0,1.91-.021,3.82.013,5.729.01.568-.152.725-.721.721q-5.73-.037-11.46,0c-.567,0-.725-.152-.721-.721q.037-5.729,0-11.459c0-.567.152-.725.721-.721q5.73.037,11.46,0c.568,0,.732.151.722.721C348.808,296.624,348.83,298.534,348.83,300.444Z" transform="translate(-157.968 -61.438)" fill="#ffd4a2"/>
    <path id="Trazado_174284" data-name="Trazado 174284" d="M402.472,294c1.876,0,3.753.022,5.629-.013.571-.011.723.158.719.723q-.036,5.729,0,11.459c0,.571-.157.723-.723.719q-5.73-.036-11.46,0c-.57,0-.723-.157-.719-.723q.036-5.729,0-11.459c0-.571.157-.729.723-.719C398.585,294.025,400.529,294,402.472,294Z" transform="translate(-201.851 -61.435)" fill="#ffd4a2"/>
    <path id="Trazado_174285" data-name="Trazado 174285" d="M168.895,420.389c0,1.91-.021,3.82.013,5.729.01.566-.149.726-.719.723q-5.73-.037-11.46,0c-.565,0-.726-.148-.723-.719q.037-5.729,0-11.459c0-.565.148-.726.719-.723q5.73.037,11.46,0c.565,0,.734.148.723.719C168.873,416.569,168.895,418.479,168.895,420.389Z" transform="translate(-26.318 -149.197)" fill="#ffd4a2"/>
    <path id="Trazado_174286" data-name="Trazado 174286" d="M162.355,366.855c-1.877,0-3.753-.022-5.629.013-.571.011-.723-.157-.719-.723q.036-5.729,0-11.459c0-.57.157-.723.723-.719q5.729.036,11.46,0c.57,0,.723.157.719.723q-.037,5.729,0,11.459c0,.57-.156.729-.723.719C166.242,366.834,164.3,366.855,162.355,366.855Z" transform="translate(-26.318 -105.317)" fill="#ffd4a2"/>
    <path id="Trazado_174287" data-name="Trazado 174287" d="M215.995,360.317c0-1.876.022-3.753-.013-5.629-.01-.569.154-.724.722-.721q5.73.037,11.46,0c.568,0,.724.154.721.721q-.037,5.729,0,11.459c0,.568-.154.724-.721.721q-5.73-.037-11.46,0c-.568,0-.731-.153-.721-.721C216.016,364.2,215.995,362.261,215.995,360.317Z" transform="translate(-70.199 -105.318)" fill="#ffd4a2"/>
    <path id="Trazado_174288" data-name="Trazado 174288" d="M288.852,360.519c0,1.876-.022,3.753.013,5.629.011.57-.155.724-.722.72q-5.73-.037-11.46,0c-.569,0-.724-.155-.72-.722q.037-5.729,0-11.459c0-.569.155-.724.722-.72q5.73.037,11.46,0c.569,0,.73.154.72.722C288.831,356.632,288.852,358.576,288.852,360.519Z" transform="translate(-114.085 -105.318)" fill="#ffd4a2"/>
    <path id="Trazado_174289" data-name="Trazado 174289" d="M408.661,369.574a24.687,24.687,0,0,0-7.254-2.393,21.546,21.546,0,0,0-4.8-.285c-.531.036-.682-.1-.679-.637q.032-5.831,0-11.662c0-.478.128-.623.615-.621,3.888.019,7.775.013,11.663.006.371,0,.621.006.618.51-.026,4.992-.029,9.984-.042,14.977C408.78,369.489,408.739,369.507,408.661,369.574Z" transform="translate(-201.855 -105.325)" fill="#ffd4a2"/>
    <path id="Trazado_174290" data-name="Trazado 174290" d="M222.436,294c1.91,0,3.82.021,5.73-.013.57-.01.724.155.72.722q-.037,5.73,0,11.459c0,.569-.155.723-.722.72q-5.729-.037-11.46,0c-.569,0-.723-.155-.72-.722q.037-5.729,0-11.459c0-.569.154-.731.722-.72C218.616,294.026,220.526,294,222.436,294Z" transform="translate(-70.202 -61.436)" fill="#ffd4a2"/>
    <path id="Trazado_174291" data-name="Trazado 174291" d="M282.471,413.933c1.841,0,3.684.038,5.523-.019.73-.023.876.211.86.892-.047,2.041-.054,4.084,0,6.125a10.786,10.786,0,0,1-.73,3.444c-.66,2.186-1.932,2.644-4.015,2.478-2.462-.2-4.951-.062-7.428-.034-.554.006-.734-.128-.73-.71.026-3.816.032-7.632,0-11.448-.007-.67.234-.751.8-.742C278.655,413.953,280.564,413.933,282.471,413.933Z" transform="translate(-114.071 -149.177)" fill="#ffd4a2"/>
    <path id="Trazado_174292" data-name="Trazado 174292" d="M156,296.016a4.565,4.565,0,0,1,3.214,4.228c.019.837.048,1.677-.009,2.511-.045.668.1.969.848.9,1.189-.11,2.7.463,3.493-.218.745-.635.766-2.131,1.082-3.255.506-1.8,1.015-3.6,1.474-5.414.158-.625.432-.822,1.089-.8,1.684.048,1.685.008,1.685,1.659,0,3.45-.017,6.9.015,10.35.006.661-.1.915-.846.906-3.751-.043-7.5-.03-11.255-.008-.562,0-.817-.06-.809-.737C156.026,302.785,156,299.436,156,296.016Z" transform="translate(-26.303 -61.415)" fill="#ffd4a2"/>
    <path id="Trazado_174293" data-name="Trazado 174293" d="M163.562,239.136l-5.1,18.339a8.407,8.407,0,0,0-7.29-5.309l12.244-13.116Z" transform="translate(-22.784 -21.239)" fill="#75b62f"/>
    <path id="Trazado_174294" data-name="Trazado 174294" d="M341.664,413.978a25.948,25.948,0,0,0-5.69,4.562c0-1.524.012-2.838-.006-4.151-.006-.49.315-.411.6-.411C338.17,413.977,339.768,413.978,341.664,413.978Z" transform="translate(-157.988 -149.222)" fill="#ffd4a2"/>
    <path id="Trazado_174295" data-name="Trazado 174295" d="M390.386,453.331c0,.268.017.538,0,.8-.1,1.407-.037,2.533,1.475,3.466a3.974,3.974,0,0,1,1.527,4.816,1.288,1.288,0,0,0,.44,1.541c1.238,1.179,2.412,2.425,3.647,3.607.419.4.382.629-.009,1.03-1.742,1.791-1.728,1.8-3.509.025-.878-.877-1.767-1.742-2.628-2.635a.868.868,0,0,0-1.037-.268,4.757,4.757,0,0,1-5.964-2.709,4.7,4.7,0,0,1,2.328-6.112.884.884,0,0,0,.519-.938c-.014-1.777.014-3.554-.018-5.331-.01-.549.123-.732.709-.742,2.522-.04,2.522-.062,2.522,2.439Z" transform="translate(-193.086 -175.49)"/>
    <path id="Trazado_174296" data-name="Trazado 174296" d="M399.184,427.628a1.608,1.608,0,1,1-1.549-1.641A1.635,1.635,0,0,1,399.184,427.628Z" transform="translate(-201.886 -158.01)" fill="#010202"/>
    <path id="Trazado_174297" data-name="Trazado 174297" d="M355.564,447.191a1.609,1.609,0,1,1,1.64-1.551A1.633,1.633,0,0,1,355.564,447.191Z" transform="translate(-171.173 -171.171)" fill="#010202"/>
    <path id="Trazado_174298" data-name="Trazado 174298" d="M439.529,443.98a1.608,1.608,0,1,1-1.571,1.619A1.634,1.634,0,0,1,439.529,443.98Z" transform="translate(-232.609 -171.175)" fill="#010202"/>
    <path id="Trazado_174299" data-name="Trazado 174299" d="M337.584,485.963a1.608,1.608,0,1,1-1.588,1.6A1.631,1.631,0,0,1,337.584,485.963Z" transform="translate(-158.008 -201.892)" fill="#010202"/>
    <path id="Trazado_174300" data-name="Trazado 174300" d="M457.587,489.173a1.609,1.609,0,1,1,1.577-1.614A1.634,1.634,0,0,1,457.587,489.173Z" transform="translate(-245.772 -201.888)" fill="#010202"/>
    <path id="Trazado_174301" data-name="Trazado 174301" d="M355.67,527.938a1.609,1.609,0,1,1-1.684,1.5A1.636,1.636,0,0,1,355.67,527.938Z" transform="translate(-171.168 -232.602)" fill="#010202"/>
    <path id="Trazado_174302" data-name="Trazado 174302" d="M439.593,531.154a1.609,1.609,0,1,1,1.577-1.614A1.635,1.635,0,0,1,439.593,531.154Z" transform="translate(-232.606 -232.602)" fill="#010202"/>
    <path id="Trazado_174303" data-name="Trazado 174303" d="M397.55,549.146a1.609,1.609,0,1,1,1.64-1.551A1.632,1.632,0,0,1,397.55,549.146Z" transform="translate(-201.892 -245.767)" fill="#010202"/>
    <path id="Trazado_174304" data-name="Trazado 174304" d="M248.054,243.683c-10.36,0-20.719-.011-31.078.021-.84,0-1.048-.2-1.029-1.033.06-2.613.047-5.229.005-7.844-.011-.671.189-.815.832-.815q31.38.025,62.76,0c.66,0,.831.173.821.825-.038,2.648-.049,5.3.005,7.944.016.768-.2.922-.937.92Q263.744,243.662,248.054,243.683Z" transform="translate(-70.173 -17.552)"/>
    <path id="Trazado_174305" data-name="Trazado 174305" d="M410.029,364.543c-.135.166-.247.33-.385.469-2.226,2.229-4.466,4.445-6.674,6.692-.4.4-.6.318-.946-.035q-1.678-1.733-3.414-3.411c-.375-.361-.429-.63.008-.941a.654.654,0,0,0,.072-.071c.552-.537,1.044-1.409,1.672-1.52.686-.122,1.129.886,1.668,1.405.379.365.588.379.959,0,1.4-1.442,2.86-2.829,4.246-4.285.47-.493.754-.479,1.169.016.386.46.846.859,1.27,1.288C409.79,364.264,409.9,364.394,410.029,364.543Z" transform="translate(-203.599 -111.546)"/>
    <path id="Trazado_174306" data-name="Trazado 174306" d="M230.1,305.076c-.138.164-.256.325-.395.464-2.226,2.229-4.462,4.449-6.677,6.69-.33.334-.525.376-.873.015q-1.708-1.774-3.485-3.482c-.4-.38-.372-.642.035-.943a.769.769,0,0,0,.072-.071c.553-.536,1.052-1.416,1.673-1.513.671-.1,1.134.892,1.665,1.423.393.392.6.341.959-.028,1.092-1.135,2.221-2.235,3.335-3.348,1.482-1.481,1.482-1.481,3,.037.142.142.288.281.425.428C229.918,304.843,230,304.949,230.1,305.076Z" transform="translate(-71.957 -68.156)"/>
    <path id="Trazado_174307" data-name="Trazado 174307" d="M282.609,432.073c-.181-.169-.327-.3-.464-.434-1.139-1.136-2.257-2.295-3.424-3.4-.44-.417-.364-.664.039-1.022.576-.51,1.04-1.391,1.676-1.523.71-.148,1.139.863,1.667,1.381.434.427.657.344,1.032-.041,1.4-1.441,2.85-2.838,4.252-4.28.38-.391.6-.445,1.026-.03,1.814,1.76,1.83,1.743.065,3.508s-3.508,3.508-5.263,5.261C283.03,431.677,282.837,431.854,282.609,432.073Z" transform="translate(-115.885 -155.412)"/>
    <path id="Trazado_174308" data-name="Trazado 174308" d="M397.621,485.962a1.608,1.608,0,1,1-1.65,1.538A1.633,1.633,0,0,1,397.621,485.962Z" transform="translate(-201.888 -201.892)" fill="#fb806c"/>
    <path id="Trazado_174309" data-name="Trazado 174309" d="M256.823,249.223c-9.282,0-18.564-.012-27.846.021-.84,0-1.058-.2-1.036-1.039.06-2.2.017-2.2,2.265-2.2q27.293,0,54.585-.022c.918,0,1.168.227,1.137,1.141-.07,2.1-.021,2.1-2.165,2.1Z" transform="translate(-78.949 -26.31)" fill="#dce736"/>
  </g>
</svg>
