<svg xmlns="http://www.w3.org/2000/svg" width="99.959" height="100.077" viewBox="0 0 99.959 100.077">
  <g id="Grupo_117187" data-name="Grupo 117187" transform="translate(-120.055 -209.618)">
    <path id="Trazado_174200" data-name="Trazado 174200" d="M209.938,264.542a5.388,5.388,0,0,1,3.242,3.1c.134.356.314.392.676.328,3.7-.648,6.134,1.417,6.137,5.17q0,4.433,0,8.865a17.561,17.561,0,0,1-5.817,13.32,1.342,1.342,0,0,0-.433,1.324c.507,4.027.991,8.057,1.524,12.081.091.687.108.967-.763.966q-42.308-.041-84.616-.028a9.632,9.632,0,0,1-9.821-9.814q-.02-38.531,0-77.062a9.633,9.633,0,0,1,9.909-9.825q28.86-.015,57.721.006a2.658,2.658,0,0,0,1.819-.615,11.136,11.136,0,0,1,6.345-2.535,49.456,49.456,0,0,1,9.256.028c8.238,1.032,13.2,8.5,11.17,16.546-.073.292-.134.589-.228.874a3.287,3.287,0,0,0,.172,2.571,6.362,6.362,0,0,1-5.311,8.862.951.951,0,0,0-.988.818,8,8,0,0,1-2.846,4.043c-.281.224-.908.222-.69.908a1.367,1.367,0,0,0,1.08,1.1,16.082,16.082,0,0,1,11.42,9.976c1.142,2.734,1.149,5.621,1.11,8.516-.009.65-.426.468-.749.469-2.787.009-5.574.005-8.361.005Z"/>
    <path id="Trazado_174201" data-name="Trazado 174201" d="M155.989,290.193q0-15.612-.018-31.225c0-.778.18-.99.978-.988q24.829.038,49.657,0c.793,0,1,.2.986.985a17.1,17.1,0,0,0,.852,4.328,1.9,1.9,0,0,1-.133,1.429,6.4,6.4,0,0,0,5.183,9.36c.516.051.741.191.877.689a7.9,7.9,0,0,0,2.948,4.2c.269.208.825.223.624.85a1.356,1.356,0,0,1-1.073,1.112,15.953,15.953,0,0,0-10.184,7.456,17.038,17.038,0,0,0-2.353,9.825c.059,1.687.01,1.689,1.66,1.689,3.458,0,6.917.021,10.374-.017.7-.008.9.156.889.874-.041,3.525-.027,7.051-.012,10.576,0,.7-.1,1.349-.909,1.432s-1.06-.5-1.159-1.213c-.161-1.162-.381-2.315-.574-3.472a5.656,5.656,0,0,0-6.891-4.776,4.553,4.553,0,0,0-3.306,5.179c.8,4.453,1.361,8.947,2.335,13.369.11.5-.023.68-.523.617a4.084,4.084,0,0,0-.5,0q-24.325,0-48.65.02c-.859,0-1.1-.166-1.1-1.075C156,311.01,155.989,300.6,155.989,290.193Z" transform="translate(-26.26 -35.365)" fill="#b1e6f5"/>
    <path id="Trazado_174202" data-name="Trazado 174202" d="M192.582,234.06a11.023,11.023,0,0,0-1.684,2.759.649.649,0,0,1-.768.468c-.234-.02-.47,0-.7,0H139.158c-2.671,0-3.87,1.2-3.87,3.859q0,31.631,0,63.263c0,2.6,1.209,3.8,3.834,3.8q25.335,0,50.67-.015a1.53,1.53,0,0,1,1.526.808,14.126,14.126,0,0,0,4.438,4.46,1.031,1.031,0,0,1,.589,1.13c-.408,3.025-.8,6.052-1.15,9.084-.069.6-.331.679-.835.662-.939-.032-1.88-.009-2.82-.009H139.057c-4.3,0-6.991-2.679-6.991-6.951q0-38.179,0-76.358c0-4.287,2.681-6.953,6.986-6.953h53.531Z" transform="translate(-8.782 -17.873)" fill="#3d46c2"/>
    <path id="Trazado_174203" data-name="Trazado 174203" d="M364.148,391.428c0,3.827.02,7.654-.017,11.48-.007.7.164.893.877.884,2.364-.031,2.365,0,2.365-2.4q0-5.841,0-11.682c0-1.281.571-2.023,1.562-2.055,1.028-.034,1.659.741,1.66,2.059,0,4.4.018,8.795-.016,13.192-.005.7.161.894.875.885,2.365-.031,2.366,0,2.366-2.4q0-4.229,0-8.459c0-1.281.571-2.023,1.562-2.055,1.028-.033,1.658.741,1.659,2.059,0,3.323.023,6.647-.016,9.969-.008.7.165.893.877.883,2.364-.032,2.365,0,2.365-2.4,0-1.779-.005-3.558,0-5.337.005-1.192.6-1.922,1.563-1.952,1-.031,1.654.729,1.656,1.96.006,3.189.056,6.379-.012,9.567a14.439,14.439,0,0,1-4.829,10.585,1.69,1.69,0,0,1-1.26.462q-10.12-.023-20.241,0a2.324,2.324,0,0,1-1.314-.387,13.043,13.043,0,0,1-5.987-9.665c-.517-3.514-1.143-7.012-1.742-10.514a1.591,1.591,0,0,1,.488-1.726,1.668,1.668,0,0,1,1.814-.055,2.45,2.45,0,0,1,1.452,1.923c.208,1.222.416,2.445.61,3.67a4.241,4.241,0,0,0,8.455-.65q.009-9.617-.005-19.234a1.87,1.87,0,0,1,.812-1.823c1.137-.682,2.409.165,2.415,1.633C364.157,383.708,364.148,387.568,364.148,391.428Z" transform="translate(-166.722 -123.113)" fill="#efcfb3"/>
    <path id="Trazado_174204" data-name="Trazado 174204" d="M392,270.039c2.048,0,4.1-.007,6.145,0,1.32.006,1.921.591,1.926,1.892.011,3.123.023,6.246,0,9.368a4.81,4.81,0,0,1-4.866,4.85q-3.173.034-6.346,0a4.816,4.816,0,0,1-4.9-4.922c-.018-3.089-.01-6.178,0-9.267,0-1.317.593-1.914,1.9-1.921C387.9,270.03,389.95,270.039,392,270.039Z" transform="translate(-192.975 -44.181)" fill="#efcfb3"/>
    <path id="Trazado_174205" data-name="Trazado 174205" d="M389.922,543.575c-3.358,0-6.716-.026-10.073.019-.8.011-.9-.185-.788-.949.394-2.654.705-5.32,1.006-7.987.065-.574.218-.774.84-.771q9.116.041,18.233.007c.505,0,.76.066.829.661.326,2.832.694,5.66,1.08,8.484.1.758-.418.526-.751.527C396.839,543.579,393.381,543.575,389.922,543.575Z" transform="translate(-189.373 -237.125)" fill="#75b62f"/>
    <path id="Trazado_174206" data-name="Trazado 174206" d="M394.8,222.045a24.145,24.145,0,0,1,5.274.286,9.932,9.932,0,0,1,7.1,12.51c-.144.5-.316.566-.832.46-1.363-.28-2.549-.567-3.358-1.989a3.832,3.832,0,0,0-3.515-1.6c-3.59,0-7.18-.023-10.769.018a1.039,1.039,0,0,1-1.2-.858q-.941-3.019-2-6a.893.893,0,0,1,.435-1.227,9.43,9.43,0,0,1,4.907-1.594C392.051,222.014,393.259,222.045,394.8,222.045Z" transform="translate(-194.045 -9.078)" fill="#b17946"/>
    <path id="Trazado_174207" data-name="Trazado 174207" d="M416.575,364.67c2.673,1.073,5.073,2.012,7.449,3.006.606.254.856.155,1.1-.454.784-1.921,1.631-3.815,2.488-5.8a13,13,0,0,1,5.776,8.782c.37,2.115.329,2.122-1.806,2.122-4.4,0-8.8-.021-13.194.02-.775.007-.972-.213-.924-.952.065-1-.016-2.015.024-3.02A6.082,6.082,0,0,0,416.575,364.67Z" transform="translate(-216.834 -111.009)" fill="#f85316"/>
    <path id="Trazado_174208" data-name="Trazado 174208" d="M353.959,361.385c.864,2,1.677,3.907,2.514,5.8.14.317.164.877.8.564.352-.174.374.089.374.345,0,1.241-.014,2.481.006,3.721.007.429-.2.487-.556.486-2.849-.008-5.7-.022-8.548.008-.661.007-.591-.365-.555-.771A13.293,13.293,0,0,1,353.959,361.385Z" transform="translate(-166.667 -110.981)" fill="#f85316"/>
    <path id="Trazado_174209" data-name="Trazado 174209" d="M359.857,243.1c.067-2.966,1.074-4.935,3.131-6.362.493-.342.763-.4.977.3.518,1.7,1.1,3.373,1.69,5.046a.77.77,0,0,1-.4,1.064c-.391.243-.888.556-1.015.944-.573,1.749-2.225,1.357-3.427,1.841-.422.17-.436-.229-.482-.447A12.272,12.272,0,0,1,359.857,243.1Z" transform="translate(-175.355 -19.655)" fill="#b17846"/>
    <path id="Trazado_174210" data-name="Trazado 174210" d="M401.892,341.916c1.2,0,2.408.023,3.61-.014.395-.012.612.058.744.451a.713.713,0,0,1-.253.946q-1.865,1.354-3.691,2.762a.588.588,0,0,1-.861-.017q-1.826-1.406-3.694-2.758c-.382-.277-.344-.57-.224-.955.13-.418.385-.435.758-.425C399.485,341.935,400.689,341.916,401.892,341.916Z" transform="translate(-202.842 -96.733)" fill="#efcfb3"/>
    <path id="Trazado_174211" data-name="Trazado 174211" d="M363.206,285.365c0,.871-.031,1.743.011,2.612.027.566-.22.587-.66.5a3.239,3.239,0,0,1,.017-6.343c.471-.095.664,0,.642.523C363.179,283.555,363.206,284.461,363.206,285.365Z" transform="translate(-175.45 -53.001)" fill="#eecfb3"/>
    <path id="Trazado_174212" data-name="Trazado 174212" d="M459.134,285.318a3.321,3.321,0,0,1-2.6,3.163c-.481.1-.645-.01-.637-.526.027-1.774.031-3.549,0-5.324-.011-.57.23-.582.664-.493A3.305,3.305,0,0,1,459.134,285.318Z" transform="translate(-245.59 -53.001)" fill="#eecfb3"/>
    <path id="Trazado_174213" data-name="Trazado 174213" d="M386.915,357.281c-1.261.508-2.4.967-3.545,1.43-.28.113-.445,0-.553-.254q-.639-1.475-1.275-2.951c-.078-.183-.18-.416.107-.488.749-.188,1.473-.675,2.267-.014C384.84,355.773,385.83,356.464,386.915,357.281Z" transform="translate(-191.154 -106.07)" fill="#fa6d50"/>
    <path id="Trazado_174214" data-name="Trazado 174214" d="M426.191,357.2c1.152-.866,2.172-1.674,3.237-2.417.715-.5,1.412-.011,2.086.212.278.092.072.356.006.514-.386.927-.8,1.844-1.189,2.769-.137.321-.308.491-.687.333C428.539,358.152,427.426,357.707,426.191,357.2Z" transform="translate(-223.866 -105.998)" fill="#fa6d50"/>
    <path id="Trazado_174215" data-name="Trazado 174215" d="M173.96,404.22c-3.606-4.69-3.627-8.882-.065-12.128a8.046,8.046,0,0,1,10.811.049c3.506,3.239,3.464,7.522-.136,12.083a11.425,11.425,0,0,1,5.885,8.508c.469,3.082.487,3.079-2.571,3.079-6.308,0-12.617-.014-18.925.018-.77,0-.986-.17-1-.973A11.494,11.494,0,0,1,173.96,404.22Z" transform="translate(-35.033 -131.929)"/>
    <path id="Trazado_174216" data-name="Trazado 174216" d="M184.591,284.264a11.525,11.525,0,0,1,5.989,10.843c-.015.642-.2.764-.794.762q-10.52-.031-21.04,0c-.643,0-.752-.193-.766-.79a11.49,11.49,0,0,1,6-10.822c-3.608-4.526-3.648-8.8-.13-12.069a8.04,8.04,0,0,1,10.809-.059C188.206,275.344,188.184,279.555,184.591,284.264Z" transform="translate(-35.042 -44.209)"/>
    <path id="Trazado_174217" data-name="Trazado 174217" d="M271.922,333.195c-2.38,0-4.762-.025-7.141.016-.662.011-.83-.177-.827-.83.009-2.409-.016-2.409,2.35-2.409,4.291,0,8.583.021,12.874-.019.757-.007.945.184.931.934-.042,2.308-.006,2.309-2.353,2.309Z" transform="translate(-105.228 -87.995)"/>
    <path id="Trazado_174218" data-name="Trazado 174218" d="M272.024,449.947c2.448,0,4.9.016,7.343-.012.558-.006.725.14.734.716.039,2.52.06,2.519-2.44,2.519-4.291,0-8.583-.014-12.874.015-.645,0-.84-.15-.837-.82.01-2.418-.017-2.418,2.443-2.418Z" transform="translate(-105.224 -175.734)"/>
    <path id="Trazado_174219" data-name="Trazado 174219" d="M268.892,473.943c1.374,0,2.748.019,4.121-.01.482-.01.6.142.625.62.113,2.615.128,2.614-2.44,2.614-2.178,0-4.355-.019-6.533.013-.568.008-.718-.157-.726-.723-.038-2.513-.057-2.513,2.442-2.513Z" transform="translate(-105.21 -193.283)"/>
    <path id="Trazado_174220" data-name="Trazado 174220" d="M268.707,357.193c-1.374,0-2.748-.026-4.121.013-.544.015-.653-.17-.666-.682-.063-2.555-.079-2.554,2.5-2.554,2.144,0,4.289.027,6.432-.017.639-.013.767.182.769.787.006,2.454.029,2.454-2.4,2.454Z" transform="translate(-105.192 -105.546)"/>
    <path id="Trazado_174221" data-name="Trazado 174221" d="M267.2,309.227c-.87,0-1.742-.025-2.611.01-.5.02-.682-.094-.7-.649-.076-2.585-.1-2.585,2.469-2.585,1.1,0,2.21.022,3.314-.01.5-.014.682.094.7.649.076,2.585.1,2.584-2.469,2.584Z" transform="translate(-105.169 -70.474)"/>
    <path id="Trazado_174222" data-name="Trazado 174222" d="M303.106,309.217c-.77,0-1.545-.054-2.308.015-.742.068-.865-.228-.857-.9.025-2.34,0-2.341,2.311-2.341,1.1,0,2.21.03,3.314-.012.608-.023.864.086.86.795-.012,2.441.021,2.441-2.415,2.441Z" transform="translate(-131.543 -70.465)"/>
    <path id="Trazado_174223" data-name="Trazado 174223" d="M267.071,429.2c-.3,0-.6.017-.9,0-.756-.052-1.9.344-2.177-.164-.382-.7-.118-1.748-.149-2.646-.013-.393.218-.413.512-.412,1.808,0,3.615.01,5.423,0,.384,0,.491.12.527.509.252,2.722.262,2.721-2.429,2.721Z" transform="translate(-105.101 -158.207)"/>
    <path id="Trazado_174224" data-name="Trazado 174224" d="M303.1,429.193c-.87,0-1.741-.016-2.611.007-.406.01-.655-.074-.585-.542a.518.518,0,0,0,0-.1c-.117-2.588-.117-2.588,2.449-2.588,1.138,0,2.276.013,3.414-.007.406-.007.655.074.585.542a.524.524,0,0,0,0,.1c.117,2.587.117,2.587-2.449,2.587Z" transform="translate(-131.487 -158.204)"/>
    <path id="Trazado_174225" data-name="Trazado 174225" d="M237.68,531.594c-2.082,0-4.164.009-6.245,0A3.223,3.223,0,0,1,228,528.2c-.01-1.041-.026-2.082,0-3.122a3.176,3.176,0,0,1,3.156-3.147q6.5-.044,12.994,0a3.184,3.184,0,0,1,3.177,3.128c.035,1.107.029,2.216,0,3.324a3.2,3.2,0,0,1-3.209,3.2C241.978,531.617,239.829,531.594,237.68,531.594Z" transform="translate(-78.928 -228.369)"/>
    <path id="Trazado_174226" data-name="Trazado 174226" d="M398.8,303.276c-.269,0-.539.018-.805,0-.693-.052-1.806.3-1.99-.137a7.724,7.724,0,0,1-.148-2.762c0-.44.353-.314.589-.316q2.014-.015,4.029,0a3.511,3.511,0,0,0,3.28-1.769c.267-.457.5-.556.937-.271a10.48,10.48,0,0,0,.985.5c1.437.723,1.447.731.486,2a6.691,6.691,0,0,1-5.349,2.755C400.147,303.294,399.475,303.274,398.8,303.276Z" transform="translate(-201.65 -64.525)"/>
    <path id="Trazado_174227" data-name="Trazado 174227" d="M196.586,456.435H184.823c-1.14,0-2.279-.01-3.419.005-.386.005-.514-.062-.425-.505.66-3.316,4.284-6.018,8.013-5.943A7.937,7.937,0,0,1,196.586,456.435Z" transform="translate(-44.532 -175.775)" fill="#dce736"/>
    <path id="Trazado_174228" data-name="Trazado 174228" d="M196.837,402a4.835,4.835,0,1,1-4.79,4.827A4.853,4.853,0,0,1,196.837,402Z" transform="translate(-52.645 -140.683)" fill="#efcfb3"/>
    <path id="Trazado_174229" data-name="Trazado 174229" d="M196.607,336.481h-6.12q-4.423,0-8.845,0c-.379,0-.8.152-.618-.587a8.149,8.149,0,0,1,8.176-5.849A7.948,7.948,0,0,1,196.607,336.481Z" transform="translate(-44.552 -88.057)" fill="#dce736"/>
    <path id="Trazado_174230" data-name="Trazado 174230" d="M201.716,286.859a4.834,4.834,0,1,1-4.8-4.813A4.86,4.86,0,0,1,201.716,286.859Z" transform="translate(-52.645 -52.964)" fill="#efcfb3"/>
    <path id="Trazado_174231" data-name="Trazado 174231" d="M246.341,537.13c-1.913,0-3.825-.018-5.738.012-.526.008-.661-.144-.673-.669-.057-2.567-.075-2.567,2.487-2.567,3.221,0,6.442.018,9.663-.016.622-.007.776.151.776.773,0,2.466.025,2.466-2.389,2.466Z" transform="translate(-87.65 -237.128)" fill="#e5e8ec"/>
  </g>
</svg>
