<svg xmlns="http://www.w3.org/2000/svg" width="231.688" height="164.477" viewBox="0 0 231.688 164.477">
  <g id="Grupo_116406" data-name="Grupo 116406" transform="translate(0 10)">
    <g id="Grupo_116388" data-name="Grupo 116388" transform="translate(91.3 -10)">
      <circle id="Elipse_6046" data-name="Elipse 6046" cx="23.548" cy="23.548" r="23.548" fill="#868df8"/>
      <circle id="Elipse_6047" data-name="Elipse 6047" cx="17.839" cy="17.839" r="17.839" transform="translate(5.708 5.708)" fill="#fff"/>
    </g>
    <g id="Grupo_116389" data-name="Grupo 116389" transform="translate(45.434 51.264)">
      <circle id="Elipse_6048" data-name="Elipse 6048" cx="23.548" cy="23.548" r="23.548" fill="#ffa381"/>
      <circle id="Elipse_6049" data-name="Elipse 6049" cx="17.839" cy="17.839" r="17.839" transform="translate(5.708 5.708)" fill="#fff"/>
    </g>
    <g id="Grupo_116390" data-name="Grupo 116390" transform="translate(0 95.442)">
      <circle id="Elipse_6050" data-name="Elipse 6050" cx="23.548" cy="23.548" r="23.548" transform="translate(0 45.788) rotate(-76.471)" fill="#b8e587"/>
      <circle id="Elipse_6051" data-name="Elipse 6051" cx="17.839" cy="17.839" r="17.839" transform="translate(10.564 10.564)" fill="#fff"/>
    </g>
    <g id="Grupo_116391" data-name="Grupo 116391" transform="translate(76.606 93.212)">
      <circle id="Elipse_6052" data-name="Elipse 6052" cx="23.548" cy="23.548" r="23.548" transform="matrix(0.928, -0.373, 0.373, 0.928, 0, 17.571)" fill="#b8e587"/>
      <circle id="Elipse_6053" data-name="Elipse 6053" cx="17.839" cy="17.839" r="17.839" transform="translate(12.793 12.793)" fill="#fff"/>
    </g>
    <g id="Grupo_116392" data-name="Grupo 116392" transform="translate(170.422 93.212)">
      <circle id="Elipse_6054" data-name="Elipse 6054" cx="23.548" cy="23.548" r="23.548" transform="matrix(0.928, -0.373, 0.373, 0.928, 0, 17.571)" fill="#f5fb9b"/>
      <circle id="Elipse_6055" data-name="Elipse 6055" cx="17.839" cy="17.839" r="17.839" transform="translate(12.793 12.793)" fill="#fff"/>
    </g>
    <g id="Grupo_116395" data-name="Grupo 116395" transform="translate(136.736 51.264)">
      <circle id="Elipse_6060" data-name="Elipse 6060" cx="23.548" cy="23.548" r="23.548" fill="#ffa381"/>
      <circle id="Elipse_6061" data-name="Elipse 6061" cx="17.839" cy="17.839" r="17.839" transform="translate(5.708 5.708)" fill="#fff"/>
    </g>
    <g id="Grupo_116397" data-name="Grupo 116397" transform="translate(102.941 -1.85)">
      <g id="Grupo_116396" data-name="Grupo 116396" transform="translate(5.332)">
        <path id="Trazado_173002" data-name="Trazado 173002" d="M244.151,70.025c-.122-.041-6.887.122-6.846.245s1.3,9.169,1.345,9.046,6.153-1.019,6.072-1.222S244.151,70.025,244.151,70.025Z" transform="translate(-234.492 -53.983)" fill="#fff"/>
        <path id="Trazado_173003" data-name="Trazado 173003" d="M241.411,73.621l-1.57,6.683,2.208,2.995s2.6-2.791,2.6-2.913-1.962-6.806-1.962-6.806Z" transform="translate(-235.601 -55.541)" fill="#d06b75"/>
        <path id="Trazado_173004" data-name="Trazado 173004" d="M241.435,71.676a1.883,1.883,0,0,0,2.894,0l-1.47-1.719Z" transform="translate(-236.299 -53.956)" fill="#d06b75"/>
        <path id="Trazado_173005" data-name="Trazado 173005" d="M238.79,67.308l-1.63.978a7.215,7.215,0,0,0,2.4,2.608l1.467-1.63a7.934,7.934,0,0,0,1.263,1.711,9,9,0,0,0,2.323-2.526,2.131,2.131,0,0,0-1.711-1.06A24.389,24.389,0,0,0,238.79,67.308Z" transform="translate(-234.428 -52.773)" fill="#deeefc"/>
        <path id="Trazado_173006" data-name="Trazado 173006" d="M239.932,64.505l-.335,2.1s2.526,1.711,4.757,0L244,64.342Z" transform="translate(-235.495 -51.499)" fill="#e8bba8"/>
        <path id="Trazado_173007" data-name="Trazado 173007" d="M238.58,54.777c-4.829,0-6.215-3.4-6.275-6.153s1.385-6.867,4.36-6.439a5.852,5.852,0,0,1,6.153.448c3.036,2.241,2.893,6.52,1.548,9.169C243.236,54.029,240.6,54.777,238.58,54.777Z" transform="translate(-232.303 -41.506)" fill="#51322c"/>
        <path id="Trazado_173008" data-name="Trazado 173008" d="M239.8,65.9a6.694,6.694,0,0,0,1.008.057,7.868,7.868,0,0,0,2.843-.43,2.377,2.377,0,0,0,.576-.317l-.136-.871-4.07.163Z" transform="translate(-235.582 -51.499)" fill="#de9a7c"/>
        <path id="Trazado_173009" data-name="Trazado 173009" d="M244.006,51.976a1.078,1.078,0,0,1,1.1,1.1c0,1.039-1.161,1.039-1.161,1.039s-.448,4.5-4.462,4.5-4.422-4.5-4.422-4.5-1.161,0-1.161-1.039a1.077,1.077,0,0,1,1.1-1.1,19.561,19.561,0,0,0,3.057-3.321S241.316,51.528,244.006,51.976Z" transform="translate(-233.002 -44.634)" fill="#e8bba8"/>
        <path id="Trazado_173010" data-name="Trazado 173010" d="M252.54,56.158a.244.244,0,0,0-.146-.1.218.218,0,0,0-.066.005.111.111,0,0,1,0-.02l0-.009c0-.022.008-.044.014-.066a.6.6,0,0,1,.02-.064c0-.011.007-.021.012-.031-.01.022,0,0,0-.007a.507.507,0,0,1,.032-.057l.015-.021.007-.008a.57.57,0,0,1,.045-.045.285.285,0,0,0,.024-.02.168.168,0,0,0,.024-.029c-.009.011-.009.012,0,0a.117.117,0,0,0,.017-.137.119.119,0,0,0-.128-.052.449.449,0,0,0-.27.226.863.863,0,0,0-.115.317.481.481,0,0,0,.082.429.273.273,0,0,0,.434-.04A.263.263,0,0,0,252.54,56.158Z" transform="translate(-240.93 -47.625)" fill="#de9a7c"/>
        <path id="Trazado_173011" data-name="Trazado 173011" d="M235.353,56.007a.711.711,0,0,0-.207-.285.687.687,0,0,0-.163-.1.292.292,0,0,0-.111-.034c-.044,0-.093.028-.094.076,0,.07.073.091.123.119a.434.434,0,0,1,.11.084.405.405,0,0,1,.077.1.309.309,0,0,0-.192.461.284.284,0,0,0,.247.138.273.273,0,0,0,.227-.159A.506.506,0,0,0,235.353,56.007Z" transform="translate(-233.386 -47.667)" fill="#de9a7c"/>
      </g>
      <path id="Trazado_173012" data-name="Trazado 173012" d="M243.578,81.888c7.719,0,11-2.047,11.824-2.672-.51-2.794-1.376-6.669-2.371-7.434-1.589-1.223-6.072-2.4-6.072-2.4l-.53.326-2.986,12.183Z" transform="translate(-231.846 -53.703)" fill="#313950"/>
      <path id="Trazado_173013" data-name="Trazado 173013" d="M234.554,81.888l.215,0L231.783,69.7l-.53-.326s-4.483,1.182-6.072,2.4c-.987.759-1.847,4.582-2.359,7.371C223.78,79.881,227.1,81.888,234.554,81.888Z" transform="translate(-222.822 -53.703)" fill="#313950"/>
    </g>
    <g id="Grupo_116399" data-name="Grupo 116399" transform="translate(57.486 59.792)">
      <g id="Grupo_116398" data-name="Grupo 116398" transform="translate(5.501)">
        <path id="Trazado_173014" data-name="Trazado 173014" d="M157.562,174.74c-3.837,0-5.311-2.367-5.722-5.147s1.233-7.588,4.42-6.875c0,0,1.747-1.8,2.364-1.39a.691.691,0,0,1,.172,1.014s2.021-1.24,2.775-.526a.854.854,0,0,1,.1,1.315s1.885.038,2.227.714a.786.786,0,0,1-.308,1.052,11.752,11.752,0,0,1,.1,5.748C162.976,173.951,159.344,174.74,157.562,174.74Z" transform="translate(-151.778 -161.267)" fill="#d47541"/>
        <path id="Trazado_173015" data-name="Trazado 173015" d="M162.995,190.212c-.12-.04-6.779.12-6.739.241s1.283,9.025,1.323,8.906,6.058-1,5.977-1.2S162.995,190.212,162.995,190.212Z" transform="translate(-153.738 -173.93)" fill="#fff"/>
        <path id="Trazado_173016" data-name="Trazado 173016" d="M160.3,193.752l-1.545,6.579,2.174,2.949s2.56-2.748,2.56-2.868-1.932-6.7-1.932-6.7Z" transform="translate(-154.83 -175.465)" fill="#8cc4d1"/>
        <path id="Trazado_173017" data-name="Trazado 173017" d="M160.321,191.838a1.854,1.854,0,0,0,2.848,0l-1.447-1.692Z" transform="translate(-155.517 -173.904)" fill="#8cc4d1"/>
        <path id="Trazado_173018" data-name="Trazado 173018" d="M157.718,187.537l-1.6.963a7.1,7.1,0,0,0,2.367,2.567l1.444-1.6a7.818,7.818,0,0,0,1.243,1.684,8.855,8.855,0,0,0,2.287-2.487,2.1,2.1,0,0,0-1.685-1.043A24.027,24.027,0,0,0,157.718,187.537Z" transform="translate(-153.675 -172.74)" fill="#deeefc"/>
        <path id="Trazado_173019" data-name="Trazado 173019" d="M158.841,184.778l-.33,2.066s2.488,1.684,4.684,0l-.348-2.227Z" transform="translate(-154.725 -171.485)" fill="#e8bba8"/>
        <path id="Trazado_173020" data-name="Trazado 173020" d="M158.707,186.154a6.562,6.562,0,0,0,.993.056,7.754,7.754,0,0,0,2.8-.423,2.353,2.353,0,0,0,.567-.312l-.134-.857-4.007.16Z" transform="translate(-154.81 -171.485)" fill="#de9a7c"/>
        <path id="Trazado_173021" data-name="Trazado 173021" d="M162.851,173.5a1.061,1.061,0,0,1,1.083,1.083c0,1.023-1.143,1.023-1.143,1.023s-.441,4.432-4.392,4.432-4.352-4.432-4.352-4.432-1.143,0-1.143-1.023a1.061,1.061,0,0,1,1.083-1.083,5.241,5.241,0,0,0,1.382-.732s-.214.463.107.5,1.426-.891,1.675-1.675c0,0,1,1.176,1.5,1.1a.561.561,0,0,0,.534-.463,8.04,8.04,0,0,0,1.533.785.531.531,0,0,0,.677-.357A12.052,12.052,0,0,0,162.851,173.5Z" transform="translate(-152.271 -165.787)" fill="#e8bba8"/>
        <path id="Trazado_173022" data-name="Trazado 173022" d="M171.253,176.562a.243.243,0,0,0-.144-.1.232.232,0,0,0-.065.006.1.1,0,0,1,0-.019l0-.01c0-.022.008-.043.014-.065s.012-.043.019-.064l.012-.03c-.009.022,0,0,0-.007a.558.558,0,0,1,.032-.056l.014-.02.007-.008a.368.368,0,0,1,.044-.044c.008-.007.016-.013.024-.02a.183.183,0,0,0,.023-.029c-.009.011-.008.011,0,0a.115.115,0,0,0,.017-.135.116.116,0,0,0-.126-.051.441.441,0,0,0-.265.222.846.846,0,0,0-.114.312.472.472,0,0,0,.081.422.27.27,0,0,0,.427-.039A.262.262,0,0,0,171.253,176.562Z" transform="translate(-160.075 -167.672)" fill="#de9a7c"/>
        <path id="Trazado_173023" data-name="Trazado 173023" d="M154.334,176.413a.706.706,0,0,0-.2-.281.719.719,0,0,0-.16-.1.282.282,0,0,0-.11-.033c-.043,0-.092.027-.092.075,0,.069.072.09.12.118a.431.431,0,0,1,.109.082.415.415,0,0,1,.075.1.3.3,0,0,0-.19.453.28.28,0,0,0,.244.136.271.271,0,0,0,.223-.157A.5.5,0,0,0,154.334,176.413Z" transform="translate(-152.649 -167.713)" fill="#de9a7c"/>
      </g>
      <path id="Trazado_173024" data-name="Trazado 173024" d="M162.43,201.89c7.6,0,10.831-2.015,11.64-2.63-.5-2.751-1.355-6.565-2.333-7.318-1.565-1.2-5.977-2.367-5.977-2.367l-.521.321L162.3,201.889Z" transform="translate(-150.882 -173.654)" fill="#313950"/>
      <path id="Trazado_173025" data-name="Trazado 173025" d="M153.546,201.89l.211,0L150.819,189.9l-.521-.321s-4.413,1.164-5.977,2.367c-.971.747-1.819,4.511-2.322,7.257C142.941,199.915,146.206,201.89,153.546,201.89Z" transform="translate(-141.998 -173.654)" fill="#313950"/>
    </g>
    <g id="Grupo_116400" data-name="Grupo 116400" transform="translate(16.043 108.108)">
      <path id="Trazado_173026" data-name="Trazado 173026" d="M84.936,278.226c-6.2,0-6.354,6.571-5.593,9.174s2.32,4.174,6.316,4.174a5.762,5.762,0,0,0,6.011-5.992C91.671,282.565,91.671,278.226,84.936,278.226Z" transform="translate(-72.998 -278.226)" fill="#9d524a"/>
      <path id="Trazado_173027" data-name="Trazado 173027" d="M90.522,306.683c-.127-.042-7.172.128-7.13.255s1.358,9.548,1.4,9.421,6.408-1.061,6.323-1.273S90.522,306.683,90.522,306.683Z" transform="translate(-74.91 -290.676)" fill="#fff"/>
      <path id="Trazado_173028" data-name="Trazado 173028" d="M87.669,310.428l-1.635,6.96,2.3,3.119s2.708-2.907,2.708-3.034S89,310.386,89,310.386Z" transform="translate(-76.066 -292.299)" fill="#d06b75"/>
      <path id="Trazado_173029" data-name="Trazado 173029" d="M87.694,308.4a1.962,1.962,0,0,0,3.013,0l-1.531-1.79Z" transform="translate(-76.792 -290.648)" fill="#d06b75"/>
      <path id="Trazado_173030" data-name="Trazado 173030" d="M84.94,303.853l-1.7,1.018a7.513,7.513,0,0,0,2.5,2.716l1.528-1.7a8.26,8.26,0,0,0,1.315,1.783,9.374,9.374,0,0,0,2.419-2.631,2.22,2.22,0,0,0-1.782-1.1A25.4,25.4,0,0,0,84.94,303.853Z" transform="translate(-74.844 -289.416)" fill="#deeefc"/>
      <path id="Trazado_173031" data-name="Trazado 173031" d="M86.128,300.935l-.349,2.185s2.631,1.782,4.955,0l-.368-2.355Z" transform="translate(-75.954 -288.089)" fill="#e8bba8"/>
      <path id="Trazado_173032" data-name="Trazado 173032" d="M85.987,302.39a6.957,6.957,0,0,0,1.05.059A8.216,8.216,0,0,0,90,302a2.476,2.476,0,0,0,.6-.33l-.142-.907-4.238.17Z" transform="translate(-76.045 -288.089)" fill="#de9a7c"/>
      <path id="Trazado_173033" data-name="Trazado 173033" d="M90.371,289.075a1.122,1.122,0,0,1,1.146,1.146c0,1.083-1.21,1.083-1.21,1.083s-.467,4.689-4.647,4.689-4.6-4.689-4.6-4.689-1.209,0-1.209-1.083a1.122,1.122,0,0,1,1.146-1.146c1.083-.046,1.574-1.4,1.724-1.931,0,0,3.318,1.282,6.109.075A2.532,2.532,0,0,0,90.371,289.075Z" transform="translate(-73.359 -282.129)" fill="#e8bba8"/>
      <path id="Trazado_173034" data-name="Trazado 173034" d="M99.259,292.242a.254.254,0,0,0-.152-.108.218.218,0,0,0-.069.005.118.118,0,0,1,0-.02l0-.01c0-.023.009-.046.015-.069s.012-.045.02-.067l.012-.032c-.01.023,0,0,0-.007a.56.56,0,0,1,.033-.06l.015-.021.007-.008a.411.411,0,0,1,.047-.047c.008-.007.017-.013.025-.021a.185.185,0,0,0,.024-.03c-.009.012-.009.012,0,0a.123.123,0,0,0,.019-.143.125.125,0,0,0-.133-.054.466.466,0,0,0-.281.235.888.888,0,0,0-.12.33.5.5,0,0,0,.085.447.285.285,0,0,0,.452-.042A.275.275,0,0,0,99.259,292.242Z" transform="translate(-81.615 -284.055)" fill="#de9a7c"/>
      <path id="Trazado_173035" data-name="Trazado 173035" d="M81.36,292.085a.748.748,0,0,0-.215-.3.781.781,0,0,0-.17-.106.3.3,0,0,0-.116-.035c-.046,0-.1.028-.1.079,0,.073.076.1.128.124a.458.458,0,0,1,.115.087.437.437,0,0,1,.08.1.322.322,0,0,0-.2.479.3.3,0,0,0,.258.144.285.285,0,0,0,.236-.166A.529.529,0,0,0,81.36,292.085Z" transform="translate(-73.759 -284.099)" fill="#de9a7c"/>
      <path id="Trazado_173036" data-name="Trazado 173036" d="M89.925,319.038c8.039,0,11.458-2.133,12.314-2.783-.53-2.91-1.433-6.946-2.468-7.742-1.655-1.273-6.324-2.5-6.324-2.5l-.552.34-3.11,12.687Z" transform="translate(-77.708 -290.384)" fill="#313950"/>
      <path id="Trazado_173037" data-name="Trazado 173037" d="M80.527,319.038l.224,0-3.11-12.687-.552-.34s-4.668,1.231-6.323,2.5c-1.028.791-1.925,4.772-2.457,7.677C69.308,316.948,72.762,319.038,80.527,319.038Z" transform="translate(-68.31 -290.384)" fill="#313950"/>
    </g>
    <g id="Grupo_116402" data-name="Grupo 116402" transform="translate(149.324 60.132)">
      <path id="Trazado_173048" data-name="Trazado 173048" d="M317.213,162.087c-7.981,0-8.957,8.424-8.347,11.294s-4.512,6.265-.854,10.989,14.346,3.968,17.46,1.038,3.663-6.516,1-9.468C324.006,173.211,326.72,162.087,317.213,162.087Z" transform="translate(-305.903 -162.087)" fill="#9a515c"/>
      <path id="Trazado_173049" data-name="Trazado 173049" d="M319.541,194.113l-.908,3.494s4.1,2.045,4.163,2.015A30.7,30.7,0,0,0,325.817,197c-.031-.183-.8-2.884-.8-2.884Z" transform="translate(-311.132 -176.102)" fill="#e8bba8"/>
      <path id="Trazado_173050" data-name="Trazado 173050" d="M320.464,206.562a20.858,20.858,0,0,0,3.633,0c.9-.076,2.269-4.6,2.146-4.8s-.61-2.971-.773-2.971a7.065,7.065,0,0,1-6.838,0Z" transform="translate(-311.132 -178.148)" fill="#fff"/>
      <path id="Trazado_173051" data-name="Trazado 173051" d="M320.633,189.667l-.385,2.418s2.912,1.973,5.483,0l-.407-2.606Z" transform="translate(-311.839 -174.074)" fill="#e8bba8"/>
      <path id="Trazado_173052" data-name="Trazado 173052" d="M320.477,191.277a7.712,7.712,0,0,0,1.162.065,9.071,9.071,0,0,0,3.277-.495,2.736,2.736,0,0,0,.664-.364l-.157-1-4.69.188Z" transform="translate(-311.939 -174.074)" fill="#de9a7c"/>
      <path id="Trazado_173053" data-name="Trazado 173053" d="M325.329,175.228A1.242,1.242,0,0,1,326.6,176.5c0,1.2-1.338,1.2-1.338,1.2s-1.029,5.189-5.143,5.189c-3.975,0-5.1-5.189-5.1-5.189s-1.338,0-1.338-1.2a1.242,1.242,0,0,1,1.268-1.268s4.06-1.326,5.353-3.827C320.3,171.4,322.23,174.712,325.329,175.228Z" transform="translate(-308.966 -166.163)" fill="#e8bba8"/>
      <path id="Trazado_173054" data-name="Trazado 173054" d="M335.164,180.048a.282.282,0,0,0-.168-.12.246.246,0,0,0-.076.006.1.1,0,0,1,0-.022l0-.01c0-.026.01-.051.016-.077s.014-.049.022-.074l.014-.036c-.01.026,0,.005.005-.008a.684.684,0,0,1,.037-.066l.016-.024.008-.01a.579.579,0,0,1,.052-.052c.009-.008.019-.015.028-.024a.218.218,0,0,0,.027-.033c-.01.013-.01.014,0,0a.135.135,0,0,0,.02-.159.137.137,0,0,0-.147-.06.519.519,0,0,0-.311.26,1,1,0,0,0-.133.365.554.554,0,0,0,.094.494.315.315,0,0,0,.5-.046A.3.3,0,0,0,335.164,180.048Z" transform="translate(-318.103 -169.61)" fill="#de9a7c"/>
      <path id="Trazado_173055" data-name="Trazado 173055" d="M315.357,179.874a.829.829,0,0,0-.426-.447.335.335,0,0,0-.128-.039.1.1,0,0,0-.108.088c0,.08.084.105.141.137a.505.505,0,0,1,.127.1.476.476,0,0,1,.089.112.357.357,0,0,0-.222.531.327.327,0,0,0,.285.159.316.316,0,0,0,.261-.183A.585.585,0,0,0,315.357,179.874Z" transform="translate(-309.409 -169.658)" fill="#de9a7c"/>
      <path id="Trazado_173056" data-name="Trazado 173056" d="M313.7,194.113l.923,10.4s-7.175-.405-9.332-2.969c0,0,1.355-3.828,2.7-5.13S313.7,194.113,313.7,194.113Z" transform="translate(-305.296 -176.102)" fill="#433e50"/>
      <path id="Trazado_173057" data-name="Trazado 173057" d="M329.272,194.113l-.923,10.4s7.175-.405,9.332-2.969c0,0-1.355-3.828-2.7-5.13S329.272,194.113,329.272,194.113Z" transform="translate(-315.384 -176.102)" fill="#433e50"/>
    </g>
    <g id="Grupo_116403" data-name="Grupo 116403" transform="translate(96.418 108.769)">
      <path id="Trazado_173058" data-name="Trazado 173058" d="M222.165,279.4c-8.012,0-8.387,8.76-8.262,11.388s-2,3.639-1.377,6.132-3.13,3.3.062,7.277,17.776,2.426,19.654.539,2.441-3.1,1.064-4.649.5-3.3-.939-4.919-.563-4.312-1.5-5.593S231.178,279.4,222.165,279.4Z" transform="translate(-211.251 -279.402)" fill="#4f2831"/>
      <path id="Trazado_173059" data-name="Trazado 173059" d="M225.468,312.476l-.908,3.494s4.1,2.045,4.163,2.015a30.764,30.764,0,0,0,3.02-2.625c-.03-.183-.8-2.883-.8-2.883Z" transform="translate(-217.06 -293.875)" fill="#e8bba8"/>
      <path id="Trazado_173060" data-name="Trazado 173060" d="M226.392,324.924a20.852,20.852,0,0,0,3.633,0c.9-.076,2.269-4.6,2.147-4.8s-.611-2.971-.773-2.971a7.063,7.063,0,0,1-6.838,0Z" transform="translate(-217.06 -295.921)" fill="#fff"/>
      <path id="Trazado_173061" data-name="Trazado 173061" d="M226.561,308.029l-.386,2.419s2.912,1.972,5.483,0l-.407-2.607Z" transform="translate(-217.767 -291.847)" fill="#e8bba8"/>
      <path id="Trazado_173062" data-name="Trazado 173062" d="M226.4,309.639a7.713,7.713,0,0,0,1.162.066,9.069,9.069,0,0,0,3.277-.5,2.726,2.726,0,0,0,.664-.364l-.156-1-4.69.188Z" transform="translate(-217.867 -291.847)" fill="#de9a7c"/>
      <path id="Trazado_173063" data-name="Trazado 173063" d="M231.256,294.544a1.242,1.242,0,0,1,1.268,1.268c0,1.2-1.339,1.2-1.339,1.2s-1.029,5.189-5.142,5.189c-3.976,0-5.1-5.189-5.1-5.189s-1.339,0-1.339-1.2a1.242,1.242,0,0,1,1.268-1.268c.986-.057,1.2-.809,2.2-.85s1.461.543,2.587-.125,2.087-.438,2.67-1.628c0,0,.042,1.461.918,1.461S230.758,294.517,231.256,294.544Z" transform="translate(-214.894 -284.889)" fill="#e8bba8"/>
      <path id="Trazado_173064" data-name="Trazado 173064" d="M241.091,298.41a.281.281,0,0,0-.168-.12.248.248,0,0,0-.076.006.1.1,0,0,1,0-.022l0-.011c0-.026.01-.051.016-.076s.014-.05.022-.074.009-.024.014-.036c-.011.026,0,.005,0-.008a.755.755,0,0,1,.037-.066l.016-.024.008-.01a.572.572,0,0,1,.052-.052.354.354,0,0,0,.028-.023.193.193,0,0,0,.026-.034c-.01.013-.01.013,0,0a.136.136,0,0,0,.021-.159.138.138,0,0,0-.148-.06.518.518,0,0,0-.31.26,1,1,0,0,0-.133.365.554.554,0,0,0,.1.494.315.315,0,0,0,.5-.046A.306.306,0,0,0,241.091,298.41Z" transform="translate(-224.031 -287.383)" fill="#de9a7c"/>
      <path id="Trazado_173065" data-name="Trazado 173065" d="M221.284,298.237a.82.82,0,0,0-.238-.328.806.806,0,0,0-.188-.118.326.326,0,0,0-.128-.039.1.1,0,0,0-.108.087c0,.081.084.105.141.137a.505.505,0,0,1,.127.1.489.489,0,0,1,.089.112.357.357,0,0,0-.222.53.327.327,0,0,0,.285.159.315.315,0,0,0,.261-.183A.581.581,0,0,0,221.284,298.237Z" transform="translate(-215.337 -287.432)" fill="#de9a7c"/>
      <path id="Trazado_173066" data-name="Trazado 173066" d="M219.632,312.476l.923,10.4s-7.175-.405-9.332-2.969c0,0,1.355-3.827,2.7-5.13S219.632,312.476,219.632,312.476Z" transform="translate(-211.224 -293.875)" fill="#433e50"/>
      <path id="Trazado_173067" data-name="Trazado 173067" d="M235.2,312.476l-.923,10.4s7.175-.405,9.332-2.969c0,0-1.355-3.827-2.7-5.13S235.2,312.476,235.2,312.476Z" transform="translate(-221.312 -293.875)" fill="#433e50"/>
    </g>
    <g id="Grupo_116404" data-name="Grupo 116404" transform="translate(189.485 107.764)">
      <path id="Trazado_173068" data-name="Trazado 173068" d="M399.43,285.159a2.61,2.61,0,0,0-.637-1.3,2.743,2.743,0,0,0-.555-.494,1.666,1.666,0,0,0-.034-1.1,2.037,2.037,0,0,0-1.493-1.249c-.012-.053-.026-.1-.042-.151a2.437,2.437,0,0,0-.66-.995,2.183,2.183,0,0,0-1.061-.542,1.915,1.915,0,0,0-.6-.023c-.027,0-.053.012-.08.016a1.554,1.554,0,0,0-.183-.323,2.362,2.362,0,0,0-1.4-.917,2.207,2.207,0,0,0-1,.034,1.888,1.888,0,0,0-.357.133c-.007-.011-.013-.024-.021-.035a1.336,1.336,0,0,0-.377-.391,1.162,1.162,0,0,0-.575-.186,3.954,3.954,0,0,0-.621-.015,1.268,1.268,0,0,0-.971.545,1.7,1.7,0,0,0-.26.57,1.841,1.841,0,0,0-1.55.391,1.868,1.868,0,0,0-.54.786,2.655,2.655,0,0,0-.077.26,2.066,2.066,0,0,0-.342.064A2.081,2.081,0,0,0,384.483,282a2.245,2.245,0,0,0,.081.908,1.748,1.748,0,0,0-1.008.81,1.716,1.716,0,0,0-.214.848,1.807,1.807,0,0,0,.087.562,2.268,2.268,0,0,0-.2.272,2.857,2.857,0,0,0-.442,1.124,1.691,1.691,0,0,0,.733,1.7,1.669,1.669,0,0,0,.093,1.265,1.415,1.415,0,0,0,1.012.79,2.067,2.067,0,0,0,.051.3,1.723,1.723,0,0,0,.547.905,1.8,1.8,0,0,0,.9.4,1.709,1.709,0,0,0,.243.019,2.059,2.059,0,0,0,1.661,1.216,3.392,3.392,0,0,0,1.428.05l.017,0a2.565,2.565,0,0,0,1.159.485,2.7,2.7,0,0,0,1.906-.478,2.563,2.563,0,0,0,2.273.184,4.833,4.833,0,0,1,2.445-2.1,2.208,2.208,0,0,0,.434-.42,1.357,1.357,0,0,0,.215-.575,2.469,2.469,0,0,0,.012-.7c.049-.031.1-.062.136-.09a3.991,3.991,0,0,0,1.035-.908,1.428,1.428,0,0,0,.064-1.285c-.028-.082-.062-.161-.1-.24a1.546,1.546,0,0,0,.184-.3A2.738,2.738,0,0,0,399.43,285.159Z" transform="translate(-379.359 -277.615)" fill="#312223"/>
      <path id="Trazado_173069" data-name="Trazado 173069" d="M397.658,308.663c-.12-.04-6.766.12-6.725.24s1.281,9.007,1.321,8.887,6.045-1,5.964-1.2S397.658,308.663,397.658,308.663Z" transform="translate(-382.931 -291.199)" fill="#fff"/>
      <path id="Trazado_173070" data-name="Trazado 173070" d="M394.966,312.2l-1.542,6.565,2.169,2.943s2.554-2.742,2.554-2.863-1.928-6.685-1.928-6.685Z" transform="translate(-384.021 -292.73)" fill="#d06b75"/>
      <path id="Trazado_173071" data-name="Trazado 173071" d="M394.99,310.285a1.85,1.85,0,0,0,2.842,0l-1.444-1.688Z" transform="translate(-384.707 -291.173)" fill="#d06b75"/>
      <path id="Trazado_173072" data-name="Trazado 173072" d="M392.391,305.993l-1.6.961a7.085,7.085,0,0,0,2.362,2.562l1.441-1.6a7.788,7.788,0,0,0,1.241,1.681,8.834,8.834,0,0,0,2.282-2.482,2.093,2.093,0,0,0-1.682-1.04A23.93,23.93,0,0,0,392.391,305.993Z" transform="translate(-382.869 -290.01)" fill="#deeefc"/>
      <path id="Trazado_173073" data-name="Trazado 173073" d="M393.512,303.24l-.328,2.062s2.482,1.681,4.674,0l-.347-2.222Z" transform="translate(-383.916 -288.758)" fill="#cc9277"/>
      <path id="Trazado_173074" data-name="Trazado 173074" d="M393.379,304.613a6.607,6.607,0,0,0,.991.056,7.734,7.734,0,0,0,2.793-.422,2.321,2.321,0,0,0,.566-.311l-.133-.855-4,.16Z" transform="translate(-384.001 -288.758)" fill="#a95d44"/>
      <path id="Trazado_173075" data-name="Trazado 173075" d="M397.515,291.546a1.058,1.058,0,0,1,1.08,1.081c0,1.021-1.141,1.021-1.141,1.021s-.44,4.423-4.383,4.423-4.343-4.423-4.343-4.423-1.141,0-1.141-1.021a1.059,1.059,0,0,1,1.081-1.081,1.553,1.553,0,0,0,1.123-1.408,1.8,1.8,0,0,0,1.53-.925,1.757,1.757,0,0,0,2.063-.142,1.565,1.565,0,0,0,1.921.462s.249,1.245,1.245.96A1.867,1.867,0,0,0,397.515,291.546Z" transform="translate(-381.467 -282.628)" fill="#cc9277"/>
      <path id="Trazado_173076" data-name="Trazado 173076" d="M405.9,295.041a.241.241,0,0,0-.143-.1.211.211,0,0,0-.065.005.1.1,0,0,1,0-.019l0-.009a.646.646,0,0,1,.013-.065c.006-.021.012-.043.019-.064s.007-.02.012-.03c-.009.022,0,0,0-.007s.02-.038.031-.056l.014-.02.007-.008a.474.474,0,0,1,.044-.044l.024-.02a.215.215,0,0,0,.023-.029c-.008.011-.008.011,0,0a.115.115,0,0,0,.017-.135.116.116,0,0,0-.125-.051.438.438,0,0,0-.265.222.843.843,0,0,0-.114.311.472.472,0,0,0,.08.421.269.269,0,0,0,.426-.039A.26.26,0,0,0,405.9,295.041Z" transform="translate(-389.255 -284.954)" fill="#a95d44"/>
      <path id="Trazado_173077" data-name="Trazado 173077" d="M389.015,294.893a.7.7,0,0,0-.363-.38.273.273,0,0,0-.109-.033.085.085,0,0,0-.092.074c0,.069.072.089.12.117a.428.428,0,0,1,.108.082.416.416,0,0,1,.075.1.3.3,0,0,0-.189.452.277.277,0,0,0,.243.136.269.269,0,0,0,.223-.156A.5.5,0,0,0,389.015,294.893Z" transform="translate(-381.845 -284.995)" fill="#a95d44"/>
      <path id="Trazado_173078" data-name="Trazado 173078" d="M397.094,320.317c7.583,0,10.808-2.011,11.616-2.625-.5-2.745-1.351-6.551-2.328-7.3-1.561-1.2-5.965-2.362-5.965-2.362l-.52.321-2.933,11.968Z" transform="translate(-385.57 -290.923)" fill="#313950"/>
      <path id="Trazado_173079" data-name="Trazado 173079" d="M388.229,320.317l.211,0-2.933-11.967-.52-.321s-4.4,1.161-5.965,2.362c-.97.746-1.815,4.5-2.317,7.241C377.646,318.345,380.9,320.317,388.229,320.317Z" transform="translate(-376.705 -290.923)" fill="#313950"/>
    </g>
    <line id="Línea_586" data-name="Línea 586" x2="36.342" transform="translate(73.283 42.409)" fill="none" stroke="#363b47" stroke-linecap="round" stroke-linejoin="round" stroke-width="2"/>
    <line id="Línea_587" data-name="Línea 587" x2="36.342" transform="translate(119.45 42.409)" fill="none" stroke="#363b47" stroke-linecap="round" stroke-linejoin="round" stroke-width="2"/>
    <path id="Trazado_173090" data-name="Trazado 173090" d="M244.155,137.9a2.613,2.613,0,1,1-2.613-2.613A2.613,2.613,0,0,1,244.155,137.9Z" transform="translate(-126.93 -95.314)" fill="#868df8"/>
    <circle id="Elipse_6062" data-name="Elipse 6062" cx="1.847" cy="1.847" r="1.847" transform="translate(66.715 40.685)" fill="#ffa381"/>
    <path id="Trazado_173091" data-name="Trazado 173091" d="M325.616,138.5a1.847,1.847,0,1,1-1.847-1.847A1.847,1.847,0,0,1,325.616,138.5Z" transform="translate(-163.247 -95.963)" fill="#ffa381"/>
    <line id="Línea_588" data-name="Línea 588" y2="14.988" transform="translate(68.563 107.344)" fill="none" stroke="#363b47" stroke-linecap="round" stroke-linejoin="round" stroke-width="2"/>
    <path id="Trazado_173092" data-name="Trazado 173092" d="M162.274,255.52a2.613,2.613,0,1,1-2.613-2.613A2.613,2.613,0,0,1,162.274,255.52Z" transform="translate(-91.099 -148.967)" fill="#ffa381"/>
    <circle id="Elipse_6063" data-name="Elipse 6063" cx="1.709" cy="1.709" r="1.709" transform="translate(55.363 120.761)" fill="#b8e587"/>
    <line id="Línea_589" data-name="Línea 589" x2="5.339" transform="translate(71.638 122.464)" fill="none" stroke="#363b47" stroke-linecap="round" stroke-linejoin="round" stroke-width="2"/>
    <line id="Línea_590" data-name="Línea 590" x2="5.339" transform="translate(60.677 122.464)" fill="none" stroke="#363b47" stroke-linecap="round" stroke-linejoin="round" stroke-width="2"/>
    <circle id="Elipse_6064" data-name="Elipse 6064" cx="1.709" cy="1.709" r="1.709" transform="translate(78.344 120.761)" fill="#b8e587"/>
    <line id="Línea_591" data-name="Línea 591" y2="14.938" transform="translate(160.863 107.394)" fill="none" stroke="#363b47" stroke-linecap="round" stroke-linejoin="round" stroke-width="2"/>
    <path id="Trazado_173093" data-name="Trazado 173093" d="M326.392,255.52a2.613,2.613,0,1,1-2.613-2.613A2.613,2.613,0,0,1,326.392,255.52Z" transform="translate(-162.917 -148.967)" fill="#ffa381"/>
    <line id="Línea_592" data-name="Línea 592" x2="5.803" transform="translate(163.121 122.471)" fill="none" stroke="#363b47" stroke-linecap="round" stroke-linejoin="round" stroke-width="2"/>
    <path id="Trazado_173094" data-name="Trazado 173094" d="M343.2,302.791a1.709,1.709,0,1,1,1.709,1.709A1.709,1.709,0,0,1,343.2,302.791Z" transform="translate(-172.56 -180.321)" fill="#f5fb9b"/>
  </g>
</svg>
