<svg xmlns="http://www.w3.org/2000/svg" xmlns:xlink="http://www.w3.org/1999/xlink" width="207.138" height="209.624" viewBox="0 0 207.138 209.624">
  <defs>
    <linearGradient id="linear-gradient" x1="0.48" y1="0.467" x2="0.372" y2="0.528" gradientUnits="objectBoundingBox">
      <stop offset="0" stop-color="#40447e"/>
      <stop offset="0.996" stop-color="#3c3b6b"/>
    </linearGradient>
    <linearGradient id="linear-gradient-2" x1="0" y1="0.5" x2="1" y2="0.5" xlink:href="#linear-gradient"/>
    <linearGradient id="linear-gradient-3" y1="0.5" x2="1" y2="0.5" gradientUnits="objectBoundingBox">
      <stop offset="0" stop-color="#444b8c"/>
      <stop offset="0.996" stop-color="#26264f"/>
    </linearGradient>
    <linearGradient id="linear-gradient-5" x1="0.946" y1="0.041" x2="0.272" y2="0.706" gradientUnits="objectBoundingBox">
      <stop offset="0" stop-color="#fff"/>
      <stop offset="0.996" stop-color="#ebeff2"/>
    </linearGradient>
    <clipPath id="clip-path">
      <path id="Trazado_173244" data-name="Trazado 173244" d="M947.982,891.956c0,11.535-9.92,20.94-22.379,21.007-12.71.068-23.2-9.571-23.2-21.532s10.493-21.358,23.2-21C938.062,870.788,947.982,880.421,947.982,891.956Z" transform="translate(-902.4 -870.424)" fill="none"/>
    </clipPath>
    <linearGradient id="linear-gradient-6" y1="0.5" x2="1" y2="0.5" gradientUnits="objectBoundingBox">
      <stop offset="0" stop-color="#ff9085"/>
      <stop offset="1" stop-color="#fb6fbb"/>
    </linearGradient>
    <linearGradient id="linear-gradient-7" x1="0.498" y1="0.133" x2="0.501" y2="1.292" gradientUnits="objectBoundingBox">
      <stop offset="0.004" stop-color="#f36f56"/>
      <stop offset="1" stop-color="#ffc444"/>
    </linearGradient>
    <linearGradient id="linear-gradient-8" x1="0.686" y1="-0.574" x2="0.407" y2="0.93" xlink:href="#linear-gradient-7"/>
    <linearGradient id="linear-gradient-11" x1="0.97" y1="0.048" x2="0.262" y2="0.702" xlink:href="#linear-gradient-5"/>
    <linearGradient id="linear-gradient-12" y1="0.5" x2="1" y2="0.5" gradientUnits="objectBoundingBox">
      <stop offset="0" stop-color="#aa80f9"/>
      <stop offset="0.996" stop-color="#6165d7"/>
    </linearGradient>
    <clipPath id="clip-path-2">
      <path id="Trazado_173296" data-name="Trazado 173296" d="M2164.741,924.015a19.556,19.556,0,0,1-19.469,19.6,20.073,20.073,0,0,1-20.137-20.053,19.526,19.526,0,0,1,20.137-19.59A20.11,20.11,0,0,1,2164.741,924.015Z" transform="translate(-2125.135 -903.961)" fill="none"/>
    </clipPath>
    <linearGradient id="linear-gradient-13" y1="0.5" x2="1" y2="0.5" gradientUnits="objectBoundingBox">
      <stop offset="0" stop-color="#ab316d"/>
      <stop offset="1" stop-color="#792d3d"/>
    </linearGradient>
    <linearGradient id="linear-gradient-14" x1="0.497" y1="0.133" x2="0.503" y2="1.292" xlink:href="#linear-gradient-7"/>
    <linearGradient id="linear-gradient-15" x1="0.698" y1="-0.482" x2="0.378" y2="0.994" xlink:href="#linear-gradient-7"/>
    <linearGradient id="linear-gradient-16" x1="0.555" y1="0.027" x2="0.43" y2="1.02" xlink:href="#linear-gradient-3"/>
    <linearGradient id="linear-gradient-17" x1="1.717" y1="-3.579" x2="-0.242" y2="2.712" xlink:href="#linear-gradient-7"/>
    <linearGradient id="linear-gradient-18" x1="1.949" y1="-4.091" x2="-0.008" y2="2.2" xlink:href="#linear-gradient-7"/>
    <linearGradient id="linear-gradient-28" x1="0.995" y1="0.055" x2="0.251" y2="0.699" xlink:href="#linear-gradient-5"/>
    <clipPath id="clip-path-3">
      <path id="Trazado_173351" data-name="Trazado 173351" d="M1567.416,765.126c0,12.967-9.747,23.531-21.96,23.6-12.428.067-22.665-10.728-22.665-24.111s10.237-23.942,22.665-23.589C1557.669,741.371,1567.416,752.159,1567.416,765.126Z" transform="translate(-1522.791 -741.015)" fill="none"/>
    </clipPath>
    <linearGradient id="linear-gradient-30" x1="0.799" y1="-0.05" x2="0.364" y2="0.514" xlink:href="#linear-gradient-13"/>
    <linearGradient id="linear-gradient-31" x1="0.573" y1="-0.565" x2="0.467" y2="0.725" xlink:href="#linear-gradient-12"/>
    <linearGradient id="linear-gradient-32" x1="0.498" y1="0.133" x2="0.501" y2="1.291" xlink:href="#linear-gradient-7"/>
    <linearGradient id="linear-gradient-33" x1="1.279" y1="-0.864" x2="-0.312" y2="1.882" xlink:href="#linear-gradient-13"/>
    <linearGradient id="linear-gradient-34" x1="0.713" y1="-0.572" x2="0.394" y2="0.929" xlink:href="#linear-gradient-7"/>
    <linearGradient id="linear-gradient-35" x1="1.185" y1="-0.867" x2="-0.159" y2="1.979" xlink:href="#linear-gradient-13"/>
    <linearGradient id="linear-gradient-36" x1="0.581" y1="-0.1" x2="0.349" y2="0.903" xlink:href="#linear-gradient-13"/>
    <linearGradient id="linear-gradient-37" x1="0.591" y1="0.148" x2="0.269" y2="0.894" xlink:href="#linear-gradient-13"/>
    <linearGradient id="linear-gradient-38" x1="0.656" y1="-0.053" x2="0.304" y2="0.93" xlink:href="#linear-gradient-13"/>
    <linearGradient id="linear-gradient-39" x1="0.726" y1="-0.066" x2="0.288" y2="1.041" xlink:href="#linear-gradient-13"/>
    <linearGradient id="linear-gradient-44" x1="0" y1="0.5" x2="1" y2="0.5" xlink:href="#linear-gradient-7"/>
    <linearGradient id="linear-gradient-47" x1="0.61" y1="0.683" x2="0.394" y2="0.44" xlink:href="#linear-gradient-3"/>
    <linearGradient id="linear-gradient-48" x1="-4.239" y1="-4.652" x2="-4.37" y2="-4.038" xlink:href="#linear-gradient-7"/>
    <linearGradient id="linear-gradient-49" x1="-15.64" y1="-8.801" x2="-17.133" y2="-7.151" xlink:href="#linear-gradient-7"/>
    <linearGradient id="linear-gradient-51" x1="1.166" y1="2.058" x2="0.791" y2="1.072" xlink:href="#linear-gradient-7"/>
  </defs>
  <g id="Grupo_116647" data-name="Grupo 116647" transform="translate(-404.766 -413.461)">
    <path id="Trazado_173211" data-name="Trazado 173211" d="M606.906,515.631c3.413,17.68,10.329,53.513-6.223,77.484-30.04,43.506-132.2,40.44-175.358-14.412-3.731-4.742-22.446-29.479-20.4-63.351,3.542-58.753,67.475-110.828,118.714-100.6,29.987,5.986,49.918,32.173,58.123,42.954C585.139,462.149,600.626,483.1,606.906,515.631Z" transform="translate(0 0)" fill="#fff4e6"/>
    <g id="Grupo_116588" data-name="Grupo 116588" transform="translate(406.776 498.75)">
      <path id="Trazado_173212" data-name="Trazado 173212" d="M665.3,3006.509l-202.97-1.768v5.23a2.775,2.775,0,0,0,2.084,2.842l57.394,10.3a7.871,7.871,0,0,0,2.059.1l139.227-11.743a2.64,2.64,0,0,0,2.206-2.774Z" transform="translate(-460.172 -2902.367)" fill="#3d46c2"/>
      <path id="Trazado_173213" data-name="Trazado 173213" d="M572.311,1686.808l-135.4,9.568a4.032,4.032,0,0,1-4.393-4.064V1595.52a4.386,4.386,0,0,1,4.393-4.375h135.4a3.792,3.792,0,0,1,3.61,3.954v87.5A4.133,4.133,0,0,1,572.311,1686.808Z" transform="translate(-432.521 -1591.145)" fill="url(#linear-gradient)"/>
      <path id="Trazado_173214" data-name="Trazado 173214" d="M602.121,1686.808l-135.4,9.568a4.032,4.032,0,0,1-4.393-4.064V1595.52a4.386,4.386,0,0,1,4.393-4.375h135.4a3.792,3.792,0,0,1,3.61,3.954v87.5A4.133,4.133,0,0,1,602.121,1686.808Z" transform="translate(-460.172 -1591.145)" fill="#3d46c2"/>
      <path id="Trazado_173215" data-name="Trazado 173215" d="M673.34,1752.618l-126.108,8.312a3.3,3.3,0,0,1-3.574-3.336v-84.742a3.592,3.592,0,0,1,3.574-3.586l126.108-.522a3.108,3.108,0,0,1,2.978,3.24v77.185A3.385,3.385,0,0,1,673.34,1752.618Z" transform="translate(-535.609 -1663.124)" fill="#edcdc2"/>
      <path id="Trazado_173216" data-name="Trazado 173216" d="M1483.868,1606.857a1.561,1.561,0,1,1-1.558-1.627A1.6,1.6,0,0,1,1483.868,1606.857Z" transform="translate(-1404.836 -1604.21)" fill="#fff"/>
      <path id="Trazado_173217" data-name="Trazado 173217" d="M598.743,2905.723l-136.412,10.071,59.478,10.674a7.913,7.913,0,0,0,2.059.1l141.432-11.93-64.388-8.844A10.306,10.306,0,0,0,598.743,2905.723Z" transform="translate(-460.172 -2810.494)" fill="#a0a5e9"/>
      <path id="Trazado_173218" data-name="Trazado 173218" d="M737.176,2939.654l113.567-8.51,35.148,4.789-112.588,9.1Z" transform="translate(-715.113 -2834.1)" opacity="0.3" fill="url(#linear-gradient-2)" style="mix-blend-mode: multiply;isolation: isolate"/>
    </g>
    <g id="Grupo_116644" data-name="Grupo 116644" transform="translate(418.554 418.457)">
      <g id="Grupo_116605" data-name="Grupo 116605" transform="translate(0 11.189)">
        <path id="Trazado_173220" data-name="Trazado 173220" d="M677.111,640.13l-78.65-3.186a3.01,3.01,0,0,0-3.3,2.854V772.276a2.923,2.923,0,0,0,3.3,2.771l78.65-5.165a3.086,3.086,0,0,0,2.9-2.984V643.041A2.992,2.992,0,0,0,677.111,640.13Z" transform="translate(-595.157 -636.941)" fill="url(#linear-gradient-3)"/>
        <path id="Trazado_173221" data-name="Trazado 173221" d="M676.1,642.258l-77.64-5.314a3.01,3.01,0,0,0-3.3,2.854V772.276a2.923,2.923,0,0,0,3.3,2.771l78.65-5.165a3.086,3.086,0,0,0,2.9-2.984V643.041C680.013,641.5,677.706,642.322,676.1,642.258Z" transform="translate(-595.157 -636.941)" fill="url(#linear-gradient-3)"/>
        <g id="Grupo_116596" data-name="Grupo 116596" transform="translate(1.599)">
          <path id="Trazado_173222" data-name="Trazado 173222" d="M699.19,640.13l-78.65-3.186a3.01,3.01,0,0,0-3.3,2.854V772.276a2.923,2.923,0,0,0,3.3,2.771l78.65-5.165a3.086,3.086,0,0,0,2.9-2.984V643.041A2.992,2.992,0,0,0,699.19,640.13Z" transform="translate(-617.236 -636.941)" fill="#d8dee8"/>
          <g id="Grupo_116589" data-name="Grupo 116589" opacity="0.3" style="mix-blend-mode: multiply;isolation: isolate">
            <path id="Trazado_173223" data-name="Trazado 173223" d="M667.173,736.841c-1.335-15.014,8.663-21.253,4.855-34.836-4.715-16.815-22.918-17.564-29.143-34.138-2.389-6.359-3.333-15.964,3.5-29.876l-25.846-1.047a3.01,3.01,0,0,0-3.3,2.854V772.276a2.923,2.923,0,0,0,3.3,2.771l70.229-4.612C673.06,757.976,667.993,746.067,667.173,736.841Z" transform="translate(-617.236 -636.941)" fill="#d8dee8"/>
          </g>
          <path id="Trazado_173224" data-name="Trazado 173224" d="M724.151,664.293l-78.65-3.08a1.238,1.238,0,0,0-1.355,1.173v132.28A1.2,1.2,0,0,0,645.5,795.8l78.65-5.059a1.27,1.27,0,0,0,1.194-1.226V665.489A1.231,1.231,0,0,0,724.151,664.293Z" transform="translate(-642.197 -659.454)" fill="url(#linear-gradient-5)"/>
          <path id="Trazado_173225" data-name="Trazado 173225" d="M877.033,872.739c-14.744.119-27-11.085-27-24.978s12.252-24.814,27-24.356c14.407.448,25.886,11.643,25.886,24.965S891.44,872.623,877.033,872.739Z" transform="translate(-833.178 -809.889)" fill="#d8dee8"/>
          <path id="Trazado_173226" data-name="Trazado 173226" d="M925.49,870.165c0,12.441-10.69,22.6-24.135,22.688-13.738.092-25.1-10.318-25.1-23.255s11.359-23.085,25.1-22.677C914.8,847.321,925.49,857.724,925.49,870.165Z" transform="translate(-857.499 -831.703)" fill="#fff"/>
          <path id="Trazado_173227" data-name="Trazado 173227" d="M818.255,1625.638l-60.183.925a3,3,0,0,0-3.068,2.842h0a2.873,2.873,0,0,0,3.068,2.734l60.183-1.185a2.781,2.781,0,0,0,2.776-2.707h0A2.666,2.666,0,0,0,818.255,1625.638Z" transform="translate(-745.027 -1554.036)" fill="#a0a5e9" opacity="0.74"/>
          <path id="Trazado_173228" data-name="Trazado 173228" d="M958.99,1770.168l-49.247,1.176a2.988,2.988,0,0,0-3.016,2.843h0a2.806,2.806,0,0,0,3.016,2.686l49.247-1.388a2.81,2.81,0,0,0,2.776-2.73h0A2.639,2.639,0,0,0,958.99,1770.168Z" transform="translate(-885.761 -1688.098)" fill="#d8dee8"/>
          <g id="Grupo_116590" data-name="Grupo 116590" transform="translate(9.4 82.983)">
            <path id="Trazado_173229" data-name="Trazado 173229" d="M758.1,1795.571h-.056a2.78,2.78,0,0,1-3.04-2.586v-.245a2.959,2.959,0,0,1,3.04-2.745h.056a2.779,2.779,0,0,1,3.025,2.588v.244A2.958,2.958,0,0,1,758.1,1795.571Z" transform="translate(-754.427 -1789.471)" fill="#a0a5e9"/>
            <path id="Trazado_173230" data-name="Trazado 173230" d="M750.684,1789.405a3.382,3.382,0,0,1-3.645-3.216,3.6,3.6,0,0,1,3.645-3.406,3.38,3.38,0,0,1,3.624,3.217A3.6,3.6,0,0,1,750.684,1789.405Zm0-5.577a2.463,2.463,0,0,0-2.492,2.33,2.314,2.314,0,0,0,2.492,2.2,2.463,2.463,0,0,0,2.482-2.33A2.313,2.313,0,0,0,750.684,1783.828Z" transform="translate(-747.039 -1782.782)" fill="#d8dee8"/>
          </g>
          <path id="Trazado_173231" data-name="Trazado 173231" d="M958.99,1900.93l-49.247,1.554a3.016,3.016,0,0,0-3.016,2.867h0a2.781,2.781,0,0,0,3.016,2.663l49.247-1.767a2.836,2.836,0,0,0,2.776-2.752h0A2.614,2.614,0,0,0,958.99,1900.93Z" transform="translate(-885.761 -1809.389)" fill="#d8dee8"/>
          <g id="Grupo_116591" data-name="Grupo 116591" transform="translate(9.4 92.916)">
            <path id="Trazado_173232" data-name="Trazado 173232" d="M758.1,1932.724l-.056,0a2.755,2.755,0,0,1-3.04-2.563v-.245a2.987,2.987,0,0,1,3.04-2.769h.056a2.753,2.753,0,0,1,3.025,2.564v.244A2.986,2.986,0,0,1,758.1,1932.724Z" transform="translate(-754.427 -1926.624)" fill="#a0a5e9"/>
            <path id="Trazado_173233" data-name="Trazado 173233" d="M750.684,1926.559a3.351,3.351,0,0,1-3.645-3.188,3.635,3.635,0,0,1,3.645-3.434,3.349,3.349,0,0,1,3.624,3.189A3.634,3.634,0,0,1,750.684,1926.559Zm0-5.577a2.487,2.487,0,0,0-2.492,2.349,2.293,2.293,0,0,0,2.492,2.182,2.486,2.486,0,0,0,2.482-2.349A2.292,2.292,0,0,0,750.684,1920.983Z" transform="translate(-747.039 -1919.935)" fill="#d8dee8"/>
          </g>
          <path id="Trazado_173234" data-name="Trazado 173234" d="M958.99,2031.69l-49.247,1.934a3.045,3.045,0,0,0-3.016,2.89h0a2.756,2.756,0,0,0,3.016,2.64l49.247-2.146a2.863,2.863,0,0,0,2.776-2.773h0A2.591,2.591,0,0,0,958.99,2031.69Z" transform="translate(-885.761 -1930.679)" fill="#d8dee8"/>
          <path id="Trazado_173235" data-name="Trazado 173235" d="M750.684,2063.711a3.321,3.321,0,0,1-3.645-3.16,3.669,3.669,0,0,1,3.645-3.462,3.319,3.319,0,0,1,3.624,3.161A3.668,3.668,0,0,1,750.684,2063.711Zm0-5.577a2.511,2.511,0,0,0-2.492,2.369,2.272,2.272,0,0,0,2.492,2.163,2.51,2.51,0,0,0,2.482-2.368A2.271,2.271,0,0,0,750.684,2058.134Z" transform="translate(-737.638 -1954.237)" fill="#d8dee8"/>
          <path id="Trazado_173236" data-name="Trazado 173236" d="M958.99,2162.447l-49.247,2.313a3.073,3.073,0,0,0-3.016,2.913h0a2.731,2.731,0,0,0,3.016,2.616l49.247-2.525a2.89,2.89,0,0,0,2.776-2.795h0A2.567,2.567,0,0,0,958.99,2162.447Z" transform="translate(-885.761 -2051.965)" fill="#d8dee8"/>
          <g id="Grupo_116592" data-name="Grupo 116592" transform="translate(9.4 112.781)">
            <path id="Trazado_173237" data-name="Trazado 173237" d="M758.1,2207.021l-.056,0a2.705,2.705,0,0,1-3.04-2.517v-.245a3.044,3.044,0,0,1,3.04-2.815l.056,0a2.7,2.7,0,0,1,3.025,2.518v.244A3.043,3.043,0,0,1,758.1,2207.021Z" transform="translate(-754.427 -2200.918)" fill="#a0a5e9"/>
            <path id="Trazado_173238" data-name="Trazado 173238" d="M750.684,2200.859a3.291,3.291,0,0,1-3.645-3.132,3.7,3.7,0,0,1,3.645-3.49,3.289,3.289,0,0,1,3.624,3.133A3.7,3.7,0,0,1,750.684,2200.859Zm0-5.577a2.534,2.534,0,0,0-2.492,2.388,2.252,2.252,0,0,0,2.492,2.143,2.534,2.534,0,0,0,2.482-2.387A2.251,2.251,0,0,0,750.684,2195.282Z" transform="translate(-747.039 -2194.232)" fill="#d8dee8"/>
          </g>
          <g id="Grupo_116595" data-name="Grupo 116595" transform="translate(20.652 16.909)">
            <g id="Grupo_116594" data-name="Grupo 116594" clip-path="url(#clip-path)">
              <g id="Grupo_116593" data-name="Grupo 116593" transform="translate(-1.893 5.311)">
                <path id="Trazado_173239" data-name="Trazado 173239" d="M989.52,943.758c-4.361-.125-8.5,2.124-10.339,5.252-2.216,3.77.743,5.652-.7,11.778-1.331,5.642-4.439,6.606-3.925,10.31.563,4.057,4.808,6.63,6.486,7.646,7.541,4.57,19.312,4.379,25.285-1.52.5-.492,4.618-4.562,3.506-8.3-.995-3.35-5.262-3.373-6.146-6.854-.762-3,2.154-3.968,1.877-8.315-.054-.85-.311-4.876-3.557-6.737a7.972,7.972,0,0,0-5.409-.711A12.648,12.648,0,0,0,989.52,943.758Z" transform="translate(-967.383 -943.753)" fill="#f85316"/>
                <path id="Trazado_173240" data-name="Trazado 173240" d="M876.258,1310.263s22.053-11.954,49.232-.038c0,0-3.457,10.209-24.135,10.906C879.974,1321.851,876.258,1310.263,876.258,1310.263Z" transform="translate(-876.258 -1278.781)" fill="url(#linear-gradient-6)"/>
                <path id="Trazado_173241" data-name="Trazado 173241" d="M1024.426,1163.565l-.826,5.707a5.273,5.273,0,0,1-3.736,4.206l-6.72,2.108s12.857,5.752,29.065,0l-7.385-2.4a5.272,5.272,0,0,1-3.619-4.682l-.212-4.871Z" transform="translate(-1003.231 -1147.646)" fill="url(#linear-gradient-7)"/>
                <path id="Trazado_173242" data-name="Trazado 173242" d="M1127.077,998.286c0,4.815-3.119,9.964-6.988,9.935-3.893-.029-7.067-5.285-7.067-10.154s3.174-7.464,7.067-7.38C1123.958,990.77,1127.077,993.47,1127.077,998.286Z" transform="translate(-1095.875 -987.286)" fill="url(#linear-gradient-8)"/>
                <path id="Trazado_173243" data-name="Trazado 173243" d="M1063.86,965.323c-2.1.062-5.285.474-7.491,2.591-3.706,3.556-1.946,9.3-3.594,9.619-1.469.288-3.745-3.809-3.708-8.281.031-3.745,1.411-8.132,5-9.163,2.108-.6,2.728.468,9.52,1.238,3.955.448,2.4,2.067,3.293,2.7,3.948,2.807,3.448,11.781,1.323,11.873C1067.2,975.941,1065.8,973.578,1063.86,965.323Z" transform="translate(-1036.552 -958.741)" fill="#f85316"/>
              </g>
            </g>
          </g>
        </g>
      </g>
      <g id="Grupo_116624" data-name="Grupo 116624" transform="translate(91.324 14.871)">
        <path id="Trazado_173269" data-name="Trazado 173269" d="M1927.354,690.553l-68.332-2.768a2.687,2.687,0,0,0-2.858,2.663v123.2a2.608,2.608,0,0,0,2.858,2.591l68.332-4.487a2.785,2.785,0,0,0,2.533-2.776V693.265A2.7,2.7,0,0,0,1927.354,690.553Z" transform="translate(-1856.164 -687.782)" fill="url(#linear-gradient-3)"/>
        <path id="Trazado_173270" data-name="Trazado 173270" d="M1926.624,694.822l-67.6-7.037a2.687,2.687,0,0,0-2.858,2.663v123.2a2.608,2.608,0,0,0,2.858,2.591l68.332-4.487a2.785,2.785,0,0,0,2.533-2.776V693.265C1929.886,691.824,1928.024,694.879,1926.624,694.822Z" transform="translate(-1856.164 -687.782)" fill="url(#linear-gradient-3)"/>
        <g id="Grupo_116614" data-name="Grupo 116614" transform="translate(1.599)">
          <path id="Trazado_173271" data-name="Trazado 173271" d="M1949.433,690.553l-68.332-2.768a2.687,2.687,0,0,0-2.858,2.663v123.2a2.608,2.608,0,0,0,2.858,2.591l68.332-4.487a2.786,2.786,0,0,0,2.533-2.776V693.265A2.7,2.7,0,0,0,1949.433,690.553Z" transform="translate(-1878.243 -687.782)" fill="#d8dee8"/>
          <g id="Grupo_116606" data-name="Grupo 116606" opacity="0.3" style="mix-blend-mode: multiply;isolation: isolate">
            <path id="Trazado_173272" data-name="Trazado 173272" d="M1921.546,780.812c-1.16-14,7.536-19.806,4.222-32.481-4.1-15.682-19.913-16.376-25.313-31.809-2.071-5.919-2.89-14.861,3.037-27.831l-22.392-.907a2.687,2.687,0,0,0-2.858,2.663v123.2a2.608,2.608,0,0,0,2.858,2.591l60.989-4.005C1926.666,800.54,1922.259,789.417,1921.546,780.812Z" transform="translate(-1878.243 -687.782)" fill="#d8dee8"/>
          </g>
          <path id="Trazado_173273" data-name="Trazado 173273" d="M1971.022,713.032l-68.331-2.676a1.1,1.1,0,0,0-1.173,1.094V834.479a1.073,1.073,0,0,0,1.173,1.064l68.331-4.4a1.146,1.146,0,0,0,1.042-1.141V714.146A1.111,1.111,0,0,0,1971.022,713.032Z" transform="translate(-1899.832 -708.72)" fill="url(#linear-gradient-11)"/>
          <path id="Trazado_173274" data-name="Trazado 173274" d="M1943.135,801.75c-1.16-14,7.536-19.806,4.222-32.481-4.1-15.682-19.913-16.376-25.313-31.809-1.986-5.675-2.82-14.128,2.342-26.255l-21.7-.849a1.1,1.1,0,0,0-1.173,1.094V834.479a1.073,1.073,0,0,0,1.173,1.064l59.15-3.8C1947.9,820.564,1943.819,810,1943.135,801.75Z" transform="translate(-1899.832 -708.72)" fill="#fff" opacity="0.35" style="mix-blend-mode: soft-light;isolation: isolate"/>
          <path id="Trazado_173275" data-name="Trazado 173275" d="M2103.183,906.123a23.31,23.31,0,0,1-23.423-23.263,22.674,22.674,0,0,1,23.423-22.724,23.36,23.36,0,0,1,22.524,23.253A22.715,22.715,0,0,1,2103.183,906.123Z" transform="translate(-2065.166 -847.644)" fill="#d8dee8"/>
          <path id="Trazado_173276" data-name="Trazado 173276" d="M2145.255,903.7a21.123,21.123,0,0,1-21,21.166,21.678,21.678,0,0,1-21.777-21.658,21.087,21.087,0,0,1,21.777-21.157A21.721,21.721,0,0,1,2145.255,903.7Z" transform="translate(-2086.24 -867.975)" fill="#fff"/>
          <path id="Trazado_173277" data-name="Trazado 173277" d="M2052.4,1608.309l-52.291.8a2.679,2.679,0,0,0-2.656,2.641h0a2.569,2.569,0,0,0,2.656,2.548l52.291-1.03a2.507,2.507,0,0,0,2.42-2.524h0A2.4,2.4,0,0,0,2052.4,1608.309Z" transform="translate(-1988.82 -1541.644)" opacity="0.74" fill="url(#linear-gradient-12)"/>
          <path id="Trazado_173278" data-name="Trazado 173278" d="M2174.315,1743.247l-42.814,1.022a2.675,2.675,0,0,0-2.615,2.642h0a2.512,2.512,0,0,0,2.615,2.506l42.814-1.207a2.533,2.533,0,0,0,2.42-2.545h0A2.379,2.379,0,0,0,2174.315,1743.247Z" transform="translate(-2110.734 -1666.809)" fill="#d8dee8"/>
          <g id="Grupo_116607" data-name="Grupo 116607" transform="translate(8.134 77.199)">
            <path id="Trazado_173279" data-name="Trazado 173279" d="M2000.134,1765.664h-.049a2.478,2.478,0,0,1-2.632-2.413v-.228a2.639,2.639,0,0,1,2.632-2.55h.049a2.478,2.478,0,0,1,2.62,2.413v.227A2.639,2.639,0,0,1,2000.134,1765.664Z" transform="translate(-1996.953 -1759.987)" fill="#b19af3"/>
            <path id="Trazado_173280" data-name="Trazado 173280" d="M1993.713,1759.926a3.023,3.023,0,0,1-3.156-3,3.218,3.218,0,0,1,3.156-3.164,3.023,3.023,0,0,1,3.139,3A3.219,3.219,0,0,1,1993.713,1759.926Zm0-5.19a2.2,2.2,0,0,0-2.158,2.164,2.068,2.068,0,0,0,2.158,2.052,2.2,2.2,0,0,0,2.15-2.165A2.068,2.068,0,0,0,1993.713,1754.736Z" transform="translate(-1990.557 -1753.762)" fill="#d8dee8"/>
          </g>
          <path id="Trazado_173281" data-name="Trazado 173281" d="M2174.315,1865.333l-42.814,1.351a2.7,2.7,0,0,0-2.615,2.663h0a2.489,2.489,0,0,0,2.615,2.486l42.814-1.537a2.557,2.557,0,0,0,2.42-2.563h0A2.357,2.357,0,0,0,2174.315,1865.333Z" transform="translate(-2110.734 -1780.052)" fill="#d8dee8"/>
          <g id="Grupo_116608" data-name="Grupo 116608" transform="translate(8.134 86.443)">
            <path id="Trazado_173282" data-name="Trazado 173282" d="M2000.134,1893.3h-.049a2.456,2.456,0,0,1-2.632-2.392v-.228a2.663,2.663,0,0,1,2.632-2.57h.049a2.456,2.456,0,0,1,2.62,2.393v.227A2.664,2.664,0,0,1,2000.134,1893.3Z" transform="translate(-1996.953 -1887.625)" fill="#b19af3"/>
            <path id="Trazado_173283" data-name="Trazado 173283" d="M1993.713,1887.564a3,3,0,0,1-3.156-2.975,3.249,3.249,0,0,1,3.156-3.188,3,3,0,0,1,3.139,2.976A3.249,3.249,0,0,1,1993.713,1887.564Zm0-5.19a2.223,2.223,0,0,0-2.158,2.181,2.049,2.049,0,0,0,2.158,2.035,2.223,2.223,0,0,0,2.15-2.181A2.049,2.049,0,0,0,1993.713,1882.375Z" transform="translate(-1990.557 -1881.4)" fill="#d8dee8"/>
          </g>
          <path id="Trazado_173284" data-name="Trazado 173284" d="M2174.315,1987.416,2131.5,1989.1a2.726,2.726,0,0,0-2.615,2.683h0a2.467,2.467,0,0,0,2.615,2.466l42.814-1.866a2.581,2.581,0,0,0,2.42-2.582h0A2.336,2.336,0,0,0,2174.315,1987.416Z" transform="translate(-2110.734 -1893.293)" fill="#d8dee8"/>
          <g id="Grupo_116609" data-name="Grupo 116609" transform="translate(8.134 95.687)">
            <path id="Trazado_173285" data-name="Trazado 173285" d="M2000.134,2020.937l-.049,0a2.433,2.433,0,0,1-2.632-2.372v-.228a2.689,2.689,0,0,1,2.632-2.59l.049,0a2.433,2.433,0,0,1,2.62,2.373v.227A2.689,2.689,0,0,1,2000.134,2020.937Z" transform="translate(-1996.953 -2015.259)" fill="#b19af3"/>
            <path id="Trazado_173286" data-name="Trazado 173286" d="M1993.713,2015.2a2.968,2.968,0,0,1-3.156-2.951,3.28,3.28,0,0,1,3.156-3.212,2.968,2.968,0,0,1,3.139,2.951A3.281,3.281,0,0,1,1993.713,2015.2Zm0-5.19a2.244,2.244,0,0,0-2.158,2.2,2.031,2.031,0,0,0,2.158,2.019,2.244,2.244,0,0,0,2.15-2.2A2.031,2.031,0,0,0,1993.713,2010.011Z" transform="translate(-1990.557 -2009.036)" fill="#d8dee8"/>
          </g>
          <path id="Trazado_173287" data-name="Trazado 173287" d="M2174.315,2109.5l-42.814,2.011a2.752,2.752,0,0,0-2.615,2.7h0a2.444,2.444,0,0,0,2.615,2.446l42.814-2.2a2.605,2.605,0,0,0,2.42-2.6h0A2.315,2.315,0,0,0,2174.315,2109.5Z" transform="translate(-2110.734 -2006.532)" fill="#d8dee8"/>
          <g id="Grupo_116610" data-name="Grupo 116610" transform="translate(8.134 104.93)">
            <path id="Trazado_173288" data-name="Trazado 173288" d="M2000.134,2148.57l-.049,0a2.412,2.412,0,0,1-2.632-2.351v-.229a2.714,2.714,0,0,1,2.632-2.61l.049,0a2.411,2.411,0,0,1,2.62,2.353v.227A2.715,2.715,0,0,1,2000.134,2148.57Z" transform="translate(-1996.953 -2142.892)" fill="#b19af3"/>
            <path id="Trazado_173289" data-name="Trazado 173289" d="M1993.713,2142.836a2.941,2.941,0,0,1-3.156-2.926,3.31,3.31,0,0,1,3.156-3.236,2.941,2.941,0,0,1,3.139,2.927A3.311,3.311,0,0,1,1993.713,2142.836Zm0-5.19a2.265,2.265,0,0,0-2.158,2.214,2.013,2.013,0,0,0,2.158,2,2.266,2.266,0,0,0,2.15-2.214A2.012,2.012,0,0,0,1993.713,2137.646Z" transform="translate(-1990.557 -2136.67)" fill="#d8dee8"/>
          </g>
          <g id="Grupo_116613" data-name="Grupo 116613" transform="translate(17.88 15.656)">
            <g id="Grupo_116612" data-name="Grupo 116612" clip-path="url(#clip-path-2)">
              <g id="Grupo_116611" data-name="Grupo 116611" transform="translate(-1.641 4.874)">
                <path id="Trazado_173290" data-name="Trazado 173290" d="M2102.479,1314.683s19.133-11.141,42.776-.036c0,0-3.011,9.527-21,10.166C2105.7,1325.472,2102.479,1314.683,2102.479,1314.683Z" transform="translate(-2102.479 -1285.208)" fill="url(#linear-gradient-13)"/>
                <path id="Trazado_173291" data-name="Trazado 173291" d="M2301.494,1177.236l-.717,5.319c-.208,3.387-3.568,4.65-3.568,4.65,3.945,4.678,11.483,4.506,14.119.084a7.388,7.388,0,0,1-3.943-5.447l-.185-4.541Z" transform="translate(-2283.106 -1162.318)" fill="url(#linear-gradient-14)"/>
                <path id="Trazado_173292" data-name="Trazado 173292" d="M2320.054,1023.143c0,4.49-2.712,9.293-6.074,9.268-3.382-.026-6.138-4.921-6.138-9.457s2.756-6.959,6.138-6.887C2317.342,1016.139,2320.054,1018.653,2320.054,1023.143Z" transform="translate(-2292.97 -1012.82)" fill="url(#linear-gradient-15)"/>
                <path id="Trazado_173293" data-name="Trazado 173293" d="M2282.4,982.531l1.014-.145a4.161,4.161,0,0,1,0-3.453,4.263,4.263,0,0,1,3.934-1.89c1.559.133,2.494.867,3.276.327a1.792,1.792,0,0,0,.631-1.307,4.216,4.216,0,0,0,.316,1.167c.582,1.336,1.565,1.63,2.1,2.516.36.6.6,1.588,0,3.318l.89-.04a23.746,23.746,0,0,0,.922-4.042c.347-2.511.585-4.239-.4-5.1-.2-.172-1.064-.858-3.142-.277a7.35,7.35,0,0,0-3.092-1.968,6.507,6.507,0,0,0-5.66.636c-1.635,1.138-2.917,3.3-2.5,5.125.218.963.814,1.406,1.338,3.27A12.346,12.346,0,0,1,2282.4,982.531Z" transform="translate(-2267.71 -971.255)" fill="url(#linear-gradient-16)"/>
                <path id="Trazado_173294" data-name="Trazado 173294" d="M2464.807,1113.913s.39-1.961,1.574-1.748-.512,3.41-1.574,3.785Z" transform="translate(-2438.566 -1101.946)" fill="url(#linear-gradient-17)"/>
                <path id="Trazado_173295" data-name="Trazado 173295" d="M2292.479,1111.068s-.4-1.991-1.607-1.813.523,3.464,1.607,3.869Z" transform="translate(-2276.846 -1099.25)" fill="url(#linear-gradient-18)"/>
              </g>
            </g>
          </g>
        </g>
        <g id="Grupo_116623" data-name="Grupo 116623" transform="translate(1.599)">
          <g id="Grupo_116615" data-name="Grupo 116615" opacity="0.3" style="mix-blend-mode: multiply;isolation: isolate">
            <path id="Trazado_173297" data-name="Trazado 173297" d="M1921.546,780.812c-1.16-14,7.536-19.806,4.222-32.481-4.1-15.682-19.913-16.376-25.313-31.809-2.071-5.919-2.89-14.861,3.037-27.831l-22.392-.907a2.687,2.687,0,0,0-2.858,2.663v123.2a2.608,2.608,0,0,0,2.858,2.591l60.989-4.005C1926.666,800.54,1922.259,789.417,1921.546,780.812Z" transform="translate(-1878.243 -687.782)" fill="#d8dee8"/>
          </g>
          <path id="Trazado_173298" data-name="Trazado 173298" d="M1971.022,713.032l-68.331-2.676a1.1,1.1,0,0,0-1.173,1.094V834.479a1.073,1.073,0,0,0,1.173,1.064l68.331-4.4a1.146,1.146,0,0,0,1.042-1.141V714.146A1.111,1.111,0,0,0,1971.022,713.032Z" transform="translate(-1899.832 -708.72)" fill="url(#linear-gradient-11)"/>
          <path id="Trazado_173299" data-name="Trazado 173299" d="M1943.135,801.75c-1.16-14,7.536-19.806,4.222-32.481-4.1-15.682-19.913-16.376-25.313-31.809-1.986-5.675-2.82-14.128,2.342-26.255l-21.7-.849a1.1,1.1,0,0,0-1.173,1.094V834.479a1.073,1.073,0,0,0,1.173,1.064l59.15-3.8C1947.9,820.564,1943.819,810,1943.135,801.75Z" transform="translate(-1899.832 -708.72)" fill="#fff" opacity="0.35" style="mix-blend-mode: soft-light;isolation: isolate"/>
          <path id="Trazado_173300" data-name="Trazado 173300" d="M2103.183,906.123a23.31,23.31,0,0,1-23.423-23.263,22.674,22.674,0,0,1,23.423-22.724,23.36,23.36,0,0,1,22.524,23.253A22.715,22.715,0,0,1,2103.183,906.123Z" transform="translate(-2065.166 -847.644)" fill="#d8dee8"/>
          <path id="Trazado_173301" data-name="Trazado 173301" d="M2145.255,903.7a21.123,21.123,0,0,1-21,21.166,21.678,21.678,0,0,1-21.777-21.658,21.087,21.087,0,0,1,21.777-21.157A21.721,21.721,0,0,1,2145.255,903.7Z" transform="translate(-2086.24 -867.975)" fill="#fff"/>
          <path id="Trazado_173302" data-name="Trazado 173302" d="M2052.4,1608.309l-52.291.8a2.679,2.679,0,0,0-2.656,2.641h0a2.569,2.569,0,0,0,2.656,2.548l52.291-1.03a2.507,2.507,0,0,0,2.42-2.524h0A2.4,2.4,0,0,0,2052.4,1608.309Z" transform="translate(-1988.82 -1541.644)" opacity="0.74" fill="url(#linear-gradient-12)"/>
          <path id="Trazado_173303" data-name="Trazado 173303" d="M2174.315,1743.247l-42.814,1.022a2.675,2.675,0,0,0-2.615,2.642h0a2.512,2.512,0,0,0,2.615,2.506l42.814-1.207a2.533,2.533,0,0,0,2.42-2.545h0A2.379,2.379,0,0,0,2174.315,1743.247Z" transform="translate(-2110.734 -1666.809)" fill="#d8dee8"/>
          <g id="Grupo_116616" data-name="Grupo 116616" transform="translate(8.134 77.199)">
            <path id="Trazado_173304" data-name="Trazado 173304" d="M2000.134,1765.664h-.049a2.478,2.478,0,0,1-2.632-2.413v-.228a2.639,2.639,0,0,1,2.632-2.55h.049a2.478,2.478,0,0,1,2.62,2.413v.227A2.639,2.639,0,0,1,2000.134,1765.664Z" transform="translate(-1996.953 -1759.987)" fill="#b19af3"/>
            <path id="Trazado_173305" data-name="Trazado 173305" d="M1993.713,1759.926a3.023,3.023,0,0,1-3.156-3,3.218,3.218,0,0,1,3.156-3.164,3.023,3.023,0,0,1,3.139,3A3.219,3.219,0,0,1,1993.713,1759.926Zm0-5.19a2.2,2.2,0,0,0-2.158,2.164,2.068,2.068,0,0,0,2.158,2.052,2.2,2.2,0,0,0,2.15-2.165A2.068,2.068,0,0,0,1993.713,1754.736Z" transform="translate(-1990.557 -1753.762)" fill="#d8dee8"/>
          </g>
          <path id="Trazado_173306" data-name="Trazado 173306" d="M2174.315,1865.333l-42.814,1.351a2.7,2.7,0,0,0-2.615,2.663h0a2.489,2.489,0,0,0,2.615,2.486l42.814-1.537a2.557,2.557,0,0,0,2.42-2.563h0A2.357,2.357,0,0,0,2174.315,1865.333Z" transform="translate(-2110.734 -1780.052)" fill="#d8dee8"/>
          <g id="Grupo_116617" data-name="Grupo 116617" transform="translate(8.134 86.443)">
            <path id="Trazado_173307" data-name="Trazado 173307" d="M2000.134,1893.3h-.049a2.456,2.456,0,0,1-2.632-2.392v-.228a2.663,2.663,0,0,1,2.632-2.57h.049a2.456,2.456,0,0,1,2.62,2.393v.227A2.664,2.664,0,0,1,2000.134,1893.3Z" transform="translate(-1996.953 -1887.625)" fill="#b19af3"/>
            <path id="Trazado_173308" data-name="Trazado 173308" d="M1993.713,1887.564a3,3,0,0,1-3.156-2.975,3.249,3.249,0,0,1,3.156-3.188,3,3,0,0,1,3.139,2.976A3.249,3.249,0,0,1,1993.713,1887.564Zm0-5.19a2.223,2.223,0,0,0-2.158,2.181,2.049,2.049,0,0,0,2.158,2.035,2.223,2.223,0,0,0,2.15-2.181A2.049,2.049,0,0,0,1993.713,1882.375Z" transform="translate(-1990.557 -1881.4)" fill="#d8dee8"/>
          </g>
          <path id="Trazado_173309" data-name="Trazado 173309" d="M2174.315,1987.416,2131.5,1989.1a2.726,2.726,0,0,0-2.615,2.683h0a2.467,2.467,0,0,0,2.615,2.466l42.814-1.866a2.581,2.581,0,0,0,2.42-2.582h0A2.336,2.336,0,0,0,2174.315,1987.416Z" transform="translate(-2110.734 -1893.293)" fill="#d8dee8"/>
          <g id="Grupo_116618" data-name="Grupo 116618" transform="translate(8.134 95.687)">
            <path id="Trazado_173310" data-name="Trazado 173310" d="M2000.134,2020.937l-.049,0a2.433,2.433,0,0,1-2.632-2.372v-.228a2.689,2.689,0,0,1,2.632-2.59l.049,0a2.433,2.433,0,0,1,2.62,2.373v.227A2.689,2.689,0,0,1,2000.134,2020.937Z" transform="translate(-1996.953 -2015.259)" fill="#b19af3"/>
            <path id="Trazado_173311" data-name="Trazado 173311" d="M1993.713,2015.2a2.968,2.968,0,0,1-3.156-2.951,3.28,3.28,0,0,1,3.156-3.212,2.968,2.968,0,0,1,3.139,2.951A3.281,3.281,0,0,1,1993.713,2015.2Zm0-5.19a2.244,2.244,0,0,0-2.158,2.2,2.031,2.031,0,0,0,2.158,2.019,2.244,2.244,0,0,0,2.15-2.2A2.031,2.031,0,0,0,1993.713,2010.011Z" transform="translate(-1990.557 -2009.036)" fill="#d8dee8"/>
          </g>
          <path id="Trazado_173312" data-name="Trazado 173312" d="M2174.315,2109.5l-42.814,2.011a2.752,2.752,0,0,0-2.615,2.7h0a2.444,2.444,0,0,0,2.615,2.446l42.814-2.2a2.605,2.605,0,0,0,2.42-2.6h0A2.315,2.315,0,0,0,2174.315,2109.5Z" transform="translate(-2110.734 -2006.532)" fill="#d8dee8"/>
          <g id="Grupo_116619" data-name="Grupo 116619" transform="translate(8.134 104.93)">
            <path id="Trazado_173313" data-name="Trazado 173313" d="M2000.134,2148.57l-.049,0a2.412,2.412,0,0,1-2.632-2.351v-.229a2.714,2.714,0,0,1,2.632-2.61l.049,0a2.411,2.411,0,0,1,2.62,2.353v.227A2.715,2.715,0,0,1,2000.134,2148.57Z" transform="translate(-1996.953 -2142.892)" fill="#b19af3"/>
            <path id="Trazado_173314" data-name="Trazado 173314" d="M1993.713,2142.836a2.941,2.941,0,0,1-3.156-2.926,3.31,3.31,0,0,1,3.156-3.236,2.941,2.941,0,0,1,3.139,2.927A3.311,3.311,0,0,1,1993.713,2142.836Zm0-5.19a2.265,2.265,0,0,0-2.158,2.214,2.013,2.013,0,0,0,2.158,2,2.266,2.266,0,0,0,2.15-2.214A2.012,2.012,0,0,0,1993.713,2137.646Z" transform="translate(-1990.557 -2136.67)" fill="#d8dee8"/>
          </g>
          <g id="Grupo_116622" data-name="Grupo 116622" transform="translate(16.239 20.529)">
            <g id="Grupo_116648" data-name="Grupo 116648" transform="translate(0 0)">
              <g id="Grupo_116620" data-name="Grupo 116620">
                <path id="Trazado_173315" data-name="Trazado 173315" d="M2102.479,1314.683s19.133-11.141,42.776-.036c0,0-3.011,9.527-21,10.166C2105.7,1325.472,2102.479,1314.683,2102.479,1314.683Z" transform="translate(-2102.479 -1285.208)" fill="#f85316"/>
                <path id="Trazado_173316" data-name="Trazado 173316" d="M2301.494,1177.236l-.717,5.319c-.208,3.387-3.568,4.65-3.568,4.65,3.945,4.678,11.483,4.506,14.119.084a7.388,7.388,0,0,1-3.943-5.447l-.185-4.541Z" transform="translate(-2283.106 -1162.318)" fill="url(#linear-gradient-14)"/>
                <path id="Trazado_173317" data-name="Trazado 173317" d="M2320.054,1023.143c0,4.49-2.712,9.293-6.074,9.268-3.382-.026-6.138-4.921-6.138-9.457s2.756-6.959,6.138-6.887C2317.342,1016.139,2320.054,1018.653,2320.054,1023.143Z" transform="translate(-2292.97 -1012.82)" fill="url(#linear-gradient-15)"/>
                <path id="Trazado_173318" data-name="Trazado 173318" d="M2282.4,982.531l1.014-.145a4.161,4.161,0,0,1,0-3.453,4.263,4.263,0,0,1,3.934-1.89c1.559.133,2.494.867,3.276.327a1.792,1.792,0,0,0,.631-1.307,4.216,4.216,0,0,0,.316,1.167c.582,1.336,1.565,1.63,2.1,2.516.36.6.6,1.588,0,3.318l.89-.04a23.746,23.746,0,0,0,.922-4.042c.347-2.511.585-4.239-.4-5.1-.2-.172-1.064-.858-3.142-.277a7.35,7.35,0,0,0-3.092-1.968,6.507,6.507,0,0,0-5.66.636c-1.635,1.138-2.917,3.3-2.5,5.125.218.963.814,1.406,1.338,3.27A12.346,12.346,0,0,1,2282.4,982.531Z" transform="translate(-2267.71 -971.255)" fill="url(#linear-gradient-16)"/>
                <path id="Trazado_173319" data-name="Trazado 173319" d="M2464.807,1113.913s.39-1.961,1.574-1.748-.512,3.41-1.574,3.785Z" transform="translate(-2438.566 -1101.946)" fill="url(#linear-gradient-17)"/>
                <path id="Trazado_173320" data-name="Trazado 173320" d="M2292.479,1111.068s-.4-1.991-1.607-1.813.523,3.464,1.607,3.869Z" transform="translate(-2276.846 -1099.25)" fill="url(#linear-gradient-18)"/>
              </g>
            </g>
          </g>
        </g>
      </g>
      <g id="Grupo_116643" data-name="Grupo 116643" transform="translate(45.042 0)">
        <path id="Trazado_173322" data-name="Trazado 173322" d="M1296.51,488.971l-76.2-6.528a3.12,3.12,0,0,0-3.208,3.206V633.581a3.029,3.029,0,0,0,3.208,3.126l76.986-5.056a3.265,3.265,0,0,0,2.865-3.334V488.824C1300.162,487.086,1298.093,489.035,1296.51,488.971Z" transform="translate(-1217.104 -482.441)" fill="url(#linear-gradient-3)"/>
        <path id="Trazado_173323" data-name="Trazado 173323" d="M2071.362,497.154h0a1.784,1.784,0,0,1,1.762-1.837l.661-.034,3.166,1.263V497.7Z" transform="translate(-2009.496 -494.352)" fill="url(#linear-gradient-13)"/>
        <g id="Grupo_116633" data-name="Grupo 116633" transform="translate(2.054)">
          <path id="Trazado_173324" data-name="Trazado 173324" d="M1325.666,485.562l-76.986-3.119a3.12,3.12,0,0,0-3.208,3.206V633.581a3.029,3.029,0,0,0,3.208,3.126l76.986-5.056a3.265,3.265,0,0,0,2.865-3.334V488.824A3.166,3.166,0,0,0,1325.666,485.562Z" transform="translate(-1245.472 -482.441)" fill="#d8dee8"/>
          <g id="Grupo_116625" data-name="Grupo 116625" opacity="0.3" style="mix-blend-mode: multiply;isolation: isolate">
            <path id="Trazado_173325" data-name="Trazado 173325" d="M1294.179,594.279c-1.308-16.855,8.5-23.826,4.761-39.089-4.624-18.878-22.436-19.708-28.512-38.259-2.33-7.112-3.25-17.858,3.417-33.468l-25.165-1.019a3.12,3.12,0,0,0-3.208,3.206V633.581a3.029,3.029,0,0,0,3.208,3.126l68.685-4.511C1299.953,618.043,1294.982,604.637,1294.179,594.279Z" transform="translate(-1245.472 -482.441)" fill="#d8dee8"/>
          </g>
          <path id="Trazado_173326" data-name="Trazado 173326" d="M1349.9,512.561l-76.986-3.015a1.283,1.283,0,0,0-1.316,1.317V658.6a1.246,1.246,0,0,0,1.316,1.284l76.986-4.952a1.342,1.342,0,0,0,1.178-1.37V513.9A1.3,1.3,0,0,0,1349.9,512.561Z" transform="translate(-1269.701 -507.582)" fill="url(#linear-gradient-28)"/>
          <path id="Trazado_173327" data-name="Trazado 173327" d="M1498.142,743.622c-14.414.116-26.359-12.43-26.359-27.969s11.945-27.81,26.359-27.362c14.125.439,25.411,12.978,25.411,27.958S1512.267,743.508,1498.142,743.622Z" transform="translate(-1455.393 -673.372)" fill="#d8dee8"/>
          <path id="Trazado_173328" data-name="Trazado 173328" d="M1545.516,740.688c0,13.987-10.507,25.4-23.688,25.485-13.432.09-24.51-11.568-24.51-26.04s11.078-25.875,24.51-25.476C1535.01,715.049,1545.516,726.7,1545.516,740.688Z" transform="translate(-1479.08 -697.831)" fill="#fff"/>
          <path id="Trazado_173329" data-name="Trazado 173329" d="M1441.207,1588.886l-58.916.905a3.115,3.115,0,0,0-2.984,3.17h0a2.986,2.986,0,0,0,2.984,3.065l58.916-1.16a2.936,2.936,0,0,0,2.734-3.038h0A2.814,2.814,0,0,0,1441.207,1588.886Z" transform="translate(-1369.615 -1508.756)" opacity="0.74" fill="url(#linear-gradient-12)"/>
          <path id="Trazado_173330" data-name="Trazado 173330" d="M1578.21,1751.471l-48.263,1.152a3.114,3.114,0,0,0-2.94,3.171h0a2.924,2.924,0,0,0,2.94,3.018l48.263-1.361a2.966,2.966,0,0,0,2.735-3.062h0A2.786,2.786,0,0,0,1578.21,1751.471Z" transform="translate(-1506.618 -1659.565)" fill="#d8dee8"/>
          <g id="Grupo_116626" data-name="Grupo 116626" transform="translate(9.132 92.726)">
            <path id="Trazado_173331" data-name="Trazado 173331" d="M1382.317,1777.116h-.054a2.874,2.874,0,0,1-2.957-2.9v-.274a3.061,3.061,0,0,1,2.957-3.058h.054a2.875,2.875,0,0,1,2.945,2.9v.273A3.062,3.062,0,0,1,1382.317,1777.116Z" transform="translate(-1378.745 -1770.296)" fill="#b19af3"/>
            <path id="Trazado_173332" data-name="Trazado 173332" d="M1375.106,1770.221a3.514,3.514,0,0,1-3.545-3.61,3.742,3.742,0,0,1,3.545-3.795,3.515,3.515,0,0,1,3.528,3.61A3.744,3.744,0,0,1,1375.106,1770.221Zm0-6.235a2.56,2.56,0,0,0-2.424,2.6,2.4,2.4,0,0,0,2.424,2.47,2.562,2.562,0,0,0,2.416-2.6A2.4,2.4,0,0,0,1375.106,1763.986Z" transform="translate(-1371.561 -1762.816)" fill="#d8dee8"/>
          </g>
          <path id="Trazado_173333" data-name="Trazado 173333" d="M1578.21,1898.57l-48.263,1.523a3.143,3.143,0,0,0-2.94,3.194h0a2.9,2.9,0,0,0,2.94,3l48.263-1.732a2.994,2.994,0,0,0,2.735-3.083h0A2.76,2.76,0,0,0,1578.21,1898.57Z" transform="translate(-1506.618 -1796.011)" fill="#d8dee8"/>
          <g id="Grupo_116627" data-name="Grupo 116627" transform="translate(9.132 103.832)">
            <path id="Trazado_173334" data-name="Trazado 173334" d="M1382.317,1930.471l-.054,0a2.848,2.848,0,0,1-2.957-2.881v-.274a3.089,3.089,0,0,1,2.957-3.081l.054,0a2.849,2.849,0,0,1,2.945,2.882v.273A3.091,3.091,0,0,1,1382.317,1930.471Z" transform="translate(-1378.745 -1923.651)" fill="#b19af3"/>
            <path id="Trazado_173335" data-name="Trazado 173335" d="M1375.106,1923.578a3.482,3.482,0,0,1-3.545-3.583,3.777,3.777,0,0,1,3.545-3.822,3.483,3.483,0,0,1,3.528,3.583A3.779,3.779,0,0,1,1375.106,1923.578Zm0-6.236a2.584,2.584,0,0,0-2.424,2.615,2.382,2.382,0,0,0,2.424,2.451,2.585,2.585,0,0,0,2.416-2.615A2.384,2.384,0,0,0,1375.106,1917.343Z" transform="translate(-1371.561 -1916.172)" fill="#d8dee8"/>
          </g>
          <path id="Trazado_173336" data-name="Trazado 173336" d="M1578.21,2045.667l-48.263,1.9a3.173,3.173,0,0,0-2.94,3.216h0a2.871,2.871,0,0,0,2.94,2.973l48.263-2.1a3.022,3.022,0,0,0,2.735-3.1h0A2.736,2.736,0,0,0,1578.21,2045.667Z" transform="translate(-1506.618 -1932.454)" fill="#d8dee8"/>
          <path id="Trazado_173337" data-name="Trazado 173337" d="M1375.106,2076.932a3.45,3.45,0,0,1-3.545-3.555,3.813,3.813,0,0,1,3.545-3.849,3.452,3.452,0,0,1,3.528,3.556A3.815,3.815,0,0,1,1375.106,2076.932Zm0-6.236a2.609,2.609,0,0,0-2.424,2.634,2.36,2.36,0,0,0,2.424,2.432,2.61,2.61,0,0,0,2.416-2.633A2.362,2.362,0,0,0,1375.106,2070.7Z" transform="translate(-1362.429 -1954.586)" fill="#d8dee8"/>
          <path id="Trazado_173338" data-name="Trazado 173338" d="M1578.21,2192.762l-48.263,2.266a3.2,3.2,0,0,0-2.94,3.239h0a2.845,2.845,0,0,0,2.94,2.951l48.263-2.475a3.051,3.051,0,0,0,2.735-3.125h0A2.71,2.71,0,0,0,1578.21,2192.762Z" transform="translate(-1506.618 -2068.896)" fill="#d8dee8"/>
          <g id="Grupo_116628" data-name="Grupo 116628" transform="translate(9.132 126.044)">
            <path id="Trazado_173339" data-name="Trazado 173339" d="M1382.317,2237.174l-.054,0a2.8,2.8,0,0,1-2.957-2.836v-.273a3.148,3.148,0,0,1,2.957-3.126l.054,0a2.8,2.8,0,0,1,2.945,2.837v.272A3.15,3.15,0,0,1,1382.317,2237.174Z" transform="translate(-1378.745 -2230.352)" fill="#b19af3"/>
            <path id="Trazado_173340" data-name="Trazado 173340" d="M1375.106,2230.283a3.419,3.419,0,0,1-3.545-3.528,3.849,3.849,0,0,1,3.545-3.876,3.42,3.42,0,0,1,3.528,3.529A3.851,3.851,0,0,1,1375.106,2230.283Zm0-6.235a2.633,2.633,0,0,0-2.424,2.652,2.339,2.339,0,0,0,2.424,2.414,2.635,2.635,0,0,0,2.416-2.652A2.34,2.34,0,0,0,1375.106,2224.048Z" transform="translate(-1371.561 -2222.875)" fill="#d8dee8"/>
          </g>
          <g id="Grupo_116632" data-name="Grupo 116632" transform="translate(20.084 18.726)">
            <g id="Grupo_116631" data-name="Grupo 116631" clip-path="url(#clip-path-3)">
              <g id="Grupo_116630" data-name="Grupo 116630" transform="translate(-1.845 -28.128)">
                <g id="Grupo_116629" data-name="Grupo 116629" transform="translate(29.557 33.636)">
                  <path id="Trazado_173341" data-name="Trazado 173341" d="M1905.458,819.294c.2-1.384,2.934-2.391,5.251-2.2,6.34.523,13.046,10.3,11.4,16.718-1.446,5.626-8.742,6.526-8.529,11.026.162,3.421,4.495,5.165,3.973,6.286-.548,1.177-6.047.79-9-2.881-2.786-3.466-2.144-8.417-1.925-10.1.917-7.068,5.268-9.249,4.083-12.983C1909.623,821.737,1905.195,821.123,1905.458,819.294Z" transform="translate(-1905.447 -817.071)" fill="url(#linear-gradient-30)"/>
                </g>
                <path id="Trazado_173342" data-name="Trazado 173342" d="M1497.319,1234.314s21.531-13.4,48.2-.038c0,0-3.4,11.474-23.688,12.23C1500.941,1247.283,1497.319,1234.314,1497.319,1234.314Z" transform="translate(-1497.319 -1164.925)" fill="url(#linear-gradient-31)"/>
                <path id="Trazado_173343" data-name="Trazado 173343" d="M1641.823,1069.848l-.807,6.4a5.718,5.718,0,0,1-3.653,4.717l-6.564,2.365s12.566,6.446,28.454-.005l-7.246-2.687a5.845,5.845,0,0,1-3.547-5.25l-.208-5.464Z" transform="translate(-1621.132 -1017.906)" fill="url(#linear-gradient-32)"/>
                <path id="Trazado_173344" data-name="Trazado 173344" d="M1680.094,829.781c-3.3-.943-5.07-3.819-6.119-5.524-1.758-2.859-4.185-8.775-1.9-12.137,1.014-1.493,1.843-.837,7.93-3.659,3.578-1.658,4.035-2.232,5.357-2.065,3.735.472,5.906,5.793,6.2,6.509.384.94,2.582,6.329-.177,11.377C1689.172,828.328,1684.405,831.012,1680.094,829.781Z" transform="translate(-1658.556 -773.507)" fill="url(#linear-gradient-33)"/>
                <path id="Trazado_173345" data-name="Trazado 173345" d="M1742.117,884.413c0,5.4-3.057,11.186-6.846,11.158-3.809-.029-6.913-5.915-6.913-11.371s3.1-8.375,6.913-8.293C1739.061,875.988,1742.117,879.009,1742.117,884.413Z" transform="translate(-1711.626 -838.008)" fill="url(#linear-gradient-34)"/>
                <path id="Trazado_173346" data-name="Trazado 173346" d="M1709.725,865.664c.657-.03-.291-5.708,2.252-7.25,1.689-1.024,4.621-.04,6.269,1.831,2.6,2.949,1.145,7.13,3.114,8.046,1.25.581,2.919-.6,3.719-1.476,2.5-2.724,2.157-8.554-.8-11.879a8.685,8.685,0,0,0-6.3-2.8,9.734,9.734,0,0,0-9.247,7.375C1708.029,862.613,1709.24,865.685,1709.725,865.664Z" transform="translate(-1693.223 -815.956)" fill="url(#linear-gradient-35)"/>
                <path id="Trazado_173347" data-name="Trazado 173347" d="M1792.029,354.142a1.576,1.576,0,0,1,2.448-.6,4.545,4.545,0,0,1,1.534,3.153c.293,1.953.337,3.9,1.214,5.716a7.324,7.324,0,0,0,7.491,3.859,10.442,10.442,0,0,0,7.453-4.578c1.382-2.024,2.961-6.633-.374-7.87-1.63-.6-2.755.944-3.34,2.34a9.155,9.155,0,0,0-.663,2.654c-.125,1.272,0,3.126-1.431,3.524-.324.09-.186.644.14.553,1.183-.329,1.611-1.537,1.725-2.754.176-1.875.345-4.125,1.768-5.41a1.784,1.784,0,0,1,2.745.523,3.841,3.841,0,0,1,.378,3.159,9.8,9.8,0,0,1-2.515,4.336,9.233,9.233,0,0,1-8.6,2.789,6.3,6.3,0,0,1-4.1-2.98c-.977-1.734-1.081-3.686-1.327-5.615-.194-1.524-.675-3.262-2.084-4.035a2.042,2.042,0,0,0-2.927.929c-.134.33.329.644.464.311Z" transform="translate(-1770.233 -352.621)" fill="url(#linear-gradient-36)"/>
                <path id="Trazado_173348" data-name="Trazado 173348" d="M2409.264,467.908c-.127-.328-.551-.065-.425.26,2.006,5.188-.887,15.038-7.113,13.256-2.566-.734-3.56-3.731-4.051-6.309-.549-2.887-.749-5.9-1.007-8.822-.172-1.955-.452-4.411-2.072-5.658a2.518,2.518,0,0,0-3.82.623.265.265,0,0,0,.437.3,2,2,0,0,1,2.789-.685,4.557,4.557,0,0,1,1.84,3.051,45.207,45.207,0,0,1,.678,5.836,31.958,31.958,0,0,0,1.443,8.317c.917,2.412,2.653,4.052,5.054,4.073,2.849.026,4.794-2,5.866-4.76A13.76,13.76,0,0,0,2409.264,467.908Z" transform="translate(-2326.028 -452.244)" fill="url(#linear-gradient-37)"/>
                <path id="Trazado_173349" data-name="Trazado 173349" d="M2511.855,967.739c-.883-1.859-3.13-3.949-5.013-2.473-2.274,1.783-1.072,5.375-1.032,7.907a5.771,5.771,0,0,1-.8,3.518c-.984,1.2-2.725-.267-2.976-1.523-.521-2.6,1.642-4.948,2.368-7.209.033-.1-.114-.174-.158-.077-.878,1.945-2.221,3.755-2.629,5.938-.336,1.8.716,4,2.613,3.819,1.689-.165,1.933-2.775,1.914-4.231-.018-1.438-.36-2.849-.4-4.286-.053-1.7.686-4.35,2.679-3.629,2.31.836,3.147,4.032,3.019,6.446a12.242,12.242,0,0,1-2.483,6.651c-1.474,1.92-3.5,3.253-5.85,3.035-2.444-.227-3.785-2.591-4.49-4.971-.628-2.118-1.866-10.577-5.152-6.988-.077.084.042.218.119.134.719-.779,1.66-1.285,2.43-.265a7.6,7.6,0,0,1,1.007,2.889c.448,2.082.478,4.217,1.2,6.229.816,2.266,2.362,4.012,4.591,4.351a7.2,7.2,0,0,0,6.071-2.264C2511.939,977.738,2513.906,972.054,2511.855,967.739Z" transform="translate(-2421.293 -920.434)" fill="url(#linear-gradient-38)"/>
                <path id="Trazado_173350" data-name="Trazado 173350" d="M2557.192,1128.309c-1.688.237-2.125,2.388-2.263,3.988a31.412,31.412,0,0,0,.167,5.8c.025.247.054.5.084.767a6.944,6.944,0,0,1-3.015.72,10.335,10.335,0,0,1-3.741-.957,8.151,8.151,0,0,0-3.854-.79,6.311,6.311,0,0,0-3.217,1.675c-1.723,1.509-3.966,4.6-2.5,7.14a2.089,2.089,0,0,0,2.741.893c1.092-.5,1.768-1.739,2.588-2.62.093-.1-.028-.282-.139-.2-.894.659-1.566,1.78-2.608,2.176-1.441.549-2.4-.825-2.273-2.334a6.649,6.649,0,0,1,2.052-3.8,5.862,5.862,0,0,1,3.657-2.059,5.95,5.95,0,0,1,1.995.3c-.984,1.471-.935,3.77-1.365,5.471a15.4,15.4,0,0,1-2.869,5.889,24.1,24.1,0,0,1-3.106,3.287,6.921,6.921,0,0,1-3.644,1.978c-1.934.134-2.164-2.138-2.544-3.709a.213.213,0,0,0-.42.067c-.057,1.433.473,3.42,1.748,4.051,1.126.557,2.426-.017,3.43-.646a17.887,17.887,0,0,0,3.729-3.315,17.257,17.257,0,0,0,3.072-4.522,18.17,18.17,0,0,0,1.26-4.4c.212-1.349.145-2.933.867-4.1.683.222,1.355.516,2.031.792a59.375,59.375,0,0,1-3.39,10.037c-1.071,2.367-2.158,4.948-4.177,6.474a.279.279,0,0,0-.494.194.938.938,0,0,0,.1.472.288.288,0,0,0,.34.151,5.808,5.808,0,0,0,2.489-2.494,30.085,30.085,0,0,0,2.091-4.189,44.948,44.948,0,0,0,1.78-4.54c.614-1.971,1.01-4,1.514-6a8.1,8.1,0,0,0,2.751.681,7.674,7.674,0,0,0,3.24-.637c.258,2.521.337,5.353-1.565,6.951a2.264,2.264,0,0,1-2.385.472c.37-1.42.746-2.838,1.158-4.242a.2.2,0,1,0-.383-.118q-.639,2.05-1.25,4.113a3.6,3.6,0,0,1-.912-.87,40.026,40.026,0,0,0,1.521-4.833.143.143,0,1,0-.273-.085c-.467,1.48-1,2.948-1.587,4.393a4.773,4.773,0,0,1-.586-2.046.279.279,0,1,0-.557,0,5.355,5.355,0,0,0,.7,3.119q-.5,1.19-1.043,2.353a46.35,46.35,0,0,0-3.023,6.725c-.1.357.4.6.546.252,1.271-2.948,2.688-5.834,3.886-8.813a3.554,3.554,0,0,0,1.022.846q-.24.83-.475,1.663c-.637,2.267-1.434,4.559-1.881,6.885-.052.272.3.476.423.195a51.157,51.157,0,0,0,1.983-6.739q.237-.89.466-1.781c.06.02.118.044.179.061,2.041.577,3.883-1.053,4.615-3.115a13.125,13.125,0,0,0,.3-5.83,8.416,8.416,0,0,0,4.184-6.7C2560.54,1130.789,2559.385,1128,2557.192,1128.309Zm2.154,4.7a7.44,7.44,0,0,1-3.292,5.355c-.044-.421-.085-.84-.114-1.254a20.946,20.946,0,0,1,.109-6.009c.222-.966.759-2.02,1.807-1.649C2559.176,1129.917,2559.491,1131.675,2559.346,1133.006Z" transform="translate(-2457.915 -1072.111)" fill="url(#linear-gradient-39)"/>
              </g>
            </g>
          </g>
          <path id="Trazado_173352" data-name="Trazado 173352" d="M1318.408,619.42c-1.308-16.855,8.5-23.826,4.761-39.089-4.624-18.878-22.436-19.708-28.512-38.259-2.233-6.818-3.172-16.979,2.635-31.571l-24.382-.955a1.283,1.283,0,0,0-1.316,1.317V658.6a1.246,1.246,0,0,0,1.316,1.284l66.609-4.284C1323.779,642.083,1319.179,629.35,1318.408,619.42Z" transform="translate(-1269.701 -507.582)" fill="#fff" opacity="0.35" style="mix-blend-mode: soft-light;isolation: isolate"/>
        </g>
        <g id="Grupo_116642" data-name="Grupo 116642" transform="translate(2.054)">
          <path id="Trazado_173353" data-name="Trazado 173353" d="M1325.666,485.562l-76.986-3.119a3.12,3.12,0,0,0-3.208,3.206V633.581a3.029,3.029,0,0,0,3.208,3.126l76.986-5.056a3.265,3.265,0,0,0,2.865-3.334V488.824A3.166,3.166,0,0,0,1325.666,485.562Z" transform="translate(-1245.472 -482.441)" fill="#d8dee8"/>
          <g id="Grupo_116634" data-name="Grupo 116634" opacity="0.3" style="mix-blend-mode: multiply;isolation: isolate">
            <path id="Trazado_173354" data-name="Trazado 173354" d="M1294.179,594.279c-1.308-16.855,8.5-23.826,4.761-39.089-4.624-18.878-22.436-19.708-28.512-38.259-2.33-7.112-3.25-17.858,3.417-33.468l-25.165-1.019a3.12,3.12,0,0,0-3.208,3.206V633.581a3.029,3.029,0,0,0,3.208,3.126l68.685-4.511C1299.953,618.043,1294.982,604.637,1294.179,594.279Z" transform="translate(-1245.472 -482.441)" fill="#d8dee8"/>
          </g>
          <path id="Trazado_173355" data-name="Trazado 173355" d="M1349.9,512.561l-76.986-3.015a1.283,1.283,0,0,0-1.316,1.317V658.6a1.246,1.246,0,0,0,1.316,1.284l76.986-4.952a1.342,1.342,0,0,0,1.178-1.37V513.9A1.3,1.3,0,0,0,1349.9,512.561Z" transform="translate(-1269.701 -507.582)" fill="url(#linear-gradient-28)"/>
          <path id="Trazado_173356" data-name="Trazado 173356" d="M1498.142,743.622c-14.414.116-26.359-12.43-26.359-27.969s11.945-27.81,26.359-27.362c14.125.439,25.411,12.978,25.411,27.958S1512.267,743.508,1498.142,743.622Z" transform="translate(-1455.393 -673.372)" fill="#d8dee8"/>
          <path id="Trazado_173357" data-name="Trazado 173357" d="M1545.516,740.688c0,13.987-10.507,25.4-23.688,25.485-13.432.09-24.51-11.568-24.51-26.04s11.078-25.875,24.51-25.476C1535.01,715.049,1545.516,726.7,1545.516,740.688Z" transform="translate(-1479.08 -697.831)" fill="#fff"/>
          <path id="Trazado_173358" data-name="Trazado 173358" d="M1441.207,1588.886l-58.916.905a3.115,3.115,0,0,0-2.984,3.17h0a2.986,2.986,0,0,0,2.984,3.065l58.916-1.16a2.936,2.936,0,0,0,2.734-3.038h0A2.814,2.814,0,0,0,1441.207,1588.886Z" transform="translate(-1369.615 -1508.756)" fill="#a0a5e9" opacity="0.74"/>
          <path id="Trazado_173359" data-name="Trazado 173359" d="M1578.21,1751.471l-48.263,1.152a3.114,3.114,0,0,0-2.94,3.171h0a2.924,2.924,0,0,0,2.94,3.018l48.263-1.361a2.966,2.966,0,0,0,2.735-3.062h0A2.786,2.786,0,0,0,1578.21,1751.471Z" transform="translate(-1506.618 -1659.565)" fill="#d8dee8"/>
          <g id="Grupo_116635" data-name="Grupo 116635" transform="translate(9.132 92.726)">
            <path id="Trazado_173360" data-name="Trazado 173360" d="M1382.317,1777.116h-.054a2.874,2.874,0,0,1-2.957-2.9v-.274a3.061,3.061,0,0,1,2.957-3.058h.054a2.875,2.875,0,0,1,2.945,2.9v.273A3.062,3.062,0,0,1,1382.317,1777.116Z" transform="translate(-1378.745 -1770.296)" fill="#a0a5e9"/>
            <path id="Trazado_173361" data-name="Trazado 173361" d="M1375.106,1770.221a3.514,3.514,0,0,1-3.545-3.61,3.742,3.742,0,0,1,3.545-3.795,3.515,3.515,0,0,1,3.528,3.61A3.744,3.744,0,0,1,1375.106,1770.221Zm0-6.235a2.56,2.56,0,0,0-2.424,2.6,2.4,2.4,0,0,0,2.424,2.47,2.562,2.562,0,0,0,2.416-2.6A2.4,2.4,0,0,0,1375.106,1763.986Z" transform="translate(-1371.561 -1762.816)" fill="#d8dee8"/>
          </g>
          <path id="Trazado_173362" data-name="Trazado 173362" d="M1578.21,1898.57l-48.263,1.523a3.143,3.143,0,0,0-2.94,3.194h0a2.9,2.9,0,0,0,2.94,3l48.263-1.732a2.994,2.994,0,0,0,2.735-3.083h0A2.76,2.76,0,0,0,1578.21,1898.57Z" transform="translate(-1506.618 -1796.011)" fill="#d8dee8"/>
          <g id="Grupo_116636" data-name="Grupo 116636" transform="translate(9.132 103.832)">
            <path id="Trazado_173363" data-name="Trazado 173363" d="M1382.317,1930.471l-.054,0a2.848,2.848,0,0,1-2.957-2.881v-.274a3.089,3.089,0,0,1,2.957-3.081l.054,0a2.849,2.849,0,0,1,2.945,2.882v.273A3.091,3.091,0,0,1,1382.317,1930.471Z" transform="translate(-1378.745 -1923.651)" fill="#a0a5e9"/>
            <path id="Trazado_173364" data-name="Trazado 173364" d="M1375.106,1923.578a3.482,3.482,0,0,1-3.545-3.583,3.777,3.777,0,0,1,3.545-3.822,3.483,3.483,0,0,1,3.528,3.583A3.779,3.779,0,0,1,1375.106,1923.578Zm0-6.236a2.584,2.584,0,0,0-2.424,2.615,2.382,2.382,0,0,0,2.424,2.451,2.585,2.585,0,0,0,2.416-2.615A2.384,2.384,0,0,0,1375.106,1917.343Z" transform="translate(-1371.561 -1916.172)" fill="#d8dee8"/>
          </g>
          <path id="Trazado_173365" data-name="Trazado 173365" d="M1578.21,2045.667l-48.263,1.9a3.173,3.173,0,0,0-2.94,3.216h0a2.871,2.871,0,0,0,2.94,2.973l48.263-2.1a3.022,3.022,0,0,0,2.735-3.1h0A2.736,2.736,0,0,0,1578.21,2045.667Z" transform="translate(-1506.618 -1932.454)" fill="#d8dee8"/>
          <path id="Trazado_173366" data-name="Trazado 173366" d="M1375.106,2076.932a3.45,3.45,0,0,1-3.545-3.555,3.813,3.813,0,0,1,3.545-3.849,3.452,3.452,0,0,1,3.528,3.556A3.815,3.815,0,0,1,1375.106,2076.932Zm0-6.236a2.609,2.609,0,0,0-2.424,2.634,2.36,2.36,0,0,0,2.424,2.432,2.61,2.61,0,0,0,2.416-2.633A2.362,2.362,0,0,0,1375.106,2070.7Z" transform="translate(-1362.429 -1954.586)" fill="#d8dee8"/>
          <path id="Trazado_173367" data-name="Trazado 173367" d="M1578.21,2192.762l-48.263,2.266a3.2,3.2,0,0,0-2.94,3.239h0a2.845,2.845,0,0,0,2.94,2.951l48.263-2.475a3.051,3.051,0,0,0,2.735-3.125h0A2.71,2.71,0,0,0,1578.21,2192.762Z" transform="translate(-1506.618 -2068.896)" fill="#d8dee8"/>
          <g id="Grupo_116637" data-name="Grupo 116637" transform="translate(9.132 126.044)">
            <path id="Trazado_173368" data-name="Trazado 173368" d="M1382.317,2237.174l-.054,0a2.8,2.8,0,0,1-2.957-2.836v-.273a3.148,3.148,0,0,1,2.957-3.126l.054,0a2.8,2.8,0,0,1,2.945,2.837v.272A3.15,3.15,0,0,1,1382.317,2237.174Z" transform="translate(-1378.745 -2230.352)" fill="#a0a5e9"/>
            <path id="Trazado_173369" data-name="Trazado 173369" d="M1375.106,2230.283a3.419,3.419,0,0,1-3.545-3.528,3.849,3.849,0,0,1,3.545-3.876,3.42,3.42,0,0,1,3.528,3.529A3.851,3.851,0,0,1,1375.106,2230.283Zm0-6.235a2.633,2.633,0,0,0-2.424,2.652,2.339,2.339,0,0,0,2.424,2.414,2.635,2.635,0,0,0,2.416-2.652A2.34,2.34,0,0,0,1375.106,2224.048Z" transform="translate(-1371.561 -2222.875)" fill="#d8dee8"/>
          </g>
          <g id="Grupo_116641" data-name="Grupo 116641" transform="translate(20.084 18.726)">
            <g id="Grupo_116640" data-name="Grupo 116640" clip-path="url(#clip-path-3)">
              <g id="Grupo_116639" data-name="Grupo 116639" transform="translate(-1.845 4.733)">
                <g id="Grupo_116638" data-name="Grupo 116638" transform="translate(6.654 4.832)">
                  <path id="Trazado_173370" data-name="Trazado 173370" d="M1596.057,874c3.9-3.3,14.051,3.288,15.034,3.938.547.361,13.382,8.99,11.4,16.718-1.446,5.626-8.742,6.526-8.529,11.026.162,3.421,4.5,5.165,3.973,6.286-.4.855-4.6-1.307-9-2.88-11.749-4.2-18.173-1.938-19.553-5.264-1.15-2.772,3.244-4.51,5.479-11.414C1597.905,883,1592.8,876.755,1596.057,874Z" transform="translate(-1589.192 -873.082)" fill="#12263f"/>
                </g>
                <path id="Trazado_173371" data-name="Trazado 173371" d="M1497.319,1234.314s21.531-13.4,48.2-.038c0,0-3.4,11.474-23.688,12.23C1500.941,1247.283,1497.319,1234.314,1497.319,1234.314Z" transform="translate(-1497.319 -1197.786)" fill="#3d46c2"/>
                <path id="Trazado_173372" data-name="Trazado 173372" d="M1641.823,1069.848l-.807,6.4a5.718,5.718,0,0,1-3.653,4.717l-6.564,2.365s12.566,6.446,28.454-.005l-7.246-2.687a5.845,5.845,0,0,1-3.547-5.25l-.208-5.464Z" transform="translate(-1621.132 -1050.766)" fill="url(#linear-gradient-32)"/>
                <path id="Trazado_173373" data-name="Trazado 173373" d="M1680.094,829.781c-3.3-.943-5.07-3.819-6.119-5.524-1.758-2.859-4.185-8.775-1.9-12.137,1.014-1.493,1.843-.837,7.93-3.659,3.578-1.658,4.035-2.232,5.357-2.065,3.735.472,5.906,5.793,6.2,6.509.384.94,2.582,6.329-.177,11.377C1689.172,828.328,1684.405,831.012,1680.094,829.781Z" transform="translate(-1658.556 -806.368)" fill="#12263f"/>
                <path id="Trazado_173374" data-name="Trazado 173374" d="M1742.117,884.413c0,5.4-3.057,11.186-6.846,11.158-3.809-.029-6.913-5.915-6.913-11.371s3.1-8.375,6.913-8.293C1739.061,875.988,1742.117,879.009,1742.117,884.413Z" transform="translate(-1711.626 -870.869)" fill="url(#linear-gradient-34)"/>
                <path id="Trazado_173375" data-name="Trazado 173375" d="M1709.725,865.664c.657-.03-.291-5.708,2.252-7.25,1.689-1.024,4.621-.04,6.269,1.831,2.6,2.949,1.145,7.13,3.114,8.046,1.25.581,2.919-.6,3.719-1.476,2.5-2.724,2.157-8.554-.8-11.879a8.685,8.685,0,0,0-6.3-2.8,9.734,9.734,0,0,0-9.247,7.375C1708.029,862.613,1709.24,865.685,1709.725,865.664Z" transform="translate(-1693.223 -848.817)" fill="#12263f"/>
              </g>
            </g>
          </g>
        </g>
        <path id="Trazado_173378" data-name="Trazado 173378" d="M2102.907,534.317l-7.047-5.587-7.12,5.246V516.349a4.687,4.687,0,0,0-1.679-3.582l-.055-.046,13.437.528a2.629,2.629,0,0,1,2.464,2.645Z" transform="translate(-2024.007 -510.528)" fill="#d8dee8" style="mix-blend-mode: multiply;isolation: isolate"/>
        <path id="Trazado_173379" data-name="Trazado 173379" d="M2120.716,518.141l-7.047-5.913-7.12,5.553V499.122a5.086,5.086,0,0,0-1.679-3.791l-.055-.049,13.437.558a2.722,2.722,0,0,1,2.464,2.8Z" transform="translate(-2040.526 -494.352)" fill="#dce736"/>
      </g>
    </g>
    <g id="Grupo_116646" data-name="Grupo 116646" transform="translate(542.107 488.977)">
      <path id="Trazado_173380" data-name="Trazado 173380" d="M2575.445,3025.257a8.7,8.7,0,0,1,.059,1.909c-.121.479-4.279.826-5.691.659s.841-1.608,1.74-1.879S2575.445,3025.257,2575.445,3025.257Z" transform="translate(-2549.939 -2911.625)" fill="url(#linear-gradient-12)"/>
      <path id="Trazado_173381" data-name="Trazado 173381" d="M2624.48,2990.669l.438,2.87s1.118.5,1.655.006l.059-3Z" transform="translate(-2601.067 -2879.422)" fill="url(#linear-gradient-44)"/>
      <path id="Trazado_173382" data-name="Trazado 173382" d="M2939.381,2988.109s-.882.655-.647,1.439a13.789,13.789,0,0,0,3.762,4.818c1.467.892,1.007-.966.58-2.123a22.222,22.222,0,0,0-1.943-4.134C2940.707,2987.682,2939.381,2988.109,2939.381,2988.109Z" transform="translate(-2892.526 -2876.99)" fill="url(#linear-gradient-12)"/>
      <path id="Trazado_173383" data-name="Trazado 173383" d="M2926.265,2947.01c.427,1.189.836,2.167,1.157,2.887a10.31,10.31,0,0,0,1.538,2.713c.383.452,1.29,1.416,1.534,1.256s-.416-1.335-1.695-4.77c-.186-.5-.773-2.086-.773-2.086h-1.761Z" transform="translate(-2880.996 -2839.043)" fill="url(#linear-gradient-44)"/>
      <path id="Trazado_173384" data-name="Trazado 173384" d="M2499.344,2259.957a74.26,74.26,0,0,0-.16,13.256c.569,7.334,2.035,11.975,3.875,19.8,1.124,4.779,2.638,11.813,4.008,20.61a3.87,3.87,0,0,0,2.458.482,3.73,3.73,0,0,0,1.477-.561c3.6-10.988,2.534-17.8.8-22.04a23.75,23.75,0,0,1-2.116-6.015c-.634-3.677.15-5.734,1.269-14.252.8-6.072.659-7.011.129-7.921C2508.962,2259.67,2502.477,2259.741,2499.344,2259.957Z" transform="translate(-2484.64 -2201.67)" fill="#3d46c2"/>
      <path id="Trazado_173385" data-name="Trazado 173385" d="M2675.14,2278.675c2.2,11.376,4.365,17.351,6,20.731a56.71,56.71,0,0,1,3.022,7.377,60.149,60.149,0,0,1,1.836,7.027c.76,3.487,2.637,8.579,7.688,15.258a1.918,1.918,0,0,0,1.747.09,1.689,1.689,0,0,0,.707-.734c-.66-6.385-1.418-11.75-2.076-15.891-.138-.868-.746-4.668-1.7-9.688-.374-1.965-.92-4.844-1.575-7.8-.815-3.682-2.066-8.691-3.993-14.693Z" transform="translate(-2648.058 -2219.11)" fill="#3d46c2"/>
      <path id="Trazado_173386" data-name="Trazado 173386" d="M2577.54,1470.765c-1.25-1.155-3.639-2.486-4.838-5.581-.361-.931-1.639-4.232.247-6.757a5.39,5.39,0,0,1,5.031-2.156c1.566.308,1.811,1.4,4.472,3.594a18.812,18.812,0,0,0,4.553,2.991c3.175,1.308,5.082.077,8.269.218,3.916.173,8.463,2.358,10.655,5.535,3.889,5.639-1.745,11.361,2.516,17.967,1.4,2.165,2.083,1.679,5.39,5.869s4.966,6.293,4.671,8.864c-.409,3.568-4.251,6.976-7.87,7.208-3.535.227-5.782-2.555-7.582-1.338-1.281.866-.549,2.55-1.909,4.573-1.754,2.609-5.2,3.129-5.757,3.212-5.167.78-12.134-5.279-15.092-12.457C2574.959,1489.563,2584.332,1477.043,2577.54,1470.765Z" transform="translate(-2552.334 -1456.199)" fill="url(#linear-gradient-47)"/>
      <path id="Trazado_173387" data-name="Trazado 173387" d="M2356.475,1601.522c-.035-3.613,8.172-6.5,11.928-7.43a26.577,26.577,0,0,1,11.656-.3,26.033,26.033,0,0,1,13.531,7.753,18.257,18.257,0,0,0-7.169,8.959c-.595,1.64-2.351,7.247.161,12.5,1.447,3.026,4.008,5.3,5.953,7.023,2.917,2.588,4.428,2.986,5.406,5.3,1.065,2.525-.008,3.756,1.314,5.484,1.421,1.856,3.085.993,5.493,2.871,2.466,1.923,1.589,3.505,3.833,5.63,3.261,3.087,7.584,2.084,7.786,3.474.173,1.195-2.9,2.816-5.51,3.473a16.157,16.157,0,0,1-11.02-1.557c-3.712-1.865-3.071-3.072-5.9-4.494-4.74-2.381-7.979.269-18.773.541-5.846.148-8.8.181-10.421-1.8-1.479-1.806-.7-3.788.187-12.328.422-4.065.574-8.153.886-12.228.881-11.526.908-12.54.126-14.134C2363.137,1604.558,2356.506,1604.765,2356.475,1601.522Z" transform="translate(-2352.471 -1583.363)" fill="#ff9085"/>
      <g id="Grupo_116645" data-name="Grupo 116645" transform="translate(24.897 17.699)" opacity="0.3" style="mix-blend-mode: multiply;isolation: isolate">
        <path id="Trazado_173388" data-name="Trazado 173388" d="M2676.184,1748.848c-2.244-2.125-1.366-3.707-3.833-5.63-2.408-1.877-4.072-1.014-5.493-2.871-1.322-1.728-.249-2.959-1.314-5.484-.978-2.318-2.489-2.716-5.405-5.3-1.945-1.726-4.506-4-5.954-7.023-2.513-5.251-.755-10.857-.161-12.5a18.256,18.256,0,0,1,7.168-8.96c-.134-.145-.293-.31-.463-.484-9.214,1.266-14.585,6.59-15.25,8.166-1.536,3.644.9,4.983.958,15.492.03,5.023-.511,7.007,1.118,9.1,1.864,2.4,4.012,1.656,6.708,4.791,2.071,2.409,1.739,3.936,3.673,4.951,2.079,1.091,3.4-.181,5.749.319,3.918.836,4.756,5.354,7.347,7.826,1.959,1.869,5.581,3.176,12.723,1.773a.992.992,0,0,0,.213-.7C2683.768,1750.933,2679.445,1751.935,2676.184,1748.848Z" transform="translate(-2644.972 -1700.595)" fill="#ff9085"/>
      </g>
      <path id="Trazado_173389" data-name="Trazado 173389" d="M2688.845,1637.872c-.979,2.08,3.521,6.924,8.523,9.224,1.019.469,8.338,3.834,11.6.6,2.7-2.674.956-8.2.335-10.177-3.05-9.693-12.415-14.624-16.34-16.4-2.929,7.324-1.2,10.588-.525,11.607a39.023,39.023,0,0,0,4.792,5.271c1.479,1.385,2.4,2.06,2.275,2.276-.154.269-1.887-.239-8.621-3.516A2.618,2.618,0,0,0,2688.845,1637.872Z" transform="translate(-2660.646 -1609.171)" fill="#ff9085"/>
      <path id="Trazado_173390" data-name="Trazado 173390" d="M2301.221,1666.787l3.3,16.452a1.351,1.351,0,0,0,1.041,1.054l24.633,5.287a1.35,1.35,0,0,0,1.629-1.424l-1.3-16.732a1.348,1.348,0,0,0-1.022-1.206c-3.908-.965-18.947-4.576-26.88-5.046A1.35,1.35,0,0,0,2301.221,1666.787Z" transform="translate(-2301.194 -1650.035)" fill="#3d46c2"/>
      <path id="Trazado_173391" data-name="Trazado 173391" d="M2549.174,1521.592s.465,3.715,1.836,4.566,3.587,1.962,3.831,2.264-8.493,1.241-12.823-.944h0c1.427-.3,1.815-.407,1.815-.407a8.015,8.015,0,0,0,1.834-.726,6.231,6.231,0,0,0,2.016-1.865l-.016-2.057Z" transform="translate(-2524.577 -1516.856)" fill="url(#linear-gradient-48)"/>
      <path id="Trazado_173392" data-name="Trazado 173392" d="M2605.86,1495.991a2.057,2.057,0,0,1-2.3.716c-1.255-.458-.506-3.7.49-4.069a1.762,1.762,0,0,1,1.35.185,1.954,1.954,0,0,1,.613,2.2c.317-.092.6-.008.666.149.089.2-.18.47-.24.532A1.065,1.065,0,0,1,2605.86,1495.991Z" transform="translate(-2581.054 -1489.939)" fill="url(#linear-gradient-49)"/>
      <path id="Trazado_173393" data-name="Trazado 173393" d="M2323.4,1681.011c-2.646-.746-4.839,1.106-6.947-.359-2.159-1.5-.75-4.066-2.995-6.588-2.4-2.7-5.444-1.376-7.666-3.833a7.054,7.054,0,0,1-1.578-4.934c-.557-.054-1.09-.1-1.594-.126a1.35,1.35,0,0,0-1.4,1.615l3.3,16.452a1.349,1.349,0,0,0,1.041,1.054l23.673,5.08C2327.567,1683.509,2325.337,1681.556,2323.4,1681.011Z" transform="translate(-2301.194 -1650.034)" opacity="0.3" fill="url(#linear-gradient-3)" style="mix-blend-mode: multiply;isolation: isolate"/>
      <path id="Trazado_173394" data-name="Trazado 173394" d="M2302.954,1723.535a5.894,5.894,0,0,1-1.742-3.139,3.256,3.256,0,0,1,2.164-3.381c1.148-.344,1.762.163.991,1.825S2302.371,1721.579,2302.954,1723.535Z" transform="translate(-2301.195 -1698.031)" fill="url(#linear-gradient-51)"/>
    </g>
  </g>
</svg>
