<svg xmlns="http://www.w3.org/2000/svg" width="1244.581" height="668.248" viewBox="0 0 1244.581 668.248">
  <g id="Grupo_118246" data-name="Grupo 118246" transform="translate(-176.909 -374.982)">
    <rect id="Rectángulo_42717" data-name="Rectángulo 42717" width="266" height="115" rx="12" transform="translate(668.007 656)" fill="#3d46c2"/>
    <text id="Evaluación_capacitación_y_permanencia_del_talento_humano" data-name="Evaluación, capacitación
y permanencia
del talento humano" transform="translate(801.007 695.5)" fill="#fff" font-size="18" font-family="Roboto-Bold, Roboto" font-weight="700"><tspan x="-99.716" y="0">Evaluación, capacitación</tspan><tspan x="-59.44" y="24">y permanencia</tspan><tspan x="-77.779" y="48">del talento humano</tspan></text>
    <g id="Rectángulo_42718" data-name="Rectángulo 42718" transform="translate(380 418)" fill="#bae887" stroke="#77b43a" stroke-width="1">
      <rect width="178" height="78" rx="12" stroke="none"/>
      <rect x="0.5" y="0.5" width="177" height="77" rx="11.5" fill="none"/>
    </g>
    <g id="Rectángulo_42719" data-name="Rectángulo 42719" transform="translate(379 670)" fill="#bae887" stroke="#77b43a" stroke-width="1">
      <rect width="178" height="78" rx="12" stroke="none"/>
      <rect x="0.5" y="0.5" width="177" height="77" rx="11.5" fill="none"/>
    </g>
    <g id="Rectángulo_42720" data-name="Rectángulo 42720" transform="translate(380 939)" fill="#bae887" stroke="#77b43a" stroke-width="1">
      <rect width="178" height="78" rx="12" stroke="none"/>
      <rect x="0.5" y="0.5" width="177" height="77" rx="11.5" fill="none"/>
    </g>
    <g id="Rectángulo_42721" data-name="Rectángulo 42721" transform="translate(1040.795 861)" fill="#bae887" stroke="#77b43a" stroke-width="1">
      <rect width="178" height="78" rx="12" stroke="none"/>
      <rect x="0.5" y="0.5" width="177" height="77" rx="11.5" fill="none"/>
    </g>
    <g id="Rectángulo_42722" data-name="Rectángulo 42722" transform="translate(1041.445 487.71)" fill="#bae887" stroke="#77b43a" stroke-width="1">
      <rect width="178" height="78" rx="12" stroke="none"/>
      <rect x="0.5" y="0.5" width="177" height="77" rx="11.5" fill="none"/>
    </g>
    <text id="Evaluación" transform="translate(468 462.5)" fill="#14263e" font-size="16" font-family="Roboto-Bold, Roboto" font-weight="700"><tspan x="-38.855" y="0">Evaluación</tspan></text>
    <text id="Capacitación" transform="translate(1130.445 532.21)" fill="#14263e" font-size="16" font-family="Roboto-Bold, Roboto" font-weight="700"><tspan x="-46.898" y="0">Capacitación</tspan></text>
    <text id="Bienestar_y_calidad_de_vida" data-name="Bienestar y calidad
de vida" transform="translate(468 705)" fill="#14263e" font-size="16" font-family="Roboto-Bold, Roboto" font-weight="700"><tspan x="-68.387" y="0">Bienestar y calidad</tspan><tspan x="-25.785" y="21">de vida</tspan></text>
    <text id="Comunicación_empresarial" data-name="Comunicación
empresarial" transform="translate(1129.795 896)" fill="#14263e" font-size="16" font-family="Roboto-Bold, Roboto" font-weight="700"><tspan x="-51.52" y="0">Comunicación</tspan><tspan x="-42.848" y="21">empresarial</tspan></text>
    <text id="Salud_ocupacional" data-name="Salud ocupacional" transform="translate(469 984)" fill="#14263e" font-size="16" font-family="Roboto-Bold, Roboto" font-weight="700"><tspan x="-65.977" y="0">Salud ocupacional</tspan></text>
    <path id="Rectángulo_40621" data-name="Rectángulo 40621" d="M190.966,846.62H319.3A4.372,4.372,0,0,1,323.655,851V894.71a4.372,4.372,0,0,1-4.356,4.384H190.966a4.372,4.372,0,0,1-4.356-4.384V851A4.372,4.372,0,0,1,190.966,846.62Z" transform="translate(1096.345 -470.638)" fill="#d1d5fc" stroke="#3e4bbf" stroke-width="2"/>
    <path id="Rectángulo_40621-2" data-name="Rectángulo 40621" d="M190.966,846.62H319.3A4.372,4.372,0,0,1,323.655,851V894.71a4.372,4.372,0,0,1-4.356,4.384H190.966a4.372,4.372,0,0,1-4.356-4.384V851A4.372,4.372,0,0,1,190.966,846.62Z" transform="translate(1096.345 -306.366)" fill="#d1d5fc" stroke="#3e4bbf" stroke-width="2"/>
    <path id="Rectángulo_40621-3" data-name="Rectángulo 40621" d="M190.966,846.62H319.3A4.372,4.372,0,0,1,323.655,851V894.71a4.372,4.372,0,0,1-4.356,4.384H190.966a4.372,4.372,0,0,1-4.356-4.384V851A4.372,4.372,0,0,1,190.966,846.62Z" transform="translate(1096.835 26.624)" fill="#d1d5fc" stroke="#3e4bbf" stroke-width="2"/>
    <path id="Rectángulo_40621-4" data-name="Rectángulo 40621" d="M190.966,846.62H319.3A4.372,4.372,0,0,1,323.655,851V894.71a4.372,4.372,0,0,1-4.356,4.384H190.966a4.372,4.372,0,0,1-4.356-4.384V851A4.372,4.372,0,0,1,190.966,846.62Z" transform="translate(-6.018 59.055)" fill="#d1d5fc" stroke="#3e4bbf" stroke-width="2"/>
    <path id="Rectángulo_40621-5" data-name="Rectángulo 40621" d="M190.966,846.62H319.3A4.372,4.372,0,0,1,323.655,851V894.71a4.372,4.372,0,0,1-4.356,4.384H190.966a4.372,4.372,0,0,1-4.356-4.384V851A4.372,4.372,0,0,1,190.966,846.62Z" transform="translate(-6.61 -457.898)" fill="#d1d5fc" stroke="#3e4bbf" stroke-width="2"/>
    <path id="Rectángulo_40621-6" data-name="Rectángulo 40621" d="M190.966,846.62H319.3c2.4,0,4.356,2.844,4.356,6.349v63.3c0,3.5-1.952,6.349-4.356,6.349H190.966c-2.4,0-4.356-2.844-4.356-6.349v-63.3C186.61,849.465,188.562,846.62,190.966,846.62Z" transform="translate(-8.701 -232.938)" fill="#d1d5fc" stroke="#3e4bbf" stroke-width="2"/>
    <path id="Rectángulo_40621-7" data-name="Rectángulo 40621" d="M190.966,846.62H319.3A4.372,4.372,0,0,1,323.655,851V894.71a4.372,4.372,0,0,1-4.356,4.384H190.966a4.372,4.372,0,0,1-4.356-4.384V851A4.372,4.372,0,0,1,190.966,846.62Z" transform="translate(1096.345 -386.556)" fill="#d1d5fc" stroke="#3e4bbf" stroke-width="2"/>
    <path id="Rectángulo_40621-8" data-name="Rectángulo 40621" d="M190.966,846.62H319.3A4.372,4.372,0,0,1,323.655,851V894.71a4.372,4.372,0,0,1-4.356,4.384H190.966a4.372,4.372,0,0,1-4.356-4.384V851A4.372,4.372,0,0,1,190.966,846.62Z" transform="translate(1096.835 -53.565)" fill="#d1d5fc" stroke="#3e4bbf" stroke-width="2"/>
    <path id="Rectángulo_40621-9" data-name="Rectángulo 40621" d="M190.966,846.62H319.3A4.372,4.372,0,0,1,323.655,851V894.71a4.372,4.372,0,0,1-4.356,4.384H190.966a4.372,4.372,0,0,1-4.356-4.384V851A4.372,4.372,0,0,1,190.966,846.62Z" transform="translate(1096.345 -222.284)" fill="#d1d5fc" stroke="#3e4bbf" stroke-width="2"/>
    <path id="Rectángulo_40621-10" data-name="Rectángulo 40621" d="M190.966,846.62H319.3A4.372,4.372,0,0,1,323.655,851V894.71a4.372,4.372,0,0,1-4.356,4.384H190.966a4.372,4.372,0,0,1-4.356-4.384V851A4.372,4.372,0,0,1,190.966,846.62Z" transform="translate(1096.835 110.706)" fill="#d1d5fc" stroke="#3e4bbf" stroke-width="2"/>
    <path id="Rectángulo_40621-11" data-name="Rectángulo 40621" d="M190.966,846.62H319.3A4.372,4.372,0,0,1,323.655,851V894.71a4.372,4.372,0,0,1-4.356,4.384H190.966a4.372,4.372,0,0,1-4.356-4.384V851A4.372,4.372,0,0,1,190.966,846.62Z" transform="translate(-6.018 143.137)" fill="#d1d5fc" stroke="#3e4bbf" stroke-width="2"/>
    <path id="Rectángulo_40621-12" data-name="Rectángulo 40621" d="M190.966,846.62H319.3A4.372,4.372,0,0,1,323.655,851V894.71a4.372,4.372,0,0,1-4.356,4.384H190.966a4.372,4.372,0,0,1-4.356-4.384V851A4.372,4.372,0,0,1,190.966,846.62Z" transform="translate(-6.61 -373.816)" fill="#d1d5fc" stroke="#3e4bbf" stroke-width="2"/>
    <path id="Rectángulo_40621-13" data-name="Rectángulo 40621" d="M190.966,846.62H319.3A4.372,4.372,0,0,1,323.655,851V894.71a4.372,4.372,0,0,1-4.356,4.384H190.966a4.372,4.372,0,0,1-4.356-4.384V851A4.372,4.372,0,0,1,190.966,846.62Z" transform="translate(-7.146 -115.666)" fill="#d1d5fc" stroke="#3e4bbf" stroke-width="2"/>
    <g id="Grupo_114568" data-name="Grupo 114568" transform="translate(556.853 972.691)">
      <line id="Línea_558" data-name="Línea 558" x1="56.58" transform="translate(2.9 5.348)" fill="none" stroke="#3e4bbf" stroke-miterlimit="10" stroke-width="2"/>
      <path id="Trazado_158597" data-name="Trazado 158597" d="M184.479,393.857V382.24l-5.809,5.809Z" transform="translate(-178.67 -382.24)" fill="#3e4bbf"/>
    </g>
    <g id="Grupo_116151" data-name="Grupo 116151" transform="translate(981.315 894.191)">
      <line id="Línea_558-2" data-name="Línea 558" x2="56.58" transform="translate(0 5.348)" fill="none" stroke="#3e4bbf" stroke-miterlimit="10" stroke-width="2"/>
      <path id="Trazado_158597-2" data-name="Trazado 158597" d="M178.67,393.857V382.24l5.809,5.809Z" transform="translate(-124.999 -382.24)" fill="#3e4bbf"/>
    </g>
    <g id="Grupo_114566" data-name="Grupo 114566" transform="translate(557.202 451.191)">
      <line id="Línea_556" data-name="Línea 556" x1="57.242" transform="translate(2.9 5.348)" fill="none" stroke="#3e4bbf" stroke-miterlimit="10" stroke-width="2"/>
      <path id="Trazado_158597-3" data-name="Trazado 158597" d="M184.479,300.207V288.59L178.67,294.4Z" transform="translate(-178.67 -288.59)" fill="#3e4bbf"/>
    </g>
    <g id="Grupo_116155" data-name="Grupo 116155" transform="translate(1251.445 396.41)">
      <line id="Línea_556-2" data-name="Línea 556" x2="28.609" transform="translate(0 5.348)" fill="none" stroke="#3e4bbf" stroke-miterlimit="10" stroke-width="2"/>
      <path id="Trazado_158597-4" data-name="Trazado 158597" d="M178.67,300.207V288.59l5.809,5.809Z" transform="translate(-152.969 -288.59)" fill="#3e4bbf"/>
    </g>
    <g id="Grupo_116161" data-name="Grupo 116161" transform="translate(1251.445 560.682)">
      <line id="Línea_556-3" data-name="Línea 556" x2="28.609" transform="translate(0 5.348)" fill="none" stroke="#3e4bbf" stroke-miterlimit="10" stroke-width="2"/>
      <path id="Trazado_158597-5" data-name="Trazado 158597" d="M178.67,300.207V288.59l5.809,5.809Z" transform="translate(-152.969 -288.59)" fill="#3e4bbf"/>
    </g>
    <g id="Grupo_116164" data-name="Grupo 116164" transform="translate(1250.795 895.699)">
      <line id="Línea_556-4" data-name="Línea 556" x2="28.609" transform="translate(0 5.348)" fill="none" stroke="#3e4bbf" stroke-miterlimit="10" stroke-width="2"/>
      <path id="Trazado_158597-6" data-name="Trazado 158597" d="M178.67,300.207V288.59l5.809,5.809Z" transform="translate(-152.969 -288.59)" fill="#3e4bbf"/>
    </g>
    <g id="Grupo_116159" data-name="Grupo 116159" transform="translate(317.637 926.103)">
      <line id="Línea_556-5" data-name="Línea 556" x1="28.609" transform="translate(2.9 5.348)" fill="none" stroke="#3e4bbf" stroke-miterlimit="10" stroke-width="2"/>
      <path id="Trazado_158597-7" data-name="Trazado 158597" d="M184.479,300.207V288.59L178.67,294.4Z" transform="translate(-178.67 -288.59)" fill="#3e4bbf"/>
    </g>
    <g id="Grupo_116166" data-name="Grupo 116166" transform="translate(317.045 409.149)">
      <line id="Línea_556-6" data-name="Línea 556" x1="28.609" transform="translate(2.9 5.348)" fill="none" stroke="#3e4bbf" stroke-miterlimit="10" stroke-width="2"/>
      <path id="Trazado_158597-8" data-name="Trazado 158597" d="M184.479,300.207V288.59L178.67,294.4Z" transform="translate(-178.67 -288.59)" fill="#3e4bbf"/>
    </g>
    <g id="Grupo_116157" data-name="Grupo 116157" transform="translate(314.954 645.872)">
      <line id="Línea_556-7" data-name="Línea 556" x1="28.609" transform="translate(2.9 5.348)" fill="none" stroke="#3e4bbf" stroke-miterlimit="10" stroke-width="2"/>
      <path id="Trazado_158597-9" data-name="Trazado 158597" d="M184.479,300.207V288.59L178.67,294.4Z" transform="translate(-178.67 -288.59)" fill="#3e4bbf"/>
    </g>
    <g id="Grupo_116156" data-name="Grupo 116156" transform="translate(1251.445 481.493)">
      <line id="Línea_556-8" data-name="Línea 556" x2="28.609" transform="translate(0 5.348)" fill="none" stroke="#3e4bbf" stroke-miterlimit="10" stroke-width="2"/>
      <path id="Trazado_158597-10" data-name="Trazado 158597" d="M178.67,300.207V288.59l5.809,5.809Z" transform="translate(-152.969 -288.59)" fill="#3e4bbf"/>
    </g>
    <g id="Grupo_116163" data-name="Grupo 116163" transform="translate(1250.795 816.864)">
      <line id="Línea_556-9" data-name="Línea 556" x2="28.609" transform="translate(0 5.347)" fill="none" stroke="#3e4bbf" stroke-miterlimit="10" stroke-width="2"/>
      <path id="Trazado_158597-11" data-name="Trazado 158597" d="M178.67,300.207V288.59l5.809,5.809Z" transform="translate(-152.969 -288.59)" fill="#3e4bbf"/>
    </g>
    <g id="Grupo_116162" data-name="Grupo 116162" transform="translate(1251.445 645.765)">
      <line id="Línea_556-10" data-name="Línea 556" x2="28.609" transform="translate(0 5.348)" fill="none" stroke="#3e4bbf" stroke-miterlimit="10" stroke-width="2"/>
      <path id="Trazado_158597-12" data-name="Trazado 158597" d="M178.67,300.207V288.59l5.809,5.809Z" transform="translate(-152.969 -288.59)" fill="#3e4bbf"/>
    </g>
    <g id="Grupo_116165" data-name="Grupo 116165" transform="translate(1250.795 980.403)">
      <line id="Línea_556-11" data-name="Línea 556" x2="28.609" transform="translate(0 5.347)" fill="none" stroke="#3e4bbf" stroke-miterlimit="10" stroke-width="2"/>
      <path id="Trazado_158597-13" data-name="Trazado 158597" d="M178.67,300.207V288.59l5.809,5.809Z" transform="translate(-152.969 -288.59)" fill="#3e4bbf"/>
    </g>
    <g id="Grupo_116160" data-name="Grupo 116160" transform="translate(317.637 1011.185)">
      <line id="Línea_556-12" data-name="Línea 556" x1="28.609" transform="translate(2.9 5.348)" fill="none" stroke="#3e4bbf" stroke-miterlimit="10" stroke-width="2"/>
      <path id="Trazado_158597-14" data-name="Trazado 158597" d="M184.479,300.207V288.59L178.67,294.4Z" transform="translate(-178.67 -288.59)" fill="#3e4bbf"/>
    </g>
    <g id="Grupo_116167" data-name="Grupo 116167" transform="translate(317.045 494.231)">
      <line id="Línea_556-13" data-name="Línea 556" x1="28.609" transform="translate(2.9 5.348)" fill="none" stroke="#3e4bbf" stroke-miterlimit="10" stroke-width="2"/>
      <path id="Trazado_158597-15" data-name="Trazado 158597" d="M184.479,300.207V288.59L178.67,294.4Z" transform="translate(-178.67 -288.59)" fill="#3e4bbf"/>
    </g>
    <g id="Grupo_116158" data-name="Grupo 116158" transform="translate(316.509 755.144)">
      <line id="Línea_556-14" data-name="Línea 556" x1="27.591" y1="0.009" transform="translate(2.9 5.348)" fill="none" stroke="#3e4bbf" stroke-miterlimit="10" stroke-width="2"/>
      <path id="Trazado_158597-16" data-name="Trazado 158597" d="M184.479,300.207V288.59L178.67,294.4Z" transform="translate(-178.67 -288.59)" fill="#3e4bbf"/>
    </g>
    <g id="Grupo_116154" data-name="Grupo 116154" transform="translate(981.315 520.901)">
      <line id="Línea_556-15" data-name="Línea 556" x2="57.231" transform="translate(0 5.348)" fill="none" stroke="#3e4bbf" stroke-miterlimit="10" stroke-width="2"/>
      <path id="Trazado_158597-17" data-name="Trazado 158597" d="M178.67,300.207V288.59l5.809,5.809Z" transform="translate(-124.348 -288.59)" fill="#3e4bbf"/>
    </g>
    <g id="Grupo_116149" data-name="Grupo 116149" transform="translate(556.202 709)">
      <line id="Línea_556-16" data-name="Línea 556" x1="69.051" transform="translate(2.9 5.348)" fill="none" stroke="#3e4bbf" stroke-miterlimit="10" stroke-width="2"/>
      <path id="Trazado_158597-18" data-name="Trazado 158597" d="M184.479,300.207V288.59L178.67,294.4Z" transform="translate(-178.67 -288.59)" fill="#3e4bbf"/>
    </g>
    <g id="Grupo_116150" data-name="Grupo 116150" transform="translate(627.333 709)">
      <line id="Línea_556-17" data-name="Línea 556" x1="42" transform="translate(0.747 5.348)" fill="none" stroke="#3e4bbf" stroke-miterlimit="10" stroke-width="2"/>
    </g>
    <g id="Grupo_116153" data-name="Grupo 116153" transform="translate(939.315 716.617)">
      <line id="Línea_556-18" data-name="Línea 556" x2="48.235" transform="translate(-6.235)" fill="none" stroke="#3e4bbf" stroke-miterlimit="10" stroke-width="2"/>
    </g>
    <path id="Trazado_172576" data-name="Trazado 172576" d="M-11,0V522.29" transform="translate(627.333 456.21)" fill="none" stroke="#3e4bbf" stroke-width="2"/>
    <path id="Trazado_172578" data-name="Trazado 172578" d="M-11,0V251.257" transform="translate(1262.445 400.316)" fill="none" stroke="#3e4bbf" stroke-width="2"/>
    <path id="Trazado_172581" data-name="Trazado 172581" d="M-11,0V163.54" transform="translate(1262.445 822.672)" fill="none" stroke="#3e4bbf" stroke-width="2"/>
    <path id="Trazado_172580" data-name="Trazado 172580" d="M-11,0V86.985" transform="translate(360.147 930.646)" fill="none" stroke="#3e4bbf" stroke-width="2"/>
    <path id="Trazado_172582" data-name="Trazado 172582" d="M-11,0V86.985" transform="translate(359.554 413.693)" fill="none" stroke="#3e4bbf" stroke-width="2"/>
    <path id="Trazado_172579" data-name="Trazado 172579" d="M-11,0V110.536" transform="translate(357.464 650.416)" fill="none" stroke="#3e4bbf" stroke-width="2"/>
    <path id="Trazado_172577" data-name="Trazado 172577" d="M-11,0V373.29" transform="translate(992.315 526.71)" fill="none" stroke="#3e4bbf" stroke-width="2"/>
    <line id="Línea_581" data-name="Línea 581" x2="32" transform="translate(1219.445 528.519)" fill="none" stroke="#3e4bbf" stroke-width="2"/>
    <line id="Línea_584" data-name="Línea 584" x2="32" transform="translate(1218.795 901)" fill="none" stroke="#3e4bbf" stroke-width="2"/>
    <line id="Línea_583" data-name="Línea 583" x1="32" transform="translate(349.147 976.261)" fill="none" stroke="#3e4bbf" stroke-width="2"/>
    <line id="Línea_585" data-name="Línea 585" x1="32" transform="translate(348.554 459.308)" fill="none" stroke="#3e4bbf" stroke-width="2"/>
    <line id="Línea_582" data-name="Línea 582" x1="32" transform="translate(347 709.03)" fill="none" stroke="#3e4bbf" stroke-width="2"/>
    <text id="Objetivos" transform="translate(1351.478 409.527)" fill="#14263e" font-size="16" font-family="Roboto-Regular, Roboto"><tspan x="-33.195" y="0">Objetivos</tspan></text>
    <text id="Proceso" transform="translate(1351.478 657.072)" fill="#14263e" font-size="16" font-family="Roboto-Regular, Roboto"><tspan x="-29.352" y="0">Proceso</tspan></text>
    <text id="Tipos" transform="translate(1351.968 990.063)" fill="#14263e" font-size="16" font-family="Roboto-Regular, Roboto"><tspan x="-19.891" y="0">Tipos</tspan></text>
    <text id="Técnicas_y_escenarios" data-name="Técnicas y
escenarios" transform="translate(1353.955 562.49)" fill="#14263e" font-size="16" font-family="Roboto-Regular, Roboto"><tspan x="-37.984" y="0">Técnicas y</tspan><tspan x="-38.891" y="21">escenarios</tspan></text>
    <text id="Comunicación_interna" data-name="Comunicación
interna" transform="translate(1351.968 897.508)" fill="#14263e" font-size="16" font-family="Roboto-Regular, Roboto"><tspan x="-51.191" y="0">Comunicación</tspan><tspan x="-24.68" y="21">interna</tspan></text>
    <text id="Factores_laborales" data-name="Factores
laborales" transform="translate(249.115 927.911)" fill="#14263e" font-size="16" font-family="Roboto-Regular, Roboto"><tspan x="-30.996" y="0">Factores</tspan><tspan x="-32.551" y="21">laborales</tspan></text>
    <text id="Métodos_de_evaluación" data-name="Métodos de
evaluación" transform="translate(248.522 410.958)" fill="#14263e" font-size="16" font-family="Roboto-Regular, Roboto"><tspan x="-42.25" y="0">Métodos de</tspan><tspan x="-38.164" y="21">evaluación</tspan></text>
    <text id="Componentes_de_calidad_de_vida" data-name="Componentes 
de calidad
de vida" transform="translate(247.986 638.182)" fill="#14263e" font-size="16" font-family="Roboto-Regular, Roboto"><tspan x="-51.855" y="0">Componentes </tspan><tspan x="-36.527" y="21">de calidad</tspan><tspan x="-25.41" y="42">de vida</tspan></text>
    <text id="Elementos" transform="translate(1353 491.803)" fill="#14263e" font-size="16" font-family="Roboto-Regular, Roboto"><tspan x="-37.613" y="0">Elementos</tspan></text>
    <text id="Comunicación_externa" data-name="Comunicación
externa" transform="translate(1351.49 816.793)" fill="#14263e" font-size="16" font-family="Roboto-Regular, Roboto"><tspan x="-51.191" y="0">Comunicación</tspan><tspan x="-26.527" y="21">externa</tspan></text>
    <text id="Factores_psicosociales" data-name="Factores
psicosociales" transform="translate(249.115 1011.993)" fill="#14263e" font-size="16" font-family="Roboto-Regular, Roboto"><tspan x="-30.996" y="0">Factores</tspan><tspan x="-48.777" y="21">psicosociales</tspan></text>
    <text id="Indicadores_de_gestión" data-name="Indicadores
de gestión" transform="translate(248.522 495.04)" fill="#14263e" font-size="16" font-family="Roboto-Regular, Roboto"><tspan x="-41.727" y="0">Indicadores</tspan><tspan x="-37.113" y="21">de gestión</tspan></text>
    <text id="Programas_de_bienestar" data-name="Programas
de bienestar" transform="translate(247.986 753.19)" fill="#14263e" font-size="16" font-family="Roboto-Regular, Roboto"><tspan x="-39.117" y="0">Programas</tspan><tspan x="-43.848" y="21">de bienestar</tspan></text>
  </g>
</svg>
